<svg xmlns="http://www.w3.org/2000/svg" viewBox="0 0 346.64 436.19"><defs><style>.cls-1,.cls-20{fill:#333;}.cls-1,.cls-14{opacity:0.3;}.cls-2{fill:#263d53;}.cls-14,.cls-3{fill:#fff;}.cls-4{fill:#c4c4c4;}.cls-5{fill:#7c767a;}.cls-6{fill:#656666;}.cls-7{fill:#b28769;}.cls-8{fill:#ba8e70;}.cls-12,.cls-9{fill:#b28566;}.cls-9{opacity:0.8;}.cls-10{fill:#c99877;}.cls-11{fill:#ddb994;}.cls-13{fill:#eacdad;}.cls-15{fill:#10222d;opacity:0.5;}.cls-16{fill:red;}.cls-17{fill:gray;}.cls-18{fill:#1a1a1a;}.cls-19{fill:#e5e5e5;}.cls-21{fill:#991414;}</style></defs><g id="Слой_2" data-name="Слой 2"><g id="Layer_1" data-name="Layer 1"><rect class="cls-1" x="5.57" y="57.1" width="239.88" height="297.6" rx="8.48"/><rect class="cls-2" y="50.9" width="239.88" height="297.6" rx="8.48"/><rect class="cls-3" x="15.43" y="68.08" width="209.6" height="264.8"/><path class="cls-4" d="M186.73,39.17h-21.4a24.09,24.09,0,0,1-21.26-12.58,40.74,40.74,0,0,1-2.72-6.3C137.81,9.55,135.79.72,121.75,0c-14,.72-16.06,9.55-19.6,20.29a39.79,39.79,0,0,1-2.72,6.3A24.09,24.09,0,0,1,78.17,39.17H57.5A12.12,12.12,0,0,0,45.38,51.29V74.05l76.73.32,76.74-.32V51.29A12.12,12.12,0,0,0,186.73,39.17Zm-65-14.45a8.08,8.08,0,1,1,8.08-8.08A8.08,8.08,0,0,1,121.75,24.72Z"/><rect class="cls-5" x="36.23" y="115.41" width="171.52" height="3.37"/><rect class="cls-5" x="61.64" y="105.36" width="146.1" height="3.37"/><rect class="cls-5" x="36.23" y="125.58" width="171.52" height="3.37"/><rect class="cls-5" x="36.23" y="135.75" width="65.42" height="3.37"/><rect class="cls-5" x="36.23" y="145.92" width="171.52" height="3.37"/><rect class="cls-5" x="36.23" y="156.09" width="171.52" height="3.37"/><rect class="cls-5" x="36.23" y="166.25" width="171.52" height="3.37"/><rect class="cls-5" x="36.23" y="176.42" width="171.02" height="3.37"/><rect class="cls-5" x="101.64" y="186.59" width="106.1" height="3.37"/><rect class="cls-5" x="36.23" y="196.76" width="171.52" height="3.37"/><rect class="cls-5" x="36.23" y="206.93" width="171.52" height="3.37"/><rect class="cls-5" x="36.23" y="217.1" width="170.42" height="3.37"/><rect class="cls-5" x="101.64" y="227.26" width="106.1" height="3.37"/><rect class="cls-5" x="36.23" y="237.43" width="171.52" height="3.37"/><rect class="cls-5" x="36.23" y="247.6" width="171.52" height="3.37"/><rect class="cls-5" x="36.23" y="257.77" width="114.85" height="3.37"/><rect class="cls-5" x="101.64" y="267.94" width="106.1" height="3.37"/><rect class="cls-5" x="36.23" y="278.11" width="171.52" height="3.37"/><rect class="cls-5" x="36.23" y="288.27" width="171.52" height="3.37"/><rect class="cls-5" x="36.23" y="298.44" width="85.76" height="3.37"/><rect class="cls-6" x="45.38" y="72.91" width="153.47" height="2.28"/><path d="M152.73,301.75c-2.58,5-5.19,9.84-8.8,14.15a27.19,27.19,0,0,1-6.89,5.7c-1.56.94-11.16,5.06-10.81-.41.12-1.73-2.57-1.72-2.68,0-.5,7.62,9.26,5.24,13.47,3.44,8.87-3.81,13.84-13.45,18-21.52.8-1.53-1.52-2.89-2.31-1.36Z"/><path d="M130.37,316.86c12.84-2.57,25.68-5.12,38.5-7.8q9.49-2,18.94-4.13c3.15-.71,6.3-1.46,9.44-2.21,1.88-.45,3.76-.92,5.65-1.39l1.87-.48c1.74.18,2.42-.54,2.06-2.17l1.83.48-.15-.26a1.34,1.34,0,0,0-2.31,1.36l.15.26a1.37,1.37,0,0,0,1.83.48c.91-.4,1.06-.86,1.18-1.8a1.34,1.34,0,0,0-1-1.29c-1.54-.6-2.68-.06-4.31.36-3.75,1-7.52,1.87-11.29,2.76-6.92,1.64-13.86,3.16-20.81,4.64-14.08,3-28.2,5.77-42.31,8.61-1.69.34-1,2.92.72,2.58Z"/><path d="M151.08,321.2a28.39,28.39,0,0,0,17.85-7.6L166.82,312a17,17,0,0,0-1.43,5.61,1.35,1.35,0,0,0,1.34,1.34,15.16,15.16,0,0,0,12.08-5.77l-1.63.21c2.15,1.23,3.81,1.16,6.12.29a20.43,20.43,0,0,0,3.76-2.29c1.35-.88,2.29,1.12,3.09,1.58,2,1.17,4.28.18,5.94-1,.42-.32.83-.66,1.22-1,2.62,1,3,2.06,1.28,3.2a25.25,25.25,0,0,1-5.67,4.23,1.35,1.35,0,0,0,1.36,2.32c2.92-1.72,15.91-12.23,6.39-13.91-3.67-.65-7.45,5.81-10.62,1.77-2.29-2.92-8.25,4.39-11.51,2.53a1.33,1.33,0,0,0-1.63.21,12.68,12.68,0,0,1-10.18,5l1.34,1.34c.36-1.42.71-2.84,1.07-4.25A1.35,1.35,0,0,0,167,311.7a25.36,25.36,0,0,1-15.95,6.81c-1.72.11-1.73,2.8,0,2.69Z"/><path class="cls-3" d="M114.21,5.06l-.87.67a14.87,14.87,0,0,0-2.16,2.19A17.28,17.28,0,0,0,108.75,12a43.64,43.64,0,0,0-1.93,5.88c-.28,1.11-.59,2.26-.9,3.46s-.72,2.41-1.13,3.67A33.62,33.62,0,0,1,101,32.49c-.38.63-.89,1.17-1.34,1.77l-.69.87c-.24.29-.52.54-.79.82-.54.52-1.05,1.09-1.63,1.59L94.73,39a5.87,5.87,0,0,1-1,.65l-1,.59-1,.59-1.1.45-1.06.43-.53.21-.58.16-2.32.6a50.51,50.51,0,0,1-9.22.62c-3,0-6-.19-8.81-.21s-5.63-.06-8.25-.11c-1.3,0-2.6,0-3.82-.09a7.56,7.56,0,0,0-3.34.54,6.56,6.56,0,0,0-2.49,1.77,8.06,8.06,0,0,0-1.54,2.39,15.78,15.78,0,0,0-1.21,4.58,30.65,30.65,0,0,0-.2,3.08V56.3l-.09-1.09a23.91,23.91,0,0,1,0-3.11,16.19,16.19,0,0,1,1-4.77,8.08,8.08,0,0,1,4.26-4.73,8.69,8.69,0,0,1,3.63-.72c1.25,0,2.5,0,3.82,0,2.62-.05,5.39-.1,8.25-.11s5.84.1,8.82.12a49.24,49.24,0,0,0,8.92-.69L88,40.65l.52-.13.54-.21,1.06-.41,1-.4,1-.55,1-.54a5,5,0,0,0,.92-.59l1.73-1.32c.55-.46,1-1,1.56-1.49.25-.26.52-.49.75-.76l.67-.83a20.14,20.14,0,0,0,1.29-1.67L101.08,30c.37-.58.66-1.2,1-1.79a35,35,0,0,0,1.69-3.57c.44-1.21.9-2.44,1.24-3.58s.69-2.33,1-3.43a34.61,34.61,0,0,1,2.23-5.88,17.17,17.17,0,0,1,2.71-4,13.89,13.89,0,0,1,2.33-2.07Z"/><path class="cls-3" d="M129.74,5.06l.92.6A13.89,13.89,0,0,1,133,7.73a17.17,17.17,0,0,1,2.71,4,35.46,35.46,0,0,1,2.24,5.88c.32,1.1.66,2.24,1,3.43s.8,2.37,1.24,3.58a35,35,0,0,0,1.69,3.57c.33.59.62,1.21,1,1.79L144,31.75a20.14,20.14,0,0,0,1.29,1.67l.67.83c.23.27.51.5.76.76.51.49,1,1,1.55,1.49L150,37.82a5,5,0,0,0,.92.59l.95.54,1,.55,1,.4,1.06.41.54.21.53.13,2.11.52a49.24,49.24,0,0,0,8.92.69c3,0,6-.12,8.82-.12s5.63.06,8.25.11c1.32,0,2.58,0,3.82,0a8.69,8.69,0,0,1,3.63.72,8.08,8.08,0,0,1,4.26,4.73,16.19,16.19,0,0,1,1,4.77,23.91,23.91,0,0,1,0,3.11c0,.71-.08,1.09-.08,1.09V55.21a30.65,30.65,0,0,0-.2-3.08,15.47,15.47,0,0,0-1.21-4.58,8.06,8.06,0,0,0-1.54-2.39,6.56,6.56,0,0,0-2.49-1.77,7.56,7.56,0,0,0-3.34-.54c-1.22,0-2.51.07-3.82.09-2.62.05-5.39.1-8.25.11s-5.78.16-8.81.21a50.51,50.51,0,0,1-9.22-.62l-2.32-.6-.58-.16-.53-.21-1.06-.43-1.1-.45-1-.59-1-.59a5.87,5.87,0,0,1-1-.65l-1.82-1.42c-.58-.5-1.09-1.07-1.63-1.59-.26-.28-.55-.53-.79-.82l-.69-.87c-.45-.6-1-1.14-1.34-1.77A34.05,34.05,0,0,1,139.16,25c-.41-1.26-.81-2.44-1.13-3.67l-.9-3.46A43.64,43.64,0,0,0,135.2,12a17.28,17.28,0,0,0-2.43-4.07,14.39,14.39,0,0,0-2.16-2.19Z"/><path class="cls-1" d="M338.77,336.66l-9.95-8.17-25.29-55.15a10.66,10.66,0,0,0-6.31-5.66L274.12,260l.22-.08-16.84-5.47L244,249.91V250h0l-2.54-.82a8.43,8.43,0,0,0-7.52,1.16l-36,25.81,0,0-3.25,2.33-9.83,7-1,.71A9.53,9.53,0,0,0,185,287.5a15.73,15.73,0,0,0,2.55,1.95,14.77,14.77,0,0,0,1.55.87,20.14,20.14,0,0,0,6,1.89,23.76,23.76,0,0,0,2.36.41,30.63,30.63,0,0,0-9.46,6l1,.72,6.39,4.53,5.94,4.21.56.4,8,5.66-3.19,11.52h0l-.51,1.85a7.58,7.58,0,0,0,1.54.92h0a10.35,10.35,0,0,0,1.89.65,6.1,6.1,0,0,0,.92.15s0,0,0,0c2.89.27,7.45-.95,12.26-5.91l7.14,5.07,1,3.15h0l3.92,12.52.41,1.32A16.5,16.5,0,0,0,241,339a70.49,70.49,0,0,0,4.54,5.73h0l1.55,8.67v0h0l.13.77a15.71,15.71,0,0,0,4.49-3.23,94.24,94.24,0,0,0,34.73,19.55l13.16,10.85.11.09,7.34,6,0,0c-.68,1.58-1.35,3.17-2,4.81l7.22,6c-.7,2.13-1.37,4.31-2,6.53L344,436.19h2.68V334.81l-3.35-3S341.57,333.49,338.77,336.66ZM215.51,293.73c-1.79-1-2.87-1.56-3-1.6a20.12,20.12,0,0,0-2.15-.64,50,50,0,0,0,6.36-2.23Zm24.05,11.72Zm-6.62-25.75a89.94,89.94,0,0,0,9.14-7.74h0v.11c2.27,1.33,4.32,2.53,6.19,3.64l6.53,3.95Z"/><g id="hand"><path class="cls-7" d="M312.33,298l-14.16,9.36h0l-8.37,5.54-25.71-2.19,1,16.42c2,13.6-8.72,18.25-8.72,18.25l-.65-3.47-5.36-28.63c-4.38-23.43.47-20.05.47-20.05l53.49-10Z"/><path class="cls-8" d="M294.21,282.84l-10.35,8.91-7,6-3.11,2.68-25.23-2.54L251,317.71a19.53,19.53,0,0,1,.71,7.47,16.15,16.15,0,0,1-7.05,11.73l-.42-1.29-9.59-29.79c-7.31-22.69-2.06-19.95-2.06-19.95l51.81-16.68Z"/><path class="cls-9" d="M273.73,300.47l-25.23-2.54L251,317.71a19.53,19.53,0,0,1,.71,7.47c.68-9.21-8.5-29.52-8.5-29.52,18.7,2.26,35.31-7.38,35.31-7.38l-1.66,9.51Z"/><path class="cls-10" d="M294,275.58l-4.92,8.23-.8,1.34-4.83,8.08-.88,1.48-20.92-2.19-16.36-3.88c-7.38,27.95-19.26,33.23-24.84,32.75h0a5.86,5.86,0,0,1-.9-.14,9.18,9.18,0,0,1-1.84-.62h0a7.86,7.86,0,0,1-1.5-.89l12.47-46.67,45.89-.5Z"/><path class="cls-11" d="M282,253.29l-.21.08-31.06,11.91,0,0c-.21.16-1.67,1.21-4.32,2.92h0c-1.32.85-2.93,1.86-4.83,3-3.43,2-7.79,4.5-13.05,7.18-3.57,1.82-7.53,3.74-11.91,5.71h0l-1.76.78a28.11,28.11,0,0,1-7,.75,20.28,20.28,0,0,1-8.57-2,14.39,14.39,0,0,1-1.52-.83,17.35,17.35,0,0,1-2.5-1.87,11,11,0,0,1-1.15-1.22L195,279l9.51-6.93,3.14-2.29,0,0,34.88-25.43a8.21,8.21,0,0,1,7.32-1.2l2.48.79,12.56,4,.29.09Z"/><path class="cls-9" d="M283.44,293.23l-.88,1.48-20.92-2.19-16.36-3.88c-7.38,27.95-19.26,33.23-24.84,32.75,16.65-3.24,23.3-35.33,23.3-35.33,24.05,6.64,32.84-7.88,32.84-7.88Z"/><path class="cls-11" d="M310.52,266.14a10.38,10.38,0,0,0-6.19-5.46l-52-16.86-1.67,21.59c16.15,9.28,21.58,12.6,23.29,13.69.59.37.74.48.74.48l-.79,10.95a12.32,12.32,0,0,1-16.05,10.86c-15.56-4.95-35.32-16-35.79-16.19a19.7,19.7,0,0,0-12.76-.09c-.25.07-.5.15-.74.24l-.09,0-.06,0-1,.37h0a29.65,29.65,0,0,0-9.22,6l1,.69,6.25,4.36,5.82,4.05.55.39,35.35,24.63s11.83,23.9,47.48,35l12.91,10.45.18.15L346.64,403V328.52l-11-8.9Z"/><path class="cls-11" d="M273,303.31l2.72-24.85-.08,0,.13-.16a61.11,61.11,0,0,1-24.67-18.17C232.47,282.57,205,285.41,205,285.41c21.37,4.69,45.67-20.11,45.67-20.11l24,14.26,0,0Z"/><path class="cls-12" d="M314.91,377.3l2.1-4.82-19-15.87C273.14,352,262,333.3,258.59,326.34a8.14,8.14,0,0,0-4-3.87c-22.36-10.15-46.09-30.1-46.09-30.1l-1.07,1.36-2,3.08,5.82,4.05.55.39,35.35,24.63s11.83,23.9,47.48,35l20.25,16.39Z"/><path class="cls-13" d="M215.84,292.91a1.64,1.64,0,0,1,.2,2.31l-3.86,4.64-.9,1-12.07-8.41,1.19-.89h0l.69-.51C207.05,286.59,213.28,290.75,215.84,292.91Z"/><path class="cls-13" d="M217.77,318.18a6.18,6.18,0,0,1-1.13-.24l3-11.25,1.09.77,3.43,2.39S223,318.69,217.77,318.18Z"/><path class="cls-13" d="M245.48,334.8a6,6,0,0,1-1.26.82l-3.92-12.15,1.4-.55.8-.3,4.91,3.49C249,330.9,247,333.58,245.48,334.8Z"/><path class="cls-13" d="M259.93,341.49a26.59,26.59,0,0,1-2.68,2.32c-.61.47-1.05.79-1.05.79v0l-1.58-8.43.44.45Z"/><path class="cls-14" d="M212.18,299.86l-.9,1-12.07-8.41,1.19-.89h0Z"/><polygon class="cls-14" points="217.8 318.19 216.64 317.94 219.65 306.69 220.74 307.46 217.76 318.18 217.8 318.19"/><path class="cls-14" d="M245.48,334.8a6,6,0,0,1-1.26.82l-3.92-12.15,1.4-.55Z"/><polygon class="cls-14" points="257.25 343.81 256.19 344.56 254.61 336.13 255.05 336.58 256.31 337.95 257.25 343.81"/><path class="cls-13" d="M210.7,273.06a1.62,1.62,0,0,1,0,2.24c-2.35,2.52-8.44,8-14.27,4.72a9.81,9.81,0,0,1-1.47-1l9.51-6.93,3.14-2.29,1.12,1.18.09.1Z"/><path class="cls-14" d="M208.83,271.08,196.44,280a9.81,9.81,0,0,1-1.47-1l9.51-6.93,3.14-2.29,0,0,1.08,1.21Z"/></g><path class="cls-3" d="M326.72,393.16s4.44-16,19.92-39.71V326.06A189.19,189.19,0,0,0,313,382Z"/><path class="cls-2" d="M318.2,394.14l28.44,26V338.76a157.79,157.79,0,0,0-20.22,32.66A142.12,142.12,0,0,0,318.2,394.14Z"/><path class="cls-15" d="M318.2,394.14l28.44,26V389l-20.22-17.55A142.12,142.12,0,0,0,318.2,394.14Z"/><path class="cls-3" d="M327.11,390a3.92,3.92,0,1,1,2,5.16A3.91,3.91,0,0,1,327.11,390Z"/><path class="cls-3" d="M338.68,400a3.92,3.92,0,1,1,2,5.16A3.92,3.92,0,0,1,338.68,400Z"/><path class="cls-16" d="M338.62,243.68l-5,1.62-2.36-7.25,5-1.63a3,3,0,0,1,3.73,1.9l.53,1.63A3,3,0,0,1,338.62,243.68Z"/><path class="cls-17" d="M335.65,246.35,274,267.85l-1.86-5.31,0-.11-1.77-5.06.2-.07L332,235.87a2.94,2.94,0,0,1,3.75,1.8l.94,2.7.78,2.24A2.94,2.94,0,0,1,335.65,246.35Z"/><path class="cls-18" d="M181.71,289.53s-4.32,1.94-9,7.61a23,23,0,0,0,11.66,0Z"/><path class="cls-16" d="M262.14,272,274,267.85l-3.65-10.48s-24.22,7.07-27.66,8.63h0c-34.53,11.63-60.93,23.53-60.93,23.53l2.62,7.65c3.94-.89,9.33-2.41,15.52-4.28l-.64-.45-1-.69a29.65,29.65,0,0,1,9.22-6h0l1-.37.06,0,.09,0c.24-.09.49-.17.74-.24a19.7,19.7,0,0,1,12.76.09l.7.36c12.23-4.05,24.7-8.36,34.27-11.72h0l5.07-1.78Z"/><path class="cls-19" d="M336.69,240.37l-64.6,22.17,0-.11-1.57-5.13L332,235.87a2.94,2.94,0,0,1,3.75,1.8Z"/><path class="cls-20" d="M337.63,242.59l-46.38,15.66a2.51,2.51,0,0,1-3.19-1.58l0-.05a2.52,2.52,0,0,1,1.58-3.2L336,237.77Z"/><path class="cls-21" d="M222.85,285.6l-.23-.07a30.16,30.16,0,0,0-12.34-.63,16.66,16.66,0,0,0-2.93.9h0a29.87,29.87,0,0,0-9.16,6l1,.69.76.53a154.22,154.22,0,0,1-15.64,4.2l-1.26-3.69,22.57-8,39.55-13.94h0L255.26,268l15-5.27,1.9,5.75s-3.88,1.45-10,3.62Z"/><polygon class="cls-20" points="275.69 267.21 272.08 268.55 268.62 257.81 272.24 256.68 275.69 267.21"/></g></g></svg>