<svg xmlns="http://www.w3.org/2000/svg" viewBox="0 0 448.92 512"><defs><style>.cls-1{fill:#4caf50;}</style></defs><g id="Слой_2" data-name="Слой 2"><g id="Слой_1-2" data-name="Слой 1"><path class="cls-1" d="M430.72,402.78a90.64,90.64,0,0,0-60.88-71.24l-71-23.69V297.29H282.27v15.49l-12.33,49.31-33.35-40H212.33l-33.35,40-12.32-49.31V297.29H150.14v10.56l-71,23.69a90.66,90.66,0,0,0-60.88,71.24L0,512H448.92Zm-246.45,92.7H93.2L100.55,422l-16.43-1.65L76.6,495.49H19.51l15-90a74.2,74.2,0,0,1,49.81-58.29l68.24-22.75,18.3,73.19,18.62-22.35,9.85,14.79Zm63.7,0H201l15.62-109.31-16.07-24.1,19.57-23.49h8.78l19.57,23.49-16.07,24.1Zm124.35,0-7.51-75.14L348.37,422l7.35,73.5H264.65l-15-105.4,9.85-14.78,18.62,22.34,18.3-73.19,68.24,22.75a74.16,74.16,0,0,1,49.81,58.3l15,90Z"/><path class="cls-1" d="M120.76,222.51a90.19,90.19,0,0,0,23,38.74l32.2,32.21a41,41,0,0,0,29.19,12.09h38.71A41,41,0,0,0,273,293.46l32.21-32.21a90.45,90.45,0,0,0,23-38.74,41,41,0,0,0,19.9-73.86h.25V99.1A41.35,41.35,0,0,0,313.2,58.27,88.36,88.36,0,0,0,230.41,0h-5.95A124,124,0,0,0,100.59,123.87v24.78h.26a41,41,0,0,0,19.91,73.86ZM315.3,197a73.86,73.86,0,0,1-21.77,52.57l-32.2,32.2A25,25,0,0,1,243.81,289h-38.7a25,25,0,0,1-17.52-7.25l-32.21-32.2A73.88,73.88,0,0,1,133.62,197V156.9h32.44a148.11,148.11,0,0,0,97.86-36.55l2.53,4.21a66.93,66.93,0,0,0,48.85,31.79V197Zm33-15.33a24.74,24.74,0,0,1-16.9,23.37c.23-2.65.39-5.33.39-8v-38.6A24.76,24.76,0,0,1,348.33,181.68ZM117.11,123.87A107.48,107.48,0,0,1,224.46,16.52h5.95a71.75,71.75,0,0,1,68.7,51.82l1.71,6H307A24.81,24.81,0,0,1,331.82,99.1v42.12a41.69,41.69,0,0,0-8.26-.83,50.35,50.35,0,0,1-42.95-24.32L267.39,94l-7.48,7.49a131.87,131.87,0,0,1-93.84,38.87h-40.7a41.54,41.54,0,0,0-8.26.83Zm0,34.55V197c0,2.7.15,5.38.39,8a24.63,24.63,0,0,1-.39-46.64Z"/></g></g></svg>