<svg xmlns="http://www.w3.org/2000/svg" viewBox="0 0 360.86 133.05"><defs><style>.cls-1{fill:#4c2000;}.cls-2{fill:#6a0;}.cls-3{fill:#7bcc00;}.cls-4{fill:#3d1900;}.cls-5{fill:#5e9b00;}.cls-6{fill:#72bd00;}.cls-7{fill:#f9d133;}.cls-8{fill:#fcea10;}.cls-9{fill:#dadada;}.cls-10{fill:#fff;}.cls-11{fill:#a48a7b;}.cls-12{opacity:0.2;}.cls-13{fill:#3c3c3b;}.cls-14{fill:#575756;}.cls-15{fill:#466785;}.cls-16{fill:#f6f6f6;}.cls-17{fill:#8c7162;}.cls-18{fill:#a18f86;}.cls-19{fill:#517799;}.cls-20{fill:#edaa34;}.cls-21{fill:#3b5770;}.cls-22{fill:#d1baae;}.cls-23{fill:#063;}.cls-24{fill:#3aaa35;}.cls-25{fill:#d6992c;}.cls-26{fill:#f9b233;}.cls-27{fill:#a6948a;}.cls-28{fill:#c94417;}.cls-29{fill:#e94e1b;}.cls-30{fill:#c6c6c6;}.cls-31{fill:#b2b2b2;}.cls-32{fill:#9d9d9c;}.cls-33{fill:#82d900;}.cls-34,.cls-39{fill:#3872a8;}.cls-34,.cls-35,.cls-36,.cls-38{fill-rule:evenodd;}.cls-35{fill:#c1bea2;}.cls-36{fill:#49c6d6;}.cls-37{fill:#f7f8f9;}.cls-38{fill:#5ea5d1;}.cls-40{fill:#a63813;}.cls-41{fill:#b33c14;}.cls-42{fill:#e84e1b;}.cls-43{fill:#7f360f;}.cls-44{fill:#9c4212;}</style></defs><g id="Слой_2" data-name="Слой 2"><g id="Layer_1" data-name="Layer 1"><polygon class="cls-1" points="211.46 46.24 210.21 46.24 210.48 41.94 211.19 41.94 211.46 46.24"/><path class="cls-1" d="M211.28,46a.27.27,0,0,1,0,.51,1,1,0,0,1-.89,0,.27.27,0,0,1,0-.51A.94.94,0,0,1,211.28,46Z"/><path class="cls-2" d="M207.43,38.84c.18,2.12,1.65,3.73,3.41,3.73s3.22-1.61,3.4-3.73Z"/><path class="cls-3" d="M213.25,37.45c1.33.77,1.33,2,0,2.79a5.34,5.34,0,0,1-4.83,0c-1.33-.77-1.33-2,0-2.79A5.34,5.34,0,0,1,213.25,37.45Z"/><path class="cls-3" d="M207.43,38.64c.18-2.14,1.65-3.76,3.41-3.76s3.22,1.62,3.4,3.76Z"/><polygon class="cls-4" points="178.51 48.58 176.86 48.58 177.22 42.92 178.15 42.92 178.51 48.58"/><ellipse class="cls-4" cx="177.68" cy="48.58" rx="0.83" ry="0.48"/><path class="cls-5" d="M175,39.8c0,1.45,1.23,3.77,2.68,3.77s2.65-2.32,2.69-3.77Z"/><path class="cls-6" d="M179.59,38.82a1.16,1.16,0,0,1,0,2.2,4.19,4.19,0,0,1-3.81,0,1.16,1.16,0,0,1,0-2.2A4.26,4.26,0,0,1,179.59,38.82Z"/><path class="cls-6" d="M175,39.8c0-1.46,1.23-6.24,2.68-6.24s2.65,4.78,2.69,6.24Z"/><path class="cls-7" d="M178.27,3.75a11.43,11.43,0,0,1-2.62,6.75A9.61,9.61,0,0,1,173,12.82a4.52,4.52,0,0,1-2.62.7c-1.57-.14-2.62-1.49-2.62-3.72a11.43,11.43,0,0,1,2.62-6.75A9.61,9.61,0,0,1,173,.73a4.52,4.52,0,0,1,2.62-.7C177.22.17,178.27,1.52,178.27,3.75Z"/><rect class="cls-7" x="166.89" y="6.05" width="14.8" height="2.89" transform="translate(80.65 154.69) rotate(-60)"/><path class="cls-8" d="M170.31,11.25c0,2.23,1.05,3.58,2.62,3.72a4.48,4.48,0,0,0,2.61-.7A9.65,9.65,0,0,0,178.16,12a11.49,11.49,0,0,0,2.62-6.75c0-2.24-1.06-3.58-2.62-3.72a4.5,4.5,0,0,0-2.62.7,9.61,9.61,0,0,0-2.61,2.32A11.43,11.43,0,0,0,170.31,11.25Z"/><path class="cls-8" d="M171,10.84c0,1.93.91,3.09,2.26,3.21a3.91,3.91,0,0,0,2.26-.6,8.35,8.35,0,0,0,2.26-2,9.85,9.85,0,0,0,2.27-5.83c0-1.93-.91-3.1-2.27-3.22a3.87,3.87,0,0,0-2.26.61,8.29,8.29,0,0,0-2.26,2A9.93,9.93,0,0,0,171,10.84Z"/><path class="cls-9" d="M228.54,14a1.47,1.47,0,0,0,.17-.74,3.67,3.67,0,0,0-1.65-2.87,1.7,1.7,0,0,0-.41-.17,6.68,6.68,0,0,0-3-4.87,1.91,1.91,0,0,0-2.46.06,4.51,4.51,0,0,0-1.05-.88c-1.21-.7-2.21-.28-2.43.92l0,0c-.81-.47-1.47-.09-1.47.84a2.49,2.49,0,0,0,.11.7Z"/><rect class="cls-9" x="216.47" y="4.79" width="2.74" height="2.01" transform="translate(26.29 109.7) rotate(-30)"/><rect class="cls-9" x="219.51" y="5.63" width="2.74" height="2.01" transform="translate(26.28 111.33) rotate(-30)"/><polygon class="cls-9" points="216.72 5.22 228.59 13.92 226.26 15.27 214.4 6.57 216.72 5.22"/><path class="cls-10" d="M226.26,15.27a1.51,1.51,0,0,0,.17-.75,3.65,3.65,0,0,0-1.65-2.86,1.6,1.6,0,0,0-.41-.18,6.64,6.64,0,0,0-3-4.87,1.89,1.89,0,0,0-2.46.07,4.36,4.36,0,0,0-1.05-.89c-1.2-.69-2.21-.27-2.42.92l-.05,0c-.81-.47-1.46-.09-1.46.85a2.81,2.81,0,0,0,.1.69Z"/><path class="cls-9" d="M346.68,20.88a1.74,1.74,0,0,0,.14-.72A3.92,3.92,0,0,0,345,17.07a2,2,0,0,0-.55-.22,6.24,6.24,0,0,0-2.67-3.91,2.35,2.35,0,0,0-1.41-.36,7.64,7.64,0,0,0-3.06-3.88c-1.59-.92-2.92-.47-3.35,1a3.63,3.63,0,0,0-.74-.58C332,8.35,331,8.94,331,10.4a4.24,4.24,0,0,0,.35,1.6Z"/><polygon class="cls-9" points="331.68 8.89 346.68 20.88 343.9 22.49 328.9 10.5 331.68 8.89"/><rect class="cls-9" x="332.58" y="9.11" width="3.07" height="2.68" transform="translate(39.54 168.46) rotate(-30)"/><path class="cls-10" d="M343.9,22.49a1.76,1.76,0,0,0,.14-.73,4,4,0,0,0-1.78-3.08,2.09,2.09,0,0,0-.56-.22A6.2,6.2,0,0,0,339,14.55a2.33,2.33,0,0,0-1.4-.36,7.73,7.73,0,0,0-3.07-3.89c-1.58-.91-2.92-.46-3.34,1a4,4,0,0,0-.75-.58c-1.27-.73-2.29-.14-2.29,1.32a4.22,4.22,0,0,0,.34,1.6Z"/><path class="cls-9" d="M12.58,39.22l0,0,0,0L3.11,44.69a.88.88,0,0,1,0-.17,2.63,2.63,0,0,1,1.17-2l0,0a4.61,4.61,0,0,1,2-3.24,2.87,2.87,0,0,1,.4-.19,7.66,7.66,0,0,1,3.35-5.11c1.22-.7,2.28-.58,2.89.18a5.74,5.74,0,0,1,1.81-1.77c1.4-.81,2.57-.35,2.86,1a3.32,3.32,0,0,1,.82-.7c1.05-.6,1.89-.11,1.89,1.09a3.58,3.58,0,0,1-.21,1.14Z"/><polygon class="cls-9" points="12.33 33.59 3.11 44.69 5.84 46.27 15.07 35.17 12.33 33.59"/><polygon class="cls-9" points="5.84 46.27 19.64 33.72 16.91 32.14 3.11 44.69 5.84 46.27"/><polygon class="cls-9" points="5.84 46.27 22.64 34.12 19.9 32.54 3.11 44.69 5.84 46.27"/><path class="cls-10" d="M15.32,40.8l0,0,0,0L5.84,46.27a.91.91,0,0,1,0-.17,2.61,2.61,0,0,1,1.17-2l0,0A4.62,4.62,0,0,1,9.09,40.8a3.44,3.44,0,0,1,.39-.19,7.71,7.71,0,0,1,3.36-5.11c1.21-.7,2.28-.58,2.89.18a5.64,5.64,0,0,1,1.81-1.77c1.4-.81,2.56-.35,2.86,1a3.32,3.32,0,0,1,.82-.7c1-.6,1.89-.11,1.89,1.09a3.34,3.34,0,0,1-.22,1.14Z"/><path class="cls-9" d="M359.3,46.64a1.92,1.92,0,0,0,.21-.92,4.49,4.49,0,0,0-2-3.51A1.91,1.91,0,0,0,357,42a8.16,8.16,0,0,0-3.65-6c-1.24-.72-2.34-.63-3,.09A5.06,5.06,0,0,0,349,35c-1.47-.85-2.7-.34-3,1.12l-.06,0c-1-.57-1.8-.11-1.8,1a3.12,3.12,0,0,0,.13.84Z"/><rect class="cls-9" x="344.51" y="35.42" width="3.36" height="2.46" transform="translate(28.06 178) rotate(-30)"/><rect class="cls-9" x="348.24" y="36.44" width="3.36" height="2.46" transform="translate(28.05 180.01) rotate(-30)"/><polygon class="cls-9" points="344.83 35.94 359.36 46.6 356.51 48.24 341.98 37.59 344.83 35.94"/><path class="cls-10" d="M356.51,48.24a1.85,1.85,0,0,0,.21-.91,4.48,4.48,0,0,0-2-3.51,2.06,2.06,0,0,0-.5-.21,8.22,8.22,0,0,0-3.65-6c-1.25-.72-2.35-.63-3,.08a5.41,5.41,0,0,0-1.29-1.08c-1.48-.85-2.71-.34-3,1.12l-.06,0c-1-.57-1.79-.11-1.79,1a3.12,3.12,0,0,0,.13.84Z"/><path class="cls-9" d="M270.4,23.79a2,2,0,0,0,.23-1,4.85,4.85,0,0,0-2.2-3.81,2.36,2.36,0,0,0-.55-.24,8.87,8.87,0,0,0-4-6.49c-1.36-.78-2.56-.69-3.28.09a5.9,5.9,0,0,0-1.4-1.18c-1.61-.92-2.94-.36-3.23,1.23l-.06,0c-1.08-.63-2-.12-2,1.13a3.37,3.37,0,0,0,.14.92Z"/><rect class="cls-9" x="254.32" y="11.58" width="3.65" height="2.68" transform="translate(27.85 129.8) rotate(-30)"/><rect class="cls-9" x="258.38" y="12.7" width="3.65" height="2.68" transform="translate(27.85 131.99) rotate(-30)"/><polygon class="cls-9" points="254.66 12.15 270.47 23.75 267.37 25.54 251.56 13.95 254.66 12.15"/><path class="cls-10" d="M267.37,25.54a2,2,0,0,0,.23-1,4.88,4.88,0,0,0-2.2-3.81,2.36,2.36,0,0,0-.55-.24,8.85,8.85,0,0,0-4-6.49c-1.35-.78-2.55-.69-3.27.09a5.75,5.75,0,0,0-1.41-1.18c-1.6-.92-2.94-.36-3.23,1.23a.13.13,0,0,0-.06,0c-1.07-.62-1.95-.12-1.95,1.13a3.37,3.37,0,0,0,.14.92Z"/><path class="cls-9" d="M28.86,16.49a2.06,2.06,0,0,1-.24-1,5,5,0,0,1,2.29-4,2.48,2.48,0,0,1,.56-.25A9.24,9.24,0,0,1,35.6,4.51c1.41-.81,2.65-.72,3.4.1a5.8,5.8,0,0,1,1.46-1.23c1.66-1,3-.38,3.35,1.27l.06,0c1.12-.65,2-.12,2,1.17a3.6,3.6,0,0,1-.14,1Z"/><rect class="cls-9" x="42.28" y="3.31" width="2.78" height="3.79" transform="translate(17.32 40.42) rotate(-60)"/><rect class="cls-9" x="38.06" y="4.47" width="2.78" height="3.79" transform="translate(14.22 37.35) rotate(-60)"/><polygon class="cls-9" points="45.21 4.41 28.78 16.45 32.01 18.31 48.43 6.27 45.21 4.41"/><path class="cls-10" d="M32,18.31a2.06,2.06,0,0,1-.24-1,5.05,5.05,0,0,1,2.29-4,2.42,2.42,0,0,1,.56-.24,9.24,9.24,0,0,1,4.13-6.74c1.41-.82,2.65-.72,3.4.09A6,6,0,0,1,43.61,5.2c1.66-1,3-.38,3.35,1.27l.06,0c1.12-.65,2-.12,2,1.17a3.3,3.3,0,0,1-.15,1Z"/><path class="cls-9" d="M112.12,17.26a1.68,1.68,0,0,1-.14-.72,3.93,3.93,0,0,1,1.78-3.07,1.72,1.72,0,0,1,.55-.21A6.17,6.17,0,0,1,117,9.36a2.4,2.4,0,0,1,1.4-.36,7.57,7.57,0,0,1,3-3.86c1.58-.91,2.9-.47,3.33,1a4,4,0,0,1,.74-.57c1.26-.73,2.28-.14,2.28,1.32a4.21,4.21,0,0,1-.34,1.59Z"/><polygon class="cls-9" points="127.06 5.33 112.13 17.26 114.9 18.86 129.83 6.93 127.06 5.33"/><rect class="cls-9" x="123.3" y="5.35" width="2.67" height="3.05" transform="translate(56.36 111.38) rotate(-60)"/><path class="cls-10" d="M114.9,18.86a1.66,1.66,0,0,1-.14-.71,3.92,3.92,0,0,1,1.77-3.08,1.72,1.72,0,0,1,.55-.21A6.19,6.19,0,0,1,119.74,11a2.34,2.34,0,0,1,1.4-.37,7.62,7.62,0,0,1,3-3.86c1.58-.91,2.91-.46,3.33,1a3.63,3.63,0,0,1,.74-.58c1.27-.73,2.29-.14,2.29,1.32A4.23,4.23,0,0,1,130.2,10Z"/><path class="cls-11" d="M360.86,85.38v10.3l-.05,1.06a3.84,3.84,0,0,1-.11.59h0a6,6,0,0,1-2.92,4l-.72.41-3.78,2.18h0l-12.41,7.17-2.93,1.69L324.6,120.5l-3.4,2-2.43,1.41-4.66,2.68-6.86,4-.44.25a17.59,17.59,0,0,1-6.73,2.17v.1H62v0a16.89,16.89,0,0,1-8-2.25l-15.36-8.87L36,120.38h0L17.62,109.73h0l-2.53-1.46L9.5,105.05,7,103.58l-3.87-2.23a6.14,6.14,0,0,1-3-6.5V85.94l11.12,0L54.05,61.25A16.81,16.81,0,0,1,63,59h237v.07a17,17,0,0,1,6.73,2.18l43.84,25.31Z"/><g class="cls-12"><path class="cls-13" d="M115.37,133.05h-3.49c.67-2.35,1.37-4.75,1.37-4.75Z"/><path class="cls-13" d="M105.56,118.6l-6.36,1.45c.15.3,5.17,8,5.17,8S105.56,118.94,105.56,118.6Z"/><path class="cls-13" d="M95.42,133.05h-4c.44-2.29.9-4.76.9-4.76S94,130.94,95.42,133.05Z"/><path class="cls-13" d="M73.48,122.62,67.9,126c.16.1,5.14,2.19,5.14,2.19S73.5,122.8,73.48,122.62Z"/><path class="cls-13" d="M76.76,130.41l6.44,1.07c0-.25-2.15-7-2.15-7S76.88,130.19,76.76,130.41Z"/><path class="cls-13" d="M90.05,119l-6,2.6c.17.17,5.37,4.16,5.37,4.16S90.06,119.18,90.05,119Z"/><path class="cls-13" d="M104.17,133.05H99.71l.81-3Z"/><path class="cls-13" d="M93.49,123.19,96.56,129c.09-.14,1.94-4.73,1.94-4.73S93.66,123.2,93.49,123.19Z"/><path class="cls-13" d="M120.84,119.41,115,122.23c.16.15,5.4,3.74,5.4,3.74S120.86,119.63,120.84,119.41Z"/><path class="cls-13" d="M122.82,127.42l4,5.18c.06-.15,1.06-4.92,1.06-4.92S123,127.4,122.82,127.42Z"/><path class="cls-13" d="M134.27,120l-5.85,2.89c.17.16,5.61,4,5.61,4S134.3,120.19,134.27,120Z"/><path class="cls-13" d="M137.74,132.45l-1.8.6h-3.75c0-.19.08-.39.12-.61a6.88,6.88,0,0,0-.2-2.46,8.13,8.13,0,0,1,.84.06,7.43,7.43,0,0,1,2,.51,9,9,0,0,1,1.93,1.11C137.33,132.07,137.7,132.41,137.74,132.45Z"/><path class="cls-13" d="M106.57,124.64l3,5.81c.08-.13,1.76-4.57,1.76-4.57S106.73,124.66,106.57,124.64Z"/><path class="cls-13" d="M63.16,124.91l-5.67,3.24c.17.13,5.47,3,5.47,3S63.18,125.12,63.16,124.91Z"/><path class="cls-13" d="M48.53,120.89,50.88,127c.1-.13,2.52-4.47,2.52-4.47S48.7,120.91,48.53,120.89Z"/><path class="cls-13" d="M40.79,115.44l3.11,5.74c.18-.19,4.34-6.06,4.34-6.06S41.05,115.4,40.79,115.44Z"/><path class="cls-13" d="M40.09,115.73c0,.2-.87,3.93-1.4,6.18L36,120.38h0c-1.13-1.62-2.27-3.26-2.34-3.39Z"/><path class="cls-13" d="M27,109l3.87,5.25c0-.12,0-4.08,0-4.08S27.14,109,27,109Z"/><path class="cls-13" d="M19.13,110.2l6.47-.84c-.11-.23-4.05-5.89-4.05-5.89S19.18,110,19.13,110.2Z"/><path class="cls-13" d="M16.5,98.82,10.36,101c.12.09,4.29,2.3,4.29,2.3S16.47,99,16.5,98.82Z"/><path class="cls-13" d="M2.5,95.07l3.58,5.45c.08-.15,1.5-4.89,1.5-4.89S2.66,95.06,2.5,95.07Z"/><path class="cls-13" d="M2,92l-1.9.12V87.8C.83,89.33,2,92,2,92Z"/><path class="cls-13" d="M9.72,103.19s-.09.84-.22,1.86L7,103.58Z"/><path class="cls-13" d="M14.54,92.15,8,92.44c.09.19,3.49,5,3.49,5S14.47,92.34,14.54,92.15Z"/><path class="cls-13" d="M17.61,109.73l-2.53-1.46,1.61-.94Z"/><path class="cls-13" d="M42.53,112.6l-3.44-5.54c-.11.16-2.25,5.24-2.25,5.24S42.34,112.62,42.53,112.6Z"/><path class="cls-13" d="M71,133.05H67.48c.08-1.47.16-2.75.16-2.75Z"/><path class="cls-13" d="M62.81,119l-6.39-1.31c0,.2,2.17,5.69,2.17,5.69S62.69,119.17,62.81,119Z"/><path class="cls-13" d="M141.09,123.88l-3.18,5.7c.24,0,7.15.25,7.15.25S141.26,124.07,141.09,123.88Z"/><path class="cls-13" d="M144.79,123.43l6.3,1.72c0-.18-2-5.08-2-5.08S144.91,123.29,144.79,123.43Z"/><path class="cls-13" d="M153.73,130.54c0,.09-.49,1.3-1,2.51h-4.4l-.9-.67Z"/><path class="cls-13" d="M156.85,124.63l.14,6.52c.18-.08,5.06-3.36,5.06-3.36S157,124.71,156.85,124.63Z"/><path class="cls-13" d="M162.84,124.86l6.49.66c-.06-.17-2.79-4.81-2.79-4.81S162.94,124.7,162.84,124.86Z"/><path class="cls-13" d="M171.79,127.73c0,.16-.21,3.22-.36,5.32H169c-1.47-1.27-3.13-2.7-3.23-2.81Z"/><path class="cls-13" d="M175.43,122.91l4.19,5c.08-.18,1.56-5.56,1.56-5.56S175.62,122.86,175.43,122.91Z"/><path class="cls-13" d="M187,128.78c0,.12-.23,2.59-.4,4.27h-3.13c-1.12-.59-2.16-1.14-2.22-1.19Z"/><path class="cls-13" d="M185.64,123.54l6.17,2.12c0-.26-1-7.24-1-7.24S185.79,123.34,185.64,123.54Z"/><path class="cls-13" d="M196.7,133.05h-2.06c-1.65-1.06-3.66-2.39-3.76-2.48l5.71-3.14C196.62,127.6,196.68,131.06,196.7,133.05Z"/><path class="cls-13" d="M202.07,122.45l-3.21,5.69c.2,0,6.06-.32,6.06-.32S202.19,122.62,202.07,122.45Z"/><path class="cls-13" d="M212.94,133.05h-2.77c.36-.87.67-1.59.67-1.59Z"/><path class="cls-13" d="M207.45,125.17l6.37,1.42c0-.22-2-6-2-6S207.57,125,207.45,125.17Z"/><path class="cls-13" d="M216.49,125.89l.81,6.48c.22-.11,5.76-4,5.76-4S216.73,125.94,216.49,125.89Z"/><path class="cls-13" d="M223.78,123.86l5.71,3.17a17.84,17.84,0,0,0,0-4.29,15.63,15.63,0,0,0-.62-2.55l-.38-1.06-.61.93a13,13,0,0,1-1.47,1.81A15.07,15.07,0,0,1,223.78,123.86Z"/><path class="cls-13" d="M234.85,129.55c0,.14-.27,2-.49,3.5H229.9c-.44-.2-.74-.35-.77-.37Z"/><path class="cls-13" d="M236.8,123.57l2.6,6c.14-.15,3.51-5.08,3.51-5.08S237,123.56,236.8,123.57Z"/><path class="cls-13" d="M249,133.05h-5c-.5-.29-.84-.49-.88-.53L248.6,129C248.63,129.17,248.8,131.2,249,133.05Z"/><path class="cls-13" d="M245,124.89l6.52.31c-.07-.2-3-5.68-3-5.68S245.1,124.69,245,124.89Z"/><path class="cls-13" d="M257.08,127l-4.39,4.83c.19.06,5.79.85,5.79.85S257.16,127.17,257.08,127Z"/><path class="cls-13" d="M258.44,123.84l5.87,2.84c0-.23-.32-6.82-.32-6.82S258.61,123.67,258.44,123.84Z"/><path class="cls-13" d="M268.25,129.86c0,.11-.22,1.62-.45,3.19h-4.65l-1-.89Z"/><path class="cls-13" d="M268.92,125.19l6.38,1.34a15.23,15.23,0,0,1-.82-2.84,13.29,13.29,0,0,1-.15-2.08c0-.6,0-1,0-1l-.88.48a14.92,14.92,0,0,0-1.94,1.32A16.51,16.51,0,0,0,268.92,125.19Z"/><path class="cls-13" d="M278.69,129.26c0,.13-.09,2-.18,3.79h-4.39l-1.32-1Z"/><path class="cls-13" d="M284,123.57l1,6.45c.15-.11,4-3.93,4-3.93S284.17,123.62,284,123.57Z"/><path class="cls-13" d="M298.53,130.94c0,.08-.77,1-1.57,2.11H293.3c-.62-1.38-1.22-2.74-1.25-2.84Z"/><path class="cls-13" d="M292.17,125.15l6.53.06c-.08-.24-3.2-6.48-3.2-6.48S292.26,124.91,292.17,125.15Z"/><path class="cls-13" d="M307.25,130.53l-.44.25a16.63,16.63,0,0,1-3.62,1.54c-.89-.33-1.58-.6-1.64-.64l4.86-4.35C306.45,127.43,306.84,129,307.25,130.53Z"/><path class="cls-13" d="M306,124.4l4.57-4.66c-.18-.06-5.47-.79-5.47-.79S305.91,124.23,306,124.4Z"/><path class="cls-13" d="M318.77,123.88l-4.66,2.68-.88-4.82C313.41,121.77,317.62,123.42,318.77,123.88Z"/><path class="cls-13" d="M313.82,116.93l6.52-.34c-.09-.18-3.51-4.69-3.51-4.69S313.89,116.74,313.82,116.93Z"/><path class="cls-13" d="M324.5,111.44l2.84,5.88c.16-.17,3.93-5.52,3.93-5.52S324.74,111.42,324.5,111.44Z"/><path class="cls-13" d="M324.6,120.5l-3.4,2-2-.54,4.73-4.5C324,117.52,324.29,119,324.6,120.5Z"/><path class="cls-13" d="M328,109.06l6.37-1.41c-.13-.22-4.59-5.59-4.59-5.59S328,108.81,328,109.06Z"/><path class="cls-13" d="M340.86,111.12l-2.93,1.69c-1.5-.91-2.95-1.77-3.05-1.86l5.44-3.59C340.35,107.48,340.61,109.3,340.86,111.12Z"/><path class="cls-13" d="M341.75,100l-.34,6.52c.23-.07,6.22-2.94,6.22-2.94S342,100.07,341.75,100Z"/><path class="cls-13" d="M345,98.61l6.48-.78c-.1-.17-3.82-4.45-3.82-4.45S345.08,98.42,345,98.61Z"/><path class="cls-13" d="M357.06,101.76l-3.78,2.18h0l-1.68.12,2.62-6C354.32,98.2,355.87,100.21,357.06,101.76Z"/><path class="cls-13" d="M360.86,92.44v3.24l-.05,1.06a3.84,3.84,0,0,1-.11.59h0c-.42.4-.71.67-.76.7l-1.45-6.35C358.58,91.7,359.64,92,360.86,92.44Z"/><path class="cls-13" d="M352.18,94.57,358,91.64c-.13-.08-4.45-1.58-4.45-1.58S352.19,94.42,352.18,94.57Z"/></g><path class="cls-14" d="M357.77,79.44,306.81,50a17,17,0,0,0-6.73-2.17v-.08H63a17,17,0,0,0-9,2.25l-51,29.43a6.17,6.17,0,0,0,0,10.68l51,29.43a17,17,0,0,0,8,2.25v0H300.08v-.1a17,17,0,0,0,6.73-2.17l51-29.43A6.17,6.17,0,0,0,357.77,79.44Z"/><polygon class="cls-14" points="360.86 84.38 0 84.78 0 80.32 360.86 79.91 360.86 84.38"/><path class="cls-9" d="M357.77,74.86l-51-29.42a17,17,0,0,0-6.73-2.17v-.09H63a16.91,16.91,0,0,0-9,2.26l-51,29.42a6.17,6.17,0,0,0,0,10.68l51,29.43a16.92,16.92,0,0,0,8,2.25v0H300.08v-.1a17,17,0,0,0,6.73-2.17l51-29.43A6.17,6.17,0,0,0,357.77,74.86Z"/><polygon class="cls-15" points="137.43 25.04 131.71 21.74 129.43 25.68 129.43 51 139.71 56.93 139.71 31.61 137.43 25.04"/><polygon class="cls-14" points="137.43 21.91 131.71 18.61 131.71 21.74 137.43 25.04 137.43 21.91"/><polygon class="cls-16" points="131.44 30.3 130.39 29.7 130.39 27.95 131.44 28.55 131.44 30.3"/><polygon class="cls-16" points="133.26 31.36 132.22 30.75 132.22 29 133.26 29.61 133.26 31.36"/><polygon class="cls-16" points="135.09 32.41 134.04 31.81 134.04 30.06 135.09 30.66 135.09 32.41"/><polygon class="cls-16" points="136.92 33.47 135.87 32.86 135.87 31.11 136.92 31.72 136.92 33.47"/><polygon class="cls-16" points="138.75 34.52 137.7 33.92 137.7 32.17 138.75 32.77 138.75 34.52"/><polygon class="cls-16" points="131.44 33.18 130.39 32.58 130.39 30.82 131.44 31.43 131.44 33.18"/><polygon class="cls-16" points="133.26 34.24 132.22 33.63 132.22 31.88 133.26 32.48 133.26 34.24"/><polygon class="cls-16" points="135.09 35.29 134.04 34.69 134.04 32.93 135.09 33.54 135.09 35.29"/><polygon class="cls-16" points="136.92 36.35 135.87 35.74 135.87 33.99 136.92 34.59 136.92 36.35"/><polygon class="cls-16" points="138.75 37.4 137.7 36.8 137.7 35.04 138.75 35.65 138.75 37.4"/><polygon class="cls-16" points="131.44 36.06 130.39 35.45 130.39 33.7 131.44 34.31 131.44 36.06"/><polygon class="cls-16" points="133.26 37.11 132.22 36.51 132.22 34.76 133.26 35.36 133.26 37.11"/><polygon class="cls-16" points="135.09 38.17 134.04 37.56 134.04 35.81 135.09 36.42 135.09 38.17"/><polygon class="cls-16" points="136.92 39.22 135.87 38.62 135.87 36.87 136.92 37.47 136.92 39.22"/><polygon class="cls-16" points="138.75 40.28 137.7 39.67 137.7 37.92 138.75 38.53 138.75 40.28"/><polygon class="cls-16" points="131.44 38.93 130.39 38.33 130.39 36.58 131.44 37.18 131.44 38.93"/><polygon class="cls-16" points="133.26 39.99 132.22 39.38 132.22 37.63 133.26 38.24 133.26 39.99"/><polygon class="cls-16" points="135.09 41.04 134.04 40.44 134.04 38.69 135.09 39.29 135.09 41.04"/><polygon class="cls-16" points="136.92 42.1 135.87 41.49 135.87 39.74 136.92 40.35 136.92 42.1"/><polygon class="cls-16" points="138.75 43.16 137.7 42.55 137.7 40.8 138.75 41.4 138.75 43.16"/><polygon class="cls-16" points="131.44 41.81 130.39 41.2 130.39 39.45 131.44 40.06 131.44 41.81"/><polygon class="cls-16" points="133.26 42.87 132.22 42.26 132.22 40.51 133.26 41.12 133.26 42.87"/><polygon class="cls-16" points="135.09 43.92 134.04 43.32 134.04 41.56 135.09 42.17 135.09 43.92"/><polygon class="cls-16" points="136.92 44.98 135.87 44.37 135.87 42.62 136.92 43.23 136.92 44.98"/><polygon class="cls-16" points="138.75 46.03 137.7 45.43 137.7 43.67 138.75 44.28 138.75 46.03"/><polygon class="cls-16" points="131.44 44.69 130.39 44.08 130.39 42.33 131.44 42.94 131.44 44.69"/><polygon class="cls-16" points="133.26 45.74 132.22 45.14 132.22 43.39 133.26 43.99 133.26 45.74"/><polygon class="cls-16" points="135.09 46.8 134.04 46.19 134.04 44.44 135.09 45.05 135.09 46.8"/><polygon class="cls-16" points="136.92 47.85 135.87 47.25 135.87 45.5 136.92 46.1 136.92 47.85"/><polygon class="cls-16" points="138.75 48.91 137.7 48.3 137.7 46.55 138.75 47.16 138.75 48.91"/><polygon class="cls-16" points="131.44 47.56 130.39 46.96 130.39 45.21 131.44 45.81 131.44 47.56"/><polygon class="cls-16" points="133.26 48.62 132.22 48.01 132.22 46.26 133.26 46.87 133.26 48.62"/><polygon class="cls-16" points="135.09 49.67 134.04 49.07 134.04 47.32 135.09 47.92 135.09 49.67"/><polygon class="cls-16" points="136.92 50.73 135.87 50.12 135.87 48.37 136.92 48.98 136.92 50.73"/><polygon class="cls-16" points="138.75 51.78 137.7 51.18 137.7 49.43 138.75 50.03 138.75 51.78"/><polygon class="cls-16" points="131.44 50.44 130.39 49.84 130.39 48.09 131.44 48.69 131.44 50.44"/><polygon class="cls-16" points="133.26 51.5 132.22 50.89 132.22 49.14 133.26 49.74 133.26 51.5"/><polygon class="cls-16" points="135.09 52.55 134.04 51.95 134.04 50.2 135.09 50.8 135.09 52.55"/><polygon class="cls-16" points="136.92 53.61 135.87 53 135.87 51.25 136.92 51.85 136.92 53.61"/><polygon class="cls-16" points="138.75 54.66 137.7 54.06 137.7 52.3 138.75 52.91 138.75 54.66"/><polygon class="cls-17" points="146.29 53.13 139.71 56.93 139.71 31.64 146.29 27.84 146.29 53.13"/><polygon class="cls-18" points="144.02 21.28 137.43 25.08 139.71 31.64 146.29 27.84 144.02 21.28"/><polygon class="cls-17" points="144.02 21.28 137.43 25.08 137.43 21.93 144.02 18.13 144.02 21.28"/><polygon class="cls-18" points="131.71 18.61 137.43 21.93 144.02 18.13 138.29 14.8 131.71 18.61"/><polygon class="cls-19" points="159.59 22.6 151.49 27.27 164.34 35.24 172.44 22.02 159.59 22.6"/><polygon class="cls-15" points="164.34 63.33 151.49 55.91 151.49 27.27 164.34 26.7 164.34 63.33"/><polygon class="cls-16" points="154.9 32.2 153.01 31.11 153.01 28.68 154.9 29.77 154.9 32.2"/><polygon class="cls-16" points="157.53 33.72 155.65 32.64 155.65 30.2 157.53 31.29 157.53 33.72"/><polygon class="cls-16" points="160.17 35.24 158.29 34.16 158.29 31.72 160.17 32.81 160.17 35.24"/><polygon class="cls-16" points="162.81 36.77 160.92 35.68 160.92 33.25 162.81 34.33 162.81 36.77"/><polygon class="cls-20" points="154.9 35.55 153.01 34.46 153.01 32.02 154.9 33.11 154.9 35.55"/><polygon class="cls-20" points="157.53 37.07 155.65 35.98 155.65 33.55 157.53 34.63 157.53 37.07"/><polygon class="cls-20" points="160.17 38.59 158.29 37.5 158.29 35.07 160.17 36.16 160.17 38.59"/><polygon class="cls-20" points="162.81 40.11 160.92 39.02 160.92 36.59 162.81 37.68 162.81 40.11"/><polygon class="cls-16" points="154.9 38.89 153.01 37.8 153.01 35.37 154.9 36.46 154.9 38.89"/><polygon class="cls-16" points="157.53 40.41 155.65 39.33 155.65 36.89 157.53 37.98 157.53 40.41"/><polygon class="cls-16" points="160.17 41.94 158.29 40.85 158.29 38.41 160.17 39.5 160.17 41.94"/><polygon class="cls-16" points="162.81 43.46 160.92 42.37 160.92 39.94 162.81 41.02 162.81 43.46"/><polygon class="cls-20" points="154.9 42.24 153.01 41.15 153.01 38.72 154.9 39.8 154.9 42.24"/><polygon class="cls-20" points="157.53 43.76 155.65 42.67 155.65 40.24 157.53 41.32 157.53 43.76"/><polygon class="cls-20" points="160.17 45.28 158.29 44.19 158.29 41.76 160.17 42.84 160.17 45.28"/><polygon class="cls-20" points="162.81 46.8 160.92 45.72 160.92 43.28 162.81 44.37 162.81 46.8"/><polygon class="cls-16" points="154.9 45.58 153.01 44.49 153.01 42.06 154.9 43.15 154.9 45.58"/><polygon class="cls-16" points="157.53 47.1 155.65 46.02 155.65 43.58 157.53 44.67 157.53 47.1"/><polygon class="cls-16" points="160.17 48.63 158.29 47.54 158.29 45.1 160.17 46.19 160.17 48.63"/><polygon class="cls-16" points="162.81 50.15 160.92 49.06 160.92 46.63 162.81 47.71 162.81 50.15"/><polygon class="cls-20" points="154.9 48.93 153.01 47.84 153.01 45.41 154.9 46.49 154.9 48.93"/><polygon class="cls-20" points="157.53 50.45 155.65 49.36 155.65 46.93 157.53 48.01 157.53 50.45"/><polygon class="cls-20" points="160.17 51.97 158.29 50.88 158.29 48.45 160.17 49.53 160.17 51.97"/><polygon class="cls-20" points="162.81 53.49 160.92 52.41 160.92 49.97 162.81 51.06 162.81 53.49"/><polygon class="cls-16" points="154.9 52.27 153.01 51.18 153.01 48.75 154.9 49.84 154.9 52.27"/><polygon class="cls-16" points="157.53 53.79 155.65 52.71 155.65 50.27 157.53 51.36 157.53 53.79"/><polygon class="cls-16" points="160.17 55.31 158.29 54.23 158.29 51.79 160.17 52.88 160.17 55.31"/><polygon class="cls-16" points="162.81 56.84 160.92 55.75 160.92 53.32 162.81 54.4 162.81 56.84"/><polygon class="cls-20" points="154.9 55.62 153.01 54.53 153.01 52.09 154.9 53.18 154.9 55.62"/><polygon class="cls-20" points="157.53 57.14 155.65 56.05 155.65 53.62 157.53 54.7 157.53 57.14"/><polygon class="cls-20" points="160.17 58.66 158.29 57.57 158.29 55.14 160.17 56.23 160.17 58.66"/><polygon class="cls-20" points="162.81 60.18 160.92 59.09 160.92 56.66 162.81 57.75 162.81 60.18"/><polygon class="cls-21" points="172.44 58.65 164.34 63.33 164.33 26.7 172.44 22.02 172.44 58.65"/><polygon class="cls-15" points="192.84 25.84 187.12 22.53 184.84 26.47 184.84 51.8 195.12 57.73 195.12 32.41 192.84 25.84"/><polygon class="cls-14" points="192.84 22.71 187.12 19.41 187.12 22.53 192.84 25.84 192.84 22.71"/><polygon class="cls-16" points="186.85 31.1 185.8 30.5 185.8 28.75 186.85 29.35 186.85 31.1"/><polygon class="cls-16" points="188.68 32.16 187.63 31.55 187.63 29.8 188.68 30.41 188.68 32.16"/><polygon class="cls-16" points="190.5 33.21 189.45 32.61 189.45 30.86 190.5 31.46 190.5 33.21"/><polygon class="cls-16" points="192.33 34.27 191.28 33.66 191.28 31.91 192.33 32.52 192.33 34.27"/><polygon class="cls-16" points="194.16 35.32 193.11 34.72 193.11 32.97 194.16 33.57 194.16 35.32"/><polygon class="cls-16" points="186.85 33.98 185.8 33.37 185.8 31.62 186.85 32.23 186.85 33.98"/><polygon class="cls-16" points="188.68 35.03 187.63 34.43 187.63 32.68 188.68 33.28 188.68 35.03"/><polygon class="cls-16" points="190.5 36.09 189.45 35.48 189.45 33.73 190.5 34.34 190.5 36.09"/><polygon class="cls-16" points="192.33 37.14 191.28 36.54 191.28 34.79 192.33 35.39 192.33 37.14"/><polygon class="cls-16" points="194.16 38.2 193.11 37.59 193.11 35.84 194.16 36.45 194.16 38.2"/><polygon class="cls-16" points="186.85 36.86 185.8 36.25 185.8 34.5 186.85 35.1 186.85 36.86"/><polygon class="cls-16" points="188.67 37.91 187.63 37.3 187.63 35.55 188.67 36.16 188.67 37.91"/><polygon class="cls-16" points="190.5 38.97 189.45 38.36 189.45 36.61 190.5 37.22 190.5 38.97"/><polygon class="cls-16" points="192.33 40.02 191.28 39.41 191.28 37.66 192.33 38.27 192.33 40.02"/><polygon class="cls-16" points="194.16 41.08 193.11 40.47 193.11 38.72 194.16 39.33 194.16 41.08"/><polygon class="cls-16" points="186.85 39.73 185.8 39.13 185.8 37.38 186.85 37.98 186.85 39.73"/><polygon class="cls-16" points="188.67 40.79 187.63 40.18 187.63 38.43 188.67 39.04 188.67 40.79"/><polygon class="cls-16" points="190.5 41.84 189.45 41.24 189.45 39.49 190.5 40.09 190.5 41.84"/><polygon class="cls-16" points="192.33 42.9 191.28 42.29 191.28 40.54 192.33 41.15 192.33 42.9"/><polygon class="cls-16" points="194.16 43.95 193.11 43.35 193.11 41.6 194.16 42.2 194.16 43.95"/><polygon class="cls-16" points="186.85 42.61 185.8 42 185.8 40.25 186.85 40.86 186.85 42.61"/><polygon class="cls-16" points="188.67 43.66 187.63 43.06 187.63 41.31 188.67 41.91 188.67 43.66"/><polygon class="cls-16" points="190.5 44.72 189.45 44.11 189.45 42.36 190.5 42.97 190.5 44.72"/><polygon class="cls-16" points="192.33 45.77 191.28 45.17 191.28 43.42 192.33 44.02 192.33 45.77"/><polygon class="cls-16" points="194.16 46.83 193.11 46.22 193.11 44.47 194.16 45.08 194.16 46.83"/><polygon class="cls-16" points="186.85 45.49 185.8 44.88 185.8 43.13 186.85 43.73 186.85 45.49"/><polygon class="cls-16" points="188.67 46.54 187.63 45.94 187.63 44.18 188.67 44.79 188.67 46.54"/><polygon class="cls-16" points="190.5 47.6 189.45 46.99 189.45 45.24 190.5 45.84 190.5 47.6"/><polygon class="cls-16" points="192.33 48.65 191.28 48.05 191.28 46.29 192.33 46.9 192.33 48.65"/><polygon class="cls-16" points="194.16 49.71 193.11 49.1 193.11 47.35 194.16 47.95 194.16 49.71"/><polygon class="cls-16" points="186.85 48.36 185.8 47.76 185.8 46.01 186.85 46.61 186.85 48.36"/><polygon class="cls-16" points="188.67 49.42 187.63 48.81 187.63 47.06 188.67 47.67 188.67 49.42"/><polygon class="cls-16" points="190.5 50.47 189.45 49.87 189.45 48.12 190.5 48.72 190.5 50.47"/><polygon class="cls-16" points="192.33 51.53 191.28 50.92 191.28 49.17 192.33 49.78 192.33 51.53"/><polygon class="cls-16" points="194.16 52.58 193.11 51.98 193.11 50.23 194.16 50.83 194.16 52.58"/><polygon class="cls-16" points="186.85 51.24 185.8 50.63 185.8 48.88 186.85 49.49 186.85 51.24"/><polygon class="cls-16" points="188.67 52.3 187.63 51.69 187.63 49.94 188.67 50.54 188.67 52.3"/><polygon class="cls-16" points="190.5 53.35 189.45 52.74 189.45 50.99 190.5 51.6 190.5 53.35"/><polygon class="cls-16" points="192.33 54.41 191.28 53.8 191.28 52.05 192.33 52.65 192.33 54.41"/><polygon class="cls-16" points="194.16 55.46 193.11 54.85 193.11 53.1 194.16 53.71 194.16 55.46"/><polygon class="cls-17" points="201.7 53.93 195.12 57.73 195.12 32.44 201.7 28.64 201.7 53.93"/><polygon class="cls-18" points="199.43 22.08 192.84 25.88 195.12 32.44 201.7 28.64 199.43 22.08"/><polygon class="cls-17" points="199.43 22.08 192.84 25.88 192.84 22.73 199.43 18.93 199.43 22.08"/><polygon class="cls-18" points="187.12 19.41 192.84 22.73 199.43 18.93 193.7 15.6 187.12 19.41"/><polygon class="cls-17" points="125.68 76.81 114.1 70.13 114.1 45.04 125.68 44.71 125.68 76.81"/><polygon class="cls-16" points="124.31 53.4 115.47 48.29 115.47 47.07 124.31 52.18 124.31 53.4"/><polygon class="cls-16" points="124.31 55.92 115.47 50.81 115.47 49.59 124.31 54.7 124.31 55.92"/><polygon class="cls-16" points="124.31 58.45 115.47 53.34 115.47 52.12 124.31 57.23 124.31 58.45"/><polygon class="cls-16" points="124.31 60.97 115.47 55.86 115.47 54.65 124.31 59.76 124.31 60.97"/><polygon class="cls-16" points="124.31 63.5 115.47 58.39 115.47 57.17 124.31 62.28 124.31 63.5"/><polygon class="cls-16" points="124.31 66.02 115.46 60.92 115.46 59.7 124.31 64.81 124.31 66.02"/><polygon class="cls-16" points="124.31 68.55 115.46 63.44 115.46 62.22 124.31 67.33 124.31 68.55"/><polygon class="cls-16" points="124.31 71.08 115.46 65.97 115.46 64.75 124.31 69.86 124.31 71.08"/><polygon class="cls-16" points="124.31 73.6 115.46 68.49 115.46 67.28 124.31 72.38 124.31 73.6"/><polygon class="cls-11" points="131.41 73.5 125.68 76.81 125.68 44.71 131.41 41.41 131.41 73.5"/><polygon class="cls-22" points="131.41 41.41 119.83 41.73 114.1 45.04 125.68 44.71 131.41 41.41"/><polygon class="cls-15" points="151.27 83.67 139.69 76.98 139.69 51.89 151.27 51.57 151.27 83.67"/><polygon class="cls-16" points="149.9 60.25 141.06 55.14 141.06 53.92 149.9 59.03 149.9 60.25"/><polygon class="cls-16" points="149.9 62.78 141.06 57.67 141.06 56.45 149.9 61.56 149.9 62.78"/><polygon class="cls-16" points="149.9 65.3 141.06 60.19 141.06 58.98 149.9 64.08 149.9 65.3"/><polygon class="cls-16" points="149.9 67.83 141.06 62.72 141.06 61.5 149.9 66.61 149.9 67.83"/><polygon class="cls-16" points="149.9 70.35 141.06 65.25 141.06 64.03 149.9 69.14 149.9 70.35"/><polygon class="cls-16" points="149.9 72.88 141.06 67.77 141.06 66.55 149.9 71.66 149.9 72.88"/><polygon class="cls-16" points="149.9 75.41 141.06 70.3 141.06 69.08 149.9 74.19 149.9 75.41"/><polygon class="cls-16" points="149.9 77.93 141.06 72.82 141.06 71.61 149.9 76.71 149.9 77.93"/><polygon class="cls-16" points="149.9 80.46 141.06 75.35 141.06 74.13 149.9 79.24 149.9 80.46"/><polygon class="cls-21" points="157 80.36 151.27 83.67 151.27 51.57 157 48.26 157 80.36"/><polygon class="cls-19" points="157 48.26 145.42 48.59 139.69 51.89 151.27 51.57 157 48.26"/><polygon class="cls-22" points="175.41 42.99 167.31 47.67 180.16 55.64 188.26 42.41 175.41 42.99"/><polygon class="cls-17" points="180.16 83.72 167.31 76.3 167.31 47.67 180.16 47.09 180.16 83.72"/><polygon class="cls-16" points="170.72 52.59 168.84 51.51 168.84 49.07 170.72 50.16 170.72 52.59"/><polygon class="cls-16" points="173.36 54.12 171.48 53.03 171.48 50.6 173.36 51.68 173.36 54.12"/><polygon class="cls-16" points="176 55.64 174.11 54.55 174.11 52.12 176 53.2 176 55.64"/><polygon class="cls-16" points="178.63 57.16 176.75 56.07 176.75 53.64 178.63 54.73 178.63 57.16"/><polygon class="cls-20" points="170.72 55.94 168.84 54.85 168.84 52.42 170.72 53.51 170.72 55.94"/><polygon class="cls-20" points="173.36 57.46 171.48 56.38 171.48 53.94 173.36 55.03 173.36 57.46"/><polygon class="cls-20" points="175.99 58.98 174.11 57.9 174.11 55.46 176 56.55 175.99 58.98"/><polygon class="cls-20" points="178.63 60.51 176.75 59.42 176.75 56.98 178.63 58.07 178.63 60.51"/><polygon class="cls-16" points="170.72 59.28 168.84 58.2 168.84 55.76 170.72 56.85 170.72 59.28"/><polygon class="cls-16" points="173.36 60.81 171.48 59.72 171.48 57.29 173.36 58.37 173.36 60.81"/><polygon class="cls-16" points="175.99 62.33 174.11 61.24 174.11 58.81 175.99 59.9 175.99 62.33"/><polygon class="cls-16" points="178.63 63.85 176.75 62.76 176.75 60.33 178.63 61.42 178.63 63.85"/><polygon class="cls-20" points="170.72 62.63 168.84 61.54 168.84 59.11 170.72 60.2 170.72 62.63"/><polygon class="cls-20" points="173.36 64.15 171.48 63.06 171.48 60.63 173.36 61.72 173.36 64.15"/><polygon class="cls-20" points="175.99 65.67 174.11 64.59 174.11 62.15 175.99 63.24 175.99 65.67"/><polygon class="cls-20" points="178.63 67.2 176.75 66.11 176.75 63.67 178.63 64.76 178.63 67.2"/><polygon class="cls-16" points="170.72 65.97 168.84 64.89 168.84 62.45 170.72 63.54 170.72 65.97"/><polygon class="cls-16" points="173.36 67.5 171.48 66.41 171.48 63.98 173.36 65.06 173.36 67.5"/><polygon class="cls-16" points="175.99 69.02 174.11 67.93 174.11 65.5 175.99 66.58 175.99 69.02"/><polygon class="cls-16" points="178.63 70.54 176.75 69.45 176.75 67.02 178.63 68.11 178.63 70.54"/><polygon class="cls-20" points="170.72 69.32 168.84 68.23 168.84 65.8 170.72 66.89 170.72 69.32"/><polygon class="cls-20" points="173.36 70.84 171.48 69.75 171.48 67.32 173.36 68.41 173.36 70.84"/><polygon class="cls-20" points="175.99 72.36 174.11 71.28 174.11 68.84 175.99 69.93 175.99 72.36"/><polygon class="cls-20" points="178.63 73.89 176.75 72.8 176.75 70.36 178.63 71.45 178.63 73.89"/><polygon class="cls-16" points="170.72 72.67 168.84 71.58 168.84 69.14 170.72 70.23 170.72 72.67"/><polygon class="cls-16" points="173.36 74.19 171.48 73.1 171.48 70.67 173.36 71.75 173.36 74.19"/><polygon class="cls-16" points="175.99 75.71 174.11 74.62 174.11 72.19 175.99 73.27 175.99 75.71"/><polygon class="cls-16" points="178.63 77.23 176.75 76.14 176.75 73.71 178.63 74.8 178.63 77.23"/><polygon class="cls-20" points="170.72 76.01 168.84 74.92 168.84 72.49 170.72 73.58 170.72 76.01"/><polygon class="cls-20" points="173.36 77.53 171.48 76.44 171.48 74.01 173.36 75.1 173.36 77.53"/><polygon class="cls-20" points="175.99 79.05 174.11 77.97 174.11 75.53 175.99 76.62 175.99 79.05"/><polygon class="cls-20" points="178.63 80.58 176.75 79.49 176.75 77.05 178.63 78.14 178.63 80.58"/><polygon class="cls-11" points="188.26 79.04 180.16 83.72 180.16 47.09 188.26 42.41 188.26 79.04"/><polygon class="cls-15" points="206.67 47.66 212.4 44.35 214.67 48.29 214.67 73.61 204.4 79.55 204.4 54.22 206.67 47.66"/><polygon class="cls-14" points="206.67 44.53 212.4 41.22 212.4 44.35 206.67 47.66 206.67 44.53"/><polygon class="cls-16" points="212.66 52.92 213.71 52.31 213.71 50.56 212.66 51.17 212.66 52.92"/><polygon class="cls-16" points="210.84 53.97 211.88 53.37 211.88 51.62 210.84 52.22 210.84 53.97"/><polygon class="cls-16" points="209.01 55.03 210.06 54.42 210.06 52.67 209.01 53.28 209.01 55.03"/><polygon class="cls-16" points="207.18 56.08 208.23 55.48 208.23 53.73 207.18 54.33 207.18 56.08"/><polygon class="cls-16" points="205.35 57.14 206.4 56.53 206.4 54.78 205.35 55.39 205.35 57.14"/><polygon class="cls-16" points="212.66 55.8 213.71 55.19 213.71 53.44 212.66 54.04 212.66 55.8"/><polygon class="cls-16" points="210.84 56.85 211.88 56.24 211.88 54.49 210.84 55.1 210.84 56.85"/><polygon class="cls-16" points="209.01 57.91 210.06 57.3 210.06 55.55 209.01 56.15 209.01 57.91"/><polygon class="cls-16" points="207.18 58.96 208.23 58.35 208.23 56.6 207.18 57.21 207.18 58.96"/><polygon class="cls-16" points="205.35 60.02 206.4 59.41 206.4 57.66 205.35 58.27 205.35 60.02"/><polygon class="cls-16" points="212.66 58.67 213.71 58.07 213.71 56.32 212.66 56.92 212.66 58.67"/><polygon class="cls-16" points="210.84 59.73 211.88 59.12 211.88 57.37 210.84 57.98 210.84 59.73"/><polygon class="cls-16" points="209.01 60.78 210.06 60.18 210.06 58.43 209.01 59.03 209.01 60.78"/><polygon class="cls-16" points="207.18 61.84 208.23 61.23 208.23 59.48 207.18 60.09 207.18 61.84"/><polygon class="cls-16" points="205.35 62.89 206.4 62.29 206.4 60.54 205.35 61.14 205.35 62.89"/><polygon class="cls-16" points="212.66 61.55 213.71 60.94 213.71 59.19 212.66 59.8 212.66 61.55"/><polygon class="cls-16" points="210.84 62.6 211.88 62 211.88 60.25 210.84 60.85 210.84 62.6"/><polygon class="cls-16" points="209.01 63.66 210.06 63.05 210.06 61.3 209.01 61.91 209.01 63.66"/><polygon class="cls-16" points="207.18 64.71 208.23 64.11 208.23 62.36 207.18 62.96 207.18 64.71"/><polygon class="cls-16" points="205.35 65.77 206.4 65.16 206.4 63.41 205.35 64.02 205.35 65.77"/><polygon class="cls-16" points="212.66 64.43 213.71 63.82 213.71 62.07 212.66 62.67 212.66 64.43"/><polygon class="cls-16" points="210.84 65.48 211.88 64.88 211.88 63.12 210.84 63.73 210.84 65.48"/><polygon class="cls-16" points="209.01 66.54 210.06 65.93 210.06 64.18 209.01 64.78 209.01 66.54"/><polygon class="cls-16" points="207.18 67.59 208.23 66.98 208.23 65.23 207.18 65.84 207.18 67.59"/><polygon class="cls-16" points="205.35 68.65 206.4 68.04 206.4 66.29 205.35 66.89 205.35 68.65"/><polygon class="cls-16" points="212.66 67.3 213.71 66.7 213.71 64.95 212.66 65.55 212.66 67.3"/><polygon class="cls-16" points="210.84 68.36 211.88 67.75 211.88 66 210.84 66.61 210.84 68.36"/><polygon class="cls-16" points="209.01 69.41 210.06 68.81 210.06 67.06 209.01 67.66 209.01 69.41"/><polygon class="cls-16" points="207.18 70.47 208.23 69.86 208.23 68.11 207.18 68.72 207.18 70.47"/><polygon class="cls-16" points="205.35 71.52 206.4 70.92 206.4 69.17 205.35 69.77 205.35 71.52"/><polygon class="cls-16" points="212.66 70.18 213.71 69.57 213.71 67.82 212.66 68.43 212.66 70.18"/><polygon class="cls-16" points="210.84 71.23 211.88 70.63 211.88 68.88 210.84 69.48 210.84 71.23"/><polygon class="cls-16" points="209.01 72.29 210.06 71.68 210.06 69.93 209.01 70.54 209.01 72.29"/><polygon class="cls-16" points="207.18 73.34 208.23 72.74 208.23 70.99 207.18 71.59 207.18 73.34"/><polygon class="cls-16" points="205.35 74.4 206.4 73.79 206.4 72.04 205.35 72.65 205.35 74.4"/><polygon class="cls-16" points="212.66 73.06 213.71 72.45 213.71 70.7 212.66 71.31 212.66 73.06"/><polygon class="cls-16" points="210.84 74.11 211.88 73.5 211.88 71.75 210.84 72.36 210.84 74.11"/><polygon class="cls-16" points="209.01 75.17 210.06 74.56 210.06 72.81 209.01 73.42 209.01 75.17"/><polygon class="cls-16" points="207.18 76.22 208.23 75.61 208.23 73.86 207.18 74.47 207.18 76.22"/><polygon class="cls-16" points="205.35 77.28 206.4 76.67 206.4 74.92 205.35 75.53 205.35 77.28"/><polygon class="cls-17" points="197.81 75.74 204.4 79.55 204.4 54.26 197.81 50.45 197.81 75.74"/><polygon class="cls-18" points="200.08 43.89 206.67 47.7 204.4 54.26 197.81 50.45 200.08 43.89"/><polygon class="cls-17" points="200.08 43.89 206.67 47.7 206.67 44.55 200.08 40.74 200.08 43.89"/><polygon class="cls-18" points="212.4 41.22 206.67 44.55 200.08 40.74 205.81 37.42 212.4 41.22"/><polygon class="cls-19" points="182.98 68.36 191.08 73.03 178.23 81 170.13 67.78 182.98 68.36"/><polygon class="cls-15" points="178.23 109.08 191.08 101.66 191.08 73.03 178.23 72.45 178.23 109.08"/><polygon class="cls-16" points="187.67 77.96 189.55 76.87 189.55 74.44 187.67 75.53 187.67 77.96"/><polygon class="cls-16" points="185.03 79.48 186.91 78.39 186.91 75.96 185.03 77.05 185.03 79.48"/><polygon class="cls-16" points="182.4 81 184.28 79.92 184.28 77.48 182.4 78.57 182.4 81"/><polygon class="cls-16" points="179.76 82.53 181.64 81.44 181.64 79 179.76 80.09 179.76 82.53"/><polygon class="cls-20" points="187.67 81.3 189.55 80.22 189.55 77.78 187.67 78.87 187.67 81.3"/><polygon class="cls-20" points="185.03 82.83 186.91 81.74 186.91 79.31 185.03 80.39 185.03 82.83"/><polygon class="cls-20" points="182.4 84.35 184.28 83.26 184.28 80.83 182.4 81.91 182.4 84.35"/><polygon class="cls-20" points="179.76 85.87 181.64 84.78 181.64 82.35 179.76 83.44 179.76 85.87"/><polygon class="cls-16" points="187.67 84.65 189.55 83.56 189.55 81.13 187.67 82.22 187.67 84.65"/><polygon class="cls-16" points="185.03 86.17 186.91 85.08 186.91 82.65 185.03 83.74 185.03 86.17"/><polygon class="cls-16" points="182.4 87.69 184.28 86.61 184.28 84.17 182.4 85.26 182.4 87.69"/><polygon class="cls-16" points="179.76 89.22 181.64 88.13 181.64 85.69 179.76 86.78 179.76 89.22"/><polygon class="cls-20" points="187.67 87.99 189.55 86.91 189.55 84.47 187.67 85.56 187.67 87.99"/><polygon class="cls-20" points="185.03 89.52 186.92 88.43 186.91 86 185.03 87.08 185.03 89.52"/><polygon class="cls-20" points="182.4 91.04 184.28 89.95 184.28 87.52 182.4 88.6 182.4 91.04"/><polygon class="cls-20" points="179.76 92.56 181.64 91.47 181.64 89.04 179.76 90.13 179.76 92.56"/><polygon class="cls-16" points="187.67 91.34 189.55 90.25 189.55 87.82 187.67 88.9 187.67 91.34"/><polygon class="cls-16" points="185.03 92.86 186.92 91.77 186.92 89.34 185.03 90.43 185.03 92.86"/><polygon class="cls-16" points="182.4 94.38 184.28 93.3 184.28 90.86 182.4 91.95 182.4 94.38"/><polygon class="cls-16" points="179.76 95.91 181.64 94.82 181.64 92.38 179.76 93.47 179.76 95.91"/><polygon class="cls-20" points="187.67 94.68 189.55 93.6 189.55 91.16 187.67 92.25 187.67 94.68"/><polygon class="cls-20" points="185.03 96.21 186.92 95.12 186.92 92.69 185.03 93.77 185.03 96.21"/><polygon class="cls-20" points="182.4 97.73 184.28 96.64 184.28 94.21 182.4 95.29 182.4 97.73"/><polygon class="cls-20" points="179.76 99.25 181.64 98.16 181.64 95.73 179.76 96.81 179.76 99.25"/><polygon class="cls-16" points="187.67 98.03 189.55 96.94 189.55 94.51 187.67 95.59 187.67 98.03"/><polygon class="cls-16" points="185.03 99.55 186.92 98.46 186.92 96.03 185.03 97.12 185.03 99.55"/><polygon class="cls-16" points="182.4 101.07 184.28 99.99 184.28 97.55 182.4 98.64 182.4 101.07"/><polygon class="cls-16" points="179.76 102.59 181.64 101.51 181.64 99.07 179.76 100.16 179.76 102.59"/><polygon class="cls-20" points="187.67 101.37 189.55 100.29 189.55 97.85 187.67 98.94 187.67 101.37"/><polygon class="cls-20" points="185.03 102.9 186.92 101.81 186.92 99.38 185.03 100.46 185.03 102.9"/><polygon class="cls-20" points="182.4 104.42 184.28 103.33 184.28 100.9 182.4 101.98 182.4 104.42"/><polygon class="cls-20" points="179.76 105.94 181.64 104.85 181.64 102.42 179.76 103.5 179.76 105.94"/><polygon class="cls-21" points="170.13 104.41 178.23 109.08 178.23 72.45 170.13 67.78 170.13 104.41"/><polygon class="cls-15" points="151.92 77.67 157.64 74.36 159.92 78.3 159.92 103.63 149.64 109.56 149.64 84.23 151.92 77.67"/><polygon class="cls-14" points="151.92 74.54 157.64 71.24 157.64 74.36 151.92 77.67 151.92 74.54"/><polygon class="cls-16" points="157.91 82.93 158.96 82.33 158.96 80.57 157.91 81.18 157.91 82.93"/><polygon class="cls-16" points="156.08 83.99 157.13 83.38 157.13 81.63 156.08 82.23 156.08 83.99"/><polygon class="cls-16" points="154.25 85.04 155.3 84.44 155.3 82.69 154.25 83.29 154.25 85.04"/><polygon class="cls-16" points="152.43 86.1 153.48 85.49 153.48 83.74 152.43 84.34 152.43 86.1"/><polygon class="cls-16" points="150.6 87.15 151.65 86.55 151.65 84.8 150.6 85.4 150.6 87.15"/><polygon class="cls-16" points="157.91 85.81 158.96 85.2 158.96 83.45 157.91 84.06 157.91 85.81"/><polygon class="cls-16" points="156.08 86.86 157.13 86.26 157.13 84.51 156.08 85.11 156.08 86.86"/><polygon class="cls-16" points="154.25 87.92 155.3 87.31 155.3 85.56 154.25 86.17 154.25 87.92"/><polygon class="cls-16" points="152.43 88.97 153.48 88.37 153.48 86.62 152.43 87.22 152.43 88.97"/><polygon class="cls-16" points="150.6 90.03 151.65 89.42 151.65 87.67 150.6 88.28 150.6 90.03"/><polygon class="cls-16" points="157.91 88.69 158.96 88.08 158.96 86.33 157.91 86.93 157.91 88.69"/><polygon class="cls-16" points="156.08 89.74 157.13 89.13 157.13 87.38 156.08 87.99 156.08 89.74"/><polygon class="cls-16" points="154.25 90.8 155.3 90.19 155.3 88.44 154.25 89.04 154.25 90.8"/><polygon class="cls-16" points="152.43 91.85 153.48 91.24 153.48 89.49 152.43 90.1 152.43 91.85"/><polygon class="cls-16" points="150.6 92.91 151.65 92.3 151.65 90.55 150.6 91.15 150.6 92.91"/><polygon class="cls-16" points="157.91 91.56 158.96 90.96 158.96 89.2 157.91 89.81 157.91 91.56"/><polygon class="cls-16" points="156.08 92.62 157.13 92.01 157.13 90.26 156.08 90.87 156.08 92.62"/><polygon class="cls-16" points="154.25 93.67 155.3 93.07 155.3 91.31 154.25 91.92 154.25 93.67"/><polygon class="cls-16" points="152.43 94.73 153.48 94.12 153.48 92.37 152.43 92.97 152.43 94.73"/><polygon class="cls-16" points="150.6 95.78 151.65 95.18 151.65 93.42 150.6 94.03 150.6 95.78"/><polygon class="cls-16" points="157.91 94.44 158.96 93.83 158.96 92.08 157.91 92.69 157.91 94.44"/><polygon class="cls-16" points="156.08 95.49 157.13 94.89 157.13 93.14 156.08 93.74 156.08 95.49"/><polygon class="cls-16" points="154.25 96.55 155.3 95.94 155.3 94.19 154.25 94.8 154.25 96.55"/><polygon class="cls-16" points="152.43 97.6 153.48 97 153.48 95.25 152.43 95.85 152.43 97.6"/><polygon class="cls-16" points="150.6 98.66 151.65 98.05 151.65 96.3 150.6 96.91 150.6 98.66"/><polygon class="cls-16" points="157.91 97.31 158.96 96.71 158.96 94.96 157.91 95.56 157.91 97.31"/><polygon class="cls-16" points="156.08 98.37 157.13 97.76 157.13 96.01 156.08 96.62 156.08 98.37"/><polygon class="cls-16" points="154.25 99.42 155.3 98.82 155.3 97.07 154.25 97.67 154.25 99.42"/><polygon class="cls-16" points="152.43 100.48 153.48 99.87 153.48 98.12 152.43 98.73 152.43 100.48"/><polygon class="cls-16" points="150.6 101.53 151.65 100.93 151.65 99.18 150.6 99.78 150.6 101.53"/><polygon class="cls-16" points="157.91 100.19 158.96 99.59 158.96 97.83 157.91 98.44 157.91 100.19"/><polygon class="cls-16" points="156.08 101.25 157.13 100.64 157.13 98.89 156.08 99.5 156.08 101.25"/><polygon class="cls-16" points="154.25 102.3 155.3 101.7 155.3 99.94 154.25 100.55 154.25 102.3"/><polygon class="cls-16" points="152.43 103.36 153.48 102.75 153.48 101 152.43 101.61 152.43 103.36"/><polygon class="cls-16" points="150.6 104.41 151.65 103.81 151.65 102.06 150.6 102.66 150.6 104.41"/><polygon class="cls-16" points="157.91 103.07 158.96 102.46 158.96 100.71 157.91 101.32 157.91 103.07"/><polygon class="cls-16" points="156.08 104.12 157.13 103.52 157.13 101.77 156.08 102.37 156.08 104.12"/><polygon class="cls-16" points="154.25 105.18 155.3 104.57 155.3 102.82 154.25 103.43 154.25 105.18"/><polygon class="cls-16" points="152.43 106.23 153.48 105.63 153.48 103.88 152.43 104.48 152.43 106.23"/><polygon class="cls-16" points="150.6 107.29 151.65 106.68 151.65 104.93 150.6 105.54 150.6 107.29"/><polygon class="cls-17" points="143.05 105.76 149.64 109.56 149.64 84.27 143.05 80.47 143.05 105.76"/><polygon class="cls-18" points="145.33 73.91 151.92 77.71 149.64 84.27 143.05 80.47 145.33 73.91"/><polygon class="cls-17" points="145.33 73.91 151.92 77.71 151.92 74.56 145.33 70.75 145.33 73.91"/><polygon class="cls-18" points="157.64 71.24 151.92 74.56 145.33 70.75 151.05 67.43 157.64 71.24"/><polygon class="cls-17" points="223.11 59.2 234.69 52.52 234.69 27.43 223.11 27.1 223.11 59.2"/><polygon class="cls-16" points="224.47 35.79 233.32 30.68 233.32 29.46 224.47 34.57 224.47 35.79"/><polygon class="cls-16" points="224.47 38.31 233.32 33.2 233.32 31.98 224.47 37.09 224.47 38.31"/><polygon class="cls-16" points="224.47 40.84 233.32 35.73 233.32 34.51 224.47 39.62 224.47 40.84"/><polygon class="cls-16" points="224.47 43.36 233.32 38.26 233.32 37.04 224.47 42.15 224.47 43.36"/><polygon class="cls-16" points="224.47 45.89 233.32 40.78 233.32 39.56 224.47 44.67 224.47 45.89"/><polygon class="cls-16" points="224.47 48.41 233.32 43.31 233.32 42.09 224.47 47.2 224.47 48.41"/><polygon class="cls-16" points="224.47 50.94 233.32 45.83 233.32 44.61 224.47 49.72 224.47 50.94"/><polygon class="cls-16" points="224.47 53.47 233.32 48.36 233.32 47.14 224.47 52.25 224.47 53.47"/><polygon class="cls-16" points="224.47 55.99 233.32 50.88 233.32 49.66 224.47 54.77 224.47 55.99"/><polygon class="cls-11" points="217.38 55.9 223.11 59.2 223.11 27.1 217.38 23.8 217.38 55.9"/><polygon class="cls-22" points="217.38 23.8 228.96 24.12 234.69 27.43 223.11 27.1 217.38 23.8"/><polygon class="cls-15" points="206.62 108.14 218.2 101.45 218.2 76.36 206.62 76.04 206.62 108.14"/><polygon class="cls-16" points="207.99 84.72 216.84 79.61 216.84 78.39 207.99 83.5 207.99 84.72"/><polygon class="cls-16" points="207.99 87.25 216.84 82.14 216.84 80.92 207.99 86.03 207.99 87.25"/><polygon class="cls-16" points="207.99 89.77 216.84 84.66 216.84 83.44 207.99 88.55 207.99 89.77"/><polygon class="cls-16" points="207.99 92.3 216.84 87.19 216.84 85.97 207.99 91.08 207.99 92.3"/><polygon class="cls-16" points="207.99 94.82 216.84 89.71 216.84 88.5 207.99 93.61 207.99 94.82"/><polygon class="cls-16" points="207.99 97.35 216.84 92.24 216.84 91.02 207.99 96.13 207.99 97.35"/><polygon class="cls-16" points="207.99 99.87 216.84 94.77 216.84 93.55 207.99 98.66 207.99 99.87"/><polygon class="cls-16" points="207.99 102.4 216.84 97.29 216.84 96.07 207.99 101.18 207.99 102.4"/><polygon class="cls-16" points="207.99 104.93 216.84 99.82 216.84 98.6 207.99 103.71 207.99 104.93"/><polygon class="cls-21" points="200.89 104.83 206.62 108.14 206.62 76.04 200.89 72.73 200.89 104.83"/><polygon class="cls-19" points="200.89 72.73 212.47 73.05 218.2 76.36 206.62 76.04 200.89 72.73"/><polygon class="cls-22" points="129.01 69.54 137.11 74.22 124.26 82.19 116.16 68.96 129.01 69.54"/><polygon class="cls-17" points="124.26 110.27 137.11 102.85 137.11 74.22 124.26 73.64 124.26 110.27"/><polygon class="cls-16" points="133.7 79.14 135.58 78.06 135.58 75.63 133.7 76.71 133.7 79.14"/><polygon class="cls-16" points="131.06 80.67 132.94 79.58 132.94 77.15 131.06 78.23 131.06 80.67"/><polygon class="cls-16" points="128.43 82.19 130.31 81.1 130.31 78.67 128.43 79.75 128.43 82.19"/><polygon class="cls-16" points="125.79 83.71 127.67 82.63 127.67 80.19 125.79 81.28 125.79 83.71"/><polygon class="cls-20" points="133.7 82.49 135.58 81.4 135.58 78.97 133.7 80.06 133.7 82.49"/><polygon class="cls-20" points="131.06 84.01 132.94 82.93 132.94 80.49 131.06 81.58 131.06 84.01"/><polygon class="cls-20" points="128.43 85.53 130.31 84.45 130.31 82.01 128.43 83.1 128.43 85.53"/><polygon class="cls-20" points="125.79 87.06 127.67 85.97 127.67 83.53 125.79 84.62 125.79 87.06"/><polygon class="cls-16" points="133.7 85.84 135.58 84.75 135.58 82.31 133.7 83.4 133.7 85.84"/><polygon class="cls-16" points="131.06 87.36 132.94 86.27 132.94 83.84 131.06 84.92 131.06 87.36"/><polygon class="cls-16" points="128.43 88.88 130.31 87.79 130.31 85.36 128.43 86.44 128.43 88.88"/><polygon class="cls-16" points="125.79 90.4 127.67 89.31 127.67 86.88 125.79 87.97 125.79 90.4"/><polygon class="cls-20" points="133.7 89.18 135.58 88.09 135.58 85.66 133.7 86.75 133.7 89.18"/><polygon class="cls-20" points="131.06 90.7 132.94 89.62 132.94 87.18 131.06 88.27 131.06 90.7"/><polygon class="cls-20" points="128.43 92.22 130.31 91.14 130.31 88.7 128.43 89.79 128.43 92.22"/><polygon class="cls-20" points="125.79 93.75 127.67 92.66 127.67 90.22 125.79 91.31 125.79 93.75"/><polygon class="cls-16" points="133.7 92.53 135.58 91.44 135.58 89 133.7 90.09 133.7 92.53"/><polygon class="cls-16" points="131.06 94.05 132.94 92.96 132.94 90.53 131.06 91.61 131.06 94.05"/><polygon class="cls-16" points="128.43 95.57 130.31 94.48 130.31 92.05 128.43 93.14 128.43 95.57"/><polygon class="cls-16" points="125.79 97.09 127.67 96 127.67 93.57 125.79 94.66 125.79 97.09"/><polygon class="cls-20" points="133.7 95.87 135.58 94.78 135.58 92.35 133.7 93.44 133.7 95.87"/><polygon class="cls-20" points="131.06 97.39 132.94 96.31 132.94 93.87 131.06 94.96 131.06 97.39"/><polygon class="cls-20" points="128.43 98.91 130.31 97.83 130.31 95.39 128.43 96.48 128.43 98.91"/><polygon class="cls-20" points="125.79 100.44 127.67 99.35 127.67 96.92 125.79 98 125.79 100.44"/><polygon class="cls-16" points="133.7 99.22 135.58 98.13 135.58 95.69 133.7 96.78 133.7 99.22"/><polygon class="cls-16" points="131.06 100.74 132.94 99.65 132.94 97.22 131.06 98.3 131.06 100.74"/><polygon class="cls-16" points="128.43 102.26 130.31 101.17 130.31 98.74 128.43 99.83 128.43 102.26"/><polygon class="cls-16" points="125.79 103.78 127.67 102.69 127.67 100.26 125.79 101.35 125.79 103.78"/><polygon class="cls-20" points="133.7 102.56 135.58 101.47 135.58 99.04 133.7 100.13 133.7 102.56"/><polygon class="cls-20" points="131.06 104.08 132.94 103 132.94 100.56 131.06 101.65 131.06 104.08"/><polygon class="cls-20" points="128.43 105.6 130.31 104.52 130.31 102.08 128.43 103.17 128.43 105.6"/><polygon class="cls-20" points="125.79 107.13 127.67 106.04 127.67 103.61 125.79 104.69 125.79 107.13"/><polygon class="cls-11" points="116.16 105.59 124.26 110.27 124.26 73.64 116.16 68.96 116.16 105.59"/><path class="cls-23" d="M299.6,110.7l-5.24-11.29c-1.19-2.55-6.72-3.41-10-1.54l-14.31,8.27c-3.24,1.87-1.76,5.06,2.67,5.75l19.55,3C296.73,115.6,300.78,113.26,299.6,110.7Z"/><polygon class="cls-23" points="299.8 106.27 268.33 103.12 268.33 108.39 299.8 111.69 299.8 106.27"/><path class="cls-24" d="M294.36,94l5.24,11.29c1.18,2.56-2.87,4.9-7.3,4.21l-19.55-3c-4.43-.69-5.91-3.88-2.67-5.75l14.31-8.27C287.64,90.57,293.17,91.43,294.36,94Z"/><path class="cls-10" d="M272.86,103a3.8,3.8,0,0,0,3,1.73l3.71.58-.27.58,6.09-.94-4.46-2.58-.3.65-2.48-.39a.8.8,0,0,1-.61-.35c-.08-.17,0-.35.22-.48l1.63-.94-1.43-.8-1.47-.88L274,100.65C272.88,101.28,272.47,102.16,272.86,103Z"/><path class="cls-10" d="M284.89,97.7l1.82-1a1.27,1.27,0,0,1,.83-.13.8.8,0,0,1,.6.35l.6,1.28,4-.61-.93-2a3.82,3.82,0,0,0-3-1.73,6.49,6.49,0,0,0-4.09.63L282,96l-.74-.42-1.63,3.51,6.09-.94Z"/><path class="cls-10" d="M290.75,102.49l.66,1.43c.09.18,0,.36-.22.48a1.27,1.27,0,0,1-.83.13l-2.17-.33L287,106.47l3.51.54a6.45,6.45,0,0,0,4.09-.63c1.08-.63,1.49-1.51,1.09-2.36l-1-2.15,1-.15-4.45-2.57-1.63,3.51Z"/><path class="cls-13" d="M76.17,6a1.45,1.45,0,0,0,.24-.8,1.47,1.47,0,0,0-2.91-.28A2.27,2.27,0,0,0,72,4.38a2.31,2.31,0,0,0-2.26,1.81,3.17,3.17,0,0,0-1.93-.66,3.26,3.26,0,0,0-3.25,3.25,3.68,3.68,0,0,0,.06.57,1.9,1.9,0,0,0-.25,0,4.14,4.14,0,0,0-4.14,4.15,4.08,4.08,0,0,0,1,2.65,3.39,3.39,0,1,0,4.83,3.07A1.49,1.49,0,0,0,66,19,4.13,4.13,0,0,0,71,14.91c0-.15,0-.29,0-.44a2.2,2.2,0,0,0,.36,0,3.4,3.4,0,0,0,3.4-3.4,3.09,3.09,0,0,0-.13-.86A2.31,2.31,0,0,0,76.17,6Z"/><path class="cls-13" d="M76.94,0a1.23,1.23,0,1,0,1.22,1.22A1.22,1.22,0,0,0,76.94,0Z"/><path class="cls-13" d="M80.42.68a.61.61,0,1,0,.6.61A.61.61,0,0,0,80.42.68Z"/><path class="cls-13" d="M79.45,3.47a.92.92,0,0,0-.93.93.93.93,0,1,0,.93-.93Z"/><path class="cls-13" d="M84.44,21.52a1.7,1.7,0,0,0,.49-1.32,1.66,1.66,0,0,0-3.31,0,2.58,2.58,0,0,0-1.21-.2,2.61,2.61,0,0,0-2.21,1.61h-.36a2.62,2.62,0,0,0-2.41,2.82,3.1,3.1,0,0,0,.13.62,3.49,3.49,0,1,0,4.59,4,2.58,2.58,0,0,0,1.15.18,2.64,2.64,0,0,0,2.41-2.83A2.67,2.67,0,0,0,83.14,25h.26a2,2,0,0,0,1.8-2.11A1.94,1.94,0,0,0,84.44,21.52Z"/><path class="cls-13" d="M86.92,17.66a1.26,1.26,0,1,0,1.36,1.16A1.26,1.26,0,0,0,86.92,17.66Z"/><path class="cls-13" d="M87.88,14.71a.63.63,0,1,0,.67.57A.62.62,0,0,0,87.88,14.71Z"/><path class="cls-13" d="M84.63,14.92a1,1,0,0,0,.16,1.9,1,1,0,1,0-.16-1.9Z"/><path class="cls-13" d="M99.33,30.06a1.88,1.88,0,0,0,.22-.88,2,2,0,0,0-3.89-.35,2.72,2.72,0,0,0-1.14-.25,2.78,2.78,0,0,0-2.78,2.75l-.22,0A2.19,2.19,0,0,0,90,35.06a2.18,2.18,0,1,0,2.91,2.16,2.72,2.72,0,0,0,1.61.52A2.77,2.77,0,0,0,97.29,35v0a2.66,2.66,0,0,0,3.07-2.75A2.71,2.71,0,0,0,99.33,30.06Z"/><path class="cls-13" d="M101.87,28a1.23,1.23,0,1,0,1.23,1.22A1.22,1.22,0,0,0,101.87,28Z"/><path class="cls-13" d="M103.84,25.07a.88.88,0,0,0,0,1.75.88.88,0,1,0,0-1.75Z"/><path class="cls-13" d="M101.71,25.6a1.14,1.14,0,1,0-1.14,1.14A1.15,1.15,0,0,0,101.71,25.6Z"/><path class="cls-25" d="M102.17,49.93c-4-2.34-9.78-3.11-14.93-2.31a20,20,0,0,0-6.93,2.31,9.39,9.39,0,0,0-4,4c-1.38,3,0,6.28,4,8.62s9.77,3.1,14.93,2.3a20.17,20.17,0,0,0,6.92-2.3,9.41,9.41,0,0,0,4-4C107.54,55.57,106.21,52.26,102.17,49.93Z"/><rect class="cls-25" x="75.78" y="50.2" width="30.9" height="6.04"/><path class="cls-26" d="M80.31,56.51c-4-2.34-5.38-5.65-4-8.62a9.39,9.39,0,0,1,4-4,20,20,0,0,1,6.93-2.31c5.15-.8,10.88,0,14.93,2.31s5.37,5.64,4,8.62a9.45,9.45,0,0,1-4,4,20.17,20.17,0,0,1-6.92,2.3C90.08,59.61,84.35,58.84,80.31,56.51Z"/><path class="cls-26" d="M81.79,55.65c-3.5-2-4.65-4.88-3.45-7.45a8.09,8.09,0,0,1,3.45-3.46,17.42,17.42,0,0,1,6-2c4.46-.69,9.41,0,12.9,2s4.65,4.88,3.46,7.45a8.13,8.13,0,0,1-3.46,3.46,17.21,17.21,0,0,1-6,2A20.55,20.55,0,0,1,81.79,55.65Z"/><ellipse class="cls-13" cx="91.23" cy="50.2" rx="3.24" ry="1.87"/><path class="cls-13" d="M89.2,49.88l2,.32L90.69,49a2.59,2.59,0,0,0-1,.31A1.23,1.23,0,0,0,89.2,49.88Z"/><path class="cls-13" d="M78.34,48.2a8.09,8.09,0,0,1,3.45-3.46,17.42,17.42,0,0,1,6-2l2.33,5a5.81,5.81,0,0,0-2,.65A2.63,2.63,0,0,0,87,49.55Z"/><path class="cls-13" d="M81.79,55.65,88.16,52a6.73,6.73,0,0,0,4.2.65l2.33,5A20.55,20.55,0,0,1,81.79,55.65Z"/><path class="cls-13" d="M89.74,51.06a3.24,3.24,0,0,0,2,.31l-.55-1.17Z"/><path class="cls-13" d="M95.44,50.85c.38-.84,0-1.77-1.12-2.43l6.36-3.68c3.5,2,4.65,4.88,3.46,7.45Z"/><path class="cls-13" d="M93.27,50.51c.19-.41,0-.86-.54-1.18l-1.5.87Z"/><ellipse class="cls-27" cx="35.41" cy="81.23" rx="18.87" ry="10.89"/><polygon class="cls-27" points="47.33 50.55 23.55 49.87 16.64 80.15 54.19 80.15 47.33 50.55"/><ellipse class="cls-22" cx="35.41" cy="50.55" rx="11.92" ry="6.88"/><ellipse class="cls-13" cx="35.41" cy="50.55" rx="9.6" ry="5.54"/><polygon class="cls-11" points="91.41 102.34 44.2 75.34 44.2 66.81 91.41 93.8 91.41 102.34"/><polygon class="cls-22" points="106.05 85.35 58.84 58.35 44.2 66.8 91.41 93.8 106.05 85.35"/><polygon class="cls-17" points="106.05 93.89 91.41 102.34 91.41 93.8 106.05 85.35 106.05 93.89"/><ellipse class="cls-28" cx="60.74" cy="67.19" rx="5.27" ry="3.04"/><polygon class="cls-28" points="63.81 25.71 57.67 25.71 55.47 66.84 66.01 66.84 63.81 25.71"/><ellipse class="cls-29" cx="60.74" cy="25.71" rx="3.07" ry="1.77"/><ellipse class="cls-13" cx="60.74" cy="25.71" rx="2.18" ry="1.26"/><path class="cls-28" d="M78.6,73.2c2.05,1.18,2.05,3.11,0,4.3a8.24,8.24,0,0,1-7.46,0c-2.06-1.19-2.06-3.12,0-4.3A8.24,8.24,0,0,1,78.6,73.2Z"/><polygon class="cls-28" points="77.94 33.87 71.8 33.87 69.6 75 80.14 75 77.94 33.87"/><ellipse class="cls-29" cx="74.87" cy="33.86" rx="3.07" ry="1.77"/><ellipse class="cls-13" cx="74.87" cy="33.86" rx="2.18" ry="1.26"/><path class="cls-28" d="M92.94,81.31c2.06,1.19,2.06,3.12,0,4.31a8.3,8.3,0,0,1-7.46,0c-2.06-1.19-2.06-3.12,0-4.31A8.24,8.24,0,0,1,92.94,81.31Z"/><polygon class="cls-28" points="92.28 41.98 86.14 41.98 83.94 83.12 94.48 83.12 92.28 41.98"/><path class="cls-29" d="M91.38,40.73a1.32,1.32,0,0,1,0,2.5,4.81,4.81,0,0,1-4.34,0,1.32,1.32,0,0,1,0-2.5A4.81,4.81,0,0,1,91.38,40.73Z"/><ellipse class="cls-13" cx="89.21" cy="41.98" rx="2.18" ry="1.26"/><polygon class="cls-9" points="63.23 109.43 33.03 91.99 33.03 73.52 63.23 90.96 63.23 109.43"/><polygon class="cls-10" points="38.86 82.93 35.41 80.94 35.41 77.22 38.86 79.21 38.86 82.93"/><polygon class="cls-10" points="44.23 86.03 40.78 84.04 40.78 80.32 44.23 82.31 44.23 86.03"/><polygon class="cls-10" points="49.6 89.13 46.15 87.14 46.15 83.42 49.6 85.41 49.6 89.13"/><polygon class="cls-10" points="54.97 92.23 51.52 90.24 51.52 86.52 54.97 88.51 54.97 92.23"/><polygon class="cls-10" points="60.34 95.33 56.89 93.34 56.89 89.62 60.34 91.61 60.34 95.33"/><polygon class="cls-10" points="38.86 89.36 35.41 87.37 35.41 83.65 38.86 85.64 38.86 89.36"/><polygon class="cls-10" points="44.23 92.46 40.78 90.47 40.78 86.75 44.23 88.74 44.23 92.46"/><polygon class="cls-10" points="49.6 95.56 46.15 93.57 46.15 89.85 49.6 91.84 49.6 95.56"/><polygon class="cls-10" points="54.97 98.66 51.52 96.67 51.52 92.95 54.97 94.94 54.97 98.66"/><polygon class="cls-10" points="60.34 101.76 56.89 99.77 56.89 96.05 60.34 98.04 60.34 101.76"/><polygon class="cls-30" points="63.23 109.43 33.03 91.99 33.03 88.41 63.23 105.84 63.23 109.43"/><polygon class="cls-31" points="83.45 97.76 63.23 109.43 63.23 90.96 83.45 79.29 83.45 97.76"/><polygon class="cls-10" points="69.5 93.39 66.04 95.38 66.04 91.66 69.5 89.67 69.5 93.39"/><polygon class="cls-10" points="74.86 90.29 71.41 92.28 71.41 88.56 74.86 86.56 74.86 90.29"/><polygon class="cls-10" points="80.23 87.19 76.78 89.18 76.78 85.46 80.23 83.47 80.23 87.19"/><polygon class="cls-10" points="69.5 99.82 66.04 101.81 66.04 98.09 69.5 96.1 69.5 99.82"/><polygon class="cls-10" points="74.86 96.72 71.41 98.71 71.41 94.99 74.86 93 74.86 96.72"/><polygon class="cls-10" points="80.23 93.62 76.78 95.61 76.78 91.89 80.23 89.9 80.23 93.62"/><polygon class="cls-32" points="83.45 97.76 63.23 109.43 63.23 105.84 83.45 94.17 83.45 97.76"/><polygon class="cls-30" points="83.45 79.29 63.23 90.96 33.03 73.52 53.25 61.85 83.45 79.29"/><polygon class="cls-11" points="60.39 85.36 41.45 74.42 41.45 68.28 60.39 79.22 60.39 85.36"/><polygon class="cls-22" points="75.03 70.76 56.09 59.83 41.45 68.28 60.39 79.22 75.03 70.76"/><polygon class="cls-17" points="75.03 76.91 60.39 85.36 60.39 79.22 75.03 70.76 75.03 76.91"/><polygon class="cls-1" points="233.32 90.64 231.63 90.64 232 84.82 232.95 84.82 233.32 90.64"/><path class="cls-1" d="M233.07,90.3c.34.19.34.5,0,.69a1.33,1.33,0,0,1-1.2,0,.36.36,0,0,1,0-.69A1.33,1.33,0,0,1,233.07,90.3Z"/><ellipse class="cls-6" cx="232.47" cy="86.21" rx="3.42" ry="1.97"/><polygon class="cls-6" points="229.16 85.72 232.48 79.93 235.74 85.66 229.16 85.72"/><ellipse class="cls-3" cx="232.47" cy="83.08" rx="3.07" ry="1.77"/><polygon class="cls-3" points="229.5 82.64 232.48 77.43 235.41 82.58 229.5 82.64"/><path class="cls-33" d="M234.14,78.94a1,1,0,0,1,0,1.91,3.69,3.69,0,0,1-3.33,0,1,1,0,0,1,0-1.91A3.69,3.69,0,0,1,234.14,78.94Z"/><polygon class="cls-33" points="230.2 79.56 232.48 75.57 234.72 79.51 230.2 79.56"/><polygon class="cls-4" points="112.68 47.75 111.03 47.75 111.39 42.09 112.32 42.09 112.68 47.75"/><path class="cls-4" d="M112.44,47.41c.32.19.32.49,0,.67a1.27,1.27,0,0,1-1.17,0c-.32-.18-.32-.48,0-.67A1.27,1.27,0,0,1,112.44,47.41Z"/><path class="cls-5" d="M109.17,39c0,1.46,1.23,3.78,2.69,3.78s2.65-2.32,2.68-3.78Z"/><path class="cls-6" d="M113.77,38a1.16,1.16,0,0,1,0,2.2,4.19,4.19,0,0,1-3.81,0,1.16,1.16,0,0,1,0-2.2A4.26,4.26,0,0,1,113.77,38Z"/><path class="cls-6" d="M109.17,39c0-1.45,1.23-6.23,2.69-6.23s2.65,4.78,2.68,6.23Z"/><polygon class="cls-1" points="166 110.86 164.75 110.86 165.02 106.57 165.73 106.57 166 110.86"/><path class="cls-1" d="M165.82,110.61a.27.27,0,0,1,0,.51,1,1,0,0,1-.89,0,.27.27,0,0,1,0-.51A1,1,0,0,1,165.82,110.61Z"/><path class="cls-2" d="M162,103.47c.18,2.11,1.65,3.72,3.41,3.72s3.22-1.61,3.4-3.72Z"/><path class="cls-3" d="M167.79,102.07c1.33.77,1.33,2,0,2.79a5.34,5.34,0,0,1-4.83,0c-1.33-.77-1.33-2,0-2.79A5.34,5.34,0,0,1,167.79,102.07Z"/><path class="cls-3" d="M162,103.26c.18-2.13,1.65-3.76,3.41-3.76s3.22,1.63,3.4,3.76Z"/><polygon class="cls-1" points="139.38 110.56 138.12 110.56 138.4 106.26 139.1 106.26 139.38 110.56"/><path class="cls-1" d="M139.19,110.3a.27.27,0,0,1,0,.51,1,1,0,0,1-.89,0,.27.27,0,0,1,0-.51A1,1,0,0,1,139.19,110.3Z"/><path class="cls-2" d="M135.34,103.16c.18,2.11,1.65,3.72,3.41,3.72s3.22-1.61,3.4-3.72Z"/><ellipse class="cls-3" cx="138.75" cy="103.16" rx="3.42" ry="1.97"/><path class="cls-3" d="M135.34,103c.18-2.13,1.65-3.76,3.41-3.76s3.22,1.63,3.4,3.76Z"/><polygon class="cls-1" points="112.71 110.52 111.46 110.52 111.73 106.22 112.44 106.22 112.71 110.52"/><path class="cls-1" d="M112.53,110.26a.28.28,0,0,1,0,.52,1,1,0,0,1-.89,0,.28.28,0,0,1,0-.52A1,1,0,0,1,112.53,110.26Z"/><path class="cls-2" d="M108.68,103.12c.18,2.12,1.65,3.72,3.41,3.72s3.22-1.6,3.4-3.72Z"/><ellipse class="cls-3" cx="112.09" cy="103.12" rx="3.42" ry="1.97"/><path class="cls-3" d="M108.68,102.92c.18-2.14,1.65-3.76,3.41-3.76s3.22,1.62,3.4,3.76Z"/><polygon class="cls-1" points="347.3 84.74 346.04 84.74 346.32 80.44 347.02 80.44 347.3 84.74"/><ellipse class="cls-1" cx="346.67" cy="84.74" rx="0.63" ry="0.36"/><path class="cls-2" d="M343.26,77.35c.18,2.11,1.65,3.72,3.41,3.72s3.22-1.61,3.4-3.72Z"/><path class="cls-3" d="M349.08,76c1.34.77,1.34,2,0,2.79a5.34,5.34,0,0,1-4.83,0c-1.33-.77-1.33-2,0-2.79A5.34,5.34,0,0,1,349.08,76Z"/><path class="cls-3" d="M343.26,77.14c.18-2.14,1.65-3.76,3.41-3.76s3.22,1.62,3.4,3.76Z"/><polygon class="cls-1" points="342.85 71.41 341.6 71.41 341.87 67.11 342.58 67.11 342.85 71.41"/><path class="cls-1" d="M342.67,71.15a.27.27,0,0,1,0,.51.94.94,0,0,1-.89,0,.27.27,0,0,1,0-.51A1,1,0,0,1,342.67,71.15Z"/><path class="cls-2" d="M338.82,64c.18,2.12,1.65,3.72,3.41,3.72s3.22-1.6,3.4-3.72Z"/><ellipse class="cls-3" cx="342.23" cy="64.01" rx="3.42" ry="1.97"/><path class="cls-3" d="M338.82,63.81c.18-2.14,1.65-3.76,3.41-3.76s3.22,1.62,3.4,3.76Z"/><polygon class="cls-1" points="354.99 77.86 353.73 77.86 354.01 73.56 354.71 73.56 354.99 77.86"/><path class="cls-1" d="M354.8,77.61c.25.14.25.37,0,.51a1,1,0,0,1-.88,0c-.25-.14-.25-.37,0-.51A1,1,0,0,1,354.8,77.61Z"/><path class="cls-2" d="M351,70.47c.19,2.11,1.66,3.72,3.41,3.72s3.22-1.61,3.41-3.72Z"/><path class="cls-3" d="M356.78,69.07c1.33.77,1.33,2,0,2.79a5.34,5.34,0,0,1-4.83,0c-1.34-.77-1.34-2,0-2.79A5.34,5.34,0,0,1,356.78,69.07Z"/><path class="cls-3" d="M351,70.26c.19-2.14,1.66-3.76,3.41-3.76s3.22,1.62,3.41,3.76Z"/><polygon class="cls-1" points="196.77 90.73 195.51 90.73 195.79 86.43 196.49 86.43 196.77 90.73"/><path class="cls-1" d="M196.58,90.48c.25.14.25.37,0,.51a1,1,0,0,1-.88,0c-.25-.14-.25-.37,0-.51A.92.92,0,0,1,196.58,90.48Z"/><path class="cls-2" d="M192.73,83.33c.19,2.12,1.66,3.73,3.41,3.73s3.22-1.61,3.41-3.73Z"/><path class="cls-3" d="M198.56,81.94c1.33.77,1.33,2,0,2.79a5.34,5.34,0,0,1-4.83,0c-1.34-.77-1.34-2,0-2.79A5.34,5.34,0,0,1,198.56,81.94Z"/><path class="cls-3" d="M192.73,83.13c.19-2.14,1.66-3.76,3.41-3.76s3.22,1.62,3.41,3.76Z"/><polygon class="cls-1" points="195.74 109.97 194.49 109.97 194.76 105.67 195.47 105.67 195.74 109.97"/><ellipse class="cls-1" cx="195.11" cy="109.97" rx="0.63" ry="0.36"/><path class="cls-2" d="M191.71,102.58c.18,2.11,1.65,3.72,3.4,3.72s3.23-1.61,3.41-3.72Z"/><path class="cls-3" d="M197.53,101.18c1.33.77,1.33,2,0,2.79a5.34,5.34,0,0,1-4.83,0c-1.33-.77-1.33-2,0-2.79A5.34,5.34,0,0,1,197.53,101.18Z"/><path class="cls-3" d="M191.71,102.37c.18-2.14,1.65-3.76,3.4-3.76s3.23,1.62,3.41,3.76Z"/><polygon class="cls-1" points="218.83 109.92 217.58 109.92 217.85 105.62 218.56 105.62 218.83 109.92"/><ellipse class="cls-1" cx="218.2" cy="109.92" rx="0.63" ry="0.36"/><path class="cls-2" d="M214.8,102.52c.18,2.12,1.65,3.72,3.4,3.72s3.23-1.6,3.41-3.72Z"/><ellipse class="cls-3" cx="218.2" cy="102.52" rx="3.42" ry="1.97"/><path class="cls-3" d="M214.8,102.32c.18-2.14,1.65-3.76,3.4-3.76s3.23,1.62,3.41,3.76Z"/><polygon class="cls-1" points="220.87 63.23 219.62 63.23 219.89 58.93 220.6 58.93 220.87 63.23"/><ellipse class="cls-1" cx="220.24" cy="63.23" rx="0.63" ry="0.36"/><path class="cls-2" d="M216.84,55.83c.18,2.12,1.65,3.73,3.4,3.73s3.23-1.61,3.41-3.73Z"/><path class="cls-3" d="M222.66,54.44c1.33.77,1.33,2,0,2.79a5.34,5.34,0,0,1-4.83,0c-1.33-.77-1.33-2,0-2.79A5.34,5.34,0,0,1,222.66,54.44Z"/><path class="cls-3" d="M216.84,55.63c.18-2.14,1.65-3.76,3.4-3.76s3.23,1.62,3.41,3.76Z"/><polygon class="cls-1" points="223.74 77.69 222.48 77.69 222.76 73.39 223.46 73.39 223.74 77.69"/><path class="cls-1" d="M223.55,77.43c.25.14.25.37,0,.51a1,1,0,0,1-.89,0,.27.27,0,0,1,0-.51A1,1,0,0,1,223.55,77.43Z"/><path class="cls-2" d="M219.7,70.29c.18,2.12,1.65,3.72,3.41,3.72s3.22-1.6,3.4-3.72Z"/><ellipse class="cls-3" cx="223.11" cy="70.29" rx="3.42" ry="1.97"/><path class="cls-3" d="M219.7,70.09c.18-2.14,1.65-3.76,3.41-3.76s3.22,1.62,3.4,3.76Z"/><polygon class="cls-1" points="225.32 96.96 223.63 96.96 224 91.14 224.95 91.14 225.32 96.96"/><ellipse class="cls-1" cx="224.47" cy="96.96" rx="0.85" ry="0.49"/><path class="cls-6" d="M226.89,91.13c1.33.77,1.33,2,0,2.79a5.34,5.34,0,0,1-4.83,0c-1.34-.77-1.34-2,0-2.79A5.34,5.34,0,0,1,226.89,91.13Z"/><polygon class="cls-6" points="221.16 92.04 224.48 86.24 227.74 91.97 221.16 92.04"/><path class="cls-3" d="M226.65,88.14a1.33,1.33,0,0,1,0,2.51,4.83,4.83,0,0,1-4.35,0,1.33,1.33,0,0,1,0-2.51A4.83,4.83,0,0,1,226.65,88.14Z"/><polygon class="cls-3" points="221.5 88.95 224.48 83.74 227.41 88.89 221.5 88.95"/><path class="cls-33" d="M226.13,85.25a1,1,0,0,1,0,1.92,3.66,3.66,0,0,1-3.32,0,1,1,0,0,1,0-1.92A3.66,3.66,0,0,1,226.13,85.25Z"/><polygon class="cls-33" points="222.2 85.87 224.48 81.88 226.72 85.82 222.2 85.87"/><polygon class="cls-1" points="242.75 51.33 241.05 51.33 241.42 45.51 242.38 45.51 242.75 51.33"/><path class="cls-1" d="M242.5,51a.36.36,0,0,1,0,.69,1.33,1.33,0,0,1-1.2,0,.36.36,0,0,1,0-.69A1.33,1.33,0,0,1,242.5,51Z"/><path class="cls-6" d="M244.31,45.51c1.34.77,1.34,2,0,2.79a5.34,5.34,0,0,1-4.83,0c-1.33-.77-1.33-2,0-2.79A5.34,5.34,0,0,1,244.31,45.51Z"/><polygon class="cls-6" points="238.59 46.41 241.91 40.62 245.16 46.35 238.59 46.41"/><path class="cls-3" d="M244.07,42.52a1.32,1.32,0,0,1,0,2.5,4.75,4.75,0,0,1-4.34,0,1.32,1.32,0,0,1,0-2.5A4.75,4.75,0,0,1,244.07,42.52Z"/><polygon class="cls-3" points="238.92 43.33 241.91 38.12 244.83 43.27 238.92 43.33"/><path class="cls-33" d="M243.56,39.62a1,1,0,0,1,0,1.92,3.66,3.66,0,0,1-3.32,0,1,1,0,0,1,0-1.92A3.73,3.73,0,0,1,243.56,39.62Z"/><polygon class="cls-33" points="239.62 40.25 241.91 36.26 244.14 40.2 239.62 40.25"/><polygon class="cls-1" points="163.66 71.88 161.96 71.88 162.33 66.06 163.28 66.06 163.66 71.88"/><path class="cls-1" d="M163.4,71.54c.34.19.34.5,0,.69a1.33,1.33,0,0,1-1.2,0,.36.36,0,0,1,0-.69A1.27,1.27,0,0,1,163.4,71.54Z"/><path class="cls-6" d="M165.22,66.06c1.33.77,1.33,2,0,2.79a5.34,5.34,0,0,1-4.83,0c-1.33-.77-1.33-2,0-2.79A5.34,5.34,0,0,1,165.22,66.06Z"/><polygon class="cls-6" points="159.5 66.96 162.81 61.17 166.07 66.89 159.5 66.96"/><path class="cls-3" d="M165,63.07a1.32,1.32,0,0,1,0,2.5,4.77,4.77,0,0,1-4.35,0,1.32,1.32,0,0,1,0-2.5A4.77,4.77,0,0,1,165,63.07Z"/><polygon class="cls-3" points="159.83 63.88 162.81 58.67 165.74 63.82 159.83 63.88"/><path class="cls-33" d="M164.47,60.17a1,1,0,0,1,0,1.92,3.69,3.69,0,0,1-3.33,0,1,1,0,0,1,0-1.92A3.69,3.69,0,0,1,164.47,60.17Z"/><polygon class="cls-33" points="160.53 60.8 162.81 56.81 165.05 60.75 160.53 60.8"/><polygon class="cls-1" points="113.56 90.37 111.86 90.37 112.23 84.55 113.19 84.55 113.56 90.37"/><path class="cls-1" d="M113.31,90a.36.36,0,0,1,0,.69,1.33,1.33,0,0,1-1.2,0,.36.36,0,0,1,0-.69A1.28,1.28,0,0,1,113.31,90Z"/><path class="cls-6" d="M115.13,84.55c1.33.77,1.33,2,0,2.79a5.34,5.34,0,0,1-4.83,0c-1.34-.77-1.34-2,0-2.79A5.34,5.34,0,0,1,115.13,84.55Z"/><polygon class="cls-6" points="109.4 85.45 112.72 79.66 115.97 85.39 109.4 85.45"/><path class="cls-3" d="M114.88,81.56a1.32,1.32,0,0,1,0,2.5,4.75,4.75,0,0,1-4.34,0,1.32,1.32,0,0,1,0-2.5A4.75,4.75,0,0,1,114.88,81.56Z"/><polygon class="cls-3" points="109.73 82.37 112.72 77.16 115.65 82.31 109.73 82.37"/><path class="cls-33" d="M114.37,78.66a1,1,0,0,1,0,1.92,3.66,3.66,0,0,1-3.32,0,1,1,0,0,1,0-1.92A3.66,3.66,0,0,1,114.37,78.66Z"/><polygon class="cls-33" points="110.44 79.29 112.72 75.3 114.96 79.24 110.44 79.29"/><polygon class="cls-1" points="104.69 81 102.99 81 103.36 75.18 104.31 75.18 104.69 81"/><path class="cls-1" d="M104.43,80.65c.34.2.34.51,0,.7a1.33,1.33,0,0,1-1.2,0c-.33-.19-.33-.5,0-.7A1.33,1.33,0,0,1,104.43,80.65Z"/><path class="cls-6" d="M106.25,75.18c1.33.77,1.33,2,0,2.79a5.34,5.34,0,0,1-4.83,0c-1.33-.77-1.33-2,0-2.79A5.34,5.34,0,0,1,106.25,75.18Z"/><polygon class="cls-6" points="100.53 76.08 103.84 70.28 107.1 76.01 100.53 76.08"/><path class="cls-3" d="M106,72.18a1.33,1.33,0,0,1,0,2.51,4.83,4.83,0,0,1-4.35,0,1.33,1.33,0,0,1,0-2.51A4.83,4.83,0,0,1,106,72.18Z"/><polygon class="cls-3" points="100.86 73 103.84 67.78 106.77 72.94 100.86 73"/><path class="cls-33" d="M105.5,69.29a1,1,0,0,1,0,1.92,3.69,3.69,0,0,1-3.33,0,1,1,0,0,1,0-1.92A3.69,3.69,0,0,1,105.5,69.29Z"/><polygon class="cls-33" points="101.56 69.92 103.84 65.93 106.08 69.87 101.56 69.92"/><polygon class="cls-1" points="137.25 70.3 135.55 70.3 135.92 64.48 136.87 64.48 137.25 70.3"/><path class="cls-1" d="M137,70c.34.2.34.51,0,.7a1.33,1.33,0,0,1-1.2,0c-.33-.19-.33-.5,0-.7A1.33,1.33,0,0,1,137,70Z"/><path class="cls-6" d="M138.81,64.48c1.33.77,1.33,2,0,2.79a5.34,5.34,0,0,1-4.83,0c-1.33-.77-1.33-2,0-2.79A5.34,5.34,0,0,1,138.81,64.48Z"/><polygon class="cls-6" points="133.09 65.38 136.41 59.59 139.66 65.31 133.09 65.38"/><ellipse class="cls-3" cx="136.4" cy="62.74" rx="3.07" ry="1.77"/><polygon class="cls-3" points="133.42 62.3 136.4 57.09 139.33 62.24 133.42 62.3"/><ellipse class="cls-33" cx="136.4" cy="59.55" rx="2.35" ry="1.36"/><polygon class="cls-33" points="134.12 59.22 136.4 55.23 138.64 59.17 134.12 59.22"/><polygon class="cls-1" points="111.29 70.83 109.59 70.83 109.96 65.01 110.91 65.01 111.29 70.83"/><path class="cls-1" d="M111,70.48c.34.19.34.5,0,.69a1.27,1.27,0,0,1-1.2,0,.36.36,0,0,1,0-.69A1.33,1.33,0,0,1,111,70.48Z"/><ellipse class="cls-6" cx="110.44" cy="66.4" rx="3.42" ry="1.97"/><polygon class="cls-6" points="107.13 65.91 110.44 60.11 113.7 65.84 107.13 65.91"/><path class="cls-3" d="M112.61,62a1.33,1.33,0,0,1,0,2.51,4.83,4.83,0,0,1-4.35,0,1.33,1.33,0,0,1,0-2.51A4.83,4.83,0,0,1,112.61,62Z"/><polygon class="cls-3" points="107.46 62.82 110.44 57.61 113.37 62.76 107.46 62.82"/><path class="cls-33" d="M112.1,59.12a1,1,0,0,1,0,1.92,3.69,3.69,0,0,1-3.33,0,1,1,0,0,1,0-1.92A3.69,3.69,0,0,1,112.1,59.12Z"/><polygon class="cls-33" points="108.16 59.74 110.44 55.75 112.68 59.69 108.16 59.74"/><polygon class="cls-4" points="73.5 110.63 71.85 110.63 72.21 104.97 73.14 104.97 73.5 110.63"/><ellipse class="cls-4" cx="72.68" cy="110.63" rx="0.83" ry="0.48"/><path class="cls-5" d="M70,101.85c0,1.45,1.23,3.77,2.69,3.77s2.65-2.32,2.69-3.77Z"/><path class="cls-6" d="M74.59,100.87a1.16,1.16,0,0,1,0,2.2,4.19,4.19,0,0,1-3.81,0,1.16,1.16,0,0,1,0-2.2A4.26,4.26,0,0,1,74.59,100.87Z"/><path class="cls-6" d="M70,101.85c0-1.46,1.23-6.24,2.69-6.24s2.65,4.78,2.69,6.24Z"/><polygon class="cls-4" points="6.91 79.94 5.25 79.94 5.62 74.28 6.54 74.28 6.91 79.94"/><ellipse class="cls-4" cx="6.08" cy="79.94" rx="0.83" ry="0.48"/><path class="cls-5" d="M3.39,71.15c0,1.46,1.23,3.78,2.69,3.78s2.65-2.32,2.69-3.78Z"/><path class="cls-6" d="M8,70.18a1.16,1.16,0,0,1,0,2.2,4.19,4.19,0,0,1-3.81,0,1.16,1.16,0,0,1,0-2.2A4.19,4.19,0,0,1,8,70.18Z"/><path class="cls-6" d="M3.39,71.15c0-1.45,1.23-6.23,2.69-6.23s2.65,4.78,2.69,6.23Z"/><polygon class="cls-4" points="14.78 73.36 13.13 73.36 13.49 67.7 14.42 67.7 14.78 73.36"/><ellipse class="cls-4" cx="13.95" cy="73.36" rx="0.83" ry="0.48"/><path class="cls-5" d="M11.26,64.58c0,1.46,1.24,3.78,2.69,3.78S16.6,66,16.64,64.58Z"/><path class="cls-6" d="M15.86,63.61a1.16,1.16,0,0,1,0,2.2,4.19,4.19,0,0,1-3.81,0,1.16,1.16,0,0,1,0-2.2A4.19,4.19,0,0,1,15.86,63.61Z"/><path class="cls-6" d="M11.26,64.58c0-1.46,1.24-6.24,2.69-6.24s2.65,4.78,2.69,6.24Z"/><polygon class="cls-4" points="81.05 105.22 79.4 105.22 79.76 99.56 80.69 99.56 81.05 105.22"/><path class="cls-4" d="M80.81,104.89a.35.35,0,0,1,0,.67,1.27,1.27,0,0,1-1.17,0,.35.35,0,0,1,0-.67A1.27,1.27,0,0,1,80.81,104.89Z"/><path class="cls-5" d="M77.54,96.44c0,1.46,1.23,3.78,2.69,3.78s2.65-2.32,2.69-3.78Z"/><path class="cls-6" d="M82.14,95.47a1.16,1.16,0,0,1,0,2.2,4.19,4.19,0,0,1-3.81,0,1.16,1.16,0,0,1,0-2.2A4.19,4.19,0,0,1,82.14,95.47Z"/><path class="cls-6" d="M77.54,96.44c0-1.46,1.23-6.24,2.69-6.24s2.65,4.78,2.69,6.24Z"/><polygon class="cls-4" points="89.37 110.34 87.72 110.34 88.08 104.68 89.01 104.68 89.37 110.34"/><path class="cls-4" d="M89.13,110a.36.36,0,0,1,0,.68,1.33,1.33,0,0,1-1.17,0,.36.36,0,0,1,0-.68A1.33,1.33,0,0,1,89.13,110Z"/><path class="cls-5" d="M85.86,101.56c0,1.45,1.23,3.77,2.69,3.77s2.65-2.32,2.69-3.77Z"/><ellipse class="cls-6" cx="88.55" cy="101.69" rx="2.69" ry="1.55"/><path class="cls-6" d="M85.86,101.56c0-1.46,1.23-6.24,2.69-6.24s2.65,4.78,2.69,6.24Z"/><polygon class="cls-4" points="96.55 105.93 94.9 105.93 95.26 100.27 96.19 100.27 96.55 105.93"/><path class="cls-4" d="M96.31,105.59a.36.36,0,0,1,0,.68,1.34,1.34,0,0,1-1.17,0,.36.36,0,0,1,0-.68A1.33,1.33,0,0,1,96.31,105.59Z"/><path class="cls-5" d="M93,97.15c0,1.45,1.23,3.77,2.69,3.77s2.65-2.32,2.69-3.77Z"/><path class="cls-6" d="M97.64,96.18a1.16,1.16,0,0,1,0,2.19,4.19,4.19,0,0,1-3.81,0,1.16,1.16,0,0,1,0-2.19A4.19,4.19,0,0,1,97.64,96.18Z"/><path class="cls-6" d="M93,97.15c0-1.46,1.23-6.24,2.69-6.24s2.65,4.78,2.69,6.24Z"/><polygon class="cls-4" points="104.66 100.22 103.01 100.22 103.37 94.56 104.3 94.56 104.66 100.22"/><path class="cls-4" d="M104.42,99.88a.36.36,0,0,1,0,.68,1.34,1.34,0,0,1-1.17,0,.36.36,0,0,1,0-.68A1.33,1.33,0,0,1,104.42,99.88Z"/><path class="cls-5" d="M101.15,91.44c0,1.45,1.23,3.77,2.69,3.77s2.65-2.32,2.69-3.77Z"/><path class="cls-6" d="M105.75,90.47a1.16,1.16,0,0,1,0,2.19,4.19,4.19,0,0,1-3.81,0,1.16,1.16,0,0,1,0-2.19A4.19,4.19,0,0,1,105.75,90.47Z"/><path class="cls-6" d="M101.15,91.44c0-1.46,1.23-6.24,2.69-6.24s2.65,4.78,2.69,6.24Z"/><polygon class="cls-4" points="194.45 72.77 192.8 72.77 193.16 67.11 194.09 67.11 194.45 72.77"/><path class="cls-4" d="M194.21,72.43a.36.36,0,0,1,0,.68,1.34,1.34,0,0,1-1.17,0,.36.36,0,0,1,0-.68A1.33,1.33,0,0,1,194.21,72.43Z"/><path class="cls-5" d="M190.94,64c0,1.45,1.23,3.77,2.69,3.77s2.65-2.32,2.69-3.77Z"/><path class="cls-6" d="M195.54,63a1.16,1.16,0,0,1,0,2.2,4.19,4.19,0,0,1-3.81,0,1.16,1.16,0,0,1,0-2.2A4.26,4.26,0,0,1,195.54,63Z"/><path class="cls-6" d="M190.94,64c0-1.46,1.23-6.24,2.69-6.24s2.65,4.78,2.69,6.24Z"/><polygon class="cls-4" points="165.57 92.97 163.92 92.97 164.28 87.31 165.21 87.31 165.57 92.97"/><ellipse class="cls-4" cx="164.74" cy="92.97" rx="0.83" ry="0.48"/><path class="cls-5" d="M162.06,84.18c0,1.46,1.23,3.78,2.68,3.78s2.65-2.32,2.69-3.78Z"/><ellipse class="cls-6" cx="164.75" cy="84.31" rx="2.69" ry="1.55"/><path class="cls-6" d="M162.06,84.18c0-1.45,1.23-6.24,2.68-6.24s2.65,4.79,2.69,6.24Z"/><polygon class="cls-4" points="230.95 67.64 229.29 67.64 229.66 61.98 230.59 61.98 230.95 67.64"/><path class="cls-4" d="M230.7,67.31c.32.18.32.48,0,.67a1.27,1.27,0,0,1-1.17,0c-.32-.19-.32-.49,0-.67A1.27,1.27,0,0,1,230.7,67.31Z"/><path class="cls-5" d="M227.43,58.86c0,1.46,1.23,3.78,2.69,3.78s2.65-2.32,2.69-3.78Z"/><path class="cls-6" d="M232,57.89a1.16,1.16,0,0,1,0,2.2,4.26,4.26,0,0,1-3.81,0,1.16,1.16,0,0,1,0-2.2A4.19,4.19,0,0,1,232,57.89Z"/><path class="cls-6" d="M227.43,58.86c0-1.46,1.23-6.24,2.69-6.24s2.65,4.78,2.69,6.24Z"/><polygon class="cls-1" points="259.3 111.7 257.6 111.7 257.97 105.88 258.93 105.88 259.3 111.7"/><ellipse class="cls-1" cx="258.45" cy="111.7" rx="0.85" ry="0.49"/><path class="cls-6" d="M260.86,105.88c1.34.77,1.34,2,0,2.79a5.34,5.34,0,0,1-4.83,0c-1.33-.77-1.33-2,0-2.79A5.34,5.34,0,0,1,260.86,105.88Z"/><polygon class="cls-6" points="255.14 106.78 258.46 100.99 261.71 106.72 255.14 106.78"/><ellipse class="cls-3" cx="258.45" cy="104.14" rx="3.07" ry="1.77"/><polygon class="cls-3" points="255.47 103.7 258.46 98.49 261.38 103.64 255.47 103.7"/><path class="cls-33" d="M260.11,100a1,1,0,0,1,0,1.92,3.66,3.66,0,0,1-3.32,0,1,1,0,0,1,0-1.92A3.73,3.73,0,0,1,260.11,100Z"/><polygon class="cls-33" points="256.17 100.62 258.45 96.63 260.69 100.57 256.17 100.62"/><polygon class="cls-1" points="308.17 107.34 306.91 107.34 307.19 103.05 307.89 103.05 308.17 107.34"/><path class="cls-1" d="M308,107.09c.25.14.25.37,0,.51a1,1,0,0,1-.89,0,.27.27,0,0,1,0-.51A1,1,0,0,1,308,107.09Z"/><path class="cls-2" d="M304.13,100c.18,2.11,1.65,3.72,3.41,3.72s3.22-1.61,3.4-3.72Z"/><path class="cls-3" d="M310,98.55c1.34.77,1.34,2,0,2.79a5.34,5.34,0,0,1-4.83,0c-1.33-.77-1.33-2,0-2.79A5.34,5.34,0,0,1,310,98.55Z"/><path class="cls-3" d="M304.13,99.74c.18-2.13,1.65-3.76,3.41-3.76s3.22,1.63,3.4,3.76Z"/><polygon class="cls-34" points="314.96 68.49 265.19 97.95 264.96 77.35 314.73 47.9 314.96 68.49"/><polygon class="cls-20" points="272.1 80.17 267.85 82.69 267.81 78.72 272.06 76.21 272.1 80.17"/><polygon class="cls-20" points="272.16 85.51 267.91 88.02 267.87 84.06 272.12 81.54 272.16 85.51"/><polygon class="cls-20" points="272.22 90.84 267.97 93.36 267.93 89.4 272.18 86.88 272.22 90.84"/><polygon class="cls-20" points="278.21 76.56 273.96 79.07 273.92 75.11 278.17 72.59 278.21 76.56"/><polygon class="cls-20" points="278.27 81.89 274.02 84.41 273.98 80.44 278.23 77.93 278.27 81.89"/><polygon class="cls-20" points="278.33 87.23 274.08 89.74 274.04 85.78 278.29 83.26 278.33 87.23"/><polygon class="cls-20" points="284.33 72.94 280.07 75.45 280.03 71.49 284.28 68.97 284.33 72.94"/><polygon class="cls-20" points="284.38 78.27 280.13 80.79 280.09 76.83 284.34 74.31 284.38 78.27"/><polygon class="cls-20" points="284.44 83.61 280.19 86.13 280.15 82.16 284.4 79.65 284.44 83.61"/><polygon class="cls-20" points="290.44 69.32 286.19 71.84 286.14 67.87 290.39 65.36 290.44 69.32"/><polygon class="cls-20" points="290.5 74.66 286.25 77.17 286.2 73.21 290.45 70.69 290.5 74.66"/><polygon class="cls-20" points="290.55 79.99 286.3 82.51 286.26 78.55 290.51 76.03 290.55 79.99"/><polygon class="cls-20" points="296.55 65.7 292.3 68.22 292.25 64.25 296.5 61.74 296.55 65.7"/><polygon class="cls-20" points="296.61 71.04 292.36 73.56 292.31 69.59 296.56 67.08 296.61 71.04"/><polygon class="cls-20" points="296.67 76.38 292.41 78.89 292.37 74.93 296.62 72.41 296.67 76.38"/><polygon class="cls-20" points="302.66 62.09 298.41 64.6 298.37 60.64 302.62 58.12 302.66 62.09"/><polygon class="cls-20" points="302.72 67.42 298.47 69.94 298.42 65.97 302.67 63.46 302.72 67.42"/><polygon class="cls-20" points="302.78 72.76 298.52 75.27 298.48 71.31 302.73 68.79 302.78 72.76"/><polygon class="cls-35" points="312.89 69.72 304.67 74.58 304.48 57.02 312.7 52.16 312.89 69.72"/><polygon class="cls-36" points="265.19 97.95 235.44 81.21 235.22 60.61 264.96 77.35 265.19 97.95"/><polygon class="cls-37" points="241.85 71.3 237.54 68.87 237.5 64.91 241.8 67.33 241.85 71.3"/><polygon class="cls-37" points="248.83 75.23 244.53 72.81 244.48 68.84 248.79 71.26 248.83 75.23"/><polygon class="cls-37" points="255.81 79.16 251.51 76.74 251.47 72.77 255.77 75.19 255.81 79.16"/><polygon class="cls-37" points="262.8 83.09 258.49 80.67 258.45 76.7 262.75 79.13 262.8 83.09"/><polygon class="cls-37" points="241.9 76.63 237.6 74.21 237.56 70.25 241.86 72.67 241.9 76.63"/><polygon class="cls-37" points="248.89 80.56 244.58 78.14 244.54 74.18 248.84 76.6 248.89 80.56"/><polygon class="cls-37" points="255.87 84.49 251.57 82.07 251.52 78.11 255.83 80.53 255.87 84.49"/><polygon class="cls-37" points="262.85 88.43 258.55 86 258.51 82.04 262.81 84.46 262.85 88.43"/><polygon class="cls-37" points="241.96 81.97 237.66 79.55 237.62 75.58 241.92 78 241.96 81.97"/><polygon class="cls-37" points="248.94 85.9 244.64 83.48 244.6 79.51 248.9 81.94 248.94 85.9"/><polygon class="cls-37" points="255.93 89.83 251.62 87.41 251.58 83.44 255.88 85.87 255.93 89.83"/><polygon class="cls-37" points="262.91 93.76 258.61 91.34 258.56 87.38 262.87 89.8 262.91 93.76"/><polygon class="cls-38" points="284.99 31.15 235.22 60.61 264.96 77.35 314.73 47.89 284.99 31.15"/><polygon class="cls-34" points="262.94 96.68 243.39 108.25 243.25 95.48 262.8 83.9 262.94 96.68"/><polygon class="cls-36" points="243.39 108.25 231.7 101.67 231.56 88.9 243.25 95.48 243.39 108.25"/><polygon class="cls-38" points="251.12 77.32 231.56 88.9 243.25 95.48 262.8 83.9 251.12 77.32"/><path class="cls-34" d="M294.06,33.81A20,20,0,0,0,281.55,32a16.71,16.71,0,0,0-5.77,2c-1.65,1-2.67,9.61-3.22,10.85-1.14,2.5,0,5.25,3.42,7.17a20,20,0,0,0,12.5,1.79,16.84,16.84,0,0,0,5.78-2,7.85,7.85,0,0,0,3.3-3.38C298.69,45.94,297.47,35.73,294.06,33.81Z"/><rect class="cls-39" x="272.07" y="34.14" width="25.85" height="12.46" transform="translate(-0.42 3.1) rotate(-0.62)"/><path class="cls-37" d="M275.84,39.51c-3.4-1.91-4.55-4.67-3.42-7.17a7.85,7.85,0,0,1,3.3-3.38,16.84,16.84,0,0,1,5.78-2A19.91,19.91,0,0,1,294,28.76c3.4,1.92,4.55,4.67,3.42,7.17a7.9,7.9,0,0,1-3.31,3.39,16.92,16.92,0,0,1-5.77,2A20,20,0,0,1,275.84,39.51Z"/><path class="cls-35" d="M277.07,38.79c-2.94-1.66-3.94-4-2.95-6.21A6.75,6.75,0,0,1,277,29.66a14.6,14.6,0,0,1,5-1.72,17.24,17.24,0,0,1,10.82,1.55c2.94,1.65,3.93,4,3,6.2a6.74,6.74,0,0,1-2.86,2.92,14.46,14.46,0,0,1-5,1.73A17.29,17.29,0,0,1,277.07,38.79Z"/><path class="cls-13" d="M283,35.26a1.16,1.16,0,0,1,0-2.21,4.24,4.24,0,0,1,3.83,0,1.17,1.17,0,0,1,0,2.21A4.24,4.24,0,0,1,283,35.26Z"/><path class="cls-13" d="M283.21,33.89l1.71.25-.47-1a2.06,2.06,0,0,0-.79.27A1,1,0,0,0,283.21,33.89Z"/><path class="cls-34" d="M271.47,46.26A20,20,0,0,0,259,44.47a16.72,16.72,0,0,0-5.77,2c-1.66,1-2.67,9.61-3.23,10.84-1.13,2.5,0,5.26,3.42,7.17a19.92,19.92,0,0,0,12.51,1.79,16.71,16.71,0,0,0,5.77-2A7.83,7.83,0,0,0,275,60.9C276.1,58.4,274.87,48.18,271.47,46.26Z"/><rect class="cls-39" x="249.47" y="46.59" width="25.85" height="12.46" transform="translate(-0.56 2.86) rotate(-0.62)"/><path class="cls-37" d="M253.25,52c-3.41-1.92-4.56-4.67-3.42-7.17a7.81,7.81,0,0,1,3.3-3.39,17,17,0,0,1,5.78-2,20,20,0,0,1,12.5,1.79c3.41,1.92,4.55,4.67,3.42,7.18a7.85,7.85,0,0,1-3.3,3.38,16.84,16.84,0,0,1-5.78,2A20,20,0,0,1,253.25,52Z"/><path class="cls-35" d="M254.48,51.24c-2.95-1.66-3.94-4-3-6.2a6.74,6.74,0,0,1,2.86-2.92,14.4,14.4,0,0,1,5-1.73,17.29,17.29,0,0,1,10.81,1.55c2.95,1.66,3.94,4,3,6.2a6.81,6.81,0,0,1-2.86,2.93,14.6,14.6,0,0,1-5,1.72A17.22,17.22,0,0,1,254.48,51.24Z"/><path class="cls-13" d="M260.43,47.72a1.17,1.17,0,0,1,0-2.21,4.24,4.24,0,0,1,3.83,0,1.17,1.17,0,0,1,0,2.22A4.24,4.24,0,0,1,260.43,47.72Z"/><path class="cls-13" d="M260.62,46.35l1.71.24-.47-1a2.38,2.38,0,0,0-.79.27A1.06,1.06,0,0,0,260.62,46.35Z"/><polygon class="cls-28" points="312.48 70.27 301.77 64.09 297.15 75.7 297.15 90.03 317.1 101.55 317.1 87.22 312.48 70.27"/><polygon class="cls-37" points="301.99 83.93 299.2 82.33 299.2 79.63 301.99 81.24 301.99 83.93"/><polygon class="cls-37" points="306.34 86.45 303.55 84.84 303.55 82.14 306.34 83.75 306.34 86.45"/><polygon class="cls-37" points="310.69 88.96 307.91 87.35 307.91 84.66 310.69 86.27 310.69 88.96"/><polygon class="cls-37" points="315.05 91.47 312.26 89.86 312.26 87.17 315.05 88.78 315.05 91.47"/><polygon class="cls-37" points="301.99 88.71 299.2 87.1 299.2 84.41 301.99 86.02 301.99 88.71"/><polygon class="cls-37" points="306.34 91.22 303.55 89.61 303.55 86.92 306.34 88.53 306.34 91.22"/><polygon class="cls-37" points="310.69 93.74 307.91 92.13 307.91 89.43 310.69 91.04 310.69 93.74"/><polygon class="cls-37" points="315.05 96.25 312.26 94.64 312.26 91.95 315.05 93.56 315.05 96.25"/><path class="cls-37" d="M307.12,71.85c-1.43-.83-2.58-.16-2.58,1.49V78.8l5.17,3V76.33A5.71,5.71,0,0,0,307.12,71.85Z"/><polygon class="cls-40" points="338.9 74.63 317.1 87.22 317.1 101.55 338.9 88.96 338.9 74.63"/><polygon class="cls-41" points="338.9 74.63 317.1 87.22 312.48 70.27 334.28 57.69 338.9 74.63"/><polygon class="cls-42" points="301.77 64.09 312.48 70.27 334.28 57.69 323.57 51.5 301.77 64.09"/><ellipse class="cls-43" cx="318.09" cy="60.53" rx="5.08" ry="2.93"/><polygon class="cls-43" points="315.13 31.37 321.04 31.37 323.17 60.2 313.01 60.2 315.13 31.37"/><ellipse class="cls-44" cx="318.09" cy="31.37" rx="2.96" ry="1.71"/><ellipse cx="318.09" cy="31.37" rx="2.11" ry="1.22"/><path class="cls-16" d="M314.17,27.7a3.28,3.28,0,1,0,3.28-3.28A3.27,3.27,0,0,0,314.17,27.7Z"/><path class="cls-16" d="M305.85,19.91a3.28,3.28,0,1,0,3.28-3.27A3.28,3.28,0,0,0,305.85,19.91Z"/><path class="cls-16" d="M306.2,15.65a2.24,2.24,0,1,0,2.24-2.23A2.24,2.24,0,0,0,306.2,15.65Z"/><path class="cls-16" d="M303.38,16.88a2.24,2.24,0,1,0,2.23-2.23A2.23,2.23,0,0,0,303.38,16.88Z"/><path class="cls-16" d="M304.2,14.22a1.42,1.42,0,1,0,1.41-1.41A1.42,1.42,0,0,0,304.2,14.22Z"/><path class="cls-16" d="M302.51,10.38a1.18,1.18,0,1,0,1.18-1.18A1.18,1.18,0,0,0,302.51,10.38Z"/><path class="cls-16" d="M299.75,10.44a.59.59,0,0,0,.59.59.59.59,0,0,0,0-1.17A.59.59,0,0,0,299.75,10.44Z"/><path class="cls-16" d="M300.37,13.44a.9.9,0,1,0,1.79,0,.87.87,0,0,0-.89-.89A.89.89,0,0,0,300.37,13.44Z"/><path class="cls-16" d="M311.79,22.18a4,4,0,1,0,4-4A4,4,0,0,0,311.79,22.18Z"/><path class="cls-16" d="M309.43,23.58a4,4,0,1,0,4-4A4,4,0,0,0,309.43,23.58Z"/><circle class="cls-16" cx="312.47" cy="17.66" r="3.13"/></g></g></svg>