<?xml version="1.0"?>
<svg xmlns="http://www.w3.org/2000/svg" xmlns:xlink="http://www.w3.org/1999/xlink" xmlns:svgjs="http://svgjs.com/svgjs" version="1.1" width="512" height="512" x="0" y="0" viewBox="0 0 512 512" style="enable-background:new 0 0 512 512" xml:space="preserve" class=""><g><path xmlns="http://www.w3.org/2000/svg" d="m213.332031 238.933594h-68.265625c-8.050781.015625-15.632812 3.804687-20.476562 10.238281l-17.066406 22.761719c-3.316407 4.433594-5.113282 9.820312-5.125 15.359375v105.242187h-9.75c-4.710938 0-8.53125 3.820313-8.53125 8.53125 0 4.714844 3.820312 8.535156 8.53125 8.535156h9.75v76.796876c.015624 14.132812 11.46875 25.585937 25.601562 25.601562h256c14.132812-.015625 25.585938-11.46875 25.601562-25.601562v-76.796876h9.75c4.710938 0 8.53125-3.820312 8.53125-8.535156 0-4.710937-3.820312-8.53125-8.53125-8.53125h-9.75v-93.867187c-.015624-14.132813-11.46875-25.585938-25.601562-25.601563h-128c-2.679688-.003906-5.207031-1.265625-6.816406-3.40625h-.007813l-15.359375-20.480468c-4.847656-6.4375-12.429687-10.226563-20.484375-10.246094zm42.667969 51.199218h128c4.710938.003907 8.527344 3.824219 8.535156 8.535157v187.730469c-.007812 4.710937-3.824218 8.53125-8.535156 8.535156h-256c-4.710938-.003906-8.527344-3.824219-8.535156-8.535156v-199.109376c.007812-1.847656.605468-3.640624 1.707031-5.121093l17.078125-22.761719c1.609375-2.144531 4.136719-3.40625 6.816406-3.40625h68.265625c2.6875.003906 5.214844 1.269531 6.828125 3.414062l15.367188 20.480469c4.84375 6.433594 12.421875 10.222657 20.472656 10.238281zm0 0" fill="#4caf50" data-original="#000000" style="" class=""/><path xmlns="http://www.w3.org/2000/svg" d="m136.535156 324.265625v17.066406c.007813 9.421875 7.644532 17.058594 17.066406 17.066407h170.664063c9.421875-.007813 17.058594-7.644532 17.066406-17.066407v-17.066406c-.007812-9.421875-7.644531-17.054687-17.066406-17.066406h-170.664063c-9.421874.011719-17.058593 7.644531-17.066406 17.066406zm187.738282 17.066406h-170.671876v-17.066406h170.664063zm0 0" fill="#4caf50" data-original="#000000" style="" class=""/><path xmlns="http://www.w3.org/2000/svg" d="m145.066406 469.332031c0 4.714844 3.820313 8.535157 8.535156 8.535157h213.332032c4.710937 0 8.53125-3.820313 8.53125-8.535157 0-4.710937-3.820313-8.53125-8.53125-8.53125h-213.332032c-4.714843 0-8.535156 3.820313-8.535156 8.53125zm0 0" fill="#4caf50" data-original="#000000" style="" class=""/><path xmlns="http://www.w3.org/2000/svg" d="m153.601562 443.734375h59.730469c4.714844 0 8.535157-3.820313 8.535157-8.535156 0-4.710938-3.820313-8.53125-8.535157-8.53125h-59.730469c-4.714843 0-8.535156 3.820312-8.535156 8.53125 0 4.714843 3.820313 8.535156 8.535156 8.535156zm0 0" fill="#4caf50" data-original="#000000" style="" class=""/><path xmlns="http://www.w3.org/2000/svg" d="m153.601562 409.601562h110.933594c4.710938 0 8.53125-3.820312 8.53125-8.535156 0-4.710937-3.820312-8.53125-8.53125-8.53125h-110.933594c-4.714843 0-8.535156 3.820313-8.535156 8.53125 0 4.714844 3.820313 8.535156 8.535156 8.535156zm0 0" fill="#4caf50" data-original="#000000" style="" class=""/><path xmlns="http://www.w3.org/2000/svg" d="m42.667969 85.332031h51.199219c4.710937 0 8.53125-3.820312 8.53125-8.53125 0-4.714843-3.820313-8.535156-8.53125-8.535156h-51.199219c-4.714844 0-8.535157 3.820313-8.535157 8.535156 0 4.710938 3.820313 8.53125 8.535157 8.53125zm0 0" fill="#4caf50" data-original="#000000" style="" class=""/><path xmlns="http://www.w3.org/2000/svg" d="m42.667969 119.464844h51.199219c4.710937 0 8.53125-3.820313 8.53125-8.53125 0-4.714844-3.820313-8.535156-8.53125-8.535156h-51.199219c-4.714844 0-8.535157 3.820312-8.535157 8.535156 0 4.710937 3.820313 8.53125 8.535157 8.53125zm0 0" fill="#4caf50" data-original="#000000" style="" class=""/><path xmlns="http://www.w3.org/2000/svg" d="m42.667969 153.601562h51.199219c4.710937 0 8.53125-3.820312 8.53125-8.535156 0-4.710937-3.820313-8.53125-8.53125-8.53125h-51.199219c-4.714844 0-8.535157 3.820313-8.535157 8.53125 0 4.714844 3.820313 8.535156 8.535157 8.535156zm0 0" fill="#4caf50" data-original="#000000" style="" class=""/><path xmlns="http://www.w3.org/2000/svg" d="m42.667969 187.734375h51.199219c4.710937 0 8.53125-3.820313 8.53125-8.535156 0-4.710938-3.820313-8.53125-8.53125-8.53125h-51.199219c-4.714844 0-8.535157 3.820312-8.535157 8.53125 0 4.714843 3.820313 8.535156 8.535157 8.535156zm0 0" fill="#4caf50" data-original="#000000" style="" class=""/><path xmlns="http://www.w3.org/2000/svg" d="m494.933594 34.132812h-102.398438c-9.421875.011719-17.058594 7.644532-17.070312 17.066407v80.058593l-51.199219-25.601562v-88.589844c-.011719-9.421875-7.644531-17.0546872-17.066406-17.066406h-102.398438c-9.421875.0117188-17.054687 7.644531-17.066406 17.066406v88.589844l-51.199219 25.601562v-80.058593c-.011718-9.421875-7.648437-17.054688-17.070312-17.066407h-102.398438c-9.421875.011719-17.0546872 7.644532-17.066406 17.066407v153.601562c.0117188 9.421875 7.644531 17.054688 17.066406 17.066407h42.667969v8.53125c0 4.714843 3.820313 8.535156 8.53125 8.535156 4.714844 0 8.535156-3.820313 8.535156-8.535156v-8.53125h42.664063c9.421875-.011719 17.058594-7.644532 17.070312-17.066407v-54.457031l51.199219-25.601562v45.925781c.011719 9.417969 7.644531 17.054687 17.066406 17.066406h42.664063v8.53125c0 4.714844 3.824218 8.535156 8.535156 8.535156s8.535156-3.820312 8.535156-8.535156v-8.53125h42.664063c9.421875-.011719 17.054687-7.648437 17.066406-17.066406v-45.925781l51.199219 25.601562v54.457031c.011718 9.421875 7.648437 17.054688 17.070312 17.066407h42.664063v8.53125c0 4.714843 3.820312 8.535156 8.535156 8.535156 4.710937 0 8.53125-3.820313 8.53125-8.535156v-8.53125h42.667969c9.421875-.011719 17.054687-7.644532 17.066406-17.066407v-153.601562c-.011719-9.421875-7.644531-17.054688-17.066406-17.066407zm-375.46875 170.667969h-102.398438v-153.601562h102.398438zm187.734375-34.132812h-102.398438v-153.601563h102.398438zm187.734375 34.132812h-102.398438l-.011718-153.601562h102.410156zm0 0" fill="#4caf50" data-original="#000000" style="" class=""/><path xmlns="http://www.w3.org/2000/svg" d="m418.132812 85.332031h51.199219c4.714844 0 8.535157-3.820312 8.535157-8.53125 0-4.714843-3.820313-8.535156-8.535157-8.535156h-51.199219c-4.710937 0-8.53125 3.820313-8.53125 8.535156 0 4.710938 3.820313 8.53125 8.53125 8.53125zm0 0" fill="#4caf50" data-original="#000000" style="" class=""/><path xmlns="http://www.w3.org/2000/svg" d="m418.132812 119.464844h51.199219c4.714844 0 8.535157-3.820313 8.535157-8.53125 0-4.714844-3.820313-8.535156-8.535157-8.535156h-51.199219c-4.710937 0-8.53125 3.820312-8.53125 8.535156 0 4.710937 3.820313 8.53125 8.53125 8.53125zm0 0" fill="#4caf50" data-original="#000000" style="" class=""/><path xmlns="http://www.w3.org/2000/svg" d="m418.132812 153.601562h51.199219c4.714844 0 8.535157-3.820312 8.535157-8.535156 0-4.710937-3.820313-8.53125-8.535157-8.53125h-51.199219c-4.710937 0-8.53125 3.820313-8.53125 8.53125 0 4.714844 3.820313 8.535156 8.53125 8.535156zm0 0" fill="#4caf50" data-original="#000000" style="" class=""/><path xmlns="http://www.w3.org/2000/svg" d="m418.132812 187.734375h51.199219c4.714844 0 8.535157-3.820313 8.535157-8.535156 0-4.710938-3.820313-8.53125-8.535157-8.53125h-51.199219c-4.710937 0-8.53125 3.820312-8.53125 8.53125 0 4.714843 3.820313 8.535156 8.53125 8.535156zm0 0" fill="#4caf50" data-original="#000000" style="" class=""/><path xmlns="http://www.w3.org/2000/svg" d="m230.398438 51.199219h51.203124c4.710938 0 8.53125-3.820313 8.53125-8.53125 0-4.714844-3.820312-8.535157-8.53125-8.535157h-51.203124c-4.710938 0-8.53125 3.820313-8.53125 8.535157 0 4.710937 3.820312 8.53125 8.53125 8.53125zm0 0" fill="#4caf50" data-original="#000000" style="" class=""/><path xmlns="http://www.w3.org/2000/svg" d="m230.398438 85.332031h51.203124c4.710938 0 8.53125-3.820312 8.53125-8.53125 0-4.714843-3.820312-8.535156-8.53125-8.535156h-51.203124c-4.710938 0-8.53125 3.820313-8.53125 8.535156 0 4.710938 3.820312 8.53125 8.53125 8.53125zm0 0" fill="#4caf50" data-original="#000000" style="" class=""/><path xmlns="http://www.w3.org/2000/svg" d="m230.398438 119.464844h51.203124c4.710938 0 8.53125-3.820313 8.53125-8.53125 0-4.714844-3.820312-8.535156-8.53125-8.535156h-51.203124c-4.710938 0-8.53125 3.820312-8.53125 8.535156 0 4.710937 3.820312 8.53125 8.53125 8.53125zm0 0" fill="#4caf50" data-original="#000000" style="" class=""/><path xmlns="http://www.w3.org/2000/svg" d="m230.398438 153.601562h51.203124c4.710938 0 8.53125-3.820312 8.53125-8.535156 0-4.710937-3.820312-8.53125-8.53125-8.53125h-51.203124c-4.710938 0-8.53125 3.820313-8.53125 8.53125 0 4.714844 3.820312 8.535156 8.53125 8.535156zm0 0" fill="#4caf50" data-original="#000000" style="" class=""/><path xmlns="http://www.w3.org/2000/svg" d="m68.265625 290.132812c4.714844 0 8.535156-3.820312 8.535156-8.53125v-17.066406c0-4.714844-3.820312-8.535156-8.535156-8.535156-4.710937 0-8.53125 3.820312-8.53125 8.535156v17.066406c0 4.710938 3.820313 8.53125 8.53125 8.53125zm0 0" fill="#4caf50" data-original="#000000" style="" class=""/><path xmlns="http://www.w3.org/2000/svg" d="m59.734375 332.800781c0 4.710938 3.820313 8.53125 8.53125 8.53125 4.714844 0 8.535156-3.820312 8.535156-8.53125v-17.066406c0-4.714844-3.820312-8.535156-8.535156-8.535156-4.710937 0-8.53125 3.820312-8.53125 8.535156zm0 0" fill="#4caf50" data-original="#000000" style="" class=""/><path xmlns="http://www.w3.org/2000/svg" d="m59.734375 384c0 4.710938 3.820313 8.535156 8.53125 8.535156 4.714844 0 8.535156-3.824218 8.535156-8.535156v-17.066406c0-4.714844-3.820312-8.535156-8.535156-8.535156-4.710937 0-8.53125 3.820312-8.53125 8.535156zm0 0" fill="#4caf50" data-original="#000000" style="" class=""/><path xmlns="http://www.w3.org/2000/svg" d="m435.199219 332.800781c0 4.710938 3.820312 8.53125 8.535156 8.53125 4.710937 0 8.53125-3.820312 8.53125-8.53125v-17.066406c0-4.714844-3.820313-8.535156-8.53125-8.535156-4.714844 0-8.535156 3.820312-8.535156 8.535156zm0 0" fill="#4caf50" data-original="#000000" style="" class=""/><path xmlns="http://www.w3.org/2000/svg" d="m435.199219 384c0 4.710938 3.820312 8.535156 8.535156 8.535156 4.710937 0 8.53125-3.824218 8.53125-8.535156v-17.066406c0-4.714844-3.820313-8.535156-8.53125-8.535156-4.714844 0-8.535156 3.820312-8.535156 8.535156zm0 0" fill="#4caf50" data-original="#000000" style="" class=""/><path xmlns="http://www.w3.org/2000/svg" d="m443.734375 290.132812c4.710937 0 8.53125-3.820312 8.53125-8.53125v-17.066406c0-4.714844-3.820313-8.535156-8.53125-8.535156-4.714844 0-8.535156 3.820312-8.535156 8.535156v17.066406c0 4.710938 3.820312 8.53125 8.535156 8.53125zm0 0" fill="#4caf50" data-original="#000000" style="" class=""/><path xmlns="http://www.w3.org/2000/svg" d="m256 256c4.710938 0 8.535156-3.820312 8.535156-8.535156v-17.066406c0-4.710938-3.824218-8.53125-8.535156-8.53125s-8.535156 3.820312-8.535156 8.53125v17.066406c0 4.714844 3.824218 8.535156 8.535156 8.535156zm0 0" fill="#4caf50" data-original="#000000" style="" class=""/></g></svg>
