<svg xmlns="http://www.w3.org/2000/svg" viewBox="0 0 462.45 512"><defs><style>.cls-1{fill:#4caf50;}</style></defs><g id="Слой_2" data-name="Слой 2"><g id="Слой_1-2" data-name="Слой 1"><path class="cls-1" d="M16.52,49.55H264.26v57.8a8.25,8.25,0,0,0,8.26,8.26h57.8v66.07h16.52V107.35a8.21,8.21,0,0,0-2.43-5.84l-66-66A8.22,8.22,0,0,0,272.52,33h-223V16.52h313.8V198.19h16.52V8.26A8.25,8.25,0,0,0,371.61,0H41.29A8.25,8.25,0,0,0,33,8.26V33H8.26A8.25,8.25,0,0,0,0,41.29V503.74A8.25,8.25,0,0,0,8.26,512H289V495.48H16.52ZM280.77,61.23,318.65,99.1H280.77Z"/><path class="cls-1" d="M454.19,247.74H441.76a123.53,123.53,0,0,1-95.16-44.56l-1.67-2a8.53,8.53,0,0,0-12.69,0l-1.67,2a123.54,123.54,0,0,1-95.17,44.57H223a8.25,8.25,0,0,0-8.26,8.26V389.75a91,91,0,0,0,45.77,78.87l74,42.29a8.26,8.26,0,0,0,8.2,0l74-42.29a91,91,0,0,0,45.77-78.87V256A8.25,8.25,0,0,0,454.19,247.74Zm-8.25,142a74.45,74.45,0,0,1-37.46,64.52l-69.9,40-69.9-39.95a74.5,74.5,0,0,1-37.45-64.54V264.26h4.17a140,140,0,0,0,103.18-45.18,140,140,0,0,0,103.18,45.18h4.18Z"/><path class="cls-1" d="M338.58,272.52a90.84,90.84,0,1,0,90.84,90.83A90.95,90.95,0,0,0,338.58,272.52Zm0,165.16a74.33,74.33,0,1,1,74.32-74.33A74.41,74.41,0,0,1,338.58,437.68Z"/><path class="cls-1" d="M334.64,389l-15-15L308,385.71l24.77,24.77a8.24,8.24,0,0,0,5.84,2.42,8.71,8.71,0,0,0,2-.24,8.29,8.29,0,0,0,5.89-5.64l24.78-82.58-15.83-4.75Z"/><path class="cls-1" d="M33,132.13H247.74v16.52H33Z"/><path class="cls-1" d="M33,165.16H247.74v16.52H33Z"/><path class="cls-1" d="M33,198.19H247.74v16.52H33Z"/><path class="cls-1" d="M33,231.23H198.19v16.51H33Z"/><path class="cls-1" d="M33,264.26H198.19v16.51H33Z"/><path class="cls-1" d="M33,297.29H198.19v16.52H33Z"/><path class="cls-1" d="M33,396.39H198.19V412.9H33Z"/><path class="cls-1" d="M33,429.42H198.19v16.52H33Z"/><path class="cls-1" d="M33,462.45H198.19V479H33Z"/><path class="cls-1" d="M41.29,66.06H57.81V82.58H41.29Z"/><path class="cls-1" d="M74.32,66.06H90.84V82.58H74.32Z"/><path class="cls-1" d="M107.35,66.06h16.52V82.58H107.35Z"/><path class="cls-1" d="M140.39,66.06H247.74V82.58H140.39Z"/></g></g></svg>