<svg xmlns="http://www.w3.org/2000/svg" viewBox="0 0 96.91 62.98"><defs><style>.cls-1{fill:#ededed;}.cls-2{fill:#1d1d1b;}.cls-3{fill:#1d71b8;}.cls-4{fill:#9d9d9c;}.cls-5{fill:#3c3c3b;}.cls-6{isolation:isolate;}.cls-7{fill:#b2b2b2;}.cls-8{fill:#5f5f5f;}.cls-9{fill:#999;}.cls-10{fill:#898989;}.cls-11{fill:#575756;}.cls-12{fill:#dadada;}.cls-13{fill:#ba2922;}.cls-14{fill:#e6332a;}</style></defs><g id="Слой_2" data-name="Слой 2"><g id="Layer_1" data-name="Layer 1"><polygon class="cls-1" points="96.91 40.33 57.69 62.98 1.79 30.71 41.02 8.06 96.91 40.33"/><polygon class="cls-2" points="41.31 14.72 12.95 31.09 11.26 30.11 39.61 13.74 41.31 14.72"/><polygon class="cls-2" points="45.95 17.4 17.6 33.77 16.55 33.16 44.91 16.8 45.95 17.4"/><polygon class="cls-2" points="48.75 19.02 20.4 35.38 19.36 34.78 47.71 18.41 48.75 19.02"/><polygon class="cls-2" points="51.55 20.63 23.2 37 22.16 36.4 50.51 20.03 51.55 20.63"/><polygon class="cls-2" points="57.16 23.87 28.81 40.24 27.77 39.64 56.12 23.27 57.16 23.87"/><polygon class="cls-2" points="59.97 25.49 31.61 41.86 30.57 41.26 58.92 24.89 59.97 25.49"/><polygon class="cls-2" points="45.27 37.21 34.42 43.48 33.37 42.88 44.23 36.61 45.27 37.21"/><polygon class="cls-2" points="65.57 28.73 37.22 45.1 36.18 44.49 64.53 28.12 65.57 28.73"/><polygon class="cls-2" points="68.37 30.34 40.02 46.71 38.98 46.11 67.33 29.74 68.37 30.34"/><polygon class="cls-2" points="64.54 35.8 42.83 48.33 41.78 47.73 63.49 35.2 64.54 35.8"/><polygon class="cls-2" points="63.88 45.89 51.23 53.19 50.19 52.59 62.84 45.29 63.88 45.89"/><polygon class="cls-2" points="66.68 47.51 54.04 54.81 52.99 54.2 65.64 46.9 66.68 47.51"/><path class="cls-3" d="M88.29,39,72.74,48,62.63,42.12l15.54-9ZM72.68,47.52,87.52,39l-9.29-5.36L63.39,42.16Z"/><path class="cls-3" d="M88.29,39,72.74,48,62.63,42.12l15.54-9ZM72.68,47.52,87.52,39l-9.29-5.36L63.39,42.16Z"/><path class="cls-3" d="M86.75,38.92,72.62,47.07l-8.46-4.88L78.29,34ZM72.56,46.63,86,38.88l-7.63-4.4L64.93,42.22Z"/><polygon class="cls-3" points="69.21 40.66 66.5 42.22 67.27 42.67 69.98 41.1 69.21 40.66"/><polygon class="cls-3" points="70.63 39.84 71.4 40.28 79.12 35.83 78.34 35.38 70.63 39.84"/><polygon class="cls-3" points="78.7 38 68.94 43.63 68.17 43.19 77.93 37.55 78.7 38"/><polygon class="cls-3" points="75.5 41.78 70.62 44.6 69.85 44.16 74.73 41.34 75.5 41.78"/><polygon class="cls-3" points="82.46 37.76 78.76 39.9 77.99 39.45 81.69 37.32 82.46 37.76"/><polygon class="cls-3" points="82.05 39.93 72.29 45.57 71.52 45.12 81.28 39.49 82.05 39.93"/><polygon class="cls-4" points="27.91 26.52 27.91 53.61 11.66 44.22 11.66 17.14 27.91 26.52"/><path class="cls-5" d="M19.8,42.3a2,2,0,0,1-.91-1.55V21.39l1.8,1V41.78C20.69,42.35,20.29,42.58,19.8,42.3Z"/><g class="cls-6"><polygon class="cls-7" points="15.96 30.38 15.93 60.6 13.3 62.12 13.34 31.91 15.96 30.38"/><polygon class="cls-8" points="13.34 31.91 13.3 62.12 10.67 60.6 10.71 30.38 13.34 31.91"/><polygon class="cls-9" points="15.96 30.38 13.34 31.91 10.71 30.38 13.33 28.86 15.96 30.38"/></g><g class="cls-6"><polygon class="cls-10" points="5.29 24.23 5.26 54.44 2.64 55.97 2.67 25.75 5.29 24.23"/><polygon class="cls-8" points="13.3 27.14 13.3 62.12 0 54.44 0.04 24.23 13.3 27.14"/><polygon class="cls-9" points="5.29 24.23 2.67 25.75 0.04 24.23 2.66 22.71 5.29 24.23"/></g><path class="cls-5" d="M6.66,52a2,2,0,0,1-.91-1.55V31.09l1.8,1V51.48C7.55,52.05,7.15,52.28,6.66,52Z"/><g class="cls-6"><polygon class="cls-7" points="29.35 22.59 29.31 52.81 26.69 54.33 26.73 24.12 29.35 22.59"/><polygon class="cls-8" points="26.73 24.12 26.69 54.33 24.05 52.81 24.09 22.59 26.73 24.12"/><polygon class="cls-9" points="29.35 22.59 26.73 24.12 24.09 22.59 26.71 21.07 29.35 22.59"/></g><g class="cls-6"><path class="cls-11" d="M17.49,0a1,1,0,0,0-.56.13L.66,9.58a1,1,0,0,1,.57-.13c5.85.22,11.69,8.79,12.15,9.15L29.65,9.15C29.65,6.8,24.62.27,17.49,0Z"/><path d="M13.38,18.6l-.07,24.62L0,35.56.07,10.9c0-.9.45-1.48,1.16-1.45C8.39,9.72,13.39,16.28,13.38,18.6Z"/></g><polygon class="cls-7" points="13.82 40.92 29.31 31.91 29.31 25.9 13.82 34.91 13.82 40.92"/><polygon class="cls-5" points="13.38 18.6 13.31 43.22 14.95 42.27 14.95 34.91 28.01 27.37 28.01 34.69 29.58 33.77 29.65 9.15 13.38 18.6"/><polygon class="cls-7" points="29.31 52.81 13.3 62.12 13.3 59.41 29.31 50.1 29.31 52.81"/><polygon class="cls-12" points="26.69 51.63 15.93 57.89 15.93 54.71 24.05 50.1 26.69 51.63"/><g class="cls-6"><path class="cls-13" d="M7,31.41a1.11,1.11,0,0,0-1.12-.11l-.62.36a1.13,1.13,0,0,1,1.13.11A3.44,3.44,0,0,1,8,34.5a1.08,1.08,0,0,1-.46,1l.62-.36a1.1,1.1,0,0,0,.46-1A3.48,3.48,0,0,0,7,31.41Z"/><path class="cls-14" d="M6.39,31.77A3.44,3.44,0,0,1,8,34.5c0,1-.71,1.4-1.58.9A3.45,3.45,0,0,1,4.8,32.67C4.81,31.67,5.52,31.27,6.39,31.77Z"/></g></g></g></svg>