<svg xmlns="http://www.w3.org/2000/svg" viewBox="0 0 377.83 219.61"><defs><style>.cls-1{opacity:0.3;}.cls-2{fill:#fff;stroke:#000;stroke-miterlimit:10;stroke-width:0.15px;}.cls-3{fill:#b5afa7;}.cls-4{opacity:0.6;}.cls-5{fill:#6cb5c4;}.cls-6{fill:#231f20;}.cls-7{fill:#414042;}.cls-8{fill:#857f79;}.cls-9{fill:#d8d1c7;}.cls-10{fill:#a39c95;}.cls-11{fill:#e6e1dd;}.cls-12{fill:#6d6e71;}.cls-13{fill:#808285;}.cls-14{fill:#58595b;}.cls-15{fill:#fa5c52;}.cls-16{fill:#ab281f;}.cls-17{fill:#8a1c14;}.cls-18{fill:#c84030;}</style></defs><g id="Слой_2" data-name="Слой 2"><g id="Layer_1" data-name="Layer 1"><polygon class="cls-1" points="377.68 101.86 173.72 219.61 0.15 119.38 216.79 8.96 377.68 101.86"/><polygon class="cls-2" points="377.68 100.3 173.72 218.06 0.15 117.84 204.11 0.09 377.68 100.3"/><polygon class="cls-3" points="234.42 43.72 75.72 135.34 58.87 125.62 217.57 33.99 234.42 43.72"/><polygon class="cls-3" points="250.36 52.93 91.67 144.55 84.49 140.41 243.19 48.79 250.36 52.93"/><polygon class="cls-3" points="266.32 62.14 107.62 153.77 100.44 149.62 259.14 58 266.32 62.14"/><polygon class="cls-3" points="320.25 93.28 257.78 129.34 255.47 128.01 317.94 91.94 320.25 93.28"/><polygon class="cls-3" points="216.78 109.16 123.57 162.97 116.4 158.83 209.61 105.02 216.78 109.16"/><polygon class="cls-3" points="202.22 25.14 134.64 64.16 129.87 61.35 197.45 22.33 202.22 25.14"/><g class="cls-4"><path class="cls-5" d="M187,139.45l-15.48,2.4-11.35,6.54L156,157.33l4.16,9,11.34,6.54,15.49,2.4,15.5-2.4,11.33-6.54,4.16-8.94-4.16-9-11.33-6.54Zm23,10.24,3.56,7.64L210,165l-9.72,5.61-13.26,2-13.26-2.05L164,165l-3.55-7.66,3.56-7.64,9.71-5.62L187,142l13.27,2Z"/><polygon class="cls-5" points="180.37 150.71 175.52 153.5 173.74 157.35 175.53 161.17 180.39 163.97 187 165.01 193.64 163.97 198.5 161.16 200.27 157.33 198.5 153.51 193.63 150.71 187 149.68 180.37 150.71"/><path class="cls-5" d="M176.58,146.9l-7.64,4.42-2.82,6,2.8,6,7.66,4.41L187,169.4l10.43-1.63,7.66-4.41,2.79-6-2.8-6-7.64-4.41L187,145.29Zm27.22,4.85,2.6,5.58-2.6,5.61-7.1,4.1-9.7,1.49-9.68-1.48-7.1-4.12-2.6-5.58,2.58-5.61,7.12-4.11,9.69-1.48,9.7,1.48Z"/></g><polygon class="cls-1" points="187.01 181.97 144.28 157.33 186.62 132.87 229.36 157.5 187.01 181.97"/><polygon class="cls-6" points="229.4 121.76 223.17 121.7 223.17 138.13 226.33 144.45 229.4 142.69 229.4 121.76"/><polygon class="cls-7" points="226.33 123.53 183.78 98.95 183.78 119.88 226.33 144.45 226.33 123.53"/><path class="cls-8" d="M181.14,75.53v58l39.51,22.8L222,145.25V96.81Z"/><path class="cls-9" d="M186.09,132.51l.43,44.3,34.77-20.07v-44ZM217.69,149,215,153.66l-23.89,13.8-2.69-1.56v-30l2.69-4.64L215,117.44l2.68,1.55Z"/><path class="cls-9" d="M150.38,99.86v58L187,179l1.36-11.13V119.48Z"/><polygon class="cls-10" points="170.76 162.87 170.76 164.72 166.41 162.21 166.41 115.77 168.03 116.69 168.88 159.49 170.76 162.87"/><polygon class="cls-11" points="170.76 118.27 170.76 162.87 168.03 161.29 168.03 116.69 170.76 118.27"/><path class="cls-10" d="M187,121v58l36.45-21V100Zm32.85,29.27-2.69,4.65L193.3,168.71l-2.69-1.55v-30l2.69-4.64,23.87-13.8,2.69,1.55Z"/><polygon class="cls-12" points="144.28 74.06 152.71 59.46 159.44 63.96 153.51 77.22 144.28 74.06"/><polygon class="cls-12" points="220.97 59.46 229.4 74.06 223.64 77.07 214.63 66.27 220.97 59.46"/><rect class="cls-12" x="175.72" y="80.82" width="23.44" height="19.16"/><polygon class="cls-6" points="229.4 74.06 220.97 69.22 211.5 71.09 195.3 84.04 186.83 98.63 182.67 127.2 186.83 146.34 229.4 121.76 229.4 74.06"/><polygon class="cls-6" points="189.88 144.57 183.67 144.52 183.67 160.94 186.83 167.26 189.88 165.5 189.88 144.57"/><polygon class="cls-7" points="186.83 98.63 178.42 84.04 152.71 69.2 144.28 74.06 144.28 142.69 186.83 167.26 186.83 98.63"/><polygon class="cls-13" points="161.75 134.72 162.97 134.05 167.95 136.93 166.68 139.72 161.75 134.72"/><polygon class="cls-12" points="166.68 137.6 167.95 136.93 171.44 142.96 170.19 149.42 166.68 137.6"/><polygon class="cls-6" points="170.19 143.71 171.44 142.96 171.44 148.75 170.19 149.42 170.19 143.71"/><polygon class="cls-14" points="166.68 151.56 170.19 149.42 170.19 143.71 166.68 137.6 161.75 134.72 158.13 136.85 158.13 142.52 161.75 148.59 166.68 151.56"/><polygon class="cls-15" points="160.44 137.46 161.9 136.61 165.87 138.88 164.4 141.38 160.44 137.46"/><polygon class="cls-16" points="164.41 139.72 165.87 138.88 168.7 143.75 167.26 149.22 164.41 139.72"/><polygon class="cls-17" points="167.26 144.63 168.7 143.75 168.7 148.34 167.26 149.22 167.26 144.63"/><polygon class="cls-18" points="164.41 150.89 167.26 149.22 167.26 144.63 164.41 139.72 160.44 137.46 157.68 139.08 157.68 143.69 160.44 148.57 164.41 150.89"/><polygon class="cls-14" points="220.97 69.22 220.97 59.46 195.3 44.63 178.42 44.63 152.71 59.46 152.71 69.22 178.42 84.04 195.3 84.04 220.97 69.22"/></g></g></svg>