<?xml version="1.0" encoding="utf-8"?>
<!-- Generator: Adobe Illustrator 24.2.3, SVG Export Plug-In . SVG Version: 6.00 Build 0)  -->
<svg version="1.1" id="Слой_1" xmlns:svgjs="http://svgjs.com/svgjs"
	 xmlns="http://www.w3.org/2000/svg" xmlns:xlink="http://www.w3.org/1999/xlink" x="0px" y="0px" viewBox="0 0 512 512"
	 style="enable-background:new 0 0 512 512;" xml:space="preserve">
<style type="text/css">
	.st0{fill:#4CAF50;}
</style>
<g>
	<g>
		<g>
			<g>
				<path class="st0" d="M384,290.1c-2.9,0-5.7,0.2-8.5,0.4V8.5c0-4.7-3.8-8.5-8.5-8.5H25.6c-4.7,0-8.5,3.8-8.5,8.5v494.9
					c0,4.7,3.8,8.5,8.5,8.5H384c61.3,0,110.9-49.7,110.9-110.9S445.3,290.1,384,290.1z M34.1,494.9V17.1h324.3v276.2
					c-59.5,14-96.4,73.6-82.4,133.2c6.7,28.4,24.4,53.1,49.1,68.5H34.1z M384,494.9c-51.8,0-93.9-42-93.9-93.9s42-93.9,93.9-93.9
					c51.8,0.1,93.8,42.1,93.9,93.9C477.9,452.9,435.8,494.9,384,494.9z"/>
				<rect x="110.9" y="42.7" class="st0" width="170.7" height="17.1"/>
				<rect x="76.8" y="145.1" class="st0" width="85.3" height="17.1"/>
				<rect x="179.2" y="145.1" class="st0" width="93.9" height="17.1"/>
				<rect x="162.1" y="187.7" class="st0" width="85.3" height="17.1"/>
				<rect x="162.1" y="230.4" class="st0" width="153.6" height="17.1"/>
				<rect x="76.8" y="273.1" class="st0" width="238.9" height="17.1"/>
				<rect x="290.1" y="145.1" class="st0" width="25.6" height="17.1"/>
				<rect x="264.5" y="187.7" class="st0" width="51.2" height="17.1"/>
				<rect x="76.8" y="315.7" class="st0" width="179.2" height="17.1"/>
				<rect x="76.8" y="358.4" class="st0" width="179.2" height="17.1"/>
				<rect x="76.8" y="401.1" class="st0" width="51.2" height="17.1"/>
				<rect x="145.1" y="401.1" class="st0" width="110.9" height="17.1"/>
				<rect x="76.8" y="102.4" class="st0" width="238.9" height="17.1"/>
				<rect x="76.8" y="187.7" class="st0" width="59.7" height="17.1"/>
				<rect x="76.8" y="230.4" class="st0" width="68.3" height="17.1"/>
				<path class="st0" d="M441.2,360.9l-17.1-17.1c-3.3-3.3-8.7-3.3-12.1,0L384,371.9l-28.1-28.1c-3.3-3.3-8.7-3.3-12.1,0l-17.1,17.1
					c-3.3,3.3-3.3,8.7,0,12.1l28.1,28.1l-28.1,28.1c-3.3,3.3-3.3,8.7,0,12.1l17.1,17.1c3.3,3.3,8.7,3.3,12.1,0l28.1-28.1l28.1,28.1
					c3.3,3.3,8.7,3.3,12.1,0l17.1-17.1c3.3-3.3,3.3-8.7,0-12.1l-28.1-28.1l28.1-28.1C444.6,369.6,444.6,364.2,441.2,360.9z M395,395
					c-3.3,3.3-3.3,8.7,0,12.1l28.1,28.1l-5,5L390,412.1c-3.3-3.3-8.7-3.3-12.1,0l-28.1,28.1l-5-5l28.1-28.1c3.3-3.3,3.3-8.7,0-12.1
					l-28.1-28.1l5-5L378,390c3.3,3.3,8.7,3.3,12.1,0l28.1-28.1l5,5L395,395z"/>
			</g>
		</g>
	</g>
</g>
</svg>
