<svg xmlns="http://www.w3.org/2000/svg" xmlns:xlink="http://www.w3.org/1999/xlink" viewBox="0 0 118.44 63.28"><defs><style>.cls-1{isolation:isolate;}.cls-18,.cls-2{fill:#ada6a3;}.cls-18,.cls-2,.cls-23,.cls-29{opacity:0.4;}.cls-3{fill:#b6b5b3;}.cls-4{fill:#937a6a;}.cls-5{fill:#252321;}.cls-6{fill:#312f2c;}.cls-7{fill:#393532;}.cls-8{fill:#f7f6f3;}.cls-9{fill:url(#Ѕезым_нный_градиент_33);}.cls-10{fill:#f3f2ef;}.cls-10,.cls-30,.cls-34{mix-blend-mode:screen;}.cls-11{fill:#f8f5f4;}.cls-12{fill:#e0ded7;}.cls-13,.cls-14{fill:#3a3737;}.cls-14,.cls-20{opacity:0.6;}.cls-15,.cls-34{opacity:0.9;}.cls-15,.cls-18,.cls-21,.cls-22,.cls-23,.cls-27,.cls-31,.cls-32{mix-blend-mode:multiply;}.cls-16{fill:#96ba13;}.cls-17{fill:#788eff;opacity:0.7;}.cls-19{fill:#ffcdb4;}.cls-20,.cls-29{fill:#e2997f;}.cls-21,.cls-31,.cls-32{fill:#d8b0a3;}.cls-21{opacity:0.1;}.cls-22{opacity:0.8;fill:url(#Ѕезым_нный_градиент_41);}.cls-23{fill:url(#Ѕезым_нный_градиент_21);}.cls-24{fill:#3a3331;}.cls-25{fill:#cbcdcd;}.cls-26{fill:url(#Ѕезым_нный_градиент_2);}.cls-27,.cls-30,.cls-32{opacity:0.3;}.cls-27{fill:url(#Ѕезым_нный_градиент_25);}.cls-28,.cls-30{fill:#ffdccc;}.cls-31{opacity:0.2;}.cls-33{fill:url(#Ѕезым_нный_градиент_99);}.cls-34{fill:url(#Ѕезым_нный_градиент_106);}.cls-35{fill:#272b2c;}.cls-36{fill:url(#Ѕезым_нный_градиент_53);}.cls-37{fill:#e4e6e6;}.cls-38{fill:#fff;}</style><linearGradient id="Ѕезым_нный_градиент_33" x1="25.49" y1="9.58" x2="26.78" y2="11.81" gradientUnits="userSpaceOnUse"><stop offset="0" stop-color="#f7f6f3"/><stop offset="1" stop-color="#f0efec"/></linearGradient><linearGradient id="Ѕезым_нный_градиент_41" x1="63.56" y1="12.75" x2="75.33" y2="30.99" gradientUnits="userSpaceOnUse"><stop offset="0" stop-color="#fff"/><stop offset="0.12" stop-color="#f8eeec"/><stop offset="0.36" stop-color="#ebd2cc"/><stop offset="0.59" stop-color="#e2beb5"/><stop offset="0.81" stop-color="#ddb2a7"/><stop offset="1" stop-color="#dbaea2"/></linearGradient><linearGradient id="Ѕезым_нный_градиент_21" x1="69.5" y1="19.41" x2="74.77" y2="30.29" gradientUnits="userSpaceOnUse"><stop offset="0" stop-color="#fff"/><stop offset="0.11" stop-color="#f7f0ed"/><stop offset="0.36" stop-color="#ead4cd"/><stop offset="0.59" stop-color="#e0c0b6"/><stop offset="0.81" stop-color="#dab4a8"/><stop offset="1" stop-color="#d8b0a3"/></linearGradient><linearGradient id="Ѕезым_нный_градиент_2" x1="76.01" y1="20.94" x2="76.91" y2="23.67" gradientUnits="userSpaceOnUse"><stop offset="0" stop-color="#272b2c"/><stop offset="0.46" stop-color="#444749"/><stop offset="0.48" stop-color="#444749"/><stop offset="0.61" stop-color="#444749"/><stop offset="0.65" stop-color="#373a3c"/><stop offset="0.7" stop-color="#272b2c"/></linearGradient><linearGradient id="Ѕезым_нный_градиент_25" x1="78.71" y1="7.72" x2="83.56" y2="38.9" gradientUnits="userSpaceOnUse"><stop offset="0" stop-color="#fff"/><stop offset="0.19" stop-color="#f1e3de"/><stop offset="0.38" stop-color="#e6ccc4"/><stop offset="0.57" stop-color="#debdb2"/><stop offset="0.78" stop-color="#dab3a7"/><stop offset="1" stop-color="#d8b0a3"/></linearGradient><radialGradient id="Ѕезым_нный_градиент_99" cx="90.94" cy="16.19" r="3.36" gradientUnits="userSpaceOnUse"><stop offset="0" stop-color="#444749"/><stop offset="1" stop-color="#272b2c"/></radialGradient><linearGradient id="Ѕезым_нный_градиент_106" x1="90.39" y1="17.4" x2="91.96" y2="17.2" gradientUnits="userSpaceOnUse"><stop offset="0" stop-color="#2d3133"/><stop offset="1" stop-color="#4e5254"/></linearGradient><linearGradient id="Ѕезым_нный_градиент_53" x1="84.8" y1="17.68" x2="87.76" y2="17.68" gradientUnits="userSpaceOnUse"><stop offset="0" stop-color="#eef1f1"/><stop offset="1" stop-color="#f6f7f3"/></linearGradient></defs><g class="cls-1"><g id="Слой_2" data-name="Слой 2"><g id="_0" data-name="0"><g id="_16" data-name="16"><polygon id="Cube_face_-_top" data-name="Cube face - top" class="cls-2" points="62.95 63.28 0 26.93 44.36 1.32 107.31 37.66 64.78 63.26 62.95 63.28"/><g id="Axonometric_Cube" data-name="Axonometric Cube"><polygon id="Cube_face_-_left" data-name="Cube face - left" class="cls-3" points="18.55 18.62 15.97 17.13 15.97 15.82 18.55 17.32 18.55 18.62"/><polygon id="Cube_face_-_right" data-name="Cube face - right" class="cls-4" points="35.44 8.87 18.55 18.62 18.55 17.32 35.44 7.57 35.44 8.87"/></g><g id="Axonometric_Cube-2" data-name="Axonometric Cube"><polygon id="Cube_face_-_left-2" data-name="Cube face - left" class="cls-5" points="64.78 63.26 1.84 26.92 1.84 25.61 64.78 61.95 64.78 63.26"/><polygon id="Cube_face_-_right-2" data-name="Cube face - right" class="cls-6" points="109.14 37.65 64.78 63.26 64.78 61.95 109.14 36.34 109.14 37.65"/><polygon id="Cube_face_-_top-2" data-name="Cube face - top" class="cls-7" points="64.78 61.95 1.84 25.61 46.2 0 109.14 36.34 64.78 61.95"/></g><path id="Cube_face_-_top-3" data-name="Cube face - top" class="cls-8" d="M19.38,17.8l-3.41-2L32.86,6.08l3.41,2a.17.17,0,0,1,0,.3L19.91,17.8A.55.55,0,0,1,19.38,17.8Z"/><path id="Cylinder_body" data-name="Cylinder body" class="cls-9" d="M16.86,14.56,33.48,5a.63.63,0,0,1,.65.06A2,2,0,0,1,35,6.6a.65.65,0,0,1-.26.59l-16.62,9.6a.65.65,0,0,0,.26-.59,2,2,0,0,0-.91-1.58A.63.63,0,0,0,16.86,14.56Z"/><path class="cls-10" d="M34.19,5.07,17.57,14.66a2,2,0,0,1,.6.67l16.62-9.6A1.92,1.92,0,0,0,34.19,5.07Z"/><path class="cls-7" d="M19.93,17.12a.64.64,0,0,0-.6,0c-.16.1-.16.25,0,.34a.64.64,0,0,0,.6,0C20.09,17.37,20.09,17.22,19.93,17.12Z"/><path class="cls-7" d="M35.72,8a.64.64,0,0,0-.6,0c-.16.09-.16.24,0,.34a.7.7,0,0,0,.6,0C35.88,8.25,35.88,8.1,35.72,8Z"/><path class="cls-3" d="M17.51,14.62c-.36-.21-.67-.14-.82.12L16,15.83l.61.48.83.35.1.07c.5.29.91.05.91-.53A2,2,0,0,0,17.51,14.62Z"/><polygon class="cls-11" points="104.44 36.17 64.62 59.16 7.54 26.21 47.36 3.22 104.44 36.17"/><path class="cls-12" d="M39.32,8.54,35.47,6.32V5.41a.33.33,0,0,0-.15-.27.36.36,0,0,0-.32,0l-.44.26A2,2,0,0,1,35,6.6a1.11,1.11,0,0,1,0,.19L38.91,9,21,19.35a.17.17,0,0,1-.17,0l-4-2.31v-.71l.63-.36c.25-.15,0-.69-.31-.55l-.79.46a.32.32,0,0,0-.15.27v1.08a.33.33,0,0,0,.15.27l4.16,2.4a.79.79,0,0,0,.4.1.78.78,0,0,0,.39-.1l18-10.38a.57.57,0,0,0,0-1Z"/><path class="cls-13" d="M29.41,36.19l-4.28-2.47.07,0L60.6,13.25l4.28,2.46-.07,0Zm-4.1-2.47,4.1,2.37L64.7,15.71l-4.1-2.36Z"/><polygon class="cls-13" points="26.6 34.54 26.56 34.47 61.94 14.04 61.98 14.12 26.6 34.54"/><polygon class="cls-13" points="38.43 30.96 34.24 28.54 34.29 28.46 38.48 30.88 38.43 30.96"/><polygon class="cls-13" points="56.34 20.61 52.16 18.2 52.2 18.12 56.39 20.54 56.34 20.61"/><polygon class="cls-13" points="28.02 35.36 27.97 35.28 63.35 14.86 63.4 14.94 28.02 35.36"/><path class="cls-13" d="M39.8,42.19l-4.28-2.47.07,0L71,19.24l4.28,2.47-.07,0Zm-4.1-2.47,4.1,2.37L75.09,21.71,71,19.34Z"/><polygon class="cls-13" points="36.99 40.54 36.95 40.47 72.33 20.04 72.37 20.12 36.99 40.54"/><polygon class="cls-13" points="48.82 36.95 44.63 34.54 44.68 34.46 48.87 36.88 48.82 36.95"/><polygon class="cls-13" points="65.32 25.8 62.54 24.2 62.59 24.12 65.36 25.72 65.32 25.8"/><polygon class="cls-13" points="38.41 41.36 38.36 41.28 73.74 20.86 73.78 20.93 38.41 41.36"/><polygon class="cls-13" points="41.18 42.96 41.13 42.88 76.51 22.46 76.56 22.53 41.18 42.96"/><polygon class="cls-13" points="51.59 38.55 48.82 36.95 48.87 36.88 51.64 38.48 51.59 38.55"/><polygon class="cls-13" points="69.54 28.24 68.09 27.4 68.13 27.32 69.59 28.16 69.54 28.24"/><path class="cls-13" d="M42.57,43.79l-4.16-2.4,0-.08,4.12,2.38L77.86,23.31l-2.71-1.56,0-.08L78,23.31l-.07,0Z"/><path class="cls-13" d="M49.53,47.81l-4.27-2.47.06,0,35.4-20.44L85,27.33l-.07,0Zm-4.1-2.47,4.1,2.37L84.82,27.33,80.72,25Z"/><polygon class="cls-13" points="46.73 46.16 46.68 46.09 82.06 25.66 82.1 25.74 46.73 46.16"/><polygon class="cls-13" points="58.55 42.57 54.37 40.16 54.41 40.08 58.6 42.5 58.55 42.57"/><polygon class="cls-13" points="76.47 32.23 72.28 29.82 72.32 29.74 76.51 32.16 76.47 32.23"/><polygon class="cls-13" points="48.14 46.98 48.1 46.9 83.47 26.48 83.52 26.55 48.14 46.98"/><path class="cls-13" d="M50.89,48.59l-1.38-.79.05-.08,1.33.77L86.18,28.12l-1.29-.75,0-.08,1.43.83-.07,0Z"/><polygon class="cls-13" points="59.94 43.38 58.55 42.57 58.6 42.5 59.99 43.3 59.94 43.38"/><path class="cls-14" d="M38.48,20.35l.27.15,2.83-1.63-.27-.15Zm0,.31-.26-.16-3.39,2,.27.15Zm.82.44.26.16,1.89-1.09L41.18,20Zm2.14-1.24.27.16,1.51-.88L43,19Zm1.16.56.27.15,2.83-1.63-.27-.15ZM40.27,23l.27.15,1.88-1.08-.27-.16Zm2.07-2.42-3.39,2,.27.15,3.38-1.95Zm1.59.31-1.51.87.27.15L44.2,21Zm2.7-4-3.41,2,.27.15,3.41-2Zm-7.68,6-.27-.16-3.34,1.93.26.16ZM34.7,24.07l-.27-.16-.86.5.26.16ZM50,14.9,46.9,16.71l.27.16,3.14-1.82Zm-5.36,1.87-3.1,1.79.26.16L45,16.92Zm-9.85,6-.27-.16-3.34,1.93.27.16Zm-.29,3.83-.26-.15-4.71,2.72.27.15Zm9.66-5.88.26.16,3.41-2-.26-.16Zm1.49-2.09.27.16,1.51-.88-.26-.15Zm5.86-1.84L54,15.35l-.27-.16-2.49,1.44Zm2.53-4.22-3.77,2.18.26.15,3.78-2.18ZM35.67,26l-.26-.15-.87.5.27.15ZM40,23.14l-4.34,2.5.27.16,4.33-2.5ZM45,16.62l.27.15,1.81-1-.27-.15ZM39.3,21.41,39,21.26l-4.33,2.5.27.15ZM26.41,27.32l-4.2,2.43.26.15,4.21-2.42Zm21.06-9.71.27.15,3.41-2-.27-.15ZM51,16.79,47.87,18.6l.27.15,3.14-1.81Zm.4-1.15L54.31,14,54,13.82l-2.89,1.67ZM30.53,27.39l-5.1,2.94.27.16,5.1-2.95Zm-1.22,1.93-1.49.86.26.15,1.49-.86Zm-1-1.89-5.06,2.93.26.15,5.07-2.92ZM53,12l-2.58,1.49.27.15,2.58-1.49ZM33.57,24.72l-.27-.15-4.7,2.71.26.16Zm1.77.2-.27-.15-4.28,2.47.27.15Zm-4.12-.07L31,24.7l-4.28,2.47.27.15Zm19-11.25L47,15.42l.27.15,3.14-1.82Z"/><path class="cls-14" d="M42.23,32.65l3.53-2,.24.14-3.53,2Zm.44.87.24.14L45.83,32l-.24-.14Zm0,.3-.24-.14-3.5,2,.24.14Zm-2,0L42.2,33,42,32.81l-1.57.9Zm-.28.16-.24-.14L38.17,35l.24.14Zm3.79-3.3,1.57-.9-.25-.15-1.56.91ZM46,30.46l.25.14,3.25-1.88-.25-.14Zm3-.65-3.22,1.86.25.14L49.32,30ZM38.86,36l-.25-.14-4.82,2.78.24.14Zm-1.68-1.26,3.5-2-.24-.14-3.51,2ZM41,32.56l2.93-1.69-.25-.14-2.92,1.68ZM36.9,34.9l-.24-.15-4.8,2.77.25.14ZM46,29.65l2.22-1.29L48,28.22l-2.22,1.29Zm-8.09,5.5-5.09,2.94.25.14,5.08-2.93Zm-6.75,2,1.49-.86-.25-.14L30.91,37Zm14.13-8.44.25.14,1.95-1.13-.25-.14ZM41.73,31l3.52-2L45,28.82l-3.53,2Zm-1.84,1.07,1.56-.91L41.21,31l-1.57.9Zm-2.22,1.28,1.94-1.13-.24-.14L37.42,33.2Zm-4.76,2.74,4.48-2.58-.24-.14-4.48,2.58ZM57.67,21.49l.24.14L60.84,20l-.25-.14Zm0,.3-.24-.14-3.51,2,.25.15Zm.74.41.25.14,1.94-1.12-.24-.15Zm2.22-1.28.25.14,1.56-.91L62.17,20Zm1.07.5.24.14,2.93-1.69-.25-.14ZM59.13,24l.24.14,2-1.13-.24-.14Zm2.27-2.43-3.51,2,.25.14,3.5-2Zm1.52.24-1.57.9.24.15L63.16,22Zm3-4-3.53,2,.25.14,3.52-2ZM57.86,23.9l-.24-.14-7.07,4.07.25.14ZM53.6,25.24l-.25-.14-3.76,2.17.24.14Zm10.48-7.45-3.21,1.86.24.14,3.22-1.86ZM53.86,24l-.24-.14-5,2.89.24.14Zm9.33-2.32.24.14,3.53-2-.24-.14Zm1.68-2.08.24.14,1.57-.9-.25-.14ZM54.34,27l-.24-.14-2.54,1.47.25.14Zm4.52-2.88-4.49,2.58.25.14L59.1,24.3Zm5.5-6.53.24.14,1.77-1-.24-.14Zm-6,4.87-.24-.14-4.48,2.58.24.14Zm8.36-4,.24.14,1-.56L67.67,18Zm1.33.34L67,19.46l.25.14L68.29,19Z"/><path class="cls-14" d="M62.7,46.11,62.5,46l-2.83,1.63.2.12Zm1.21,0,.2.11,2.83-1.63-.19-.12Zm4.73-3.41,1.67-1-.2-.12-1.67,1ZM67,44.33l.2.12,1.24-.72-.2-.11Zm-4.24,1.54.2.11,2.86-1.65-.2-.12Zm5.48-3.17-2.39,1.38.2.12,2.39-1.38Zm0,1.82-1.59.92.2.12,1.59-.92Zm.43,0,1.45-.84-.2-.12-1.45.84Zm0-.91,1.86-1.07-.2-.12-1.85,1.08Zm-2.23,2-3.66,2.12.2.11,3.66-2.11Zm-4.85,2.8L58.3,50.25l.2.12,3.25-1.88Zm-1.71.08-2.33,1.34.2.12L60,48.56Zm2.87-.52-.2-.11-.73.42.2.12Zm-3.07,0-.2-.12-2.71,1.57.2.12Zm4.25-1.54-.2-.11-3.62,2.09.2.11ZM83.2,35l2.89-1.67.2.12L83.4,35.07Zm.33.95-.2-.11-2.86,1.65.2.12Zm-1.63,0,1.28-.74-.2-.11-1.28.74Zm-.23.13-.2-.11-1.59.92.2.11Zm3.11-2.7,1.28-.74-.2-.12-1.28.74Zm1.54-.21.2.12,2.37-1.37-.2-.12ZM80.44,37.7l-.2-.12L76.15,40l.2.11Zm-1.37-1L81.93,35l-.2-.12-2.86,1.66Zm3.09-1.79,2.39-1.38-.2-.12L82,34.76ZM78.84,36.8l-.2-.12L74.58,39l.2.11Zm7.44-4.3,1.82-1.05-.2-.12-1.82,1.05ZM79.66,37l-4.31,2.48.2.12,4.3-2.49Z"/><polygon class="cls-13" points="61.85 29.43 60.44 28.61 60.48 28.54 61.9 29.35 61.85 29.43"/><polygon class="cls-13" points="70.7 25.89 69.34 25.11 69.38 25.03 70.74 25.82 70.7 25.89"/><polygon class="cls-13" points="59.53 32.34 58.17 31.55 58.22 31.48 59.58 32.26 59.53 32.34"/><polygon class="cls-13" points="84.11 29.39 82.75 28.61 82.79 28.53 84.15 29.32 84.11 29.39"/><polygon class="cls-13" points="44.01 44.59 43.96 44.52 79.34 24.09 79.38 24.17 44.01 44.59"/><polygon class="cls-13" points="52.68 49.6 52.63 49.52 65.49 42.1 65.53 42.17 52.68 49.6"/><polygon class="cls-13" points="61.56 54.73 61.52 54.65 85.55 40.77 85.6 40.85 61.56 54.73"/><path class="cls-13" d="M73.9,39.53c.11.07.11.17,0,.23a.45.45,0,0,1-.39,0c-.11-.06-.11-.16,0-.23A.45.45,0,0,1,73.9,39.53Zm.4.46c-.11.06-.11.16,0,.23a.44.44,0,0,0,.39,0c.11-.07.11-.17,0-.23A.45.45,0,0,0,74.3,40Zm.79.46c-.11.06-.11.16,0,.22a.39.39,0,0,0,.39,0c.11-.06.11-.16,0-.22A.39.39,0,0,0,75.09,40.45ZM55.72,49.8c-.11.07-.11.17,0,.23a.44.44,0,0,0,.39,0c.11-.06.11-.16,0-.23A.45.45,0,0,0,55.72,49.8Zm.79.46c-.11.06-.11.16,0,.23a.44.44,0,0,0,.39,0c.11-.07.11-.17,0-.23A.44.44,0,0,0,56.51,50.26Zm.79.46c-.11.06-.11.16,0,.22a.39.39,0,0,0,.39,0c.11-.06.11-.16,0-.22A.39.39,0,0,0,57.3,50.72Z"/><polygon class="cls-13" points="73.02 37.85 72.98 37.78 88.01 29.1 88.06 29.17 73.02 37.85"/><polygon class="cls-13" points="88.62 39.11 88.57 39.03 96.81 34.27 96.86 34.35 88.62 39.11"/><path class="cls-14" d="M42.54,35l.24.14,2.5-1.44L45,33.54Zm5.66-3.27-2.89,1.67.24.14,2.9-1.67ZM37.75,38l-.24-.14L35,39.35l.25.14Zm4.51-2.89-4.48,2.59.25.14,4.48-2.59Z"/><path class="cls-14" d="M49,40.91l.24.14,4.42-2.55-.24-.14Zm7.59-4.38-2.9,1.67.25.14,2.89-1.67ZM47.6,42l-.24-.14-4,2.33.24.14Zm1.09-.91-1.06.61.24.14,1.06-.61Z"/><path class="cls-14" d="M59.36,44.85l.24.14,2.63-1.52L62,43.33ZM56.21,47,56,46.81l-4,2.33.24.14ZM59.08,45l-2.84,1.64.25.14,2.83-1.64Z"/><path class="cls-14" d="M75,36.1,74.77,36l-2.48,1.42.25.14Zm4.44-2.85L75,35.8l.24.14,4.41-2.55Z"/><path class="cls-13" d="M95.29,33.66a.21.21,0,0,0-.13,0,7.16,7.16,0,0,0-1.21.89c-.57.49-1.1,1-1.6,1.52l.4-.59c.13-.18.25-.37.37-.55s.1-.33.07-.34-.18,0-.22,0-.63.47-.86.67l-.13.11a8.36,8.36,0,0,1,.84-.76c.64-.43,1.27-.87,1.87-1.31,0,0,0,0,0-.05a.06.06,0,0,0-.07,0,17.69,17.69,0,0,0-1.87,1.31l-1,.68-.24.16c-.15,0-.4.23-.4.23l-.08.09-.49.33c.13-.35.23-.7.34-1s.18-.59.28-.88c0,0,0,0,0,0a.07.07,0,0,0-.06,0l-1.45,2.58c-.4.28-.78.56-1.15.85A2.67,2.67,0,0,0,88,38s0,0,0,0a.08.08,0,0,0,.07,0c.42-.28.85-.56,1.26-.86l-.46.83s0,0,0,0A.06.06,0,0,0,89,38l.63-1,.19-.13.32-.24v.18l-.46.41s0,0,0,0a.08.08,0,0,0,.08,0L90,37l-.08.14a2,2,0,0,1-.89.95,1.08,1.08,0,0,1-.35.11,1.1,1.1,0,0,1-.56-.08,1.85,1.85,0,0,1-.43-.27.09.09,0,0,0-.07,0s0,0,0,.05a2.46,2.46,0,0,0,.45.28,1.24,1.24,0,0,0,.65.09.94.94,0,0,0,.4-.13,2.1,2.1,0,0,0,.93-1,.91.91,0,0,1,.07-.14v.26s0,0,0,0a.08.08,0,0,0,.06,0l.22-.44h0a1,1,0,0,0,.54-.37.11.11,0,0,0,0,0,0,0,0,0,0,.06,0c.17,0,.21-.19.24-.31l0-.08a1.09,1.09,0,0,1,.18-.15c.07,0,.08,0,.09,0a.93.93,0,0,0,.33-.43l.15-.22.08-.08c.23-.19.8-.64.83-.65s.09,0,.09,0,0,.07-.1.27l-.37.55c-.24.36-.5.73-.75,1.09,0,0,0,0,0,0H92a24.2,24.2,0,0,1,2.05-2,6.34,6.34,0,0,1,1.2-.89h.11s0,0,0,0S95.32,33.66,95.29,33.66ZM89.42,37l-1,.71.14-.11,1-.72Zm1.29-1-.26.2A2,2,0,0,1,90.71,36.06Zm-.31.35.12-.1.16-.12a.75.75,0,0,0-.07.12l-.09.15-.22.18C90.33,36.57,90.36,36.49,90.4,36.41Zm-.2,0a.44.44,0,0,1,.11-.12v.05Zm.67-1.8c0,.14-.09.27-.13.4-.11.38-.23.77-.38,1.15l-.16.11v-.12s-.07,0-.09,0l-.15.1Zm-1,1.84a.63.63,0,0,1,.18-.23v.12l-.21.15Zm-.21.33.08-.12.32-.22A1.77,1.77,0,0,1,89.7,36.82Zm.52.28v-.24l.17-.14Zm0-.55s0,0,0,.05Zm.74-.09a1,1,0,0,1-.39.34,1.66,1.66,0,0,1,.57-.62A1.31,1.31,0,0,1,91,36.46Zm.26-.42-.12.07,0,0,.1-.08Zm0-.12-.13.12-.28.22,0,0,0-.05,0-.06L91,36l.49-.36,0,.09Zm.38-.34a.7.7,0,0,1,.15-.15Z"/><g class="cls-15"><path class="cls-16" d="M51.89,40.85l.53-.2,1,.66L54.1,41,49.61,38l-.82.3,3,3.61.76-.28Zm-1.89-2,2.12,1.62-.45.16Z"/><path class="cls-16" d="M53.72,39l.55-.21a2.36,2.36,0,0,0,.45-.22.56.56,0,0,0,.23-.23c0-.08,0-.16-.1-.25L53.61,37a.58.58,0,0,0-.15-.11.43.43,0,0,0-.26-.06,1.67,1.67,0,0,0-.5.06,6.69,6.69,0,0,0-.81.25l-1,.36,3.73,3.34.76-.28Zm-1.79-1.6.36-.13.26-.07a.34.34,0,0,1,.17,0,.24.24,0,0,1,.13.07l1.16,1c.06.06.09.1.07.15a.21.21,0,0,1-.1.12l-.22.12-.27.11Z"/><path class="cls-16" d="M56.57,38l.56-.21a2.57,2.57,0,0,0,.44-.22.5.5,0,0,0,.23-.23c0-.08,0-.16-.09-.25l-1.25-1.12-.14-.1a.49.49,0,0,0-.27-.06,1.61,1.61,0,0,0-.49.06,6.25,6.25,0,0,0-.82.25l-1,.35,3.73,3.35.76-.28Zm-1.79-1.6.37-.13a1,1,0,0,1,.25-.07.34.34,0,0,1,.17,0,.24.24,0,0,1,.13.07l1.17,1a.15.15,0,0,1,.07.15.3.3,0,0,1-.11.12,1.3,1.3,0,0,1-.21.12l-.28.1Z"/><path class="cls-16" d="M59.35,36.82l.25-.09.2,0H60a.21.21,0,0,1,.12.07l1.64,1.46.76-.28-1.64-1.46a.44.44,0,0,0-.32-.11,2.26,2.26,0,0,0-.52.07.9.9,0,0,0,.34-.24c.05-.07,0-.14,0-.21l-1.24-1.12a.64.64,0,0,0-.35-.12,2.2,2.2,0,0,0-.51.08c-.2,0-.43.13-.69.22l-.86.32,3.74,3.35.76-.29Zm-1.71-1.53.25-.09a.9.9,0,0,1,.19-.05h.16a.25.25,0,0,1,.12.07l1.17,1s.06.07,0,.1,0,0-.06.08l-.16.08-.25.09Z"/><path class="cls-16" d="M63.55,37.46a4.3,4.3,0,0,0,.45-.08,3.5,3.5,0,0,0,.46-.14,1.9,1.9,0,0,0,.38-.17,1.05,1.05,0,0,0,.28-.19.39.39,0,0,0,.12-.2c0-.07,0-.13-.08-.2l-3-2.71a.56.56,0,0,0-.27-.12,1.4,1.4,0,0,0-.36,0,2.3,2.3,0,0,0-.42.07,2.92,2.92,0,0,0-.42.13,2.2,2.2,0,0,0-.41.18,1.66,1.66,0,0,0-.31.21.59.59,0,0,0-.16.21.17.17,0,0,0,.07.19l3,2.71a.48.48,0,0,0,.27.12A2.57,2.57,0,0,0,63.55,37.46Zm-2.94-3.13a.09.09,0,0,1,0-.07l.06-.08.11-.08.14-.06a.82.82,0,0,1,.26-.06.32.32,0,0,1,.22.07l3,2.72s.06.1,0,.15a.56.56,0,0,1-.19.11l-.17,0-.16,0h-.15a.19.19,0,0,1-.1,0Z"/><polygon class="cls-16" points="67.6 36.02 64.44 32.46 63.68 32.74 65.2 34.35 66.74 35.85 65.01 34.42 63.11 32.96 62.35 33.24 66.65 36.37 67.6 36.02"/><polygon class="cls-16" points="70.03 34.82 69.27 35.1 67.64 33.64 68.4 33.36 68.16 33.15 67.4 33.43 66 32.18 66.76 31.89 66.53 31.68 65.01 32.25 68.74 35.59 70.26 35.03 70.03 34.82"/><path class="cls-16" d="M71.84,34.44l.46-.19.27-.13a.69.69,0,0,0,.28-.23c0-.07,0-.14-.06-.22L69.7,30.9a.48.48,0,0,0-.32-.11,1.49,1.49,0,0,0-.48.06,6.94,6.94,0,0,0-.8.26l-.51.18-.49.18,3.73,3.35.48-.18Zm-3.74-3,.67-.23a.2.2,0,0,1,.16,0L72,34s0,.06,0,.1-.27.12-.64.25Z"/><path class="cls-16" d="M45.71,38.45l5.48,4.91,24.69-9.19-5.48-4.9Zm29.51-4.36L51.33,43l-5-4.45,23.89-8.89Z"/></g><path class="cls-17" d="M63.91,48.46c-2.44,1.41-2.44,3.7,0,5.12a9.83,9.83,0,0,0,8.87,0c2.45-1.42,2.45-3.71,0-5.12A9.83,9.83,0,0,0,63.91,48.46Zm8.69,5a9.45,9.45,0,0,1-8.51,0c-2.35-1.36-2.35-3.56,0-4.92a9.39,9.39,0,0,1,8.51,0C75,49.92,75,52.12,72.6,53.48Zm-7.27-.72a6.67,6.67,0,0,0,6,0c1.67-1,1.67-2.52,0-3.48a6.67,6.67,0,0,0-6,0C63.66,50.24,63.66,51.8,65.33,52.76Zm.92-2.95a4.62,4.62,0,0,1,4.19,0,1.28,1.28,0,0,1,0,2.42,4.62,4.62,0,0,1-4.19,0A1.28,1.28,0,0,1,66.25,49.81Zm-1.18-.76s-.47-.28-.47-.28.07-.06.07-.06.4.24.4.24l.19-.09a.22.22,0,0,1,.08,0A1.91,1.91,0,0,1,65.07,49.05Zm.46-.22.07,0c.05,0,.08,0,.09-.07a.1.1,0,0,0,0-.08l-.12-.09a.22.22,0,0,0-.11-.05.35.35,0,0,0-.14,0l-.08,0s-.07,0-.08.07,0,0,0,.08l.12.09a.31.31,0,0,0,.12,0Zm-.26-.16c.08-.08.09-.08.1-.08a1,1,0,0,1,.16.11c-.08.08-.09.08-.11.08Zm.5,0-.27-.26s.09-.05.09-.05l.11,0a.19.19,0,0,1,.11,0s-.07.05-.07.05,0,0,0,.06l.18.16s-.09,0-.09,0Zm.33-.13a.34.34,0,0,0,.14,0l.22-.06c0-.07-.25,0-.25,0h-.06c0-.05.22-.12.22-.12s-.06-.09-.06-.09a.14.14,0,0,0-.1-.06h-.14l-.08,0a.19.19,0,0,0-.1.05.08.08,0,0,0,0,.09l.09.1A.17.17,0,0,0,66.1,48.59Zm-.06-.2c.09-.06.1-.07.12-.06s-.09.09-.09.09Zm.5.08-.16-.28a.26.26,0,0,1,.1,0l.14,0a.29.29,0,0,1,.19,0s0,0,.1-.06a.21.21,0,0,1,.16,0,.15.15,0,0,1,.09.06l.11.2-.11,0a1.05,1.05,0,0,1-.14-.2.1.1,0,0,0-.08,0c-.07,0-.09,0-.07.07l.1.18s-.1,0-.1,0a1.09,1.09,0,0,1-.14-.21l-.08,0c-.08,0-.1,0-.08.07l.1.18s-.1,0-.1,0S66.55,48.48,66.54,48.47Zm.93-.51s0-.06,0-.06l.11,0s0,.06,0,.06S67.47,48,67.47,48Zm.1.37a2.22,2.22,0,0,1-.1-.31l.11,0a2.22,2.22,0,0,1,.11.3A.35.35,0,0,1,67.57,48.33Zm.22.05h.12s0-.12,0-.12l0,0H68a.37.37,0,0,0,.17,0,.1.1,0,0,0,0-.08l0-.11a.09.09,0,0,0,0-.08A.24.24,0,0,0,68,48h-.27A1.73,1.73,0,0,0,67.79,48.38ZM68,48h.1s0,.14,0,.14,0,0-.06,0-.13,0-.13,0V48.1S67.92,48.05,68,48Zm.3,0a.08.08,0,0,1,0-.07l.13,0h.18c0,.06-.15.06-.15.06s-.06,0-.06,0,0,0,0,0l.11,0,.08,0a.08.08,0,0,1,0,.05s-.06.08-.18.08h-.21c0-.07.19-.07.19-.07h0s0,0,0,0l-.11,0-.08,0S68.27,48.07,68.27,48.05Zm.49.14,0-.2h.12s0,.22,0,.22.17,0,.18,0l0-.19h.12a1.54,1.54,0,0,1,0,.31h-.11a.06.06,0,0,0-.07,0h-.07a.26.26,0,0,1-.16,0A.07.07,0,0,1,68.76,48.19Zm.49.13.14-.29a.38.38,0,0,1,.12,0,.07.07,0,0,0,.06,0,.11.11,0,0,1,.08,0c.09,0,.13,0,.14.06a.22.22,0,0,1,.14,0c.09,0,.13,0,.15.06s0,0,0,.08l-.09.2a.38.38,0,0,1-.12,0s.08-.21.08-.21-.16,0-.17,0l-.09.19a.38.38,0,0,1-.12,0s.08-.21.08-.21-.16-.05-.18,0l-.08.19a.38.38,0,0,1-.12,0Zm1,.18a.21.21,0,0,0,.1.06l.1,0h.06s.08.06.08.06.36-.38.36-.38-.1,0-.1,0a.92.92,0,0,0-.14.14c0-.05-.05-.06-.07-.06a.31.31,0,0,0-.18,0,.21.21,0,0,0-.1.06l-.09.1A.09.09,0,0,0,70.3,48.5Zm.15,0,.09-.09s.06,0,.08,0,.1,0,.08.07l-.07.08a.11.11,0,0,1-.11,0C70.44,48.48,70.44,48.47,70.45,48.45Zm.75.26.11-.1s0-.06,0-.08,0-.05-.09-.07l-.08,0-.14,0-.11.05-.11.1s0,.06,0,.08,0,0,.09.07l.08,0a.36.36,0,0,0,.14,0A.43.43,0,0,0,71.2,48.71Zm-.29-.08.12-.12s.07,0,.09,0l0,0s-.09.14-.09.14-.07,0-.09,0Zm.8-.13s-.43.36-.43.36a.39.39,0,0,1-.11,0,4.82,4.82,0,0,1,.43-.36A.39.39,0,0,1,71.71,48.5Zm0,.19a.21.21,0,0,0-.12,0l-.13.1a.1.1,0,0,0,0,.08.18.18,0,0,0,.08.06l.08,0a.23.23,0,0,0,.14,0,.15.15,0,0,0,.11,0l.13-.09a.12.12,0,0,0,0-.08s0,0-.08-.07l-.08,0A.32.32,0,0,0,71.68,48.69Zm.15.13a1.21,1.21,0,0,1-.13.12.16.16,0,0,1-.09,0c-.06-.08.06-.16.06-.16Zm.36.15h.07l.06,0s0,.06,0,.06a.22.22,0,0,1-.08,0,.11.11,0,0,0-.11,0l-.25.13a.26.26,0,0,1-.09,0,3.72,3.72,0,0,1,.38-.22.26.26,0,0,1,.09,0S72.19,49,72.19,49Zm-.09.38s.06,0,.06,0,.14.09.14.09a.07.07,0,0,0,.06,0,.23.23,0,0,0,0-.12v-.06l.06,0,.12,0,.1,0,.11.09s-.07,0-.07,0-.12-.07-.12-.07,0,0,0,0a.23.23,0,0,0,0,.11.11.11,0,0,1,0,.06.09.09,0,0,1-.06,0,.18.18,0,0,1-.22,0Zm.9,0,.08,0s-.09,0-.09,0l-.08,0S73,49.34,73,49.34Zm-.63.22.44-.15s.08.05.08.05l-.45.17-.08-.05S72.36,49.56,72.37,49.56Zm.71-.06a.32.32,0,0,1,.08.06s-.11,0-.11,0l0,.06s-.08,0-.08,0a.25.25,0,0,1-.07-.05,1.28,1.28,0,0,0-.23.06.14.14,0,0,1-.09.11c-.08-.07-.09-.1-.08-.12s0-.05.1-.06l.22-.07s.06-.07.06-.07A.26.26,0,0,0,73.08,49.5ZM72.9,50a.23.23,0,0,0-.11,0,.06.06,0,0,0,0,.08c.06.06.08.06.1.06a.06.06,0,0,0,0,.08s.52-.09.52-.09-.07-.15-.07-.15a.13.13,0,0,0-.09-.07h-.14Zm.31.06,0,.06-.22,0s-.09,0-.1,0,.2-.1.2-.1a0,0,0,0,1,.05,0S73.21,50,73.21,50Zm.22.18s0,.07,0,.07,0,0,0,0l0,0a.07.07,0,0,1,0,.1s.09,0,.1.07,0,.07,0,.09a.17.17,0,0,1-.12,0l-.35,0s0-.06,0-.06a2.83,2.83,0,0,1,.37-.06c0-.08,0-.09-.05-.09l-.33,0s0-.06,0-.06a2.83,2.83,0,0,1,.37-.06c0-.09,0-.1-.06-.1l-.32,0s0-.06,0-.06S73.43,50.19,73.43,50.19Zm-.2.53a.33.33,0,0,0-.13,0,.08.08,0,0,0,0,.08l0,.14h.1s0-.15,0-.15,0,0,0,0,.06.17.06.17h.16a.35.35,0,0,0,.13,0,.07.07,0,0,0,0-.08v0a.12.12,0,0,0-.06-.08.18.18,0,0,0-.13,0Zm.28.11c0,.06,0,.07-.06.07h0s0-.09,0-.09h.11Zm.15.2h.1a.12.12,0,0,1,0,.07h-.13a.14.14,0,0,1-.11.07c0-.07-.28-.08-.28-.08h-.05a.15.15,0,0,1-.12.07c0-.09,0-.11,0-.13a.23.23,0,0,1,.13,0h.25a.15.15,0,0,1,.11-.05C73.64,51,73.65,51,73.66,51ZM73,51.2h.25a.12.12,0,0,1,0,.07h-.11l-.07,0-.1-.05S73,51.2,73,51.2Zm.42.31a.24.24,0,0,1,.12,0,.1.1,0,0,1,0,.09l0,.09a.39.39,0,0,1-.11,0s0-.1,0-.1a.81.81,0,0,0-.24-.06h0a.41.41,0,0,0-.06.11H73s0-.11,0-.11a.1.1,0,0,1,.07-.07.31.31,0,0,1,.14,0Zm-.28.21H73a.27.27,0,0,0-.08.07l0,.05a.09.09,0,0,0,0,.09A.23.23,0,0,0,73,52l.19,0a.38.38,0,0,0,.15,0,.19.19,0,0,0,.08-.07l0,0a.07.07,0,0,0,0-.09.19.19,0,0,0-.11,0Zm.19.16c-.06.06-.08.06-.1,0l-.18,0c0-.11,0-.11,0-.1l.19,0S73.3,51.86,73.3,51.88Zm-.5.11.47.12s0,.06,0,.06,0,0,0,.08a.22.22,0,0,1-.25.07l-.33-.09s0-.07,0-.07l.35.08H73c.07-.07.06-.09,0-.1l-.31-.08s0-.07,0-.07S72.78,52,72.8,52Zm0,.37h.09a.1.1,0,0,1,.08.05s0,0,0,.08l-.09.09-.1,0,.07-.09s0,0-.07,0l-.11,0-.1,0H72.5c-.09,0-.1-.07,0-.13l.1-.11.09,0s-.08.11-.08.11,0,0,.07,0l.11,0Zm-.47.15a.21.21,0,0,0-.11,0l-.14.12s.06,0,.06,0a.74.74,0,0,0,.16-.11c.11,0,0,.14,0,.14a.52.52,0,0,0,.12.07.36.36,0,0,0,.14,0,.21.21,0,0,0,.12,0l0,0a.1.1,0,0,0,0-.08.13.13,0,0,0-.09-.06l-.16-.07A.24.24,0,0,0,72.37,52.51Zm.25.17c-.09.07-.11.07-.13.06s0-.1,0-.1Zm-.43.1.16.08a.12.12,0,0,1,.07.07.1.1,0,0,1,0,.07l-.11.08a.22.22,0,0,1-.09,0s.09-.08.09-.08-.15-.13-.15-.13a.48.48,0,0,0-.19.07l-.09,0s.11-.09.11-.09a.28.28,0,0,1,.12,0A.28.28,0,0,1,72.19,52.78Zm-.06.28.07,0s0,.09,0,.09-.06.06-.06.06a.32.32,0,0,1-.11,0l-.08,0a.22.22,0,0,1-.08,0s.06-.05.06-.05L71.8,53c-.16,0-.21,0-.21,0s0,0,0,0a.2.2,0,0,1,.13,0,.19.19,0,0,1,.12,0l.18.1Zm-.73,0-.19.09s.05.05.05.05a1.38,1.38,0,0,0,.2-.08h.05c.06,0-.16.14-.16.14s.09.08.09.08a.25.25,0,0,0,.12,0,.31.31,0,0,0,.13,0l.07,0s.07,0,.07-.07,0-.05,0-.08l-.13-.09a.28.28,0,0,0-.12,0A.35.35,0,0,0,71.4,53.1Zm.28.15c-.17,0-.05,0-.05,0Zm-.26.17.06,0s0,.1,0,.1-.08,0-.08,0a.45.45,0,0,1-.09-.06l-.09,0a.19.19,0,0,1-.08,0s.08,0,.08,0-.13-.12-.13-.12-.07,0-.09,0a.13.13,0,0,1-.11,0s.06,0,.06,0a.34.34,0,0,1,.14,0,.22.22,0,0,1,.11,0l.14.12Zm-.47,0,.18.18s-.09,0-.09,0a1.88,1.88,0,0,1-.2-.19c-.06,0-.07,0-.09,0s-.09,0-.06.08l.16.16s-.09.05-.09.05-.29-.27-.29-.27a.34.34,0,0,1,.1,0l.12,0a.25.25,0,0,1,.16,0A.12.12,0,0,1,71,53.42Zm-.55.07.21.28-.1,0-.12,0a.13.13,0,0,1-.1,0s.08,0,.08,0,.06,0,0-.06l-.14-.17a.34.34,0,0,1,.1,0S70.4,53.48,70.4,53.49Zm-.26.17a.13.13,0,0,0-.09-.07.33.33,0,0,0-.14,0l-.08,0-.16,0a2.1,2.1,0,0,0,.15.3,1.73,1.73,0,0,0,.27,0,.19.19,0,0,0,.11,0,.08.08,0,0,0,0-.08Zm-.13,0,.06.1a.29.29,0,0,1-.14.07l-.08-.13s0,0,0-.06H70Zm-.48,0a.31.31,0,0,0-.14,0l-.1,0h-.17a4.34,4.34,0,0,0,.14.43h.12a.62.62,0,0,0,0-.16l.06,0h.07c.09,0,.13,0,.16,0s0,0,0-.08l0-.11A.12.12,0,0,0,69.53,53.69Zm-.07.09,0,.11c-.15,0-.18,0-.19,0l0-.09s0-.05.06-.05h.1Zm-.54-.05H69a1.34,1.34,0,0,1,.09.31l-.11,0a1.34,1.34,0,0,1-.09-.31S68.91,53.73,68.92,53.73Zm.17.35s0,.07,0,.07l-.11,0s0-.07,0-.07Zm-.29-.42h-.12s0,.12,0,.12l0,0h-.07l-.17,0a.09.09,0,0,0,0,.08V54a.1.1,0,0,0,.05.08l.13,0h.28A2.64,2.64,0,0,0,68.8,53.66Zm-.19.34h-.1a.5.5,0,0,1,0-.14.07.07,0,0,1,.06,0c.1,0,.13,0,.13,0V54S68.66,54,68.61,54Zm-.5.11h.1a.12.12,0,0,1,0,.07h-.12s0-.07,0-.07Zm.15-.35,0,.3h-.12a1.66,1.66,0,0,1,0-.31.32.32,0,0,1,.12,0ZM68,54a.25.25,0,0,1-.13,0h-.18c0-.06.16,0,.16,0s.06,0,.06,0,0,0,0,0l-.11,0s-.06,0-.07,0a0,0,0,0,1,0-.05c0-.06.07-.08.19-.07H68c0,.07-.19.06-.19.06s-.06,0-.06,0,0,0,0,0l.1,0a.29.29,0,0,1,.08,0,0,0,0,0,1,0,0A.06.06,0,0,1,68,54Zm-.37-.32-.09.3h-.12a1.41,1.41,0,0,1,.07-.31h.14Zm-.23.34h.1s0,.07,0,.07h-.12s0-.07,0-.07ZM67.17,54H67l-.16,0c0-.07.17-.05.17-.05h0a.42.42,0,0,0,.07-.13c0-.05-.18-.07-.18-.07s.19,0,.19,0a.24.24,0,0,1,.12,0,.07.07,0,0,1,0,.09l0,.11S67.21,54,67.17,54Zm-.58,0,.09,0s0,.07,0,.07a.41.41,0,0,1-.12,0s0-.07,0-.07Zm.31-.31-.17.28a.31.31,0,0,1-.11,0s.14-.3.14-.3a.38.38,0,0,1,.12,0S66.9,53.62,66.9,53.63Zm-.55.2h-.11c-.14,0-.17-.08-.12-.15l.14-.19.12,0s-.13.2-.13.2.15.06.17,0l.14-.17a.31.31,0,0,1,.11,0,2.08,2.08,0,0,1-.19.29.38.38,0,0,1-.12,0S66.35,53.84,66.35,53.83Zm-.23-.27s0-.06,0-.08a.17.17,0,0,0-.09-.06.22.22,0,0,0-.1,0H65.9l0,0a.12.12,0,0,1,.09,0l.16.06a.25.25,0,0,0,.07,0l-.19-.07a.24.24,0,0,0-.14,0,.22.22,0,0,0-.11,0l-.27.28a1.36,1.36,0,0,0,.23.09.34.34,0,0,0,.14,0,.14.14,0,0,0,.11-.05Zm-.24.07h-.06l-.09,0a1.09,1.09,0,0,1,.1-.11.09.09,0,0,1,.1,0c.06.06,0,.15,0,.15Zm-.31-.13.12-.1a.1.1,0,0,0,0-.08.19.19,0,0,0-.08-.07l-.2-.08a.19.19,0,0,0-.08,0,1.07,1.07,0,0,0,.19.09c0,.07-.24,0-.24,0a.54.54,0,0,0-.12.07.12.12,0,0,0,0,.08s0,0,.08.07l.08,0a.2.2,0,0,0,.13,0A.21.21,0,0,0,65.57,53.5Zm-.27-.08c.07-.06.19,0,.19,0C65.31,53.43,65.3,53.42,65.3,53.42Zm0-.28-.47.32-.1,0s.47-.34.47-.34l.1,0S65.35,53.13,65.34,53.14Zm-.71.2a.34.34,0,0,1-.1,0s.07-.06.07-.06a.34.34,0,0,1,.1,0S64.63,53.34,64.63,53.34Zm.42-.37.08,0a2.71,2.71,0,0,1-.35.24.34.34,0,0,1-.1,0A3.5,3.5,0,0,1,65,53Zm-.57.23-.09,0s.08-.07.08-.07l-.06,0s0,0,0,0a.26.26,0,0,1,.09,0l.2-.1c0-.09,0-.12,0-.12a.22.22,0,0,1,.08,0s.06,0,.06.08a.15.15,0,0,1-.07.07l-.18.1s0,.07,0,.07A.23.23,0,0,0,64.48,53.2Zm.21-.46h.13s-.17.11-.17.11a.34.34,0,0,1-.1,0s.07-.05.07-.05Zm-.52.11a.18.18,0,0,1-.11-.05L64,52.72s.07,0,.07,0l.12.08a.06.06,0,0,0,0,0,.28.28,0,0,0,0-.12s0,0,0-.06l.06,0a.22.22,0,0,1,.22,0l.12.1s-.06,0-.06,0-.14-.09-.14-.09a.07.07,0,0,0-.06,0,.19.19,0,0,0,0,.11v.06a.09.09,0,0,1-.06,0A.15.15,0,0,1,64.17,52.85ZM64,52.6l.17-.06q.08,0,.09-.06a.07.07,0,0,0,0-.08l-.12-.12a.25.25,0,0,0-.1,0s.1.13.1.13-.2-.08-.2-.08l-.15,0q-.08,0-.09.06s0,.05,0,.08l0,0a.2.2,0,0,0,.11.06A.36.36,0,0,0,64,52.6Zm-.18-.11a.12.12,0,0,1,.16,0l-.1,0A.17.17,0,0,1,63.86,52.49Zm-.32-.29c0,.12.06.14.1.15a.23.23,0,0,0,.14,0l.18-.05a.19.19,0,0,0,.11,0s0-.05,0-.08l-.06,0a.06.06,0,0,0-.06,0c.05,0,0-.08,0-.08s-.7.16-.7.16,0,.07,0,.07Zm.1,0c0-.06,0-.08,0-.09l.14,0a.09.09,0,0,1,.11,0c0,.07-.19.12-.19.12h0A.05.05,0,0,1,63.64,52.25Zm-.37-.53c0,.13,0,.15,0,.16h.15l.19,0a.23.23,0,0,0,.12,0,.06.06,0,0,0,0-.08c0-.07-.07-.07-.09-.07a.06.06,0,0,0,0-.08s-.73.1-.73.1,0,.07,0,.07Zm.14,0,.14,0c.06,0,.09,0,.1,0s-.21.1-.21.1h-.06C63.33,51.72,63.35,51.71,63.41,51.7Zm.12-.15a.17.17,0,0,0,.12,0,.06.06,0,0,0,0-.08v0a.11.11,0,0,0-.07-.08.29.29,0,0,0-.14,0h-.2a.24.24,0,0,0-.12,0,.07.07,0,0,0,0,.08v.06a.1.1,0,0,0,.07.07.28.28,0,0,0,.14,0Zm-.29-.09c0-.08.24-.09.24-.09h.05c0,.1-.22.12-.22.12h-.05Zm.22-.21a.35.35,0,0,0,.13,0,.09.09,0,0,0,0-.08V51s-.09,0-.09,0,0,.15,0,.15S63.4,51,63.4,51h-.16a.23.23,0,0,0-.13,0,.07.07,0,0,0,0,.08c0,.08,0,.11,0,.13l.14,0Zm-.27-.11a.17.17,0,0,1,.11-.07.37.37,0,0,1,0,.09H63.2S63.19,51.15,63.19,51.14ZM63,51h-.1s0-.06,0-.06a.27.27,0,0,1,.12,0s0,.07,0,.07Zm.09,0v-.06s.54,0,.54,0,0,.07,0,.07h-.54S63.06,51,63.06,50.94Zm.39-.12-.36,0s0-.07,0-.07.37,0,.37,0a.08.08,0,0,0,0,0c0-.08,0-.1,0-.1l-.34,0s0-.07,0-.07.54,0,.54,0,0,.07,0,.07-.05.16-.08.17A.28.28,0,0,1,63.45,50.82Zm-.15-.35a.19.19,0,0,1-.1,0s0,0,0-.08l0-.1h.1s0,.1,0,.1.06,0,.08,0l.09,0,.08,0h.09c.1,0,.13,0,.11.12l0,.12a.32.32,0,0,1-.1,0s0-.12,0-.12a.07.07,0,0,0-.09,0l-.08.05-.08,0Zm.47-.2-.48-.11s0-.07,0-.07.12-.15.17-.15,0,0,0-.09a.17.17,0,0,1,.1-.07h.14l.34.07s0,.07,0,.07a3,3,0,0,1-.36-.06h0c-.06.07,0,.09,0,.1l.31.07s0,.07,0,.07L63.55,50h0c-.06.07,0,.09,0,.1l.31.07s0,.07,0,.07Zm.3-.48a.14.14,0,0,0,.11,0l0-.05s0-.06,0-.08,0,0-.1-.06L64,49.49a.2.2,0,0,0-.13,0,.14.14,0,0,0-.11.05l0,0a.07.07,0,0,0,0,.08s0,.05.09.06l.18.06A.23.23,0,0,0,64.07,49.79Zm-.28-.16c.09-.08.1-.08.12-.07l.17,0c0,.11-.06.1-.09.1l-.17-.06S63.79,49.64,63.79,49.63Zm.53-.09a.16.16,0,0,0,.11,0l.16-.13L64,49.1l-.08,0a1,1,0,0,0,.21.1H64l-.05,0c-.05.05-.07.07-.06.1a.17.17,0,0,0,.09.06l.16.07A.36.36,0,0,0,64.32,49.54Zm-.25-.18c.07-.07.11-.08.16-.06l.12.05c.05,0,.06,0,0,.07s-.1,0-.12,0l-.16-.06Z"/><path class="cls-18" d="M90.07,33.72c-1.4-1.65-3.84-1.83-5.82-2.72a18.38,18.38,0,0,0-1.7-.76,8.65,8.65,0,0,0-1.9-.3c-1.8-.14-2.74-1.3-4.51-1-.69.13-2.47,1.57-3.17,1.41s-1.41-.55-2.19-.67c-1.67-.26-3.2.75-4.77,1.38a6.55,6.55,0,0,0-3,2.47c-.7,1.44.64,2.92,1.37,6.29.13.63.18.78.77,1a50.27,50.27,0,0,1,5.7,2.84c.56.28,7.26-.35,12.5,1.53a5.33,5.33,0,0,0-1.21,1.54l2,1.13,11.44-6.6C93.09,37.84,90.58,34.33,90.07,33.72Z"/><path class="cls-19" d="M97,30.2,96.7,30a10.48,10.48,0,0,1-1-1c-.93-1.06-2.06-2.49-3.2-4-1.81-2.91-3.2-6.14-3.6-6.69a2.81,2.81,0,0,0-2.2-1.22,3,3,0,0,0-2.52-1.53A99,99,0,0,1,74,14.82a3.93,3.93,0,0,0-2.3.25c-.29.12-5.16,4.84-5.16,4.84s-4.61,3.34-4.89,3.68c-.51.62-1,1.55-.32,2.26.25.28,2.84,1.11,3,.63a3.07,3.07,0,0,0,.81,3.06A17.5,17.5,0,0,0,66.71,31c1.09,1,2,2.14,3.14,3.08.62.5,9.77-.6,10.3.47.41.81-.42,5.24.61,5.84l14.32,8.27,8.21-14.21-4.83-3.11A12.26,12.26,0,0,1,97,30.2ZM78.35,32.31a19.74,19.74,0,0,1-2.48.88,3.43,3.43,0,0,1-2.13.27c-.15-.05,0-1.4.12-1.58,0,0,2.23-2,2.39-2a5.5,5.5,0,0,1,2.4-.08c.52.17,1.13,1.34,1.13,1.34C79.7,31.73,78.86,32.09,78.35,32.31Z"/><path class="cls-20" d="M85.24,15.76a3.18,3.18,0,0,0,.39.3,4.33,4.33,0,0,1,1.11,1.56,11.9,11.9,0,0,1,.72,2.71,7,7,0,0,0-.59-3.23.32.32,0,0,1-.16,0A3.64,3.64,0,0,0,85.24,15.76Z"/><path class="cls-21" d="M79.93,23.45a15.63,15.63,0,0,1-.51-2.52c-.26.21-.5.43-.77.62a1.48,1.48,0,0,1-.21.13A17.28,17.28,0,0,0,79,23.4l.06.16a15.47,15.47,0,0,0,1.68,3.07,11.62,11.62,0,0,0-.13,2.43c-.23.38-.47.75-.69,1.13.22-.26.75-.81,1-1,.11-1.11.18-1.75.23-2.79A18.67,18.67,0,0,1,79.93,23.45Z"/><path class="cls-22" d="M80.77,26.63a15.47,15.47,0,0,1-1.68-3.07L79,23.4a16.81,16.81,0,0,1-.68-2l.08-.07a.15.15,0,0,0-.06-.05A20.69,20.69,0,0,1,76,20.57c-.38-.13-.76-.28-1.14-.43l-.57-.22-.28-.11-.15,0a.8.8,0,0,0-.22-.05,1.26,1.26,0,0,1-.16-.2,3.48,3.48,0,0,1-.41-.82,7.89,7.89,0,0,1-.35-1.32s0-.07-.08-.06a.07.07,0,0,0-.07.08,7.36,7.36,0,0,0,.29,1.37,3.58,3.58,0,0,0,.39.9l.15.21a11.83,11.83,0,0,1-1.93,1.59,15.07,15.07,0,0,1-2.35,1.24l-1,.46A1.25,1.25,0,0,1,68,23a3.15,3.15,0,0,1-.44-.45,4,4,0,0,1-.49-.8.08.08,0,1,0-.15,0,4,4,0,0,0,.46.88,3.09,3.09,0,0,0,.44.53l.09.08-1.12.53c-.81.38-1.62.76-2.41,1.17a.11.11,0,0,0-.06.15c-1.51.8-.3,3,.89,4.39A17.5,17.5,0,0,0,66.71,31c1.09,1,2,2.14,3.14,3.08.31.25,3.89-.59,3.89-.59s0-.06,0-.14a1.15,1.15,0,0,1,0-.2c0-.16,0-.35,0-.53s0-.14,0-.19a1.11,1.11,0,0,1,0-.19.09.09,0,0,0,0-.05,1.3,1.3,0,0,1,0-.13.59.59,0,0,1,0-.15s2.23-2,2.39-2a5.5,5.5,0,0,1,2.4-.08l.12.06,0,0,.08.06L79,30,79,30l.06.07.06.06.07.09,0,0,.07.11a.77.77,0,0,1,.11.15l.1.14a.22.22,0,0,0,0,.08l0,0c.34-.59.68-1.13,1-1.67A11.62,11.62,0,0,1,80.77,26.63Z"/><path class="cls-23" d="M72.05,25.78a19.54,19.54,0,0,1-2.21.94c-.29.55-.62,1.1-.92,1.65s-.68,1.13-1,1.68a.12.12,0,0,1-.16,0,.13.13,0,0,1,0-.16c.28-.59.57-1.18.88-1.76s.61-1.16,1-1.73a.23.23,0,0,1,.12-.1c.77-.25,1.55-.51,2.31-.82a9.14,9.14,0,0,0,2.12-1.18.09.09,0,0,1,.07,0,27.4,27.4,0,0,0,3-.49A17.14,17.14,0,0,0,79,23.29c0,.09.08.18.11.27l-.42.17a14.78,14.78,0,0,1-1.48.43,14.38,14.38,0,0,1-3,.43c-.34.22-.68.43-1,.62S72.43,25.6,72.05,25.78Zm-.41-4.11a15.55,15.55,0,0,0,2.09-1.53l.16.06.29.12.56.23c.39.15.78.29,1.17.41s.79.23,1.19.33.82.14,1.22.19l.06,0,0-.1.08-.07a.15.15,0,0,0-.06-.05A20.69,20.69,0,0,1,76,20.57c-.38-.13-.76-.28-1.14-.43l-.57-.22-.28-.11-.15,0a.8.8,0,0,0-.22-.05,1.26,1.26,0,0,1-.16-.2,3.48,3.48,0,0,1-.41-.82,7.89,7.89,0,0,1-.35-1.32s0-.07-.08-.06a.07.07,0,0,0-.07.08,7.36,7.36,0,0,0,.29,1.37,3.58,3.58,0,0,0,.39.9l.15.21a11.83,11.83,0,0,1-1.93,1.59,15.07,15.07,0,0,1-2.35,1.24l-1,.46A1.25,1.25,0,0,1,68,23a3.15,3.15,0,0,1-.44-.45,4,4,0,0,1-.49-.8.08.08,0,1,0-.15,0,4,4,0,0,0,.46.88,3.09,3.09,0,0,0,.44.53l.09.08-1.12.53c-.81.38-1.62.76-2.41,1.17a.11.11,0,0,0-.06.15.11.11,0,0,0,.15.07c.83-.34,1.64-.71,2.46-1.08s1.63-.72,2.43-1.13S70.88,22.14,71.64,21.67Zm4.22,5.44a13.3,13.3,0,0,0,2.89,0c.67-.07,1.34-.17,2-.3,0-.05,0-.11,0-.16l-.1-.15-2,.19a25.23,25.23,0,0,1-2.88.07l-.12-.13a3.15,3.15,0,0,1-.38-.54,4.43,4.43,0,0,1-.37-.89.1.1,0,0,0-.1-.06.08.08,0,0,0,0,.1,4.87,4.87,0,0,0,.32,1,3.27,3.27,0,0,0,.37.6.86.86,0,0,0,.07.1,9.52,9.52,0,0,1-1.47,1,7.87,7.87,0,0,1-1.75.66,4.43,4.43,0,0,1-.45-.37l-.53-.46a.08.08,0,1,0-.11.11l.48.52.41.4c-.3.62-.58,1.26-.86,1.89s-.58,1.34-.86,2a.13.13,0,0,0,.06.16.12.12,0,0,0,.16-.06c.33-.65.65-1.3,1-2s.6-1.28.87-1.93a11.15,11.15,0,0,0,1.73-.75C74.77,27.77,75.32,27.46,75.86,27.11Zm3.79,3.59.08-.13a3.53,3.53,0,0,0-.52-.76,1.22,1.22,0,0,0-.41-.32,2,2,0,0,0-.47-.11,4.82,4.82,0,0,0-1.82.15l-.18,0a3.92,3.92,0,0,1-.44-.59,4.59,4.59,0,0,1-.36-.69.08.08,0,0,0-.09,0,.07.07,0,0,0,0,.09,4.38,4.38,0,0,0,.3.75,5.65,5.65,0,0,0,.38.62L75.7,30l-.72.52c-.49.34-1,.69-1.43,1.08a.18.18,0,0,0,0,.07.55.55,0,0,0,0,.13l0,.11,0,.19a2.55,2.55,0,0,0,0,.39c0,.13,0,.25,0,.39l0,.19a.45.45,0,0,0,0,.11.36.36,0,0,0,0,.07s.09.1.08.08a.09.09,0,0,0,.12,0,1.15,1.15,0,0,1,0-.2,4.9,4.9,0,0,1,.18-1.24s2.23-2,2.39-2a5.5,5.5,0,0,1,2.4-.08c.31.1.65.56.88.91a.11.11,0,0,0,.12,0Z"/><path class="cls-24" d="M57.85,28.62c-.11.11-.07.45.37.31l.49-.17-.23-.54A3.59,3.59,0,0,0,57.85,28.62Z"/><path class="cls-25" d="M65.21,26.33A23.47,23.47,0,0,0,61,26.08l-2.64,2.14c-.35.13-.1.79.23.69l3.5-.23A20.33,20.33,0,0,0,65.21,26.33Z"/><path class="cls-26" d="M92.24,17.16a1.45,1.45,0,0,0-1.83-.92L61.3,25.89c-1.41.5-.4,3.17.9,2.74L91.32,19A1.45,1.45,0,0,0,92.24,17.16Z"/><path class="cls-19" d="M80.61,29.78C77.94,32.25,73,33,73,33a12.64,12.64,0,0,0-3.8-1.43,10.76,10.76,0,0,1-1-1.69c-.3-.65-2.91-4.22-5.13-2.35-.24.2,0,.8,0,1.11.15,1,.64,1.95.32,3.22a.3.3,0,0,0,0,.26,6.77,6.77,0,0,1,.61,3.14c.17.66,1.45,1,2,1.34,2.64,1.53,3.14,2.83,4.29,3.5,1.62.93,9,.17,15.68,3.3Z"/><path class="cls-27" d="M61.31,25.85c-.63-.71-.19-1.64.32-2.26.28-.34,4.89-3.68,4.89-3.68s4.87-4.72,5.16-4.84a3.93,3.93,0,0,1,2.3-.25,99,99,0,0,0,10.21.71,3,3,0,0,1,2.52,1.53c.05.06.37,0,.8.15l-.61.2-.24,0a.33.33,0,0,1-.2-.14,2.79,2.79,0,0,0-2.39-1.38c-12.11-.53-10.7-1.13-12.24-.49-.42.3-4.15,3.84-5.12,4.75,0,0-4,2.86-4.77,3.54-.34.26-1,1.26-.46,2l.15.09-.29.09Zm37.15,5.46A12.26,12.26,0,0,1,97,30.2L96.7,30a10.48,10.48,0,0,1-1-1c-.93-1.06-2.06-2.49-3.2-4-1.22-2-2.25-4.08-2.91-5.41l-.27.09c.23.43.53,1,.94,1.84.63,1.2,1.32,2.44,2,3.61,4.59,5.86,4,5,10.69,9.38l-8,13.8c-9.7-5.64-10.22-6.88-21-7.78-4.15-.35-3.29-.39-5.37-2.28a12.55,12.55,0,0,0-2.58-1.85c-.71-.35-1.58-.6-1.77-1.12A6.67,6.67,0,0,0,63.63,32a.93.93,0,0,1,0-.27c.26-1-.26-2.62-.41-3.49l-.19.07c0,.12,0,.24.06.33.15,1,.64,1.95.32,3.22a.3.3,0,0,0,0,.26,6.77,6.77,0,0,1,.61,3.14c.17.66,1.45,1,2,1.34,2.64,1.53,3.14,2.83,4.29,3.5,1.62.93,9,.17,15.68,3.3l9,5.19,8.21-14.21Z"/><path class="cls-28" d="M62.91,29.24a13.53,13.53,0,0,0,.52,2.62,2.42,2.42,0,0,0,.83-1.06c.38-1.25-.62-3.38-1-3.27C63,27.59,62.72,27.92,62.91,29.24Z"/><path class="cls-29" d="M64.24,35a1.55,1.55,0,0,1,.07-.47,1.66,1.66,0,0,1,.52-.8,2.94,2.94,0,0,1,1.22-.56,2.61,2.61,0,0,1-.32.26c-.19.15-.46.34-.7.54a2.48,2.48,0,0,0-.58.66,1.51,1.51,0,0,0-.15.26A.58.58,0,0,1,64.24,35Z"/><path class="cls-29" d="M65.17,35.64a1.34,1.34,0,0,0,.56-.28,1.48,1.48,0,0,0,.39-.5,1.84,1.84,0,0,0,.1-.29,2,2,0,0,0-.23.17l-.45.38-.46.38a2.36,2.36,0,0,0-.21.18A.92.92,0,0,0,65.17,35.64Z"/><path class="cls-30" d="M63.22,31.16a1.83,1.83,0,0,0,.21.7c.18-.15.33-.31.47-.45l.06-.08a4.89,4.89,0,0,0,.27-.46A1.5,1.5,0,0,0,63.22,31.16Z"/><path class="cls-31" d="M76,39.59c-1.84,0-5.13-.34-5.13-.34s-2.37-1.3-3.79-2c1.8,1.25,2.31,2.29,3.3,2.86a8.8,8.8,0,0,0,3,.55h.08l2.31.21h.11l1,.11L77,41l1,.13.76.11,1,.17c.91.18,1.84.39,2.78.66l.77.23a22.8,22.8,0,0,1,2.82,1.1l-1.29-3.21C84.5,40.12,79.26,39.65,76,39.59Z"/><path class="cls-32" d="M85.39,41.68a22.87,22.87,0,0,0-4.69-.85c-2.18-.22-8.48-.89-10-1-.51-.37-1.28-1-2.45-1.69a17.54,17.54,0,0,0,2.18,2,8.8,8.8,0,0,0,3,.55h.08l2.31.21h.11l1,.11L77,41l1,.13.76.11,1,.17c.91.18,1.84.39,2.78.66l.77.23a22.8,22.8,0,0,1,2.82,1.1Z"/><path class="cls-33" d="M92.24,17.16a1.45,1.45,0,0,0-1.83-.92c-.66.31,0,2.82.91,2.75A1.45,1.45,0,0,0,92.24,17.16Z"/><path class="cls-34" d="M92.05,17.11c.1.33,0,.65-.2.71s-.47-.14-.58-.46,0-.65.21-.71S92,16.79,92.05,17.11Z"/><polygon class="cls-35" points="84.64 18.17 74.08 21.64 74.25 22.27 87.76 17.84 84.64 18.17"/><g class="cls-1"><polygon class="cls-36" points="84.89 17.98 84.8 17.52 87.67 17.38 87.76 17.84 84.89 17.98"/><polygon class="cls-37" points="73.87 21.61 73.78 21.16 84.8 17.52 84.89 17.98 73.87 21.61"/><polygon class="cls-25" points="84.89 17.98 87.76 17.84 84.61 18.87 83.81 18.56 73.96 21.81 73.87 21.61 84.89 17.98"/></g><path class="cls-38" d="M118.44,39.05,95.92,26c-1.38-.78-3.28-.67-5.38.53a16.93,16.93,0,0,0-7.75,13.22c0,2.48.85,4.21,2.26,5L95.65,52Z"/></g></g></g></g></svg>