<?xml version="1.0" encoding="UTF-8" standalone="no"?>
<svg
   xmlns:dc="http://purl.org/dc/elements/1.1/"
   xmlns:cc="http://creativecommons.org/ns#"
   xmlns:rdf="http://www.w3.org/1999/02/22-rdf-syntax-ns#"
   xmlns:svg="http://www.w3.org/2000/svg"
   xmlns="http://www.w3.org/2000/svg"
   viewBox="0 0 1600 1600"
   height="1600"
   width="1600"
   xml:space="preserve"
   id="svg2"
   version="1.1"><metadata
     id="metadata8"><rdf:RDF><cc:Work
         rdf:about=""><dc:format>image/svg+xml</dc:format><dc:type
           rdf:resource="http://purl.org/dc/dcmitype/StillImage" /></cc:Work></rdf:RDF></metadata><defs
     id="defs6" /><g
     transform="matrix(1.3333333,0,0,-1.3333333,0,1600)"
     id="g10"><g
       transform="scale(0.1)"
       id="g12"><path
         id="path14"
         style="fill:#ffffff;fill-opacity:1;fill-rule:nonzero;stroke:none"
         d="M 12000,0 H 0 V 12000 H 12000 V 0" /><path
         id="path16"
         style="fill:#3a3a43;fill-opacity:1;fill-rule:nonzero;stroke:none"
         d="m 6119.36,10315.8 c -96.19,0 -174.16,78 -174.16,174.2 0,96.2 77.97,174.1 174.16,174.1 96.18,0 174.16,-77.9 174.16,-174.1 0,-96.2 -77.98,-174.2 -174.16,-174.2 z m 948.3,-45.8 h -380.18 c -16.67,334.1 -264.64,599.3 -568.12,599.3 -303.49,0 -551.45,-265.2 -568.13,-599.3 h -380.17 c -93.32,0 -168.97,-66.2 -168.97,-147.9 v -537.33 c 0,-81.66 75.65,-147.87 168.97,-147.87 h 1896.6 c 93.32,0 168.96,66.21 168.96,147.87 v 537.33 c 0,81.7 -75.64,147.9 -168.96,147.9" /><path
         id="path18"
         style="fill:#3a3a43;fill-opacity:1;fill-rule:nonzero;stroke:none"
         d="m 5285.69,8916.99 -344.61,-344.61 -164.59,164.59 -115.72,-115.72 164.59,-164.59 115.72,-115.73 115.73,115.73 344.61,344.61 -115.73,115.72" /><path
         id="path20"
         style="fill:#3a3a43;fill-opacity:1;fill-rule:nonzero;stroke:none"
         d="m 5285.69,7792.18 -344.61,-344.61 -164.59,164.59 -115.72,-115.72 164.59,-164.59 115.72,-115.73 115.73,115.73 344.61,344.61 -115.73,115.72" /><path
         id="path22"
         style="fill:#3a3a43;fill-opacity:1;fill-rule:nonzero;stroke:none"
         d="m 7851.78,9172.8 6.69,11.59 c 42.02,72.76 120.55,112.92 221.17,113.16 v 445.59 c 0,129.27 -104.8,234.07 -234.07,234.07 h -430.79 v -227.86 h 437 V 9172.8" /><path
         id="path24"
         style="fill:#3a3a43;fill-opacity:1;fill-rule:nonzero;stroke:none"
         d="M 7851.78,7230.88 V 5377.86 H 4386.94 v 4371.49 h 436.99 v 227.86 h -430.79 c -129.27,0 -234.06,-104.8 -234.06,-234.07 V 5384.06 c 0,-129.27 104.79,-234.06 234.06,-234.06 h 3452.43 c 129.27,0 234.07,104.79 234.07,234.06 v 2241.48 l -227.86,-394.66" /><path
         id="path26"
         style="fill:#3a3a43;fill-opacity:1;fill-rule:nonzero;stroke:none"
         d="M 6772.41,6332.28 6757.21,6468 H 5711.78 V 6236.71 H 7522.03 V 6468 h -439.09 l -310.53,-135.72" /><path
         id="path28"
         style="fill:#3a3a43;fill-opacity:1;fill-rule:nonzero;stroke:none"
         d="M 6950.52,7611.74 H 5711.78 v -231.29 h 1105.2 l 133.54,231.29" /><path
         id="path30"
         style="fill:#3a3a43;fill-opacity:1;fill-rule:nonzero;stroke:none"
         d="m 7522.03,8601.66 v 134.89 H 5711.78 v -231.29 h 1754.59 l 55.66,96.4" /><path
         id="path32"
         style="fill:#3a3a43;fill-opacity:1;fill-rule:nonzero;stroke:none"
         d="m 5285.69,6648.44 -344.61,-344.6 -164.59,164.59 -115.72,-115.73 164.59,-164.59 115.72,-115.73 115.73,115.73 344.61,344.61 -115.73,115.72" /><path
         id="path34"
         style="fill:#3a3a43;fill-opacity:1;fill-rule:nonzero;stroke:none"
         d="m 7933.94,9140.84 -178.18,-308.6 689.98,-398.36 178.18,308.6 c 133.3,230.89 -556.68,629.25 -689.98,398.36" /><path
         id="path36"
         style="fill:#3a3a43;fill-opacity:1;fill-rule:nonzero;stroke:none"
         d="m 7020.94,6651.9 -111.97,64.66 -18.83,343.35 c 40.87,-16.55 85.3,-16.95 125.24,-3.28 9.58,-49.12 52.46,-101.58 99.1,-128.45 46.64,-26.94 113.51,-37.86 160.82,-21.65 8.17,-41.81 31.16,-80.47 66.61,-107.68 z m 1358.38,1755.27 -178.24,102.93 -259.92,150.09 -175.3,101.19 -38.26,22.11 -22.11,-38.33 -17.49,-30.29 -885.84,-1534.34 c -4.36,-7.57 -6.23,-16.08 -5.76,-24.53 h -0.07 l 25.66,-468.18 c 0.87,-14.88 9.12,-28.41 22.05,-35.85 l 166.44,-96.09 c 12.87,-7.44 28.68,-7.91 41.95,-1.27 l 422.28,211.94 -0.06,0.07 c 7.64,3.82 14.14,9.72 18.49,17.35 l 884.84,1532.54 17.49,30.29 22.11,38.33 -38.26,22.04" /><path
         id="path38"
         style="fill:#3a3a43;fill-opacity:1;fill-rule:nonzero;stroke:none"
         d="m 6828.5,6614.08 17.32,-154.63 142.58,62.32 z" /><path
         id="path40"
         style="fill:#f25168;fill-opacity:1;fill-rule:nonzero;stroke:none"
         d="m 1381.01,2932.59 c -45.29,0 -82.01,36.71 -82.01,82.01 0,45.29 36.72,82.01 82.01,82.01 45.29,0 82.01,-36.72 82.01,-82.01 0,-45.3 -36.72,-82.01 -82.01,-82.01 z M 1827.57,2911 h -179.03 c -7.85,157.34 -124.62,282.23 -267.53,282.23 -142.91,0 -259.68,-124.89 -267.53,-282.23 H 934.457 c -43.941,0 -79.566,-31.18 -79.566,-69.64 v -253.03 c 0,-38.45 35.625,-69.63 79.566,-69.63 h 893.113 c 43.94,0 79.56,31.18 79.56,69.63 v 253.03 c 0,38.46 -35.62,69.64 -79.56,69.64" /><path
         id="path42"
         style="fill:#f25168;fill-opacity:1;fill-rule:nonzero;stroke:none"
         d="M 988.438,2273.88 826.16,2111.6 l -77.504,77.5 -54.496,-54.49 77.508,-77.51 54.492,-54.49 54.496,54.49 162.274,162.28 -54.492,54.5" /><path
         id="path44"
         style="fill:#f25168;fill-opacity:1;fill-rule:nonzero;stroke:none"
         d="m 988.438,1744.2 -162.278,-162.3 -77.504,77.5 -54.496,-54.5 77.508,-77.5 54.492,-54.5 54.496,54.5 162.274,162.3 -54.492,54.5" /><path
         id="path46"
         style="fill:#f25168;fill-opacity:1;fill-rule:nonzero;stroke:none"
         d="m 2196.81,2394.34 3.15,5.46 c 19.79,34.26 56.77,53.17 104.15,53.28 v 209.83 c 0,60.87 -49.35,110.22 -110.22,110.22 h -202.86 v -107.3 h 205.78 v -271.49" /><path
         id="path48"
         style="fill:#f25168;fill-opacity:1;fill-rule:nonzero;stroke:none"
         d="M 2196.81,1479.9 V 607.301 H 565.215 V 2665.83 h 205.781 v 107.3 H 568.137 c -60.875,0 -110.223,-49.35 -110.223,-110.22 V 610.199 C 457.914,549.301 507.262,500 568.137,500 H 2193.89 c 60.87,0 110.22,49.301 110.22,110.199 V 1665.7 l -107.3,-185.8" /><path
         id="path50"
         style="fill:#f25168;fill-opacity:1;fill-rule:nonzero;stroke:none"
         d="m 1688.53,1056.7 -7.15,63.9 h -492.3 v -108.9 h 852.45 v 108.9 h -206.77 l -146.23,-63.9" /><path
         id="path52"
         style="fill:#f25168;fill-opacity:1;fill-rule:nonzero;stroke:none"
         d="m 1772.4,1659.2 h -583.32 v -108.9 h 520.44 l 62.88,108.9" /><path
         id="path54"
         style="fill:#f25168;fill-opacity:1;fill-rule:nonzero;stroke:none"
         d="m 2041.53,2125.39 v 63.51 h -852.45 v -108.91 h 826.24 l 26.21,45.4" /><path
         id="path56"
         style="fill:#f25168;fill-opacity:1;fill-rule:nonzero;stroke:none"
         d="m 988.438,1205.6 -162.278,-162.3 -77.504,77.5 -54.496,-54.4 77.508,-77.599 54.492,-54.5 54.496,54.5 162.274,162.299 -54.492,54.5" /><path
         id="path58"
         style="fill:#f25168;fill-opacity:1;fill-rule:nonzero;stroke:none"
         d="m 2235.5,2379.29 -83.91,-145.33 324.92,-187.58 83.9,145.32 c 62.77,108.73 -262.14,296.31 -324.91,187.59" /><path
         id="path60"
         style="fill:#f25168;fill-opacity:1;fill-rule:nonzero;stroke:none"
         d="m 1805.57,1207.2 -52.73,30.5 -8.87,161.7 c 19.25,-7.8 40.17,-8 58.98,-1.6 4.51,-23.1 24.7,-47.8 46.66,-60.5 21.97,-12.6 53.46,-17.8 75.73,-10.1 3.85,-19.7 14.68,-37.9 31.37,-50.8 z m 639.66,826.6 -83.94,48.47 -122.39,70.68 -82.55,47.65 -18.02,10.41 -10.41,-18.05 -8.24,-14.26 -417.14,-722.5 c -2.05,-3.6 -2.93,-7.6 -2.71,-11.6 h -0.03 l 12.08,-220.4 c 0.41,-7 4.29,-13.4 10.38,-16.9 l 78.38,-45.3 c 6.06,-3.5 13.51,-3.7 19.76,-0.6 l 198.85,99.8 -0.03,0.1 c 3.59,1.8 6.65,4.5 8.71,8.1 l 416.67,721.7 8.23,14.27 10.41,18.05 -18.01,10.38" /><path
         id="path62"
         style="fill:#f25168;fill-opacity:1;fill-rule:nonzero;stroke:none"
         d="m 1714.95,1189.4 8.15,-72.8 67.14,29.4 z" /><path
         id="path64"
         style="fill:#3cb296;fill-opacity:1;fill-rule:nonzero;stroke:none"
         d="m 4383.8,2932.59 c -45.29,0 -82.01,36.71 -82.01,82.01 0,45.29 36.72,82.01 82.01,82.01 45.29,0 82.01,-36.72 82.01,-82.01 0,-45.3 -36.72,-82.01 -82.01,-82.01 z M 4830.36,2911 h -179.03 c -7.85,157.34 -124.62,282.23 -267.53,282.23 -142.91,0 -259.68,-124.89 -267.53,-282.23 h -179.03 c -43.94,0 -79.56,-31.18 -79.56,-69.64 v -253.03 c 0,-38.45 35.62,-69.63 79.56,-69.63 h 893.12 c 43.94,0 79.56,31.18 79.56,69.63 v 253.03 c 0,38.46 -35.62,69.64 -79.56,69.64" /><path
         id="path66"
         style="fill:#3cb296;fill-opacity:1;fill-rule:nonzero;stroke:none"
         d="m 3991.23,2273.88 -162.28,-162.28 -77.5,77.5 -54.5,-54.49 77.51,-77.51 54.49,-54.49 54.5,54.49 162.27,162.28 -54.49,54.5" /><path
         id="path68"
         style="fill:#3cb296;fill-opacity:1;fill-rule:nonzero;stroke:none"
         d="m 3991.23,1744.2 -162.28,-162.3 -77.5,77.5 -54.5,-54.5 77.51,-77.5 54.49,-54.5 54.5,54.5 162.27,162.3 -54.49,54.5" /><path
         id="path70"
         style="fill:#3cb296;fill-opacity:1;fill-rule:nonzero;stroke:none"
         d="m 5199.6,2394.34 3.15,5.46 c 19.78,34.26 56.77,53.17 104.15,53.28 v 209.83 c 0,60.87 -49.35,110.22 -110.23,110.22 h -202.85 v -107.3 h 205.78 v -271.49" /><path
         id="path72"
         style="fill:#3cb296;fill-opacity:1;fill-rule:nonzero;stroke:none"
         d="M 5199.6,1479.9 V 607.301 H 3568 V 2665.83 h 205.79 v 107.3 h -202.86 c -60.88,0 -110.22,-49.35 -110.22,-110.22 V 610.199 C 3460.71,549.301 3510.05,500 3570.93,500 h 1625.74 c 60.88,0 110.23,49.301 110.23,110.199 V 1665.7 l -107.3,-185.8" /><path
         id="path74"
         style="fill:#3cb296;fill-opacity:1;fill-rule:nonzero;stroke:none"
         d="m 4691.32,1056.7 -7.16,63.9 h -492.29 v -108.9 h 852.45 v 108.9 h -206.77 l -146.23,-63.9" /><path
         id="path76"
         style="fill:#3cb296;fill-opacity:1;fill-rule:nonzero;stroke:none"
         d="m 4775.19,1659.2 h -583.32 v -108.9 h 520.44 l 62.88,108.9" /><path
         id="path78"
         style="fill:#3cb296;fill-opacity:1;fill-rule:nonzero;stroke:none"
         d="m 5044.32,2125.39 v 63.51 h -852.45 v -108.91 h 826.24 l 26.21,45.4" /><path
         id="path80"
         style="fill:#3cb296;fill-opacity:1;fill-rule:nonzero;stroke:none"
         d="m 3991.23,1205.6 -162.28,-162.3 -77.5,77.5 -54.5,-54.4 77.51,-77.599 54.49,-54.5 54.5,54.5 162.27,162.299 -54.49,54.5" /><path
         id="path82"
         style="fill:#3cb296;fill-opacity:1;fill-rule:nonzero;stroke:none"
         d="m 5238.28,2379.29 -83.9,-145.33 324.91,-187.58 83.91,145.32 c 62.77,108.73 -262.14,296.31 -324.92,187.59" /><path
         id="path84"
         style="fill:#3cb296;fill-opacity:1;fill-rule:nonzero;stroke:none"
         d="m 4808.35,1207.2 -52.72,30.5 -8.87,161.7 c 19.25,-7.8 40.17,-8 58.98,-1.6 4.51,-23.1 24.7,-47.8 46.66,-60.5 21.96,-12.6 53.46,-17.8 75.73,-10.1 3.85,-19.7 14.68,-37.9 31.37,-50.8 z m 639.67,826.6 -83.94,48.47 -122.4,70.68 -82.54,47.65 -18.02,10.41 -10.41,-18.05 -8.24,-14.26 -417.14,-722.5 c -2.05,-3.6 -2.93,-7.6 -2.71,-11.6 h -0.03 l 12.08,-220.4 c 0.41,-7 4.29,-13.4 10.38,-16.9 l 78.38,-45.3 c 6.06,-3.5 13.51,-3.7 19.75,-0.6 l 198.86,99.8 -0.03,0.1 c 3.59,1.8 6.65,4.5 8.7,8.1 l 416.67,721.7 8.24,14.27 10.41,18.05 -18.01,10.38" /><path
         id="path86"
         style="fill:#3cb296;fill-opacity:1;fill-rule:nonzero;stroke:none"
         d="m 4717.74,1189.4 8.15,-72.8 67.14,29.4 z" /><path
         id="path88"
         style="fill:#f8cc46;fill-opacity:1;fill-rule:nonzero;stroke:none"
         d="m 7386.59,2932.59 c -45.29,0 -82.01,36.71 -82.01,82.01 0,45.29 36.72,82.01 82.01,82.01 45.29,0 82.01,-36.72 82.01,-82.01 0,-45.3 -36.72,-82.01 -82.01,-82.01 z M 7833.14,2911 h -179.02 c -7.85,157.34 -124.62,282.23 -267.53,282.23 -142.91,0 -259.68,-124.89 -267.53,-282.23 h -179.03 c -43.94,0 -79.56,-31.18 -79.56,-69.64 v -253.03 c 0,-38.45 35.62,-69.63 79.56,-69.63 h 893.11 c 43.95,0 79.57,31.18 79.57,69.63 v 253.03 c 0,38.46 -35.62,69.64 -79.57,69.64" /><path
         id="path90"
         style="fill:#f8cc46;fill-opacity:1;fill-rule:nonzero;stroke:none"
         d="m 6994.02,2273.88 -162.28,-162.28 -77.5,77.5 -54.5,-54.49 77.5,-77.51 54.5,-54.49 54.5,54.49 162.27,162.28 -54.49,54.5" /><path
         id="path92"
         style="fill:#f8cc46;fill-opacity:1;fill-rule:nonzero;stroke:none"
         d="m 6994.02,1744.2 -162.28,-162.3 -77.5,77.5 -54.5,-54.5 77.5,-77.5 54.5,-54.5 54.5,54.5 162.27,162.3 -54.49,54.5" /><path
         id="path94"
         style="fill:#f8cc46;fill-opacity:1;fill-rule:nonzero;stroke:none"
         d="m 8202.39,2394.34 3.15,5.46 c 19.78,34.26 56.77,53.17 104.14,53.28 v 209.83 c 0,60.87 -49.34,110.22 -110.22,110.22 H 7996.6 v -107.3 h 205.79 v -271.49" /><path
         id="path96"
         style="fill:#f8cc46;fill-opacity:1;fill-rule:nonzero;stroke:none"
         d="M 8202.39,1479.9 V 607.301 H 6570.79 V 2665.83 h 205.78 v 107.3 h -202.86 c -60.87,0 -110.22,-49.35 -110.22,-110.22 V 610.199 C 6463.49,549.301 6512.84,500 6573.71,500 h 1625.75 c 60.88,0 110.22,49.301 110.22,110.199 V 1665.7 l -107.29,-185.8" /><path
         id="path98"
         style="fill:#f8cc46;fill-opacity:1;fill-rule:nonzero;stroke:none"
         d="m 7694.11,1056.7 -7.16,63.9 h -492.29 v -108.9 h 852.45 v 108.9 h -206.77 l -146.23,-63.9" /><path
         id="path100"
         style="fill:#f8cc46;fill-opacity:1;fill-rule:nonzero;stroke:none"
         d="m 7777.98,1659.2 h -583.32 v -108.9 h 520.44 l 62.88,108.9" /><path
         id="path102"
         style="fill:#f8cc46;fill-opacity:1;fill-rule:nonzero;stroke:none"
         d="m 8047.11,2125.39 v 63.51 h -852.45 v -108.91 h 826.24 l 26.21,45.4" /><path
         id="path104"
         style="fill:#f8cc46;fill-opacity:1;fill-rule:nonzero;stroke:none"
         d="m 6994.02,1205.6 -162.28,-162.3 -77.5,77.5 -54.5,-54.4 77.5,-77.599 54.5,-54.5 54.5,54.5 162.27,162.299 -54.49,54.5" /><path
         id="path106"
         style="fill:#f8cc46;fill-opacity:1;fill-rule:nonzero;stroke:none"
         d="m 8241.07,2379.29 -83.9,-145.33 324.91,-187.58 83.91,145.32 c 62.77,108.73 -262.14,296.31 -324.92,187.59" /><path
         id="path108"
         style="fill:#f8cc46;fill-opacity:1;fill-rule:nonzero;stroke:none"
         d="m 7811.14,1207.2 -52.72,30.5 -8.87,161.7 c 19.25,-7.8 40.17,-8 58.97,-1.6 4.52,-23.1 24.71,-47.8 46.67,-60.5 21.96,-12.6 53.46,-17.8 75.73,-10.1 3.85,-19.7 14.67,-37.9 31.37,-50.8 z m 639.66,826.6 -83.93,48.47 -122.4,70.68 -82.54,47.65 -18.02,10.41 -10.41,-18.05 -8.24,-14.26 -417.14,-722.5 c -2.05,-3.6 -2.94,-7.6 -2.71,-11.6 h -0.04 l 12.09,-220.4 c 0.41,-7 4.29,-13.4 10.38,-16.9 l 78.38,-45.3 c 6.06,-3.5 13.51,-3.7 19.75,-0.6 l 198.86,99.8 -0.04,0.1 c 3.6,1.8 6.66,4.5 8.71,8.1 l 416.67,721.7 8.24,14.27 10.41,18.05 -18.02,10.38" /><path
         id="path110"
         style="fill:#f8cc46;fill-opacity:1;fill-rule:nonzero;stroke:none"
         d="m 7720.53,1189.4 8.15,-72.8 67.14,29.4 z" /><path
         id="path112"
         style="fill:#5197d8;fill-opacity:1;fill-rule:nonzero;stroke:none"
         d="m 10389.4,2932.59 c -45.3,0 -82,36.71 -82,82.01 0,45.29 36.7,82.01 82,82.01 45.3,0 82,-36.72 82,-82.01 0,-45.3 -36.7,-82.01 -82,-82.01 z m 446.5,-21.59 h -179 c -7.8,157.34 -124.6,282.23 -267.5,282.23 -142.9,0 -259.7,-124.89 -267.6,-282.23 h -178.98 c -43.94,0 -79.56,-31.18 -79.56,-69.64 v -253.03 c 0,-38.45 35.62,-69.63 79.56,-69.63 h 893.08 c 44,0 79.6,31.18 79.6,69.63 v 253.03 c 0,38.46 -35.6,69.64 -79.6,69.64" /><path
         id="path114"
         style="fill:#5197d8;fill-opacity:1;fill-rule:nonzero;stroke:none"
         d="m 9996.8,2273.88 -162.27,-162.28 -77.51,77.5 -54.49,-54.49 77.5,-77.51 54.5,-54.49 54.49,54.49 162.28,162.28 -54.5,54.5" /><path
         id="path116"
         style="fill:#5197d8;fill-opacity:1;fill-rule:nonzero;stroke:none"
         d="m 9996.8,1744.2 -162.27,-162.3 -77.51,77.5 -54.49,-54.5 77.5,-77.5 54.5,-54.5 54.49,54.5 162.28,162.3 -54.5,54.5" /><path
         id="path118"
         style="fill:#5197d8;fill-opacity:1;fill-rule:nonzero;stroke:none"
         d="m 11205.2,2394.34 3.1,5.46 c 19.8,34.26 56.8,53.17 104.2,53.28 v 209.83 c 0,60.87 -49.4,110.22 -110.2,110.22 h -202.9 v -107.3 h 205.8 v -271.49" /><path
         id="path120"
         style="fill:#5197d8;fill-opacity:1;fill-rule:nonzero;stroke:none"
         d="M 11205.2,1479.9 V 607.301 H 9573.58 V 2665.83 h 205.78 v 107.3 H 9576.5 c -60.87,0 -110.22,-49.35 -110.22,-110.22 V 610.199 C 9466.28,549.301 9515.63,500 9576.5,500 h 1625.8 c 60.8,0 110.2,49.301 110.2,110.199 V 1665.7 l -107.3,-185.8" /><path
         id="path122"
         style="fill:#5197d8;fill-opacity:1;fill-rule:nonzero;stroke:none"
         d="m 10696.9,1056.7 -7.2,63.9 h -492.2 v -108.9 h 852.4 v 108.9 h -206.8 l -146.2,-63.9" /><path
         id="path124"
         style="fill:#5197d8;fill-opacity:1;fill-rule:nonzero;stroke:none"
         d="m 10780.8,1659.2 h -583.3 v -108.9 h 520.4 l 62.9,108.9" /><path
         id="path126"
         style="fill:#5197d8;fill-opacity:1;fill-rule:nonzero;stroke:none"
         d="m 11049.9,2125.39 v 63.51 h -852.4 v -108.91 h 826.2 l 26.2,45.4" /><path
         id="path128"
         style="fill:#5197d8;fill-opacity:1;fill-rule:nonzero;stroke:none"
         d="m 9996.8,1205.6 -162.27,-162.3 -77.51,77.5 -54.49,-54.4 77.5,-77.599 54.5,-54.5 54.49,54.5 162.28,162.299 -54.5,54.5" /><path
         id="path130"
         style="fill:#5197d8;fill-opacity:1;fill-rule:nonzero;stroke:none"
         d="m 11243.9,2379.29 -83.9,-145.33 324.9,-187.58 83.9,145.32 c 62.7,108.73 -262.2,296.31 -324.9,187.59" /><path
         id="path132"
         style="fill:#5197d8;fill-opacity:1;fill-rule:nonzero;stroke:none"
         d="m 10813.9,1207.2 -52.7,30.5 -8.9,161.7 c 19.3,-7.8 40.2,-8 59,-1.6 4.5,-23.1 24.7,-47.8 46.7,-60.5 21.9,-12.6 53.4,-17.8 75.7,-10.1 3.9,-19.7 14.7,-37.9 31.4,-50.8 z m 639.7,826.6 -83.9,48.47 -122.4,70.68 -82.6,47.65 -18,10.41 -10.4,-18.05 -8.2,-14.26 -417.2,-722.5 c -2,-3.6 -2.9,-7.6 -2.7,-11.6 v 0 l 12,-220.4 c 0.5,-7 4.3,-13.4 10.4,-16.9 l 78.4,-45.3 c 6.1,-3.5 13.5,-3.7 19.8,-0.6 l 198.8,99.8 v 0.1 c 3.6,1.8 6.6,4.5 8.7,8.1 l 416.7,721.7 8.2,14.27 10.4,18.05 -18,10.38" /><path
         id="path134"
         style="fill:#5197d8;fill-opacity:1;fill-rule:nonzero;stroke:none"
         d="m 10723.3,1189.4 8.2,-72.8 67.1,29.4 z" /></g></g></svg>