<svg xmlns="http://www.w3.org/2000/svg" viewBox="0 0 475.16 544.4"><defs><style>.cls-1{fill:#0e2d3d;}.cls-2{fill:#285173;}.cls-3{fill:#1d3b54;}.cls-4{fill:#eea886;}.cls-5{fill:#eddad3;}.cls-6{fill:#d6c5be;}.cls-7{fill:#fae6de;}.cls-8{fill:#eb4747;}.cls-9{fill:#e8734d;}.cls-10{fill:#eea987;}.cls-11{fill:#a77860;}.cls-12{fill:#353a3d;}.cls-13{fill:#81807e;}.cls-14{fill:#2d3133;}.cls-15{fill:#decbc4;}.cls-16{fill:#495055;}.cls-17{fill:#3c4145;}.cls-18{fill:#51565c;}.cls-19{fill:#f5e2d9;}.cls-20{fill:#323657;}.cls-21{fill:#ad9f99;}.cls-22{fill:#69737a;}.cls-23{fill:#d9c9c2;}</style></defs><g id="Слой_2" data-name="Слой 2"><g id="Layer_1" data-name="Layer 1"><path class="cls-1" d="M78.85,14.6s17.84,8.73,13.43,32.47S85.91,74,90.85,83.28s10.75,48.84,6.31,56.34-55-33-62-66.9,4.44-49,8.49-54.67S63.1,6.61,78.85,14.6Z"/><path class="cls-2" d="M83.79,100.31s9.08,1.83,14.18,9.34c3.54,5.22,3.83,16.82,4.34,19s7.29,26.9,7.29,26.9L90.68,168.24Z"/><path class="cls-3" d="M153.67,523s12.34,16.62,10.65,19.25-14.67,3-22.57,0-8.09-22.48-11.67-30.85c-1.49-3.5,1.71-13.84,6.21-14.59s9.4,1.45,9.4,1.45S141,510.08,153.67,523Z"/><path class="cls-4" d="M145.77,498.16A78.19,78.19,0,0,1,149.32,512c.79,5.6,8.79,17.5,8.42,19s-10.54,2.87-14.68-1-6.8-15.16-7.71-21.91a54.19,54.19,0,0,0-1.92-9.39S141.82,494,145.77,498.16Z"/><path class="cls-3" d="M46.23,523.31s11.9,16.34,10.21,19-14.68,3-22.58,0S25.77,519.8,22.2,511.43c-1.5-3.5,1.71-13.84,6.21-14.59s9.78,1.61,9.78,1.61S33.58,510.35,46.23,523.31Z"/><path class="cls-4" d="M38.19,498.45a110.91,110.91,0,0,0,2.45,13.17c1.5,5.45,9.59,17.87,9.21,19.37s-10.53,2.87-14.67-1-7.34-15.11-7.71-21.91a36,36,0,0,1,.94-11.23S34.24,494.31,38.19,498.45Z"/><path class="cls-4" d="M97.65,227.92s10.59,49.27,13,61.68,9.25,72.49,10,82.71,11,48.71,10.56,52.36,15.31,76.94,15.31,76.94-5.4,4.34-11.08.4c-2.93-2-34.65-68.63-34.65-86.87,0-25.22-18.65-58.14-21.05-63.78C57.39,299,61.79,282.92,58.87,279.51s-3.18,2.11-4.88,9.65-5.35,72.73-7.54,81-.49,36.25-1.7,50.36-6.56,77.93-6.56,77.93-4.14,6.48-9.94.17c-1.25-1.36-10-71.1-10.26-87.88s-.5-39.93-1-47.19C12.51,294,1.43,284.06,18.88,234.83,51.55,142.66,97.65,227.92,97.65,227.92Z"/><path class="cls-3" d="M26.52,214.15S-3.66,256.38,9.33,346.22c0,0,71.58,9.73,109.92-11.27,0,0-15.86-92.62-21.6-107S26.52,214.15,26.52,214.15Z"/><polygon class="cls-3" points="129.75 509.97 129.75 527.37 132.01 527.37 132.01 513.92 129.75 509.97"/><polygon class="cls-3" points="21.87 509.97 21.87 527.37 24.13 527.37 24.13 513.92 21.87 509.97"/><path class="cls-5" d="M67,94.14s11.12,5.25,15,6,18.84,20.23,21.46,27.33,0,17.75-5.4,30.26-.31,16.68-2.78,29.18-4.63,39-4.17,45.94-62.45,8.26-76.81-4.4c0,0,14.43-21.62,16.28-24.71s.31-19.91-1.39-24.24-13-41.09-13-41.09-9.25-28.23-.89-34.72c7.26-5.64,27-7.64,30.59-8.88S59.76,93.06,67,94.14Z"/><path class="cls-6" d="M70.57,118.92,77.32,111,71.46,90.18S69.48,101.78,70.57,118.92Z"/><path class="cls-4" d="M72.32,81.31S72,84.1,71.66,88c-.16,1.71-.33,3.63-.49,5.6a126.78,126.78,0,0,0-.6,14.79S59,119.92,45.88,94.83c0,0,5.52-10.34,1.36-24.43S72.32,81.31,72.32,81.31Z"/><polygon class="cls-4" points="70.57 108.34 70.57 118.92 57.27 108.98 70.57 108.34"/><polygon class="cls-6" points="70.57 118.92 65.05 112.09 46.45 93.56 40.44 99.35 70.57 118.92"/><path class="cls-2" d="M43.87,95.33s15.6,23.68,16.35,34.1-5.8,88.38-11,113.45-43.11-2.83-43.11-2.83,25.45-41.19,15.68-74.17S8.43,119.72,8.43,119.72s3.36-18.37,15.27-21C34.15,96.5,43.87,95.33,43.87,95.33Z"/><path class="cls-2" d="M104.48,130.65s2.82,10-8.15,32c0,0,.18,28.17.48,37S103.35,240,103.35,240l-15,8a3.06,3.06,0,0,1-4.58-3c3.07-25.32,13.06-121.39-8.52-147.22l8.66,2.56S99.31,112.93,104.48,130.65Z"/><polygon class="cls-7" points="77.32 111.01 85.83 113.36 71.45 90.18 77.32 111.01"/><polygon class="cls-7" points="65.05 112.09 57.27 122.28 41.31 95.67 46.45 93.56 65.05 112.09"/><rect class="cls-8" x="86.33" y="148.83" width="2.82" height="33.29" transform="translate(-83.74 90.13) rotate(-38.35)"/><path class="cls-4" d="M75,176.45a6,6,0,0,0,3.27-.94c2.24-1.69,3-5.85,7-5.55s5.79,12.7,4.8,15-6.48,3.52-14.59,1.9S75,176.45,75,176.45Z"/><path class="cls-4" d="M83.94,170.05a123.41,123.41,0,0,1,12.24-3.36c5.76-1.24,12.63-1.65,13.3-.65s-5.6,2.07-11.24,3.67c-5.19,1.47-4,2-4,2s-.34-.17,5.59-.72c6.37-.6,12.94-.59,13.58.69.32.62.1,1-2.2,1.62,1.38-.06,1.58.29,1.63.85.27,2.87-9,5.15-12.72,6.06,2.84-.68,5-.89,4,1-1.17,2.2-14.44,4.86-19.12,6.25C79.91,189,83.94,170.05,83.94,170.05Z"/><path class="cls-2" d="M25.91,99.19C22,97.93,10.52,102,8.58,113.76s-2.72,24.83-4.53,31.17-6.42,34.41-2.54,36.74,11.22,4.45,21.53,4.45c10.64,0,51.9,1.86,51.9,1.86l2.59-14.66s-15.67-.81-23.79-2c-7.23-1.1-17.25-4.18-29-5.47,0,0,2.5-17.39,4.31-22.3S43.49,104.88,25.91,99.19Z"/><polygon class="cls-9" points="78.64 199.03 120.21 190.79 151.03 124.83 106.67 129.49 78.64 199.03"/><path class="cls-4" d="M125.39,179.59a33.48,33.48,0,0,0,4.31-5.07c2-3,8.67-14.27,8.06-15s-10.47-.95-12.25.66,1.75,2.24,1.75,2.24-5.39.55-5,2.07,3.63,1.1,3.63,1.1-4.34.84-3.68,2.17S125,169.1,125,169.1s-3.84.49-3.37,2,6.56,2.83,5.75,4A28.25,28.25,0,0,0,125.39,179.59Z"/><path class="cls-10" d="M76.26,17.23s25.9,8.14,11.84,52.84S38.67,64.89,42.37,37.66,76.26,17.23,76.26,17.23Z"/><path class="cls-1" d="M90.75,43.32a58.39,58.39,0,0,1-34.41,14.2S48.06,67.23,47.43,71c0,0-19.22-32.76,4.4-52.39S99.43,35.22,90.75,43.32Z"/><path class="cls-10" d="M56.6,58.41c-.17-3.25-2.17-10.65-7-8.58S49.89,67,53.1,66.05C53.1,66.05,57,66.11,56.6,58.41Z"/><path class="cls-11" d="M71.66,88c-.16,1.71-.33,3.63-.49,5.6h0c-15-7.39-17.27-18-17.34-18.38C64.5,89,71.66,88,71.66,88Z"/><path class="cls-12" d="M348.85,516.18s-5.85,8.76-14.07,10.65-16.31,4.91-16.37,10.09,23.75,8.28,33.16,3.05c14-7.8,15.45-5.45,17-9.35s-1.87-14.32-1.77-15.56C366.94,513.52,348.85,516.18,348.85,516.18Z"/><path class="cls-13" d="M349.76,511.85a37.3,37.3,0,0,0-.91,4.33c.16.09,18.52,2.27,18-1.12-.45-2.76-1.09-5.75-1.09-5.75Z"/><path class="cls-12" d="M410.63,515.6s-4.18,8.38-11.32,11.23c-7.63,3-13.75,6.56-13.61,11.61s18.65,10.18,32.12.48c8.51-6.13,11.21-6.16,12.57-10S428,515,428.07,513.81C428.14,512.32,410.63,515.6,410.63,515.6Z"/><path class="cls-13" d="M410.42,511.24a40.87,40.87,0,0,0,.21,4.36c.15.08,17.9,1.54,17.44-1.79a26.88,26.88,0,0,0-1.72-5.83Z"/><path class="cls-14" d="M345.37,255.18s-16.48,72.7-20.24,94.84c-3.21,18.85-5.76,38.48-4.23,52.08,1.9,16.85,25.75,104.15,24.75,109.09s25,.79,25,.79-18.14-97.38-14.52-115.51c2.69-13.42,26.2-102.6,29.8-98s8.07,84.16,10.74,97.37,10.86,117.6,10.86,117.6,18.31,2.7,23.2-1.44c0,0,2.23-89.13.53-113.9-.65-9.44,11.06-113.18-4-154.95C419.34,221.06,345.37,255.18,345.37,255.18Z"/><path class="cls-15" d="M446.09,100.72,411,86.22l-30,2.54h0l-6.21,2.83-36.34,18.83,9.48,69.26c3.21,12.4-2.48,36.5-3.12,49.33-.52,10.18,2.83,14.76,2.92,14.89h0l78.2-11h0s3.46-24.58,3.73-37.87Z"/><path class="cls-16" d="M347.69,243.9s-1.8,2.15-2.32,11.28c0,0,74.07-8.64,81.9-12.05,0,0,.3-10-1.36-10.23C424.09,232.71,347.69,243.9,347.69,243.9Z"/><path class="cls-4" d="M410.86,83.71c-.23,11.63-22.74,18-22.74,18S378.71,89.89,381,88.76c.89-.44,1.25-2.2,1.36-4.18a41.19,41.19,0,0,0-.13-5.27c-.07-.82-.13-1.35-.13-1.35s3.21-3.39,7.3-7.44c7.15-7.07,17-16.12,17-12.52a3.11,3.11,0,0,1-.09.68C404.54,66.79,410.86,83.71,410.86,83.71Z"/><path class="cls-12" d="M409,234.68s1.62,10.2,1.76,12.85l3.42-.68s-.94-10.78-1.49-12.59Z"/><path class="cls-12" d="M353.87,242.71s-1.29,9.26-1.33,12.76l3.63-.47s.74-11.57,1.16-12.78Z"/><path class="cls-11" d="M402.19,66.68h0c-.05.07-1,1.5-2.63,3.55-3.46,4.34-9.95,11.48-17.25,14.35a41.19,41.19,0,0,0-.13-5.27,12.13,12.13,0,0,1-2.24-.27,70.18,70.18,0,0,1,4.9-7.17l4.51-1.35Z"/><path class="cls-4" d="M406.51,58.16c-1.95,4.23-3.8,7.3-4.32,8.52h0a15,15,0,0,1-2.63,3.55c-3.71,4-10.6,9.26-17.38,9.08a12.13,12.13,0,0,1-2.24-.27c-2.73-.6-6-1.87-7.74-5.35-14.05-27.49-3.88-50-3.88-50s38.39-10.86,44.4.7C416.94,32.52,411.08,48.21,406.51,58.16Z"/><path class="cls-1" d="M368.32,23.72s-3.56-.2-4.45-7,.89-8.53.89-8.53S380.61,1.6,386.31.73,406-1,409.27,2.79c0,0,8-1.85,10.15,11.38,3.44,21-11.74,41.38-11.74,41.38s.13-13.72-2.9-15.53-5.63,2.5-5.63,2.5L393,43.63s9.4-20.29-1.87-21S374.77,24.89,368.32,23.72Z"/><path class="cls-4" d="M399.32,37.05c.59-6,11.51-8.34,10.78-2s-6.11,12.42-8.6,12.2S398.87,41.66,399.32,37.05Z"/><path class="cls-17" d="M475.16,191.16c0-.12,0-.26,0-.4-.21-8.83-4.56-44.21-11.88-67.67-3.55-11.39-4.38-19.35-5.75-20.33-2.39-1.71-23.6-8-32.6-11.52-4.06-1.6-3.91-1.53-5.53-2.15a143.17,143.17,0,0,0-10,12.75c-9.29,13.22-21.4,34.62-19.54,54.38.59,6.35,1.33,15.46,2.56,25.68.1.87.22,1.75.33,2.64.3,2.35.63,4.76,1,7.19.22,1.46.44,2.93.68,4.41,2.46,15.32,10.18,25.77,17,38.26.07.11.12.21.18.32l.1.18.44.8.7,1.32.4.77c1.31,2.51,2.59,5.09,3.83,7.67q1.21,2.5,2.37,5l.24.52,2.88,6.69c.59,1.38,1.23,2.88,1.88,4.38l1.32,3.07,1.09,2.55c.78,1.81,1.46,3.4,1.93,4.51.35.83.59,1.39.66,1.58,2.36,5.9,4.06,10.45,4.85,12.58l.48,1.31,23.69-13.07c4.5-2.26,2.14-14.38.45-19.12A107.81,107.81,0,0,0,453.31,243c-.91-1.78-1.87-3.59-2.84-5.41,7.41-13,14.92-26.32,19.68-35.4C473.23,196.27,475.16,192.18,475.16,191.16Zm-37.67-37.07a.29.29,0,0,1,0-.09.38.38,0,0,1,0-.1c0-.06,0-.12,0-.18l0-.08v0s11.52,18,10.65,33.66c-.13,2.44-2.55,8.59-6.08,16.49h0c-1.28,2.87-2.72,6-4.23,9.22-.06-.13-.11-.27-.17-.41-2.21-5.38-3.64-10.42-3.64-14.83C434.15,197.73,435.12,163.39,437.49,154.09Z"/><path class="cls-17" d="M257.89,165.06l53.65,11.68,25.57-66.88c.57-.44,7.9-4.39,12.75-6.7,5.06-2.41,11.45-5.38,17.13-8l7.41-3.41.18.14s-3.16,10.54-7.26,36.86h0c-.13.89-.27,1.79-.41,2.71,0,.1,0,.21,0,.32-.09.61-.19,1.22-.28,1.85l0,.22c-.07.42-.13.84-.19,1.27-.15,1-.31,2.1-.46,3.18-1.83,12.81-4.39,34.61-6.86,56.62h0c-1.94,17.35-6.38,35.15-7.79,48.44v0a91.36,91.36,0,0,1-1.85,10c-.1.44-.2.89-.31,1.35-4,16.77-11.67,40.5-11.67,40.5l-2.25-2.07L328.51,287a5.38,5.38,0,0,1-1.49-5.56c3.69-11.89,16.22-54,18.51-83.57v0c.71-9.3-2-18.06-3.58-26.36,0,.07,0,.14-.08.22-1.32,3.66-2.78,7.65-4.25,11.54h0c-4,10.43-8,20.09-9.69,20.71-3.75,1.38-74.39-17.94-74.88-20.71Z"/><path class="cls-18" d="M413.14,117.94l-10.95,6.17,4.68,4.78-12.46,67.25c-2.54-15.76-3.69-30.74-4.55-39.92-2.87-30.55,27.63-65,29.53-67.13,1.46.56,3,1.17,4.68,1.82Z"/><path class="cls-18" d="M374.75,91.59s-4.09,13.36-8.86,46.72c-1.83,12.81-4.39,34.61-6.86,56.62l-2.54-63,5.21-5.66-4.64-5.79L367,95.16l7.41-3.41Z"/><path class="cls-19" d="M419.94,89.23l-9.08-5.52s-.26,5-22.74,18l6.39,18Z"/><path class="cls-19" d="M382.14,86.22s.35,5.37,6,15.48l-12.46,16.24-.91-26.35Z"/><path class="cls-20" d="M388.15,101.7s2.42,9.65,1.55,12.36c0,0-5.31,1.93-9.13-.48A42.49,42.49,0,0,1,388.15,101.7Z"/><path class="cls-21" d="M375.67,241c-1.35-6.82-.07-27.24,0-28.11l1.16.08c0,.21-1.34,21.14,0,27.8Z"/><path class="cls-22" d="M385.13,237.87s-10.9,1.3-14.51,2.2l.48,12.21,14.27-1.52Z"/><path class="cls-20" d="M382.74,112.71s-12.15,30.69-10.17,65.05c2.05,35.62,5.43,48.54,5.43,48.54l7.49,9.4,3.31-11.55s-10.06-45.42-3.57-89.61c1.18-8,2.92-23.19,2.92-23.19Z"/><path class="cls-4" d="M419.27,257.67s-2.61,5.22-5.22,6.09-6.41,5.1-6.41,5.1L426,278.54s4.89-9.57,5.11-15.65S419.27,257.67,419.27,257.67Z"/><path class="cls-15" d="M417.52,258.16l-1.21,2.44s11.66,8.53,14.8,9.08l1.08-3.26Z"/><path class="cls-17" d="M416.31,258.27s8.74,7.22,16.1,10.56l24.77-44.56-12.83-24.82S416.88,253.92,416.31,258.27Z"/><path class="cls-14" d="M342.31,156c-.41,8.24-.35,15.56-.35,15.56h0s0,.26,0,.63c0-.14,0-.28-.05-.41-1.32,3.66-2.78,7.65-4.25,11.54a121.66,121.66,0,0,1-.33-12.58c.59-23.11,7.85-35.24,7.85-35.24C343.49,139.49,342.69,148.14,342.31,156Z"/><path class="cls-14" d="M453.31,243,433.48,266.9l17-29.36C451.44,239.36,452.4,241.17,453.31,243Z"/><path class="cls-23" d="M309.28,212.92H263.49a6.8,6.8,0,0,1-6.6-5.2L237,125.6a6.8,6.8,0,0,1,6.61-8.4h45.78a6.8,6.8,0,0,1,6.61,5.2l19.89,82.12A6.8,6.8,0,0,1,309.28,212.92Z"/><path class="cls-4" d="M253.28,190.09c2.24-2.07,6.56-3.28,10.26-5.75s.61-5,.61-5c3.8-1.31,3.4-3,2.91-4.23-.66-1.6-4.81-1.14-4.81-1.14a42.14,42.14,0,0,0,5.25-1.5c1.53-.68,1-3.35-1.34-4.2s-12,1.53-12,1.53l6.3-3.15c4.74-2.37,5.78-4.54,3-5.57-1.94-.73-5.75.79-13.07,5.71-5.52,3.7-5.07,4.18-5.07,4.18S250.6,192.57,253.28,190.09Z"/></g></g></svg>