<svg xmlns="http://www.w3.org/2000/svg" xmlns:xlink="http://www.w3.org/1999/xlink" viewBox="0 0 49.96 127.09"><defs><style>.cls-1{isolation:isolate;}.cls-2{opacity:0.2;fill:url(#linear-gradient);}.cls-2,.cls-5,.cls-9{mix-blend-mode:multiply;}.cls-3,.cls-9{fill:#ffb294;}.cls-4{fill:#25435c;}.cls-5{fill:#227fbc;}.cls-5,.cls-9{opacity:0.5;}.cls-6{fill:#f2f2f2;}.cls-7{fill:#0071bc;}.cls-8{fill:#fff;}</style><linearGradient id="linear-gradient" x1="138.59" y1="82.03" x2="138.59" y2="59.33" gradientTransform="matrix(1, 0.58, 1, -0.58, -183.77, 73.75)" gradientUnits="userSpaceOnUse"><stop offset="0" stop-color="#fff"/><stop offset="0.24" stop-color="#c8dfe9"/><stop offset="0.49" stop-color="#98c3d6"/><stop offset="0.7" stop-color="#74afc9"/><stop offset="0.88" stop-color="#5fa3c0"/><stop offset="0.99" stop-color="#579ebd"/></linearGradient></defs><g class="cls-1"><g id="Слой_2" data-name="Слой 2"><g id="Layer_1" data-name="Layer 1"><path class="cls-2" d="M46.71,112.11,27,100.72c-4.33-2.5-11.42-2.5-15.75,0l-6.94,4c-4.33,2.5-4.33,6.59,0,9.09L24,125.21c4.33,2.5,11.42,2.5,15.75,0l7-4C51,118.7,51,114.61,46.71,112.11Z"/><path class="cls-3" d="M18.05,45.3l-.62,2.55a4.73,4.73,0,0,1-.49,4.26l-.83,2.26.1,1.45c-.27.91-.75.91-1.3.55l.42.83,1.1,1.86,1.32.93c.52.53.33.73-.14.79.2.53-.07.76-.56.84l-1.13-.95c-.06.61-.46,1-.94.48L13.1,58.74a11.71,11.71,0,0,1-1.25-4.17,18.12,18.12,0,0,1,2.2-6.38L14.46,45Z"/><path class="cls-4" d="M22.5,22.54,17.75,49.07c-1.51.14-4.57-.25-5.51-2.54a179.48,179.48,0,0,0,3.35-26.71c.41-4,3.94-8.89,8-8Z"/><polygon class="cls-5" points="14.31 48.52 16.77 35.41 18.73 20.61 21.47 33.3 20.03 46.79 17.21 51.11 14.31 48.52"/><path d="M20.59,101.62c.69.91.69,3,.53,5.41-.65,2.41-2.93,2.22-4.88,2.52C12.48,110.14,10.6,113,5.6,113c-3,0-5-.65-5.59-2.53a3.24,3.24,0,0,1,1.47-2.65s6.82-3.06,7-3.17A37.86,37.86,0,0,0,11.77,102c.06-.24,1.18-5.47,1.18-5.47H20.3Z"/><path class="cls-4" d="M11.13,102.62c3.8,2.28,9.34,4.27,9.92,1.46q.28-1.26.54-2.52c1.62-8,2.38-15.68.91-22.42l3.73-12.72,1-3.53c.07-8.18-3.53-10.87-9.73-9.63l-.75.16-1.1.3L15,58.2,11.82,77.47C10.89,84.94,12.4,96.13,11.13,102.62Z"/><path d="M42.87,113c.68,2.17.82,2.81.53,4.41-.32.86-.64,1.24-1,2.41-.41,1.46-.35,3.88-2.51,5.34-2.58,2-7.56,2.13-9.13,0a11.35,11.35,0,0,1,2-5.29l2.53-4.7-.16-4.41,7.26-1.6Z"/><path class="cls-4" d="M16.11,54.37a6.17,6.17,0,0,0,.18,1.29,9.79,9.79,0,0,0,3.09,4.62l0,0,.42.38c2.36,2.08,5.16,3.82,6.39,5.72q.16.27.3.54c.16,1,.33,1.94.51,2.93,1.16,6.42,2.67,13.32,4.42,20.56a119.36,119.36,0,0,1,3.14,24.69c3.57,1.65,8,.63,8.94-2.18,0-3.52,0-7.09-.12-10.43-.18-7-.66-13-2.21-15.61V52.11l-5.13-.6L23.08,50l-3.55-.41-2.74,3.83Z"/><path class="cls-5" d="M15,58.2a10.3,10.3,0,0,1,4.42,2.08l0,0c.15.12.28.25.42.38a9.74,9.74,0,0,1,1.87,2.67c1.4,3.64,0,9.35-1.68,15.26,1.69,4.59,1.63,13.75,1.56,22.93,1.62-8,2.38-15.68.91-22.42l3.73-12.72q.16.27.3.54c.16,1,.33,1.94.51,2.93,3.31-.16,6.44,2.87,9.53,6.44L38.2,86.92c2.53,3.44,3.83,9.62,5.22,15.61-.18-7-.66-13-2.21-15.61V53l-5.13-1.49L27.7,49.09,23.08,50l-5.56.19,0,3.07-2,1.73Z"/><path class="cls-3" d="M45.72,61.17l-.53,3.24a9.79,9.79,0,0,1,1.15,4.81c-.16.79-.59,1.16-1.26,1.14l-.43,1.17a1,1,0,0,1-1.42.18,1.88,1.88,0,0,1-1.88.49l-1.2.83-2.38.64c-.82-.08-1.14-.74-.3-1.18l2-1.27.06-2.14-1.17-.68-.51,1-.46.93c-.48.86-1.35.83-1.32.08l.48-2.65A8.44,8.44,0,0,1,40,64.18l.92-3.93Z"/><path class="cls-4" d="M14.81,55.84a6.22,6.22,0,0,0,3.09,2,8.13,8.13,0,0,0,4.91-3.27c.89,4.07,3.33,9.75,4.43,10.6,1.33,1.17,4.28,1.4,7.36.71a17.53,17.53,0,0,0,3-1,11.9,11.9,0,0,0,5.48-4.42c1-2.29-.83-7.64-.63-14.14l.92-8.49L46,25.05c-3.57-6.33-8.36-10-12.91-13H22.81c-2.36,2.21-3.65,5.75-4.35,10,0,0,.12,17.19-.62,21.35A58,58,0,0,1,14.43,53.7,2.23,2.23,0,0,0,14.81,55.84Z"/><path class="cls-6" d="M28.39,19.88l7.62,0L23.93,41.4c-3.43-8.15-4.19-15.89-.1-24.41Z"/><path class="cls-7" d="M28.53,20.16,28.75,23l-1.82,2.7c-.65,4.13-1.75,8.64-1.7,11.85l-1.48,4-1.51-4.11a123.35,123.35,0,0,1,3.39-12.94l.11-3.53,2-1.24Z"/><path class="cls-8" d="M32.05,10.93l4.14,3.3c2.07,6.32-3.11,8.92-6.49,12.44l-2-5.52-4.91,1,1.8-9Z"/><path class="cls-4" d="M34.6,13c3,2.33,1.41,6.9-2.14,11.09-3.21,3.77-8.35,12.19-8.92,18.38,3.19-6.07,8.86-13.6,12-15.76l-.9-2.22,2.06.46a12.09,12.09,0,0,0,2.68-8.25Z"/><path class="cls-4" d="M27.27,12.15c-4.46,4.28-7,22-3.42,29.71-4-4.81-5.25-12.09-3.64-23.51l1.19-.73-.35-1.24,3.79-4.57Z"/><path class="cls-3" d="M26.7,20.17a1.77,1.77,0,0,0,1,1c4.2,1.24,7.64-3.56,7.16-6.38s-.62-4.49-.62-4.49l-8.12,2s-.09.76-.14,1.84C25.92,16,26,18.69,26.7,20.17Z"/><path class="cls-9" d="M26.7,20.17a2.35,2.35,0,0,0,1.33.44c3.83,0,5.06-7.24,5.06-7.24L26,14.13C25.92,16,26,18.69,26.7,20.17Z"/><path class="cls-3" d="M33.63,11.69s-.88,3.52-2.46,5a9.51,9.51,0,0,1-5,2.33,2.55,2.55,0,0,1-2.33-.76c-.62-.73-1-7.42-1-7.42a20,20,0,0,1,.37-4.81c.45-2.12,2-6.82,8.16-6a6,6,0,0,1,5.21,5.21c.31,2.08-1.36,5.79-1.36,5.79Z"/><path d="M35.26,11.53,32.33,13.1l-.22-1.75A1.43,1.43,0,0,0,30.58,9.9a11.11,11.11,0,0,1-5.64-1,4.1,4.1,0,0,1-2.31-2.28c-1-3.81,4-6.75,7.81-6.63C35,.16,36.89,3.24,36.9,6A14.69,14.69,0,0,1,35.26,11.53Z"/><path class="cls-3" d="M34.61,9.16a1,1,0,0,1,1.24.19,1,1,0,0,1,.15.73,2.52,2.52,0,0,1-.26.71A11.82,11.82,0,0,1,35.1,12a1.42,1.42,0,0,1-.78.71c-.36.08-.79.33-1,0a2.93,2.93,0,0,1-.11-1.53A3,3,0,0,1,34.61,9.16Z"/><path class="cls-5" d="M34.6,65.89a17.53,17.53,0,0,0,3-1,11.9,11.9,0,0,0,5.48-4.42c1-2.29-.83-7.64-.63-14.14l.92-8.49L36.66,33.3s.53,8.8.24,14.64C36.57,54.49,34.6,65.89,34.6,65.89Z"/><path class="cls-4" d="M46.34,25.53C47.4,29,48.79,38.8,48.94,46.78L46,64.07c-.92,1.85-5.39,1.56-7.17-.62L40,48.06,36.66,33.3C35.6,27.2,44,21.4,46.34,25.53Z"/><path class="cls-4" d="M46.34,25.53C47.4,29,48.79,38.8,48.94,46.78L46,64.07c-.92,1.85-5.39,1.56-7.17-.62L40,48.06,36.66,33.3C35.6,27.2,44,21.4,46.34,25.53Z"/></g></g></g></svg>