<svg xmlns="http://www.w3.org/2000/svg" xmlns:xlink="http://www.w3.org/1999/xlink" viewBox="0 0 69.68 128.7"><defs><style>.cls-1{isolation:isolate;}.cls-2{opacity:0.2;fill:url(#linear-gradient);}.cls-2,.cls-4,.cls-9{mix-blend-mode:multiply;}.cls-3{fill:#25435c;}.cls-4{fill:#227fbc;}.cls-4,.cls-9{opacity:0.5;}.cls-5{fill:#f2f2f2;}.cls-6{fill:#0071bc;}.cls-7{fill:#fff;}.cls-8,.cls-9{fill:#ffb294;}.cls-10{fill:#1a1a1a;}.cls-11{fill:#333;}.cls-12{fill:#666;}.cls-13{fill:gray;}.cls-14{fill:#4d4d4d;}</style><linearGradient id="linear-gradient" x1="290.95" y1="-61.53" x2="318.69" y2="-61.08" gradientTransform="matrix(1, 0.58, -1, 0.58, -323.37, -27.31)" gradientUnits="userSpaceOnUse"><stop offset="0" stop-color="#fff"/><stop offset="0.24" stop-color="#c8dfe9"/><stop offset="0.49" stop-color="#98c3d6"/><stop offset="0.7" stop-color="#74afc9"/><stop offset="0.88" stop-color="#5fa3c0"/><stop offset="0.99" stop-color="#579ebd"/></linearGradient></defs><g class="cls-1"><g id="Слой_2" data-name="Слой 2"><g id="Layer_1" data-name="Layer 1"><path class="cls-2" d="M37,125.84,6.91,108.49c-6.6-3.81-6.6-10,0-13.86l3.76-2.14c6.6-3.81,17.4-3.81,24,0l30.06,17.35c6.6,3.81,6.6,10,0,13.86L61,125.84C54.37,129.65,43.57,129.65,37,125.84Z"/><path d="M44.65,114.82a18.34,18.34,0,0,0,.66,7.82,6.77,6.77,0,0,0,4.08.66l1.15-.66A10.72,10.72,0,0,0,56.27,124a15.65,15.65,0,0,0,6.93-1.59c1.34-.92,1.65-1.65,1.32-3.09-.27-.82-6.22-1.76-9-3l-3.09-2.16L51,111.85l-6.82.38Z"/><path d="M7.13,90.27c-1.22.39-2.25,1.65-3.21,3.2a6.59,6.59,0,0,0,1.61,4.27l1.6,5.3a8.29,8.29,0,0,0,2.67,3.62,11.27,11.27,0,0,0,4.31,1.6,5.8,5.8,0,0,0,4.48-1.72c.07-1.32-1.19-3.18-2.88-5.22L13.7,97l1.19-3.81-4.56-4.52Z"/><path class="cls-3" d="M54.4,113.9c-.82,3-9.76,3.77-10.91,1.27-.65-3.46-1.22-6.74-1.67-9.86a75.79,75.79,0,0,1-.77-18.22c-1-3.49-3.59-14-5.63-19.53-.78-2.11-1.47-3.5-2-3.51l3.69-8.46,1.49-3.42,7.18,2.11c.85,2.72,1.64,5.4,2.38,8a126.4,126.4,0,0,1,4.56,22.58C53.69,95.8,52.78,105.72,54.4,113.9Z"/><path class="cls-3" d="M39.7,55.82l-3.88,10c-.13.58-.27,1.16-.4,1.75-.28,1.2-.56,2.4-.85,3.57-1.74,7.15-3.63,13.66-6.11,17.62-1.16,3-8.36,4.67-14,8.22-5.88.94-8.94-4.35-7.65-7.52a42.15,42.15,0,0,0,3.47-2.86c3.26-3,5.23-5.43,9.82-7.14,1.06-7.64.56-14.53,2.36-22.11l.11-3.06,14.62,1.31Z"/><path class="cls-4" d="M42.3,62.81c-2.77,5.23-.93,13.66,1.58,23.34l-2.06,19.16a75.79,75.79,0,0,1-.77-18.22c-1-3.49-3.59-14-5.63-19.53-.28,1.2-.56,2.4-.85,3.57-3.21,1.83-6.24,2.64-9.92,1.65l-2.36,8.08-12,5.73c3.26-3,5.23-5.43,9.82-7.14,1.06-7.64.56-14.53,2.36-22.11l.11-3.06,14.62,1.31,1.49-3.42,7.18,2.11c.85,2.72,1.64,5.4,2.38,8C45.64,64,43.88,62.37,42.3,62.81Z"/><path class="cls-3" d="M39,11.84l4.9,15.34s3.59-5.75,1.71-10.7C44.14,12.54,39,11.84,39,11.84Z"/><path class="cls-3" d="M48.8,58.19a6.34,6.34,0,0,1-3.22,2.09,8.45,8.45,0,0,1-5.12-3.41C39.54,61.12,37,67,35.85,67.93,34,69.55,29.16,69.44,25,67.62A12.44,12.44,0,0,1,19.28,63c-1.06-2.39.87-8,.67-14.73l-1-8.86L17.24,23.48A60.69,60.69,0,0,1,29.75,12.54H40.46c2.46,2.3,3.81,6,4.53,10.47,0,0-.12,17.91.65,22.25A60.85,60.85,0,0,0,49.2,56,2.32,2.32,0,0,1,48.8,58.19Z"/><path class="cls-5" d="M34.64,20.71H26.71L39.29,43.14c3.58-8.49,4.37-16.56.11-25.43Z"/><path class="cls-6" d="M34.5,21l-.23,3,1.9,2.82c.68,4.3,1.83,9,1.77,12.35l1.54,4.22,1.57-4.28a125.9,125.9,0,0,0-3.52-13.49L37.41,22l-2.06-1.3Z"/><path class="cls-7" d="M30.83,11.4l-4.31,3.43c-2.16,6.59,3.24,9.3,6.76,13L35.35,22l5.12,1-1.89-9.39Z"/><path class="cls-3" d="M28.18,13.51C25,15.94,26.71,20.7,30.41,25.06c3.34,3.94,8.7,12.7,9.29,19.16C36.38,37.9,30.47,30.05,27.24,27.8l.94-2.32L26,26a12.53,12.53,0,0,1-2.79-8.6Z"/><path class="cls-3" d="M35.82,12.66c4.65,4.47,7.35,22.88,3.56,31,4.16-5,5.47-12.6,3.79-24.5l-1.23-.77.35-1.29-3.94-4.76Z"/><path class="cls-8" d="M36.41,21a1.88,1.88,0,0,1-1.06,1c-4.38,1.29-8-3.71-7.47-6.65s.65-4.67.65-4.67L37,12.81s.09.79.14,1.91C37.22,16.63,37.19,19.48,36.41,21Z"/><path class="cls-9" d="M36.41,21a2.48,2.48,0,0,1-1.38.46c-4,0-5.28-7.54-5.28-7.54l7.39.78C37.22,16.63,37.19,19.48,36.41,21Z"/><path class="cls-8" d="M29.19,12.19s.92,3.66,2.56,5.25A9.9,9.9,0,0,0,37,19.86a2.62,2.62,0,0,0,2.42-.79c.65-.76,1-7.73,1-7.73a20.88,20.88,0,0,0-.39-5C39.61,4.12,38-.78,31.57.11a6.21,6.21,0,0,0-5.43,5.42c-.32,2.17,1.42,6,1.42,6Z"/><path d="M27.49,12l3.05,1.63.23-1.83a1.5,1.5,0,0,1,1.6-1.51,11.53,11.53,0,0,0,5.88-1,4.25,4.25,0,0,0,2.4-2.38c1-4-4.19-7-8.14-6.91-4.78.17-6.72,3.38-6.73,6.21A15.37,15.37,0,0,0,27.49,12Z"/><path class="cls-8" d="M28.17,9.55a1.05,1.05,0,0,0-1.29.2,1,1,0,0,0-.16.75,2.5,2.5,0,0,0,.27.75c.2.41.43.82.67,1.21a1.48,1.48,0,0,0,.81.73c.37.09.82.35,1,0a3.15,3.15,0,0,0-1.33-3.66Z"/><path class="cls-4" d="M25,67.63A12.45,12.45,0,0,1,19.28,63c-1.06-2.39.87-8,.67-14.73l-1-8.86,6.64-5.84a121.85,121.85,0,0,0-3.56,15.17C21.28,54.79,25,67.63,25,67.63Z"/><polygon class="cls-10" points="25.6 92.78 22.42 94.81 3.19 80.61 0.97 65.28 2.8 64.04 25.42 76.93 25.6 92.78"/><polygon class="cls-11" points="22.42 94.81 0 81.86 0.97 65.28 23.39 78.23 22.42 94.81"/><polygon class="cls-10" points="0.97 65.28 0.54 72.68 10.63 81.76 23 84.96 23.39 78.23 0.97 65.28"/><path class="cls-12" d="M9.42,79.25l-.37,3.12a.91.91,0,0,0,.5.93l.57.29A.92.92,0,0,0,11.43,83l.5-2.43Z"/><path class="cls-13" d="M9.15,79.13l-.37,3.12a.91.91,0,0,0,.5.93l.57.28a.92.92,0,0,0,1.31-.63l.49-2.44Z"/><polygon class="cls-14" points="12.36 81.79 8.45 79.53 8.61 78.01 12.52 80.27 12.36 81.79"/><path class="cls-11" d="M9.44,69.89c-.88-.31-1.7-.72-1.34-1.66.75-1.21,1.58-1.92,2.61-1.45Z"/><polygon class="cls-8" points="10.19 61.64 8.36 69.22 9.24 70.92 10.83 72.51 12.77 73.04 14.89 73.34 15.95 72.16 16.88 71.85 17.24 68.75 17.24 66.46 15.34 63.83 15.3 59.81 10.6 58.93 10.19 61.64"/><path class="cls-3" d="M17.24,23.48C15.31,26.71,13.15,35.1,11,43.14L9.24,62.65c.48,2.1,5.06,2.92,7.41,1.16l2.24-17.87,6.35-11.17C27.84,28.86,20.63,19.87,17.24,23.48Z"/><path class="cls-11" d="M15.59,69.07c-.5.3-.76,1.62-.11,1.91,1,.69,1,1.56,1.26,2.91.5.79,1.58.43,1.58-.12C18,71.71,17,69.53,15.59,69.07Z"/></g></g></g></svg>