<?xml version="1.0"?>
<svg xmlns="http://www.w3.org/2000/svg" xmlns:xlink="http://www.w3.org/1999/xlink" xmlns:svgjs="http://svgjs.com/svgjs" version="1.1" width="512" height="512" x="0" y="0" viewBox="0 0 512 512" style="enable-background:new 0 0 512 512" xml:space="preserve" class=""><g><g xmlns="http://www.w3.org/2000/svg"><path d="m40 234.5v223c0 7.995 6.505 14.5 14.5 14.5h216c7.995 0 14.5-6.505 14.5-14.5v-223c0-7.995-6.505-14.5-14.5-14.5h-135.022c-4.142 0-7.5 3.357-7.5 7.5s3.358 7.5 7.5 7.5h134.522v222h-215v-222h45.478c4.142 0 7.5-3.357 7.5-7.5s-3.358-7.5-7.5-7.5h-45.978c-7.995 0-14.5 6.505-14.5 14.5zm313.463-234.5h-91.599c-6.341 0-11.5 5.159-11.5 11.5v168.5h-33.71v-20.916c0-12.406-10.093-22.5-22.5-22.5h-63.307c-12.407 0-22.5 10.094-22.5 22.5v20.916h-53.243c-30.384 0-55.104 24.72-55.104 55.104v221.793c0 30.383 24.72 55.103 55.104 55.103h214.792c30.384 0 55.104-24.72 55.104-55.104v-441.896h28.463c4.142 0 7.5-3.357 7.5-7.5s-3.358-7.5-7.5-7.5zm-230.116 159.084c0-4.136 3.364-7.5 7.5-7.5h63.307c4.136 0 7.5 3.364 7.5 7.5v20.916h-78.307zm186.653 297.812c0 22.114-17.991 40.104-40.104 40.104h-214.792c-22.113 0-40.104-17.99-40.104-40.104v-221.792c0-22.114 17.991-40.104 40.104-40.104h254.896zm0-276.896h-44.636v-15h21.652c4.142 0 7.5-3.357 7.5-7.5s-3.358-7.5-7.5-7.5h-21.652v-15h6.652c4.142 0 7.5-3.357 7.5-7.5s-3.358-7.5-7.5-7.5h-6.652v-15h21.652c4.142 0 7.5-3.357 7.5-7.5s-3.358-7.5-7.5-7.5h-21.652v-15h6.652c4.142 0 7.5-3.357 7.5-7.5s-3.358-7.5-7.5-7.5h-6.652v-15h21.652c4.142 0 7.5-3.357 7.5-7.5s-3.358-7.5-7.5-7.5h-21.652v-15h44.636zm194.5 53.5c4.142 0 7.5-3.357 7.5-7.5v-208.5c0-9.649-7.851-17.5-17.5-17.5h-77.563c-9.649 0-17.5 7.851-17.5 17.5v477c0 9.649 7.851 17.5 17.5 17.5h77.563c9.649 0 17.5-7.851 17.5-17.5v-233.5c0-4.143-3.358-7.5-7.5-7.5s-7.5 3.357-7.5 7.5v233.5c0 1.379-1.122 2.5-2.5 2.5h-77.563c-1.378 0-2.5-1.121-2.5-2.5v-12.5h33.781c4.142 0 7.5-3.357 7.5-7.5s-3.358-7.5-7.5-7.5h-33.781v-28.7h18.781c4.142 0 7.5-3.357 7.5-7.5s-3.358-7.5-7.5-7.5h-18.781v-28.7h33.781c4.142 0 7.5-3.357 7.5-7.5s-3.358-7.5-7.5-7.5h-33.781v-28.7h18.781c4.142 0 7.5-3.357 7.5-7.5s-3.358-7.5-7.5-7.5h-18.781v-28.7h33.781c4.142 0 7.5-3.357 7.5-7.5s-3.358-7.5-7.5-7.5h-33.781v-28.7h18.781c4.142 0 7.5-3.357 7.5-7.5s-3.358-7.5-7.5-7.5h-18.781v-28.7h33.781c4.142 0 7.5-3.357 7.5-7.5s-3.358-7.5-7.5-7.5h-33.781v-28.7h18.781c4.142 0 7.5-3.357 7.5-7.5s-3.358-7.5-7.5-7.5h-18.781v-28.7h33.781c4.142 0 7.5-3.357 7.5-7.5s-3.358-7.5-7.5-7.5h-33.781v-28.7h18.781c4.142 0 7.5-3.357 7.5-7.5s-3.358-7.5-7.5-7.5h-18.781v-28.7h33.781c4.142 0 7.5-3.357 7.5-7.5s-3.358-7.5-7.5-7.5h-33.781v-12.5c0-1.379 1.122-2.5 2.5-2.5h77.563c1.378 0 2.5 1.121 2.5 2.5v208.5c0 4.143 3.358 7.5 7.5 7.5zm-342 192.36c44.035 0 79.86-35.825 79.86-79.86s-35.825-79.86-79.86-79.86-79.86 35.825-79.86 79.86 35.825 79.86 79.86 79.86zm0-144.72c35.764 0 64.86 29.097 64.86 64.86s-29.096 64.86-64.86 64.86-64.86-29.096-64.86-64.86 29.096-64.86 64.86-64.86z" fill="#4caf50" data-original="#000000" style="" class=""/></g></g></svg>
