<svg xmlns="http://www.w3.org/2000/svg" viewBox="0 0 210.51 277.01"><defs><style>.cls-1{fill:#a4e2ea;opacity:0.5;}.cls-2{fill:#492929;}.cls-3{fill:#442626;}.cls-4{fill:#563130;}.cls-5{fill:#d39b7c;}.cls-6{fill:#deb298;}.cls-7{fill:#ddd5bf;}.cls-8{fill:#fff;}.cls-9{fill:#ee4b4e;}.cls-10{fill:#f95d65;}.cls-11{fill:#24417c;}.cls-12{fill:#ffad97;}.cls-13{fill:#ffc5b3;}.cls-14{fill:#f7f1e2;}.cls-15{fill:#bf8466;}.cls-16{fill:#ede6cf;}.cls-17{fill:#6d4443;}.cls-18{fill:#3a63a0;}.cls-19{fill:#ff7878;}.cls-20{fill:#ff9f9f;}.cls-21{fill:#b5b5b5;}.cls-22{fill:#2b4f89;}.cls-23{fill:#dd3740;}</style></defs><g id="Слой_2" data-name="Слой 2"><g id="Layer_1" data-name="Layer 1"><path class="cls-1" d="M96.32,175.1l87.61-50.82-61.88-35.8L34.48,139.29,13.63,151.38a27.38,27.38,0,0,0,0,47.38l21,12.11,114,66.14,61.9-35.77Z"/><polygon class="cls-2" points="169.25 126.64 119.57 97.74 119.57 26.91 169.25 55.81 169.25 126.64"/><polygon class="cls-3" points="169.25 126.64 172.56 124.72 172.56 53.89 169.25 55.81 169.25 126.64"/><polygon class="cls-4" points="121.8 98.98 118.48 97.07 118.48 26.24 121.8 28.15 121.8 98.98"/><polygon class="cls-5" points="34.65 143.23 183.93 56.64 183.93 53.1 34.65 139.69 34.65 143.23"/><polygon class="cls-6" points="183.93 53.1 122.05 17.3 34.48 68.1 96.32 103.92 183.93 53.1"/><path class="cls-3" d="M166.89,99.25s-.43,17.5-.43,21.44.55,12.17-6.38,15.1-16.75,6.75-16.75,6.75l9.3,6a150,150,0,0,0,14.19-7c6.77-4.18,6.06-15.6,6.06-22.85a157.53,157.53,0,0,0-1.23-16.71Z"/><path class="cls-3" d="M143.33,180.61h0a3.72,3.72,0,0,1-3.71-3.71V142.67a3.72,3.72,0,0,1,3.71-3.71h0a3.72,3.72,0,0,1,3.71,3.71V176.9A3.72,3.72,0,0,1,143.33,180.61Z"/><ellipse class="cls-7" cx="143.33" cy="144.31" rx="23.47" ry="12.48"/><rect class="cls-7" x="119.86" y="141.96" width="46.94" height="2.72"/><ellipse class="cls-8" cx="143.33" cy="141.96" rx="23.47" ry="12.48"/><path class="cls-9" d="M165.69,140.6c0,6.57-10,11.9-22.36,11.9S121,147.17,121,140.6s10-11.89,22.36-11.89S165.69,134,165.69,140.6Z"/><polygon class="cls-9" points="122.16 132.96 120.97 140.6 165.69 140.6 164.51 132.96 122.16 132.96"/><ellipse class="cls-10" cx="143.33" cy="134.85" rx="21.48" ry="11.43"/><path class="cls-9" d="M188.72,127.14V101.46c0-9-5.52-19.53-12.26-23.43l-6.4-3.69c-6.74-3.89-12.26.28-12.26,9.27v25.67Z"/><polygon class="cls-9" points="161.92 73.8 156.68 76.91 161.36 80.02 161.92 73.8"/><polygon class="cls-9" points="183.62 130.17 188.72 127.14 182.68 121.19 183.62 130.17"/><path class="cls-10" d="M183.62,130.17V104.49c0-9-5.52-19.53-12.26-23.43L165,77.37c-6.75-3.89-12.26.28-12.26,9.27v25.68Z"/><path class="cls-3" d="M121.33,198.27a7.5,7.5,0,0,1-3.12,6c-1.73,1-3.13-.07-3.13-2.37a7.48,7.48,0,0,1,3.13-6C119.93,194.91,121.33,196,121.33,198.27Z"/><polygon class="cls-3" points="122.51 197.08 120.1 195.67 116.17 204.4 118.68 205.85 122.51 197.08"/><path class="cls-4" d="M123.85,199.72a7.44,7.44,0,0,1-3.12,6c-1.72,1-3.12-.06-3.12-2.36a7.5,7.5,0,0,1,3.12-6C122.46,196.37,123.85,197.42,123.85,199.72Z"/><path class="cls-3" d="M116.4,196.85h0a2.6,2.6,0,0,1,.95-3.55l49.36-28.49a2.6,2.6,0,0,1,3.55.95h0a2.59,2.59,0,0,1-.95,3.55L120,197.8A2.6,2.6,0,0,1,116.4,196.85Z"/><path class="cls-3" d="M166.71,197.8l-49.36-28.49a2.6,2.6,0,0,1-.95-3.55h0a2.6,2.6,0,0,1,3.55-.95l49.36,28.49a2.59,2.59,0,0,1,.95,3.55h0A2.6,2.6,0,0,1,166.71,197.8Z"/><path class="cls-3" d="M169.72,169.76a7.5,7.5,0,0,1-3.12,6c-1.73,1-3.13-.07-3.13-2.37a7.48,7.48,0,0,1,3.13-6C168.32,166.4,169.72,167.46,169.72,169.76Z"/><polygon class="cls-3" points="170.9 168.57 168.49 167.16 164.56 175.89 167.07 177.34 170.9 168.57"/><path class="cls-4" d="M172.25,171.21a7.45,7.45,0,0,1-3.13,6c-1.72,1-3.12-.06-3.12-2.36a7.5,7.5,0,0,1,3.12-6C170.85,167.86,172.25,168.91,172.25,171.21Z"/><path class="cls-3" d="M166.68,199a7.45,7.45,0,0,1-3.13,6c-1.72,1-3.12-.06-3.12-2.36a7.5,7.5,0,0,1,3.12-6C165.28,195.64,166.68,196.7,166.68,199Z"/><polygon class="cls-3" points="167.86 197.81 165.45 196.4 161.52 205.13 164.03 206.58 167.86 197.81"/><path class="cls-4" d="M169.2,200.45a7.49,7.49,0,0,1-3.12,6c-1.73,1-3.13-.06-3.13-2.36a7.48,7.48,0,0,1,3.13-6C167.8,197.1,169.2,198.15,169.2,200.45Z"/><path class="cls-3" d="M119.36,171.38a7.48,7.48,0,0,1-3.13,6c-1.72,1-3.12-.06-3.12-2.36a7.49,7.49,0,0,1,3.12-6C118,168,119.36,169.08,119.36,171.38Z"/><polygon class="cls-3" points="120.54 170.19 118.13 168.78 114.2 177.52 116.71 178.96 120.54 170.19"/><path class="cls-4" d="M121.88,172.84a7.5,7.5,0,0,1-3.12,6c-1.73,1-3.13-.06-3.13-2.36a7.45,7.45,0,0,1,3.13-6C120.48,169.48,121.88,170.54,121.88,172.84Z"/><path class="cls-4" d="M105.52,196.73s-2.24,2.43-5.23,5.35c-2.77,2.7-3.63,3.48-6.2,6-1.5,1.46-.26,2.81,2.6,2.7a51.33,51.33,0,0,0,11.39-2.47,56.86,56.86,0,0,0,8.53-4.45,5.63,5.63,0,0,0,2.53-3.2v-4.5Z"/><path class="cls-11" d="M105.76,146.27c-2.55,18-1.41,49.32-1.41,49.32s.33,3.9,7,3.87c5.13,0,9.35-4.18,9.35-4.18l.53-37.34,2.21-11Q114.62,146.32,105.76,146.27Z"/><path class="cls-4" d="M123.73,208.08s-2.24,2.44-5.23,5.35c-2.77,2.7-3.63,3.48-6.2,6-1.5,1.46-.26,2.81,2.6,2.7a51.72,51.72,0,0,0,11.39-2.46,58.27,58.27,0,0,0,8.53-4.45,5.68,5.68,0,0,0,2.54-3.2V207.5Z"/><path class="cls-11" d="M124,157.62c-2.55,18-1.41,49.33-1.41,49.33s.34,3.89,7,3.87c5.12,0,9.34-4.19,9.34-4.19l.53-37.34,2.21-11Q132.83,157.68,124,157.62Z"/><path class="cls-4" d="M129.67,137.45c3.48,6.18,13,9.05,19.41,8.62,8.73-.59,14.47-2.06,18.65-7.11,2.69-7.31.84-13.91.43-21.34-.49-8.84,4.78-17.92,4.06-28C169.61,81,158.94,73.1,158.94,73.1l-13.64-.25s-5,0-7.94,3.06c-4.51,4.65-4.85,14.88-5.38,23.34-.55,8.82,2,19.19,1.12,26.71C132.91,127.63,131.25,130.44,129.67,137.45Z"/><path class="cls-8" d="M146.5,78.35l4.41,3.16s.93,7.06-2.3,11-6.41,12.74-6.41,12.74-3.78-11.49-1.86-16.72,4-10.71,4-10.71Z"/><polygon class="cls-10" points="143.16 80.97 144.32 85.08 147.17 86.35 150.91 83.76 148.08 79.55 143.16 80.97"/><path class="cls-10" d="M144.83,83.9s-3.29,7.42-4.06,9,0,5.62,0,5.62l1.43,6.7s2.17-6.94,3.45-9.09c.38-3.53,1.76-11.31,1.76-11.31Z"/><path class="cls-3" d="M145.61,71.82a10.64,10.64,0,0,0-4.92,4.09c-1.34,2-2.51,3.73-2.51,3.73l3.3,2L137.76,83a36.35,36.35,0,0,0,.49,9.82,115.06,115.06,0,0,0,3.95,12.44s-.59-12.76,0-16.2c1.38-8,4-11.62,4-11.62a41.87,41.87,0,0,0,1.91-4.59Z"/><path class="cls-12" d="M146.84,70.91l-1.19,6.92a9.28,9.28,0,0,1,2.43,1.72c1.64,1.61,3.66,3.77,6.22,1.57,4.45-3.81,5.08-5.57,5.08-5.57l-2.19-12.17Z"/><path class="cls-13" d="M158.41,50c-2.95-3.76-11.43-6.93-16.95,1.24-5.79,8.57-.31,22.58,4.76,21.76,2.84-.46,9.23-3,12-7.62C161.41,60.24,160.7,52.93,158.41,50Z"/><polygon class="cls-14" points="146.47 73.05 144.32 81.14 148.08 79.55 150.09 85.08 156.68 76.91 148.08 79.55 146.47 73.05"/><path class="cls-3" d="M158.51,70.69s-4,8.07-5.81,10.46a101.33,101.33,0,0,0-8.29,14.3c-1,2.19-2.21,9.81-2.21,9.81s1.74-3.29,7.18-8.91A75.72,75.72,0,0,1,156,90.27l-2.45-4.33,5.37,1.69A17.09,17.09,0,0,0,161.53,82c.49-2.88.68-5.43.39-6.42A10.33,10.33,0,0,0,158.51,70.69Z"/><path class="cls-4" d="M155.13,45.54c-5.19-6.27-16.48-.66-17.41,4.51-1.15,6.38-1.15,6.38-3.83,8.9,8.5,5.65,18.85-2.53,18.88-2.55-.5,4.7,2.16,6.35,2.73,6.14.54-2,1.41-2.51,2.41-1.65s1,4.71,1,4.71a13.8,13.8,0,0,0,4.24-9.83C163.1,51.94,162.18,46.09,155.13,45.54Z"/><polygon class="cls-4" points="34.76 204.74 12.96 192.12 12.96 121.29 34.76 133.91 34.76 204.74"/><polygon class="cls-3" points="34.76 204.74 38.08 202.83 38.08 132 34.76 133.91 34.76 204.74"/><polygon class="cls-15" points="34.76 172.29 145.18 236.05 145.18 205.77 34.76 141.51 34.76 172.29"/><polygon class="cls-4" points="148.5 270.87 200.22 241.19 200.22 170.36 148.5 200.04 148.5 270.87"/><polygon class="cls-3" points="148.5 270.87 145.18 268.96 145.18 198.13 148.5 200.04 148.5 270.87"/><polygon class="cls-4" points="198.56 242.15 201.88 240.23 201.88 169.4 198.56 171.31 198.56 242.15"/><polygon class="cls-5" points="148.61 209.36 12.96 130.63 12.96 127.09 148.61 205.83 148.61 209.36"/><polygon class="cls-15" points="148.61 205.83 210.51 170.06 210.51 173.38 148.61 209.15 148.61 205.83"/><path class="cls-5" d="M96.32,107.23,34.48,71.41,13.63,83.51a27.37,27.37,0,0,0,0,47.37l21,12.12,114,66.13v-3.3Z"/><path class="cls-6" d="M96.32,103.92,34.48,68.1,13.63,80.2a27.38,27.38,0,0,0,0,47.38l21,12.11,114,66.14,61.9-35.77Z"/><path class="cls-3" d="M142.13,73.32c-.39-.55-3.42-3.11-7.89,1.28-6.09,6-10.88,15.67-16.11,19.77-1.21,1-22.22,11.71-22.22,11.71l4.52,9.33s12.86-6.76,17.7-8.93c5.59-2.51,11.62-6,14-9.73C132.6,76.84,142.13,73.32,142.13,73.32Z"/><polygon class="cls-8" points="140.34 140.75 114.79 125.96 105.33 131.41 130.93 146.19 140.34 140.75"/><polygon class="cls-7" points="130.93 147.53 140.34 142.07 140.34 140.75 130.93 146.19 130.93 147.53"/><polygon class="cls-16" points="130.93 146.19 130.93 147.53 105.33 132.67 105.33 131.41 130.93 146.19"/><polygon class="cls-7" points="127.62 144.28 127.14 144.01 136.56 138.56 137.04 138.84 127.62 144.28"/><polygon class="cls-7" points="123.89 142.13 123.41 141.85 132.83 136.41 133.32 136.68 123.89 142.13"/><polygon class="cls-7" points="120.17 139.98 119.69 139.7 129.11 134.25 129.6 134.53 120.17 139.98"/><polygon class="cls-7" points="116.47 137.83 116 137.55 125.42 132.11 125.9 132.38 116.47 137.83"/><polygon class="cls-7" points="138.52 141.8 139 141.52 113.41 126.74 112.93 127.01 138.52 141.8"/><polygon class="cls-7" points="136.67 142.93 137.14 142.66 111.52 127.84 111.04 128.12 136.67 142.93"/><polygon class="cls-7" points="134.73 144.01 135.21 143.73 109.62 128.94 109.13 129.22 134.73 144.01"/><polygon class="cls-7" points="132.8 145.17 133.32 144.92 107.64 130.08 107.16 130.36 132.8 145.17"/><polygon class="cls-7" points="112.84 135.72 112.36 135.44 121.79 130 122.27 130.27 112.84 135.72"/><polygon class="cls-7" points="109.25 133.65 108.77 133.38 118.2 127.93 118.68 128.2 109.25 133.65"/><path class="cls-8" d="M115.15,118.64l-5.25-3h0a1.29,1.29,0,0,0-.68-.2c-3.77,0-8,6.72-8,6.72l5.34,3.07,8.84-5.92Z"/><path class="cls-7" d="M106.54,125.2l9.51-5.5s-.5-1.22-1.51-1.22C110.76,118.48,106.54,125.2,106.54,125.2Z"/><path class="cls-7" d="M103.28,123.31l.56.32a26.88,26.88,0,0,1,1.81-2.45l-.57-.32A27.82,27.82,0,0,0,103.28,123.31Z"/><path class="cls-4" d="M68.41,96.72l-15.27,8.82a5.2,5.2,0,0,1-4.66-.2L22.29,90.22c-1.37-.79-1.52-2-.33-2.68l15.27-8.82a5.2,5.2,0,0,1,4.66.19L68.07,94C69.45,94.82,69.6,96,68.41,96.72Z"/><rect class="cls-4" x="21.16" y="86.88" width="1.52" height="1.86"/><rect class="cls-4" x="67.69" y="93.89" width="1.52" height="1.57"/><path class="cls-17" d="M68.41,95l-15.27,8.81a5.2,5.2,0,0,1-4.66-.19L22.29,88.52c-1.37-.79-1.52-2-.33-2.69L37.23,77a5.2,5.2,0,0,1,4.66.19L68.07,92.33C69.45,93.12,69.6,94.33,68.41,95Z"/><polygon class="cls-8" points="26.02 86.98 40.17 78.77 65.31 93.87 51.17 102.08 26.02 86.98"/><path class="cls-9" d="M25.62,83.72l4.23,2.63,9.25-5.59-4-2.5s-1.24.75-2,1.15-1.87-1.17-4.38.15c-2.85,1.51.08,2.37-.84,2.89C27.14,82.83,25.62,83.72,25.62,83.72Z"/><polygon class="cls-14" points="90.88 146.69 78.94 139.79 74.48 146.69 81.47 152.77 90.88 146.69"/><path class="cls-7" d="M105.63,105.51v35a3.4,3.4,0,0,1-5.09,3L59.38,119.67a3.4,3.4,0,0,1-1.69-3v-35a3.4,3.4,0,0,1,5.09-2.94l41.15,23.76A3.41,3.41,0,0,1,105.63,105.51Z"/><polygon class="cls-7" points="103.95 143.42 101.67 144.74 99.01 141.96 104.29 138.73 103.95 143.42"/><polygon class="cls-7" points="59.17 78.95 57.2 80.09 61.13 80.15 59.17 78.95"/><path class="cls-16" d="M103.43,106.8v35a3.39,3.39,0,0,1-5.09,2.94L57.18,121A3.4,3.4,0,0,1,55.49,118V83a3.39,3.39,0,0,1,5.09-2.94l41.15,23.76A3.39,3.39,0,0,1,103.43,106.8Z"/><polygon class="cls-14" points="71.15 117.62 71.15 148.54 80.56 153.99 80.56 123.09 71.15 117.62"/><polygon class="cls-8" points="71.15 117.62 72.38 116.93 81.8 122.4 80.56 123.09 71.15 117.62"/><polygon class="cls-7" points="81.8 122.4 80.56 123.09 80.56 153.99 81.8 153.3 81.8 122.4"/><polygon class="cls-7" points="81.47 153.48 90.88 148.02 90.88 146.69 81.47 152.14 81.47 153.48"/><polygon class="cls-8" points="152.98 151.91 126.39 167.32 144.34 177.71 170.92 162.27 152.98 151.91"/><polygon class="cls-9" points="142.33 160.53 134.99 164.77 149.03 172.81 156.38 168.57 142.33 160.53"/><polygon class="cls-17" points="144.34 159.37 143.76 159.7 157.81 167.74 158.39 167.41 144.34 159.37"/><polygon class="cls-17" points="145.65 158.61 145.06 158.95 159.12 167 159.7 166.65 145.65 158.61"/><polygon class="cls-17" points="147.03 157.81 146.45 158.15 160.5 166.2 161.08 165.86 147.03 157.81"/><polygon class="cls-17" points="148.36 157.05 147.78 157.38 161.83 165.42 162.41 165.09 148.36 157.05"/><polygon class="cls-17" points="149.67 156.29 149.08 156.63 163.14 164.68 163.72 164.33 149.67 156.29"/><polygon class="cls-17" points="151.05 155.49 150.47 155.83 164.52 163.88 165.1 163.54 151.05 155.49"/><polygon class="cls-17" points="133.5 165.63 132.92 165.96 146.98 174 147.56 173.67 133.5 165.63"/><polygon class="cls-18" points="153.88 153.84 151.83 155.02 165.88 163.07 167.93 161.88 153.88 153.84"/><polygon class="cls-16" points="126.39 167.32 126.39 168.62 144.34 179.01 144.34 177.71 126.39 167.32"/><polygon class="cls-7" points="170.9 162.28 144.34 177.71 144.34 179.01 170.9 163.58 170.9 162.28"/><polygon class="cls-8" points="152.98 149.26 126.39 164.66 144.34 175.05 170.92 159.61 152.98 149.26"/><polygon class="cls-9" points="142.33 157.87 134.99 162.11 149.03 170.15 156.38 165.91 142.33 157.87"/><polygon class="cls-17" points="144.34 156.71 143.76 157.04 157.81 165.08 158.39 164.75 144.34 156.71"/><polygon class="cls-17" points="145.65 155.95 145.06 156.29 159.12 164.34 159.7 163.99 145.65 155.95"/><polygon class="cls-17" points="147.03 155.15 146.45 155.49 160.5 163.54 161.08 163.2 147.03 155.15"/><polygon class="cls-17" points="148.36 154.39 147.78 154.72 161.83 162.76 162.41 162.43 148.36 154.39"/><polygon class="cls-17" points="149.67 153.63 149.08 153.97 163.14 162.02 163.72 161.67 149.67 153.63"/><polygon class="cls-17" points="151.05 152.83 150.47 153.17 164.52 161.22 165.1 160.88 151.05 152.83"/><polygon class="cls-17" points="133.5 162.97 132.92 163.3 146.98 171.34 147.56 171.01 133.5 162.97"/><polygon class="cls-11" points="153.88 151.18 151.83 152.36 165.88 160.41 167.93 159.22 153.88 151.18"/><polygon class="cls-16" points="126.39 164.66 126.39 165.96 144.34 176.35 144.34 175.05 126.39 164.66"/><polygon class="cls-7" points="170.9 159.62 144.34 175.05 144.34 176.35 170.9 160.92 170.9 159.62"/><polygon class="cls-8" points="152.98 146.07 126.39 161.48 144.34 171.86 170.92 156.42 152.98 146.07"/><polygon class="cls-9" points="142.33 154.69 134.99 158.92 149.03 166.97 156.38 162.73 142.33 154.69"/><polygon class="cls-17" points="144.34 153.52 143.76 153.86 157.81 161.9 158.39 161.57 144.34 153.52"/><polygon class="cls-17" points="145.65 152.76 145.06 153.1 159.12 161.15 159.7 160.81 145.65 152.76"/><polygon class="cls-17" points="147.03 151.97 146.45 152.31 160.5 160.36 161.08 160.01 147.03 151.97"/><polygon class="cls-17" points="148.36 151.2 147.78 151.54 161.83 159.58 162.41 159.25 148.36 151.2"/><polygon class="cls-17" points="149.67 150.44 149.08 150.78 163.14 158.83 163.72 158.49 149.67 150.44"/><polygon class="cls-17" points="151.05 149.65 150.47 149.99 164.52 158.04 165.1 157.69 151.05 149.65"/><polygon class="cls-17" points="133.5 159.78 132.92 160.12 146.98 168.16 147.56 167.83 133.5 159.78"/><polygon class="cls-11" points="153.88 147.99 151.83 149.17 165.88 157.22 167.93 156.03 153.88 147.99"/><polygon class="cls-16" points="126.39 161.48 126.39 162.78 144.34 173.16 144.34 171.86 126.39 161.48"/><polygon class="cls-7" points="170.9 156.43 144.34 171.86 144.34 173.16 170.9 157.73 170.9 156.43"/><ellipse class="cls-4" cx="152.98" cy="175.65" rx="5.39" ry="2.87"/><path class="cls-10" d="M152,169.46c-.42,0-.76-.18-.76-.4v13.66h1.52V169.06C152.8,169.28,152.46,169.46,152,169.46Z"/><path class="cls-19" d="M151.28,167.07v2c0-.23.34-.41.76-.41s.76.18.76.41v-2Z"/><path class="cls-19" d="M152,168.65c-.42,0-.76.18-.76.41s.34.4.76.4.76-.18.76-.4S152.46,168.65,152,168.65Z"/><path class="cls-20" d="M152.8,167.07c0,.22-.34.4-.76.4s-.76-.18-.76-.4.34-.41.76-.41S152.8,166.84,152.8,167.07Z"/><path class="cls-18" d="M157.46,170.91c-.4-.1-.69-.36-.64-.57l-3.16,13.29,1.48.35,3.16-13.29C158.24,170.9,157.87,171,157.46,170.91Z"/><path class="cls-3" d="M157.28,168.4l-.46,1.94c.05-.22.42-.32.83-.22s.7.35.65.57l.46-1.94Z"/><path class="cls-3" d="M157.65,170.12c-.41-.1-.78,0-.83.22s.24.47.64.57.78,0,.84-.22S158.06,170.22,157.65,170.12Z"/><path class="cls-17" d="M158.76,168.75c0,.22-.43.32-.84.22s-.69-.35-.64-.57.42-.31.83-.22S158.81,168.54,158.76,168.75Z"/><path class="cls-18" d="M148.09,171.53c-.4.12-.78.05-.85-.16l4.11,13,1.45-.46-4.11-13C148.76,171.12,148.49,171.4,148.09,171.53Z"/><path class="cls-3" d="M146.64,169.47l.6,1.9c-.07-.22.2-.49.6-.62s.78-.05.85.16l-.6-1.9Z"/><path class="cls-3" d="M147.84,170.75c-.4.13-.67.4-.6.62s.45.28.85.16.67-.41.6-.62S148.24,170.63,147.84,170.75Z"/><path class="cls-17" d="M148.09,169c.07.22-.2.49-.6.62s-.78.05-.85-.16.21-.49.61-.61S148,168.8,148.09,169Z"/><path class="cls-3" d="M153,178.52c-3,0-5.39-1.29-5.39-2.87v14.19h10.78V175.65C158.37,177.23,156,178.52,153,178.52Z"/><path class="cls-3" d="M158.37,189.84c0,1.58-2.42,2.86-5.39,2.86s-5.39-1.28-5.39-2.86S150,187,153,187,158.37,188.25,158.37,189.84Z"/><path class="cls-4" d="M118.14,154.59l-9.54,5.51a2.06,2.06,0,0,1-1.85-.08l-4.63-2.67c-.54-.32-.6-.79-.13-1.07l9.55-5.51a2,2,0,0,1,1.84.08l4.63,2.67C118.56,153.84,118.61,154.31,118.14,154.59Z"/><rect class="cls-4" x="101.67" y="155.77" width="1.02" height="0.99"/><rect class="cls-4" x="115.76" y="153.14" width="2.7" height="1.17"/><path class="cls-17" d="M118.14,153.57l-9.54,5.51a2.06,2.06,0,0,1-1.85-.08l-4.63-2.67c-.54-.31-.6-.79-.13-1.06l9.55-5.51a2,2,0,0,1,1.84.07L118,152.5C118.56,152.82,118.61,153.3,118.14,153.57Z"/><polygon class="cls-8" points="102.84 155.63 107.63 158.53 116.13 153.62 111.33 150.72 102.84 155.63"/><path class="cls-21" d="M115.13,151.67c0,.17-.27.32-.61.32s-.61-.15-.61-.32.28-.33.61-.33S115.13,151.49,115.13,151.67Z"/><path class="cls-13" d="M137,122.93c-3.72,1.12-7.15,1.87-11,3.1-3.53,1.11-7,3.79-6.56,7.17.73,5.85,15.56,1.4,17.63-.12,1.1-.81,5.55-3.19,5.55-3.19S141.83,126.25,137,122.93Z"/><path class="cls-3" d="M168.38,82.62c-7.18.8-10.42,32.16-10.42,32.16s-15.39,4.14-23.09,7.12c7,4.84,4.75,11,4.75,11s6.11-1.36,13.7-3.12c6.46-1.5,11.15-3,13.43-6.67s3.19-5.11,4.15-11.95C171.94,103.81,178,93.08,168.38,82.62Z"/><polygon class="cls-11" points="127.14 24.43 127.14 13.1 116.24 6.53 116.24 30.36 137.09 42.91 137.09 30.44 127.14 24.43"/><polygon class="cls-11" points="137.09 30.44 138.53 29.6 138.53 42.07 137.09 42.91 137.09 30.44"/><polygon class="cls-11" points="127.14 13.1 128.58 12.26 128.58 23.59 127.14 24.43 127.14 13.1"/><polygon class="cls-18" points="128.58 23.59 127.14 24.43 137.09 30.44 138.53 29.6 128.58 23.59"/><polygon class="cls-18" points="117.67 5.68 116.24 6.53 127.14 13.11 128.58 12.26 117.67 5.68"/><polygon class="cls-11" points="117.62 7.36 117.62 19.09 108.21 12.26 117.62 7.36"/><polygon class="cls-16" points="112.42 0 132.6 12.15 132.6 44.38 112.42 32.09 112.42 0"/><polygon class="cls-7" points="110.6 1.83 130.77 13.98 130.77 46.21 110.6 33.92 110.6 1.83"/><polygon class="cls-22" points="117.98 29.77 117.98 18.44 107.08 11.86 107.08 35.7 127.93 48.25 127.93 35.78 117.98 29.77"/><polygon class="cls-11" points="127.93 35.78 138.26 29.75 138.26 42.22 127.93 48.25 127.93 35.78"/><polygon class="cls-11" points="117.98 18.44 119.42 17.6 119.42 28.93 117.98 29.77 117.98 18.44"/><polygon class="cls-18" points="119.42 28.93 117.98 29.77 127.93 35.78 129.37 34.94 119.42 28.93"/><polygon class="cls-18" points="108.51 11.02 107.08 11.86 117.98 18.44 119.42 17.6 108.51 11.02"/><polygon class="cls-18" points="107.08 11.86 110.6 9.81 110.6 11.41 108.41 12.67 107.08 11.86"/><polygon class="cls-18" points="127.3 34.4 136.58 29.05 137.97 29.92 128.58 35.4 127.3 34.4"/><polygon class="cls-23" points="110.07 34.24 110.07 22.9 99.16 16.33 99.16 40.16 120.02 52.71 120.02 40.25 110.07 34.24"/><polygon class="cls-23" points="120.02 40.25 121.45 39.4 121.45 51.87 120.02 52.71 120.02 40.25"/><polygon class="cls-11" points="110.07 22.9 111.5 22.06 111.5 33.39 110.07 34.23 110.07 22.9"/><polygon class="cls-10" points="111.5 33.39 110.07 34.23 120.02 40.25 121.45 39.4 111.5 33.39"/><polygon class="cls-18" points="100.6 15.48 99.16 16.33 110.07 22.91 111.5 22.07 100.6 15.48"/><polygon class="cls-23" points="100.55 17.16 100.55 28.9 91.13 22.06 100.55 17.16"/><polygon class="cls-16" points="95.35 9.8 115.52 21.95 115.52 54.18 95.35 41.89 95.35 9.8"/><polygon class="cls-7" points="93.52 11.63 113.7 23.78 113.7 56.01 93.52 43.72 93.52 11.63"/><polygon class="cls-9" points="100.91 39.57 100.91 28.24 90 21.66 90 45.5 110.86 58.05 110.86 45.58 100.91 39.57"/><polygon class="cls-23" points="110.86 45.58 121.18 39.55 121.18 52.02 110.86 58.05 110.86 45.58"/><polygon class="cls-23" points="100.91 28.24 102.34 27.4 102.34 38.73 100.91 39.57 100.91 28.24"/><polygon class="cls-10" points="102.34 38.73 100.91 39.57 110.86 45.58 112.29 44.74 102.34 38.73"/><polygon class="cls-10" points="91.44 20.82 90 21.66 100.91 28.25 102.34 27.4 91.44 20.82"/><polygon class="cls-10" points="90 21.66 93.52 19.61 93.52 21.21 91.33 22.47 90 21.66"/><polygon class="cls-10" points="110.22 44.2 119.51 38.86 120.89 39.73 111.5 45.2 110.22 44.2"/><path class="cls-4" d="M82,53.17l18.37,10.58a1.48,1.48,0,0,1,0,2.55L84.68,75.74a6.86,6.86,0,0,1-7,.06L61.19,66.24a2.28,2.28,0,0,1,0-3.92l15.13-9.1A5.6,5.6,0,0,1,82,53.17Z"/><rect class="cls-4" x="98.53" y="62.7" width="2.55" height="2.05" transform="translate(199.61 127.46) rotate(180)"/><rect class="cls-4" x="60.05" y="61.74" width="4.54" height="2.4" transform="translate(124.64 125.87) rotate(180)"/><path class="cls-17" d="M82,50.92,100.34,61.5a1.48,1.48,0,0,1,0,2.55L84.68,73.49a6.86,6.86,0,0,1-7,.06L61.19,64a2.28,2.28,0,0,1,0-3.92L76.28,51A5.6,5.6,0,0,1,82,50.92Z"/><path class="cls-4" d="M93.45,59.66l4.39,2.53a.36.36,0,0,1,0,.61L94.1,65.05a1.64,1.64,0,0,1-1.67,0l-4-2.29a.54.54,0,0,1,0-.93l3.62-2.18A1.33,1.33,0,0,1,93.45,59.66Z"/><path class="cls-4" d="M80.2,52l4.4,2.53a.36.36,0,0,1,0,.61l-3.75,2.25a1.62,1.62,0,0,1-1.66,0l-4-2.29a.54.54,0,0,1,0-.93L78.84,52A1.33,1.33,0,0,1,80.2,52Z"/><path class="cls-4" d="M98,62.38a21.92,21.92,0,0,0-7.75-9,13.49,13.49,0,0,0-11.11-1.5v2.85a12.77,12.77,0,0,1,7.12,1.87c3.11,2.12,5.32,6.72,5.32,6.72Z"/><path class="cls-4" d="M94,64.73a21.91,21.91,0,0,0-7.75-9.05,13.44,13.44,0,0,0-11.1-1.49l.43.24,5.25,2.93a4.06,4.06,0,0,1,4.66.24c3.1,2.13,2.72,4.61,2.72,4.61Z"/><polygon class="cls-8" points="74.52 57.16 64.99 62.93 62.5 61.51 72.05 55.77 74.52 57.16"/><polygon class="cls-16" points="77.33 59.06 75.66 60.08 74.05 59.14 75.73 58.15 77.33 59.06"/><polygon class="cls-16" points="74.9 60.52 73.23 61.54 71.62 60.6 73.31 59.61 74.9 60.52"/><polygon class="cls-16" points="72.49 61.94 70.82 62.97 69.21 62.03 70.9 61.04 72.49 61.94"/><polygon class="cls-16" points="69.99 63.47 68.33 64.49 66.72 63.55 68.4 62.57 69.99 63.47"/><polygon class="cls-16" points="80.37 60.81 78.71 61.83 77.09 60.89 78.78 59.9 80.37 60.81"/><polygon class="cls-16" points="77.95 62.27 76.28 63.29 74.67 62.35 76.35 61.36 77.95 62.27"/><polygon class="cls-16" points="75.54 63.7 73.87 64.72 72.26 63.78 73.94 62.79 75.54 63.7"/><polygon class="cls-16" points="73.04 65.22 71.37 66.25 69.76 65.31 71.45 64.32 73.04 65.22"/><polygon class="cls-16" points="83.47 62.59 81.8 63.62 80.19 62.68 81.87 61.69 83.47 62.59"/><polygon class="cls-16" points="81.04 64.05 79.37 65.08 77.76 64.14 79.45 63.15 81.04 64.05"/><polygon class="cls-16" points="78.63 65.48 76.96 66.5 75.35 65.56 77.04 64.58 78.63 65.48"/><polygon class="cls-16" points="76.13 67 74.47 68.03 72.85 67.09 74.54 66.1 76.13 67"/><polygon class="cls-16" points="86.45 64.32 84.78 65.34 83.17 64.4 84.86 63.41 86.45 64.32"/><polygon class="cls-16" points="84.02 65.77 82.35 66.8 80.74 65.86 82.43 64.87 84.02 65.77"/><polygon class="cls-16" points="81.61 67.2 79.94 68.23 78.33 67.29 80.02 66.3 81.61 67.2"/><polygon class="cls-16" points="79.11 68.73 77.45 69.75 75.84 68.81 77.52 67.83 79.11 68.73"/><polygon class="cls-9" points="90.11 66.44 86.02 68.93 84.41 67.99 88.52 65.54 90.11 66.44"/><polygon class="cls-10" points="85.28 69.33 81.11 71.88 79.5 70.94 83.68 68.43 85.28 69.33"/><path class="cls-4" d="M110.86,77.83h0a6.39,6.39,0,0,0,5.36-3.63,5.88,5.88,0,0,0,.44-4.77c-1.08-3.08-4.86-6-11.91-9.15a56,56,0,0,1-9.92-6.42c-4.27-3.21-8-6-10.77-5.39a4,4,0,0,0-2.65,2.13l1.12.63a2.75,2.75,0,0,1,1.79-1.49c2.25-.46,5.88,2.26,9.73,5.15a56.8,56.8,0,0,0,10.17,6.57c6.61,3,10.28,5.71,11.22,8.4a4.57,4.57,0,0,1-.37,3.74,5.06,5.06,0,0,1-4.21,2.93h0c-2.13,0-4.21-1.83-6-5.3-2.65-5.11-9.14-8.84-9.42-9l-.64,1.12c.06,0,6.44,3.71,8.91,8.48C106.26,76.78,109,77.83,110.86,77.83Z"/></g></g></svg>