<svg xmlns="http://www.w3.org/2000/svg" xmlns:xlink="http://www.w3.org/1999/xlink" viewBox="0 0 186.48 184.83"><defs><style>.cls-1{isolation:isolate;}.cls-2{fill:#e3e5ef;}.cls-17,.cls-2,.cls-20,.cls-21,.cls-36,.cls-37,.cls-46,.cls-65,.cls-69{mix-blend-mode:multiply;}.cls-3{fill:#76757c;}.cls-4{fill:#5c5b63;}.cls-5{fill:#c4c8d8;}.cls-6{fill:#d9dbe6;}.cls-7{fill:#2d2c37;}.cls-8{fill:#4b4a53;}.cls-9{fill:#42414b;}.cls-10{fill:#393842;}.cls-11{fill:#25242f;}.cls-12{fill:#f5f5f5;}.cls-13{fill:url(#Ѕезым_нный_градиент_45);}.cls-14{fill:#8e8e8e;}.cls-15{fill:#6f7abd;}.cls-16{fill:url(#Ѕезым_нный_градиент_45-2);}.cls-18,.cls-21{fill:#e6e7f2;}.cls-19{fill:#5c6467;}.cls-20{fill:#e6eaf2;}.cls-22{fill:#6a3646;}.cls-23{fill:#febfbf;}.cls-24{fill:#e9f0f9;}.cls-25{fill:#dde8f6;}.cls-26{fill:url(#Ѕезым_нный_градиент_45-3);}.cls-27{fill:#fff;}.cls-28{fill:url(#Ѕезым_нный_градиент_3);}.cls-29{fill:#fec7c7;}.cls-30{fill:url(#Ѕезым_нный_градиент_35);}.cls-31{fill:url(#Ѕезым_нный_градиент_26);}.cls-32{fill:#754554;}.cls-33{fill:url(#Ѕезым_нный_градиент_4);}.cls-34{fill:#eff0f5;}.cls-35{fill:url(#Ѕезым_нный_градиент_3-2);}.cls-36{fill:#d1efeb;}.cls-37{fill:#dedede;}.cls-38{fill:#c9c9c9;}.cls-39{fill:#91898c;}.cls-40{fill:#6b6164;}.cls-41{fill:#ebe7e3;}.cls-42{fill:#d9d3cc;}.cls-43{fill:#e8b687;}.cls-44{fill:#ded8d1;}.cls-45{fill:#ae835b;}.cls-46{fill:#e6d5d5;}.cls-47{fill:#41464f;}.cls-48{fill:url(#Ѕезым_нный_градиент_1660);}.cls-49{fill:#f1f1f3;}.cls-50{fill:#494f59;}.cls-51{fill:#323741;}.cls-52{fill:#71757c;}.cls-53{fill:#595e66;}.cls-54{fill:#f6f6f8;}.cls-55{fill:#cfd1dc;}.cls-56{fill:#3b3f47;}.cls-57{fill:#619347;}.cls-58{fill:#c99a6b;}.cls-59{fill:#c5c9d8;}.cls-60{fill:#dadae8;}.cls-61{fill:#e7e7f0;}.cls-62{fill:#f4f5fa;}.cls-63{fill:#57565e;}.cls-64{fill:#e5e8f5;}.cls-65{fill:#becdd4;}.cls-66{fill:url(#Ѕезым_нный_градиент_1914);}.cls-67{fill:#d3d3e3;}.cls-68{fill:#fa9698;}.cls-69{fill:#a8b0c2;}.cls-70{fill:url(#Ѕезым_нный_градиент_3-3);}.cls-71{fill:#626170;}.cls-72{fill:#504f60;}.cls-73{fill:#4f5997;}.cls-74{fill:#8c92b0;}.cls-75{fill:#a76478;}.cls-76{fill:url(#Ѕезым_нный_градиент_4-2);}.cls-77{opacity:0.54;}.cls-78{fill:#96acb0;}.cls-79{fill:#aec5cb;}.cls-80{fill:#d5e7ea;}</style><linearGradient id="Ѕезым_нный_градиент_45" x1="1805.6" y1="135.98" x2="1813.85" y2="135.98" gradientTransform="translate(-1718.32)" gradientUnits="userSpaceOnUse"><stop offset="0.12" stop-color="#fec7c7"/><stop offset="0.97" stop-color="#ffadb7"/></linearGradient><linearGradient id="Ѕезым_нный_градиент_45-2" x1="-1632.02" y1="138.43" x2="-1624.67" y2="138.43" gradientTransform="matrix(-1, 0, 0, 1, -1533.02, 0)" xlink:href="#Ѕезым_нный_градиент_45"/><linearGradient id="Ѕезым_нный_градиент_45-3" x1="1541.04" y1="-16.54" x2="1536.19" y2="-23.13" gradientTransform="translate(-1417.1 -72.8) rotate(5.74)" xlink:href="#Ѕезым_нный_градиент_45"/><linearGradient id="Ѕезым_нный_градиент_3" x1="1533.28" y1="-17.99" x2="1538.89" y2="-17.99" gradientTransform="translate(-1417.1 -72.8) rotate(5.74)" gradientUnits="userSpaceOnUse"><stop offset="0.12" stop-color="#fca4b5"/><stop offset="0.99" stop-color="#ffadb7"/></linearGradient><linearGradient id="Ѕезым_нный_градиент_35" x1="1531.19" y1="-24.52" x2="1530.2" y2="-24.41" gradientTransform="translate(-1417.1 -72.8) rotate(5.74)" gradientUnits="userSpaceOnUse"><stop offset="0.12" stop-color="#fec7c7"/><stop offset="0.99" stop-color="#ffdbdb"/></linearGradient><linearGradient id="Ѕезым_нный_градиент_26" x1="1530.02" y1="-24.5" x2="1531.6" y2="-24.5" gradientTransform="translate(-1417.1 -72.8) rotate(5.74)" gradientUnits="userSpaceOnUse"><stop offset="0.19" stop-color="#ffdcdc"/><stop offset="0.9" stop-color="#fec7c7"/></linearGradient><linearGradient id="Ѕезым_нный_градиент_4" x1="1539.62" y1="-24.86" x2="1542.2" y2="-24.86" gradientTransform="translate(-1417.1 -72.8) rotate(5.74)" gradientUnits="userSpaceOnUse"><stop offset="0.12" stop-color="#feb9b8"/><stop offset="1" stop-color="#ffdede"/></linearGradient><linearGradient id="Ѕезым_нный_градиент_3-2" x1="1540.04" y1="-25.03" x2="1541.82" y2="-25.03" xlink:href="#Ѕезым_нный_градиент_3"/><linearGradient id="Ѕезым_нный_градиент_1660" x1="51.29" y1="65.39" x2="77.16" y2="65.39" gradientUnits="userSpaceOnUse"><stop offset="0" stop-color="#c4c8d8"/><stop offset="0" stop-color="#c0c4d5"/><stop offset="0.01" stop-color="#b4b9cd"/><stop offset="0.01" stop-color="#a0a6c0"/><stop offset="0.25" stop-color="#a0a6c0"/><stop offset="0.26" stop-color="#acb1c7"/><stop offset="0.27" stop-color="#bdc0d2"/><stop offset="0.29" stop-color="#c8cad8"/><stop offset="0.31" stop-color="#cbcdda"/><stop offset="0.42" stop-color="#d0d2dd"/><stop offset="0.43" stop-color="#d3d4df"/><stop offset="0.45" stop-color="#e2e2e9"/><stop offset="0.46" stop-color="#e8e7ec"/><stop offset="0.94" stop-color="#e8e7ec"/><stop offset="0.98" stop-color="#e8e7ec"/><stop offset="0.99" stop-color="#dddee6"/><stop offset="1" stop-color="#d0d3df"/></linearGradient><linearGradient id="Ѕезым_нный_градиент_1914" x1="-1136.13" y1="99" x2="-1115.56" y2="63.38" gradientTransform="matrix(-1, 0, 0, 1, -1046.03, 0)" gradientUnits="userSpaceOnUse"><stop offset="0.01" stop-color="#a0a6c0"/><stop offset="0.4" stop-color="#a0a6c0"/><stop offset="0.4" stop-color="#a2a8c2"/><stop offset="0.41" stop-color="#b8bcd0"/><stop offset="0.41" stop-color="#c5c8d9"/><stop offset="0.42" stop-color="#c9ccdc"/><stop offset="0.43" stop-color="#d7d9e6"/><stop offset="0.43" stop-color="#e7e7f0"/></linearGradient><linearGradient id="Ѕезым_нный_градиент_3-3" x1="4.34" y1="119.7" x2="9.39" y2="119.7" gradientTransform="matrix(1, 0, 0, 1, 0, 0)" xlink:href="#Ѕезым_нный_градиент_3"/><linearGradient id="Ѕезым_нный_градиент_4-2" x1="22.01" y1="74.57" x2="24.23" y2="72.43" gradientTransform="matrix(1, 0, 0, 1, 0, 0)" xlink:href="#Ѕезым_нный_градиент_4"/></defs><g class="cls-1"><g id="Слой_2" data-name="Слой 2"><g id="Layer_1" data-name="Layer 1"><path class="cls-2" d="M100.72,121.24c8.64-5,22.71-5,31.41.06s8.75,13.14.1,18.13-22.71,5-31.42-.05S92.07,126.23,100.72,121.24Z"/><path class="cls-3" d="M113.06,116.56a.7.7,0,0,0-.73-.07h0l-.93.43,1.1,3,1-.46h0a1,1,0,0,0,.46-.82A2.34,2.34,0,0,0,113.06,116.56Z"/><path class="cls-4" d="M112.13,117c-.58-.36-1.11,0-1.19.76a2.35,2.35,0,0,0,.92,2.05c.58.35,1.12,0,1.19-.76A2.3,2.3,0,0,0,112.13,117Z"/><path class="cls-3" d="M134.2,136a2.65,2.65,0,0,0-1.21-2.08.84.84,0,0,0-.85-.08h0l-1.09.7,1.78,2.89,1-.66h0A.83.83,0,0,0,134.2,136Z"/><path class="cls-4" d="M133.13,136.65c0,.76-.54,1.07-1.2.69a2.67,2.67,0,0,1-1.21-2.08c0-.77.54-1.08,1.21-.69A2.65,2.65,0,0,1,133.13,136.65Z"/><path class="cls-3" d="M98.25,129.24a1.39,1.39,0,0,0-2.77-.09h0V130h.23A1.4,1.4,0,0,0,98,130h.23Z"/><path class="cls-4" d="M98.25,130a1.39,1.39,0,1,1-1.39-1.39A1.39,1.39,0,0,1,98.25,130Z"/><path class="cls-3" d="M133.26,121.31h0a.87.87,0,0,0-.85.09,2.65,2.65,0,0,0-1.2,2.08.86.86,0,0,0,.32.75h0l1,.68,1.7-2.94Z"/><path class="cls-4" d="M134.57,122.76a2.63,2.63,0,0,1-1.21,2.07c-.66.39-1.2.08-1.2-.68a2.65,2.65,0,0,1,1.2-2.08C134,121.68,134.57,122,134.57,122.76Z"/><path class="cls-3" d="M111.41,138.63h0s-.09,0-.14.19A8.56,8.56,0,0,0,111,141c0,.53.06.82.14.81h0l1.56.18.27-3.16Z"/><path class="cls-4" d="M112.85,139a8.59,8.59,0,0,0-.25,2.14c0,.77.11,1,.25.62a8.56,8.56,0,0,0,.26-2.15C113.11,138.85,113,138.57,112.85,139Z"/><polygon class="cls-5" points="115.98 125.84 127.84 129.35 127.64 129.22 133.2 134.92 133.96 134.18 128.41 128.48 128.34 128.41 128.21 128.35 116.96 123.23 115.98 125.84"/><polygon class="cls-5" points="116.97 125.86 128.25 120.67 127.92 120.68 133.5 122.21 133.78 121.18 128.21 119.65 128.06 119.61 127.88 119.67 115.97 123.21 116.97 125.86"/><polygon class="cls-5" points="117.8 124.02 113.99 116.57 113.83 116.26 113.53 116.23 112.1 116.12 112.02 117.18 113.45 117.3 113 116.96 115.14 125.05 117.8 124.02"/><polygon class="cls-5" points="116.47 123.03 102.67 124.02 102.51 124.03 102.41 124.08 95.78 127.72 96.29 128.65 102.93 125.02 102.67 125.09 116.47 126.03 116.47 123.03"/><polygon class="cls-5" points="115 123.95 112.42 131.92 112.37 132.08 112.36 132.11 111.41 139.57 112.45 139.78 114.45 132.52 114.39 132.7 117.95 125.12 115 123.95"/><path class="cls-5" d="M119.09,126.41a5.78,5.78,0,0,1-5.22,0c-1.45-.84-1.46-2.19,0-3a5.8,5.8,0,0,1,5.23,0C120.52,124.23,120.53,125.58,119.09,126.41Z"/><path class="cls-6" d="M119.09,125.06a5.78,5.78,0,0,1-5.22,0c-1.45-.84-1.46-2.19,0-3a5.77,5.77,0,0,1,5.23,0C120.52,122.88,120.53,124.23,119.09,125.06Z"/><path class="cls-3" d="M118.87,123.24h0v-4.06h-.54l-.17-.11a3.75,3.75,0,0,0-3.39,0l-.17.11h-.52v4.06h0a1.2,1.2,0,0,0,.7,1,3.75,3.75,0,0,0,3.39,0A1.19,1.19,0,0,0,118.87,123.24Z"/><path class="cls-4" d="M118.17,120.16a3.75,3.75,0,0,1-3.39,0,1,1,0,0,1,0-2,3.75,3.75,0,0,1,3.39,0A1,1,0,0,1,118.17,120.16Z"/><path class="cls-5" d="M118.49,118.86h0v-6H118l-.13-.09a3.17,3.17,0,0,0-2.86,0,.71.71,0,0,0-.14.1h-.45v6h0a1,1,0,0,0,.6.82,3.12,3.12,0,0,0,2.85,0A1,1,0,0,0,118.49,118.86Z"/><path class="cls-6" d="M117.9,113.71a3.15,3.15,0,0,1-2.85,0c-.79-.46-.8-1.2,0-1.65a3.17,3.17,0,0,1,2.86,0A.87.87,0,0,1,117.9,113.71Z"/><path class="cls-5" d="M108.09,95.71l1.1-.33c-.18-.58-1.78-5.69-3.23-6.86S97.14,90.83,92.87,93l.52,1c5-2.53,11-5,11.87-4.59C106.13,90.13,107.46,93.66,108.09,95.71Z"/><path class="cls-7" d="M109.45,63.49S113,61.08,115,61.68c2,.32,17,10.13,16.28,12.89-1.28,4.8-.21,4.84.43,33.48a8,8,0,0,1-3.68,4.34c-3.06,1.86-9-5.49-9-5.49Z"/><path class="cls-7" d="M127.94,108l-16.86-9.53c-1.1-.64-1.91-2.41-1.9-1.35l2.18-29.94c.21-4.13,3-6,4.11-5.36l16.86,9.53a4.51,4.51,0,0,1,1.8,3.94l-.93,9.18-.79,1.07-.75,9.14c-.47,2.85,0,3.65,0,6.54l0,6.85C131.56,109.59,129,108.61,127.94,108Z"/><polygon class="cls-7" points="131.1 95.25 110.23 83.41 110.35 73.06 132.34 84.3 131.1 95.25"/><polygon class="cls-7" points="127.55 98.65 109.45 88.17 110.23 83.41 131.1 95.25 127.55 98.65"/><path class="cls-4" d="M129,85.51,108.14,73.67c-2.6-1.81.12-8.55.12-8.55.95-2.12,2.1-2.21,3.2-1.57L129,73.46c1.1.64,0,2-.25,3.61A26.36,26.36,0,0,0,129,85.51Z"/><path class="cls-8" d="M128.89,95.86,108,84s-2.49-6.17.11-10.35L129,85.51C126.46,89.62,128.82,95.69,128.89,95.86Z"/><path class="cls-9" d="M108,84h0c-1.77,4.71-2.2,5.86-1.54,10.85l.4,2.93,20.86,11.84-.39-2.92c-.67-5-.23-6.14,1.54-10.86h0Z"/><path class="cls-10" d="M108,84s-.24,1.06,7.66,5.5,13,6.71,13,6.71l.22-.37Z"/><path class="cls-11" d="M127.74,109.64s.24-1.06-7.66-5.5-13-6.71-13-6.71l-.21.37Z"/><path class="cls-10" d="M128.28,111.72h0a1.23,1.23,0,0,1-.74,1L115,120a6.11,6.11,0,0,1-2.35.74,6.39,6.39,0,0,1-1.75,0,4.27,4.27,0,0,1-1.45-.47l-18-10.44a1.67,1.67,0,0,1-.95-1.35,19.3,19.3,0,0,1,0-3.95,3.48,3.48,0,0,1,.29-.94,2.36,2.36,0,0,1,.62-.78h0a9.5,9.5,0,0,1,1.5-.93c1.49-.82,7.56-3.41,10.45-3.78a20.35,20.35,0,0,1,3.58-.28L126.66,109l1.28.72A11.47,11.47,0,0,1,128.28,111.72Z"/><path class="cls-11" d="M127.94,109.72l-.18-.24a22.26,22.26,0,0,0-3.52.29c-2.89.36-9,3-10.46,3.77a8.48,8.48,0,0,0-1.56,1h0a3.25,3.25,0,0,1-2.49.39c-.62-.09-16.92-9.49-18.37-10.39-.55-.35-.69-.69-.63-1a3.48,3.48,0,0,0-.29.94,19.3,19.3,0,0,0,0,3.95,1.67,1.67,0,0,0,.95,1.35l18,10.44a4.74,4.74,0,0,0,1.82.52h.21a6.56,6.56,0,0,0,1.17,0A6.11,6.11,0,0,0,115,120l12.58-7.26a1.23,1.23,0,0,0,.74-1h0A11.47,11.47,0,0,0,127.94,109.72Z"/><path class="cls-11" d="M106.37,86l-1.6.5a2.32,2.32,0,0,0-1.39.22l-1.56.71C97.2,88.88,90.73,91,90.66,91.52a5.35,5.35,0,0,0,0,1.44V93h0a1.12,1.12,0,0,0,.57.68,2.72,2.72,0,0,0,2.43.1L106,88.2a.85.85,0,0,0,.37-.39.69.69,0,0,0,.05-.13A2.56,2.56,0,0,0,106.37,86Z"/><path class="cls-4" d="M91.08,90.88l12.3-5.6a2.72,2.72,0,0,1,2.43.1h0c.71.41.79,1,.17,1.4l-12.3,5.6a2.75,2.75,0,0,1-2.43-.1C90.54,91.86,90.46,91.23,91.08,90.88Z"/><ellipse class="cls-12" cx="92.95" cy="141.93" rx="13.63" ry="7.87" transform="matrix(1, -0.01, 0.01, 1, -0.77, 0.51)"/><path class="cls-13" d="M93.62,130.35s2.06,1.39,1.9,2.39-3.18,7.42-5,8.34c-3.89,1.9-3.37-1.92-2.79-2.76s2.66-2.87,2.43-4.62C89.8,131.34,93.62,130.35,93.62,130.35Z"/><path class="cls-14" d="M93.85,136s.71.15.77.67.37,2.46.37,2.46.48.19.73,0a2.54,2.54,0,0,0,.53-.8s-.09-3.89,0-4.69S93.85,136,93.85,136Z"/><path class="cls-15" d="M95.54,131.25a38.68,38.68,0,0,0-3.17,5.84c-.82,2.28-1.89,3.27-2.76,3.34-1.38.1-2.37-.64-2.15-1.38l.22-.73s-3.09,4.1-2.37,6.36,6.51-1.63,7.31-2.94c.3-.5.63-3.94,1.33-5s2-.78,2.29-2.79S95.54,131.25,95.54,131.25Z"/><path class="cls-14" d="M94.07,136.27c-.7,1-1.34,4.69-1.64,5.19-.75,1.22-5.84,4.62-7.13,3.18,0,0,0,0,0,0,.72,2.27,6.51-1.63,7.31-2.94.3-.5.63-3.94,1.33-5s2.06-.8,2.23-2.46A11.68,11.68,0,0,0,94.07,136.27Z"/><path class="cls-14" d="M97.35,137.24s1-.34,1,.18,0,3.78,0,3.78a.48.48,0,0,0,.49.1,2.6,2.6,0,0,0,.62-.75s.27-3.2.22-4C99.63,135.59,97.35,137.24,97.35,137.24Z"/><path class="cls-16" d="M97.42,132.64a4,4,0,0,1,1.58,2.7c0,1.53-1.61,7.81-3.54,8.61s-3.93-.39-3.8-1.28,1.74-3.72,2.12-5.91C94.19,134.41,97.42,132.64,97.42,132.64Z"/><path class="cls-15" d="M93.74,135.85a40.35,40.35,0,0,0-1.92,4.74c-1.22,4.17-1.08,6-.74,6.93s3.27,0,5.3-1.84c2.31-2.06,1.17-4.37,2.54-6.82a4.73,4.73,0,0,0,.77-3.21,2.52,2.52,0,0,0-1.46-2.16,3.59,3.59,0,0,1,.62,2.89,15.07,15.07,0,0,1-.52,1.81c-.77,1.7-.84,3.33-2,4.58s-4.47.62-4.41-.05a29.47,29.47,0,0,1,1.48-4.52A6.13,6.13,0,0,0,93.74,135.85Z"/><path class="cls-14" d="M98.81,138.69c-1.37,2.44-.16,4.6-2.48,6.67-1.87,1.66-4.67,2.73-5.3,2a.88.88,0,0,1,0,.15c.36,1,3.27,0,5.3-1.84,2.31-2.06,1.17-4.37,2.54-6.82a3.67,3.67,0,0,0,.75-2C99.42,137.37,99,138.31,98.81,138.69Z"/><g class="cls-17"><path class="cls-18" d="M100.89,113.44c5.3,3.06,13.93,3,19.27,0s5.37-8.07.06-11.13-13.93-3-19.27,0S95.58,110.38,100.89,113.44Z"/></g><path class="cls-19" d="M106.25,90.51s-18.85,16-18.86,18.5,2.36,21.89,2.23,23.43,4.08,1,4.39-.53,1.83-16.35,1.83-16.35L118,98.38Z"/><path class="cls-20" d="M95.84,115.56S94.32,130.43,94,131.91c-.13.62-.93,1.08-1.82,1.29a91.58,91.58,0,0,0-.89-9.14c-.6-4.17,1.17-9,1.26-10.62.23-3.73,9.93-7.85,9.93-7.85s.55,1.5,1.32,3.8Z"/><path class="cls-19" d="M98.44,133.34s3.49-14.16,2.88-15.42-.1-1.42-.1-1.42,1.64-1,7.78-1.92c6-1.57,11.15-4.52,12.57-6.5,2.7-3.76,1.28-8.86.63-10.26s-10.58-.06-12.41,1.84-17.1,8.91-16.67,14.12A179.24,179.24,0,0,1,93.78,134C96,136.67,98.44,133.34,98.44,133.34Z"/><path class="cls-21" d="M121.58,108.08c-1.42,2-6.59,4.93-12.58,6.5-6.14,1-7.77,1.91-7.77,1.91s-.52.17.09,1.43-2.89,15.43-2.89,15.43a6.4,6.4,0,0,1-.47.52c.45-2.92,2.54-15.92,2.49-18.37,14.17-2.56,20.28-7.11,21.23-12.15a11.43,11.43,0,0,0-.09-5,7.84,7.84,0,0,0-.3-1,6.25,6.25,0,0,0-.91-1.65s-.62.7-1.55,1.55a14.92,14.92,0,0,1-3.21,2.32c-.35.17-.75.37-1.18.61-2.55,1.33-6.15,3.39-6.15,3.39l-1.34-.66,5.22-3.06,0,0,1.27-1.74,4.37-6A36.56,36.56,0,0,0,116,87.24c-1.12-2.31-1.89-8.9-1.89-8.9-.55-4.57,1.43-3.87,3.06-3.51.07,3.87,2.74,12.39,3.25,14,.89,2.76,1,6.7,1.58,8.42a1.34,1.34,0,0,1-.06.33.49.49,0,0,1,.29.25C122.84,99.22,124.28,104.32,121.58,108.08Z"/><path class="cls-5" d="M129.67,107.81c.42.31.85-.32.84-.68a3.79,3.79,0,0,0-.35-1.22c-.23-.66-.48-1.32-.75-2a8.18,8.18,0,0,0-1.93-3.25c-.53-.44-1.5-.21-2.1-.09a23.67,23.67,0,0,0-3.52,1.13c-1.5.59-3,1.25-4.44,1.94l-2.08,1c-.18.09-.85.3-.93.48s.57.77.83.78.87-.35,1.21-.52c.9-.43,1.81-.86,2.72-1.27,1.62-.73,3.26-1.43,4.93-2a14.86,14.86,0,0,1,1.73-.5,1.63,1.63,0,0,1,1,0c.34.15.61.79.78,1.09.31.58.58,1.2.84,1.81s.54,1.38.79,2.08c.1.32.21.63.31,1A.52.52,0,0,0,129.67,107.81Z"/><path class="cls-11" d="M127.68,97.63l-1.6.49a2.48,2.48,0,0,0-1.39.22l-1.56.71c-4.61,1.48-11.09,3.63-11.16,4.11a5.33,5.33,0,0,0,0,1.44v.07h0a1.07,1.07,0,0,0,.58.67,2.69,2.69,0,0,0,2.42.1l12.3-5.6a.81.81,0,0,0,.37-.39.5.5,0,0,0,0-.13A2.52,2.52,0,0,0,127.68,97.63Z"/><path class="cls-4" d="M112.39,102.52l12.3-5.6a2.72,2.72,0,0,1,2.43.1h0c.71.42.79,1,.17,1.4L115,104a2.69,2.69,0,0,1-2.42-.1C111.85,103.51,111.77,102.88,112.39,102.52Z"/><path class="cls-22" d="M118.68,48.62s2-1,3.21,0,.72,5.7-.53,8.43c-1.13,2.44-.56,6.77,2.21,7.67-1.94,1.46-6.31-.16-6.92-2.83S118.68,48.62,118.68,48.62Z"/><path class="cls-23" d="M108.37,62.54s-1.8-1-3.34,2.73-3.2,12.25-4,13.49,0,2.67,4.09,3.72S108.37,62.54,108.37,62.54Z"/><path class="cls-24" d="M102.75,72.58a2,2,0,0,0,1.76.82c1.28,0,9.32-10.51,7.44-11.21a6.9,6.9,0,0,0-4.69.32C105.9,63.08,104.43,65.24,102.75,72.58Z"/><path class="cls-15" d="M103.22,76.29a12.4,12.4,0,0,0,.17,2.31v0a2.13,2.13,0,0,1,0,.25,14.9,14.9,0,0,0,.58,2.46c.06.21.13.4.17.53.75,2-.8,13.27-.56,14.16s.81,1.79,4.62,3a20,20,0,0,0,3.52.75l1,.11A26.84,26.84,0,0,0,116,100h.59l.94-.06a13.33,13.33,0,0,0,3.32-.59,4,4,0,0,0,1-.5,1.33,1.33,0,0,0,.42-.39s-.45-8.39-.19-11.64c.16-2,1.32-4.62,2.4-7.2.48-1.14.94-2.29,1.3-3.36.14-.44.26-.87.37-1.27,1.74-6.72-.83-7.56-2.84-9.14a21.36,21.36,0,0,0-6.44-3.67,19.11,19.11,0,0,0-7.16,0c-.93.08-3,.62-4.21,4.62s-2.16,6.68-2.32,8.65A8.43,8.43,0,0,0,103.22,76.29Z"/><path class="cls-25" d="M118.84,62.93a3.62,3.62,0,0,1,1.37,1.64c.24.9-3.67,6.35-10.39,8.92-2.58-4.82-1-8.15.3-10s1.79-1.66,1.79-1.66Z"/><path class="cls-26" d="M110.41,61.71a5.08,5.08,0,0,1,.37,2.12,16.53,16.53,0,0,1-.66,2.69s.62,1.19,3.09.92,2.56-1.13,3.34-1.58a10.86,10.86,0,0,0,2.68-2.61,3.41,3.41,0,0,1-1.39-4.1,13.66,13.66,0,0,1,1.94-4.46s.69-1.23-.17-1.32S110.41,61.71,110.41,61.71Z"/><path class="cls-27" d="M117.8,62.18l-.17,1.4a6.24,6.24,0,0,1-6,3.56c-.1.7,0,2.68.7,3.26a15.46,15.46,0,0,0,6.86-5.16c.76-1.24-.34-2.71-.34-2.71l-1-.89Z"/><path class="cls-27" d="M110.81,63.53l-.2,1.46a3,3,0,0,0,1,2.15,4,4,0,0,1-2.84,1.52c.45-1.66.86-2.56,1.3-3.8C110.41,64.06,110.77,63.21,110.81,63.53Z"/><path class="cls-28" d="M116.19,60.3a15.82,15.82,0,0,0-2.56,3,8.83,8.83,0,0,1-2.49,2.35l-.35-2.21-.38-1.7Z"/><path class="cls-29" d="M109.83,48a5.64,5.64,0,0,0-1.49,2.22,14.65,14.65,0,0,0-1,3.06,3.11,3.11,0,0,1-.08,1.9c-.34,1.08.75,6.44,1.91,7s6.54-1.27,7.14-2a15.86,15.86,0,0,0,2.31-6c.19-2.09.8-4.53-2.22-5.79A12,12,0,0,0,109.83,48Z"/><path class="cls-30" d="M109.13,53.89c.11.59-1.42,3-1.49,3.55s1.45.5,1.45.5Z"/><path class="cls-31" d="M108.8,58a2,2,0,0,1-1.15-.32.34.34,0,0,1-.09-.27,6.89,6.89,0,0,1,.63-1.4,6.61,6.61,0,0,0,.86-2.12l.16,0a6,6,0,0,1-.88,2.22,7.75,7.75,0,0,0-.61,1.35.17.17,0,0,0,0,.14c.22.25,1,.28,1.32.27V58Z"/><path class="cls-32" d="M119.43,55s-.49-.63-.86-.42-1.06.5-1.09.79-.3,1.87-.3,1.87a4.59,4.59,0,0,1-.55-2.33,6.54,6.54,0,0,0-.71-3.51c-.47-.72-.94-1.83-2.06-2s-2.65,0-3.56,0A2.31,2.31,0,0,1,109,49l-.82,1.65a4.56,4.56,0,0,1,.56-1.75,6.91,6.91,0,0,1,9.34-2.2c3.8,1.84,3.55,6.05,3,7.58s-2.38,2.88-2.56,3.35-.67,1.12-.67,1.56.21-1.63.58-2.51A7.85,7.85,0,0,1,119.43,55Z"/><path class="cls-33" d="M118.05,55.33s1.33-1.33,1.81-.28-.59,2.23-1.27,2.81-1.2.72-1.39.41.32-1.46.32-1.46Z"/><path class="cls-34" d="M117.68,58.22a.26.26,0,0,1-.28.26.27.27,0,1,1,.28-.26Z"/><path class="cls-35" d="M118.24,55.35s.85-.76,1.2-.17.06,1.63-.84,2.49c-.86.32-1-.05-1-.16a5,5,0,0,0,.39-1A9.41,9.41,0,0,1,118.24,55.35Z"/><path class="cls-36" d="M103.22,76.29a12.4,12.4,0,0,0,.17,2.31v0a2.13,2.13,0,0,1,0,.25c.2.94.42,1.85.58,2.46.06.21.13.4.17.53.75,2-.8,13.27-.56,14.16s.81,1.79,4.62,3a20,20,0,0,0,3.52.75l1,.11A26.84,26.84,0,0,0,116,100h.59a11.58,11.58,0,0,0,5.29-1.15,1.33,1.33,0,0,0,.42-.39s-.45-8.39-.19-11.64c.16-2,1.32-4.62,2.4-7.2-2.07-2.88-3.94-4.62-3.71-3.41.53,2.82.55,6.74-3.11,6.82-5.17.14-6.45-1.88-8.91-2.77C105.38,79,103.86,77.35,103.22,76.29Z"/><path class="cls-37" d="M110,81s7.73,4.16,10.59,0h0c.06-2.92.19-6.07.19-6.07a8.75,8.75,0,0,1,5.06,1.3c-.36,1.07-.82,2.22-1.3,3.36-1.08,2.58-2.24,5.2-2.4,7.2-.26,3.25.19,11.64.19,11.64a3,3,0,0,1-1.46.89,40.42,40.42,0,0,0,.64-5.43c.27-5.56-.84-6.38-.93-9.25,0-.55,0-1.26,0-2C119.18,83.36,115.7,84.39,110,81Z"/><path class="cls-23" d="M121.89,87.55s-1.67-12.24-.88-16,3.33-3.82,4.46-3.33,1.68,1.74,1.29,7.42-1.05,12.9-1.22,13.9S121.89,87.55,121.89,87.55Z"/><path class="cls-24" d="M124.72,67.83s1.9-.1,2.32,2.62-.37,9.07-.37,9.07a20.48,20.48,0,0,0-3.25-.27,9.62,9.62,0,0,0-2.62.27,51.28,51.28,0,0,1,0-8C121.19,69.15,122.1,67.56,124.72,67.83Z"/><polyline class="cls-38" points="159.1 144.19 150.84 154.72 122.69 184.83 143.46 184.83 186.48 159.99"/><polygon class="cls-39" points="32.72 122.05 32.72 132.9 122.69 184.83 122.69 173.98 32.72 122.05"/><polygon class="cls-40" points="122.69 173.98 122.69 184.83 160.1 163.23 160.1 152.38 122.69 173.98"/><polygon class="cls-40" points="122.69 173.99 160.1 152.38 70.13 100.45 32.72 122.05 122.69 173.99"/><polygon class="cls-41" points="161.56 155.18 161.56 112.56 122.35 135.2 80.06 97.81 80.06 65.53 30.38 82.12 30.38 124.73 122.35 177.82 161.56 155.18"/><polygon class="cls-42" points="161.56 155.18 161.56 112.56 122.35 135.2 80.06 97.81 80.06 65.53 30.38 82.12 30.38 91.42 122.35 144.5 161.56 155.18"/><polygon class="cls-43" points="161.56 112.56 151.09 106.52 137.88 114.15 66.86 73.15 80.06 65.53 69.59 59.48 30.38 82.12 45.88 91.07 122.35 135.2 161.56 112.56"/><polygon class="cls-44" points="161.56 112.56 122.35 135.2 122.35 177.82 161.56 155.18 161.56 112.56"/><polygon class="cls-45" points="40.85 89.28 40.85 94.88 83.87 70.05 83.87 64.45 40.85 89.28"/><polygon class="cls-43" points="40.85 89.29 83.87 64.45 69.59 56.21 26.57 81.05 40.85 89.29"/><path class="cls-46" d="M75.1,62.68l-8.33-2.06a4.45,4.45,0,0,0-4-.17L48.53,68.67c-1,.59-.9,1.63.29,2.31l5.46,3.16,5.93.74a5.51,5.51,0,0,0,3.19-.34L76.54,67a2,2,0,0,0,1-1.86Z"/><path class="cls-47" d="M77.16,61.58v3.21a2,2,0,0,1-1,1.72l-.74.43h0l-.35-.2-.3-.17L65.28,72v.75l-1.65.95a3.3,3.3,0,0,1-2,.43A21.33,21.33,0,0,1,56.79,73l-4.52-2.61a1.64,1.64,0,0,1-1-1.35V62.91l3.06,1.33,11.87-6.06c1-.6,1.74-1.14,2.93-.46l4.3,2.49,2.49-2.11,1.22,2.54Z"/><path class="cls-48" d="M77.16,61.58v2.81a2.07,2.07,0,0,1,0,.35,2,2,0,0,1-1,1.37l-.74.42-.35.2-.3-.17L65.28,72v.35l-1.65,1a3.3,3.3,0,0,1-2,.43,21.33,21.33,0,0,1-4.85-1.22l-4.52-2.61a1.69,1.69,0,0,1-1-1.29V62.51l3.06,1.33,11.87-6.07c1-.59,1.74-1.13,2.93-.45l4.3,2.48,2.49-2.1,1.22,2.54Z"/><path class="cls-49" d="M75.94,56.86l-5.71-3.3a4.48,4.48,0,0,0-4-.16L52,61.61c-1,.59-.89,1.64.29,2.32L58,67.23Z"/><path class="cls-50" d="M52.4,63.71c-.54-.32-.85-.71-.85-1.09a1,1,0,0,1,.56-.78l14.23-8.22A3.26,3.26,0,0,1,68,53.25a4.41,4.41,0,0,1,2.14.54l5.33,3.07L58,66.93Z"/><polygon class="cls-51" points="69.28 55.03 67.77 55.9 67.61 55.99 66.18 56.82 66.02 56.91 55.37 63.06 55.29 63.11 53.05 61.81 52.82 61.68 52.97 61.59 54.41 60.76 54.56 60.67 65.22 54.52 65.37 54.43 66.8 53.6 67.03 53.74 67.03 53.74 69.28 55.03"/><path class="cls-47" d="M66.8,53.6l0-.1-.44-1.3a2.09,2.09,0,0,0-3-1.14l-10,5.78a2.48,2.48,0,0,0-1.11,2.95l.6,1.78,0,.11L55.17,63l-.77-2.28-.52-1.55a.71.71,0,0,1,.31-.82L63.5,53a1,1,0,0,1,1.38.52l.34,1,.8,2.39L67.61,56Z"/><path class="cls-52" d="M67.77,55.9l-.16.09-1.43.83-.73-2.17-.08-.22-.26-.76a1,1,0,0,0-1.38-.52l-9.31,5.38a.7.7,0,0,0-.31.82l.45,1.32.07.22.74,2.17-.08,0-2.24-1.3,0-.11,0-.11-.56-1.67a2.48,2.48,0,0,1,1.11-3l10-5.78a2.09,2.09,0,0,1,3,1.14L67,53.64l0,.1h0Z"/><polygon class="cls-47" points="55.37 63.06 54.99 61.95 54.14 62.44 55.29 63.11 55.37 63.06"/><polygon class="cls-47" points="67.61 55.99 67.77 55.9 67.39 54.79 66.2 55.48 66.05 55.57 65.8 55.71 66.18 56.82 67.61 55.99"/><path class="cls-49" d="M76.13,62.08,64.32,68.9a3.3,3.3,0,0,1-2.64.29l-3.69-2L75.94,56.86l1.18,3.37A2,2,0,0,1,76.13,62.08Z"/><path class="cls-47" d="M62.68,69.09a3,3,0,0,1-.9-.14l-3.26-1.73,17.28-10,1.06,3A1.73,1.73,0,0,1,76,61.86L64.2,68.68A3.15,3.15,0,0,1,62.68,69.09Z"/><path class="cls-52" d="M68.68,63.28a.41.41,0,0,1-.37.51.55.55,0,0,1-.61-.36.42.42,0,0,1,.38-.51A.53.53,0,0,1,68.68,63.28Z"/><path class="cls-47" d="M68.53,63.3a.29.29,0,0,1-.26.36.38.38,0,0,1-.42-.25.3.3,0,0,1,.26-.36A.37.37,0,0,1,68.53,63.3Z"/><polygon class="cls-53" points="75.43 64.15 75.43 66.93 75.08 66.73 74.78 66.56 65.28 72.04 65.28 70.01 74.28 64.82 75.43 64.15"/><polygon class="cls-47" points="75.43 64.15 75.43 66.93 75.08 66.73 74.78 66.56 75.1 64.34 75.43 64.15"/><polygon class="cls-50" points="75.8 57.24 75.64 57.03 75.43 56.86 57.99 66.93 58.26 67.07 58.52 67.22 75.8 57.24"/><path class="cls-54" d="M62.3,47.67S58.27,50.32,53,53c-.59,2.43,3.5,9.37,3.5,9.37l9.28-5.35S61.72,50.11,62.3,47.67Z"/><path class="cls-55" d="M56.53,62.4l9.28-5.35s-.17-.28-.42-.74l-9.28,5.36Z"/><path class="cls-55" d="M65.28,71.35l8.93-5.1c-.13-.22-.25-.43-.35-.62l-8.58,5Z"/><path class="cls-56" d="M73.09,57.67a.51.51,0,0,1-.25-.05l-.26-.15a.22.22,0,0,1-.11-.17.19.19,0,0,1,.11-.16l.57-.33a.55.55,0,0,1,.5,0l.26.15a.19.19,0,0,1,.11.16.18.18,0,0,1-.11.16l-.57.34A.51.51,0,0,1,73.09,57.67Zm.31-.85a.46.46,0,0,0-.21,0l-.58.33s-.07.06-.07.1,0,.07.08.1l.26.15a.45.45,0,0,0,.42,0l.58-.33a.12.12,0,0,0,.07-.1s0-.07-.08-.1l-.26-.15A.43.43,0,0,0,73.4,56.82Z"/><path class="cls-56" d="M71.79,56.92a.51.51,0,0,1-.25-.06l-.26-.15a.17.17,0,0,1,0-.32l.57-.33a.55.55,0,0,1,.5,0l.26.15a.17.17,0,0,1,0,.32l-.58.33A.45.45,0,0,1,71.79,56.92Zm.31-.85a.35.35,0,0,0-.21,0l-.58.33s-.07.06-.07.1,0,.07.07.1l.26.15a.47.47,0,0,0,.43,0l.57-.33c.05,0,.08-.06.08-.1s0-.07-.08-.1l-.26-.15A.36.36,0,0,0,72.1,56.07Z"/><path class="cls-57" d="M70.49,56.17a.51.51,0,0,1-.25-.06L70,56a.19.19,0,0,1-.12-.16.18.18,0,0,1,.12-.16l.57-.34a.6.6,0,0,1,.49,0l.27.15a.22.22,0,0,1,.11.17.19.19,0,0,1-.11.16l-.58.33A.48.48,0,0,1,70.49,56.17Zm.31-.85a.44.44,0,0,0-.21,0L70,55.7a.11.11,0,0,0-.08.1s0,.07.08.1l.26.15a.47.47,0,0,0,.43,0l.57-.33s.08-.06.08-.1,0-.07-.08-.1L71,55.37A.38.38,0,0,0,70.8,55.32Z"/><path class="cls-56" d="M58.77,66.06a.51.51,0,0,1-.25-.06l-.26-.15a.17.17,0,0,1,0-.32l.57-.34a.56.56,0,0,1,.49,0l.26.15a.19.19,0,0,1,.12.16.19.19,0,0,1-.11.16L59,66A.48.48,0,0,1,58.77,66.06Zm.31-.85a.4.4,0,0,0-.22.05l-.57.33s-.08.06-.08.1,0,.07.08.1l.26.15a.47.47,0,0,0,.43,0l.57-.33c.05,0,.08-.06.08-.1s0-.07-.08-.1l-.26-.15A.38.38,0,0,0,59.08,65.21Z"/><path class="cls-56" d="M57.46,65.31a.45.45,0,0,1-.24-.06L57,65.1a.19.19,0,0,1-.12-.16.21.21,0,0,1,.11-.17l.58-.33a.53.53,0,0,1,.49,0l.26.15c.08,0,.12.1.12.17a.19.19,0,0,1-.12.16l-.57.33A.51.51,0,0,1,57.46,65.31Zm.31-.86a.5.5,0,0,0-.21,0l-.57.34a.11.11,0,0,0-.08.1A.14.14,0,0,0,57,65l.26.15a.45.45,0,0,0,.42,0l.58-.33s.08-.06.08-.1a.11.11,0,0,0-.08-.1L58,64.51A.4.4,0,0,0,57.77,64.45Z"/><path class="cls-56" d="M56.16,64.56a.51.51,0,0,1-.25-.06l-.26-.15a.19.19,0,0,1-.11-.16.2.2,0,0,1,.11-.17l.58-.33a.53.53,0,0,1,.49,0l.26.15a.2.2,0,0,1,.11.17.19.19,0,0,1-.11.16l-.57.33A.51.51,0,0,1,56.16,64.56Zm.31-.86a.5.5,0,0,0-.21,0l-.57.33a.14.14,0,0,0-.08.11.14.14,0,0,0,.08.1l.26.15a.45.45,0,0,0,.42,0l.58-.33A.13.13,0,0,0,57,64,.13.13,0,0,0,57,63.9l-.26-.15A.51.51,0,0,0,56.47,63.7Z"/><path class="cls-50" d="M76.47,60l-.67-2.31.31,2.08a1.42,1.42,0,0,1-.69,1.44L64,67.94a3,3,0,0,1-2.08.35,5.28,5.28,0,0,1-.71-.19c-.44-.19-1.6-.64-1.6-.64l1.84,1a1.69,1.69,0,0,0,.93.31,3.72,3.72,0,0,0,1.5-.21s12.09-6.86,12.52-7.46A.86.86,0,0,0,76.47,60Z"/><polygon class="cls-45" points="108.07 128.09 108.07 133.68 137.88 116.47 137.88 110.88 108.07 128.09"/><polygon class="cls-43" points="108.07 128.09 137.88 110.88 70.66 72.07 40.85 89.28 108.07 128.09"/><polygon class="cls-58" points="26.57 81.05 26.57 86.64 122.35 141.92 122.35 136.32 26.57 81.05"/><polygon class="cls-45" points="122.35 136.32 122.35 141.92 165.37 117.09 165.37 111.49 122.35 136.32"/><polygon class="cls-43" points="122.35 136.32 165.37 111.49 151.09 103.25 108.07 128.09 122.35 136.32"/><path class="cls-23" d="M103.56,83.08a26.39,26.39,0,0,1-4.67,3.34s-.18.23-.41.48h0a0,0,0,0,0,0,0,3.14,3.14,0,0,1-.77.63c-.5.23-1.52,1.52-1.76,1.58s-.48-.2-.74-.14A.18.18,0,0,1,95,89h0l-.06,0,0,0,0,0,0-.06h0l0,0a1.11,1.11,0,0,1-.11-.2l-.17-.1-.27-.18,0,0h0l0,0-.08.05h0l0,0h-.18a.68.68,0,0,1-.33-.15A10.35,10.35,0,0,1,92.34,87a.54.54,0,0,1,0-.65,3.78,3.78,0,0,0,.22-.5h0a.13.13,0,0,0,0-.07,3.79,3.79,0,0,1,.72-1l0,0c.31-.35.65-.7.86-.92l.09-.09s0,0,0,0l0,0,0,0h0l.54.09a2.79,2.79,0,0,1,.75-.33c.27,0,.79.39,1.29.37h0a.88.88,0,0,0,.34-.1c.59-.36,2.88-4.56,3.52-4.88s1.61.44,1.61.44C104.51,80.5,104.66,81.82,103.56,83.08Z"/><path class="cls-59" d="M82.39,87.71,89,83.89a.87.87,0,0,1,.8,0l16.63,9.67.75.19v.37h0a.26.26,0,0,1-.16.24l-6.76,3.91a.85.85,0,0,1-.79,0l-17.23-10a.28.28,0,0,1-.16-.22h0v-.4Z"/><path class="cls-60" d="M107,93.52l-17.22-10a.87.87,0,0,0-.8,0l-6.76,3.91a.24.24,0,0,0,0,.45l17.23,10a.85.85,0,0,0,.79,0L107,94C107.24,93.85,107.24,93.65,107,93.52Z"/><path class="cls-61" d="M83.93,87.31v-.09H84l.75-.43a.26.26,0,0,1,.27,0l.75.43h.07v.09h0a.09.09,0,0,1-.06.08l-.76.44a.34.34,0,0,1-.28,0L84,87.39A.09.09,0,0,1,83.93,87.31Z"/><path class="cls-61" d="M88.76,84.52v-.09h.07l.75-.43a.34.34,0,0,1,.28,0l.75.44h.07v.08h0a.1.1,0,0,1,0,.07l-.77.44a.26.26,0,0,1-.27,0l-.76-.44A.09.09,0,0,1,88.76,84.52Z"/><path class="cls-61" d="M90,85.21v-.09H90l.75-.43a.34.34,0,0,1,.28,0l.75.44h.07v.08h0s0,0,0,.07l-.77.45a.32.32,0,0,1-.27,0L90,85.29A.09.09,0,0,1,90,85.21Z"/><path class="cls-61" d="M91.14,85.91v-.09h.07l.75-.44a.34.34,0,0,1,.28,0l.75.44h.07v.09h0A.16.16,0,0,1,93,86l-.77.44a.32.32,0,0,1-.27,0L91.2,86S91.14,85.93,91.14,85.91Z"/><path class="cls-61" d="M92.33,86.6v-.09h.07l.75-.43a.28.28,0,0,1,.28,0l.75.43h.07v.09h0a.12.12,0,0,1-.06.08l-.77.44a.32.32,0,0,1-.27,0l-.76-.44A.09.09,0,0,1,92.33,86.6Z"/><path class="cls-61" d="M85.12,88v-.09h.08l.75-.43a.26.26,0,0,1,.27,0l.76.43H87V88h0a.1.1,0,0,1-.06.07l-.76.44a.28.28,0,0,1-.28,0l-.76-.44A.09.09,0,0,1,85.12,88Z"/><path class="cls-61" d="M87,87.7v-.09h.07l.75-.43a.26.26,0,0,1,.27,0l.76.43h.06v.09h0a.09.09,0,0,1-.06.08l-.76.44a.34.34,0,0,1-.28,0l-.76-.44A.08.08,0,0,1,87,87.7Z"/><path class="cls-61" d="M88.19,88.39V88.3h.07l.75-.43a.31.31,0,0,1,.28,0l.75.44h.06v.08h0a.1.1,0,0,1-.06.07l-.76.44a.28.28,0,0,1-.28,0l-.76-.44A.08.08,0,0,1,88.19,88.39Z"/><path class="cls-61" d="M88.81,87.34v-.09h.07l.75-.43a.32.32,0,0,1,.27,0l.76.44h.06v.08h0s0,.05-.06.07l-.76.45a.34.34,0,0,1-.28,0l-.76-.45S88.8,87.37,88.81,87.34Z"/><path class="cls-61" d="M90,86.64v-.09h.07l.75-.43a.34.34,0,0,1,.28,0l.75.44h.07v.08h0s0,0-.05.07l-.77.44a.26.26,0,0,1-.27,0l-.76-.44A.09.09,0,0,1,90,86.64Z"/><path class="cls-61" d="M91.21,87.33v-.08h.07l.75-.44a.34.34,0,0,1,.28,0l.75.44h.07v.08h0a.13.13,0,0,1-.06.07l-.77.45a.32.32,0,0,1-.27,0l-.76-.45A.09.09,0,0,1,91.21,87.33Z"/><path class="cls-61" d="M92.4,88v-.09h.07l.75-.44a.34.34,0,0,1,.28,0l.75.44h.07V88h0a.12.12,0,0,1-.06.08l-.77.44a.32.32,0,0,1-.27,0l-.76-.44S92.4,88.06,92.4,88Z"/><path class="cls-61" d="M93.59,88.72v-.09h.07l.75-.43a.28.28,0,0,1,.28,0l.75.43h.07v.09h0a.12.12,0,0,1-.06.08l-.76.44a.34.34,0,0,1-.28,0l-.76-.44A.09.09,0,0,1,93.59,88.72Z"/><path class="cls-61" d="M94.78,89.41v-.09h.08l.74-.43a.28.28,0,0,1,.28,0l.75.44h.07v.08h0a.13.13,0,0,1-.06.07l-.76.44a.28.28,0,0,1-.28,0l-.76-.44A.09.09,0,0,1,94.78,89.41Z"/><path class="cls-61" d="M96,90.1V90h.08l.75-.43a.32.32,0,0,1,.27,0l.75.44h.07v.08h0a.1.1,0,0,1-.06.07l-.76.44a.28.28,0,0,1-.28,0L96,90.18A.09.09,0,0,1,96,90.1Z"/><path class="cls-61" d="M97.16,90.79V90.7h.08l.75-.44a.32.32,0,0,1,.27,0l.75.44h.07v.08h0s0,0-.06.07l-.76.45a.34.34,0,0,1-.28,0l-.76-.45A.09.09,0,0,1,97.16,90.79Z"/><path class="cls-61" d="M98.35,91.49V91.4h.08l.75-.44a.32.32,0,0,1,.27,0l.75.44h.07v.09h0a.09.09,0,0,1-.06.08l-.76.44a.34.34,0,0,1-.28,0l-.76-.44S98.35,91.52,98.35,91.49Z"/><path class="cls-61" d="M101.46,92.18v.09h-.07l-.75.43a.34.34,0,0,1-.28,0l-.75-.44h-.07v-.08h0a.1.1,0,0,1,0-.07l.77-.44a.26.26,0,0,1,.27,0l.76.44A.09.09,0,0,1,101.46,92.18Z"/><path class="cls-61" d="M100.82,91.53v-.09h.07l.75-.43a.31.31,0,0,1,.28,0l.75.44h.07v.08h0a.19.19,0,0,1-.06.07l-.77.44a.26.26,0,0,1-.27,0l-.76-.44A.09.09,0,0,1,100.82,91.53Z"/><path class="cls-61" d="M102,92.22v-.09h.07l.75-.43a.34.34,0,0,1,.28,0l.75.44h.07v.08h0a.13.13,0,0,1-.06.07l-.77.44a.26.26,0,0,1-.27,0l-.76-.44A.09.09,0,0,1,102,92.22Z"/><path class="cls-61" d="M104.42,93.62v-.09h.07l.75-.43a.34.34,0,0,1,.28,0l.75.44h.07v.08h0a.1.1,0,0,1-.06.07l-.76.45a.34.34,0,0,1-.28,0l-.76-.45A.09.09,0,0,1,104.42,93.62Z"/><path class="cls-61" d="M103.19,94.16l.75-.43a.34.34,0,0,1,.28,0l.1.06h0l.65.38H105v0l0,0h.07v.09h0a.09.09,0,0,1-.06.08l-.76.44a.34.34,0,0,1-.28,0l-.87-.51a.1.1,0,0,1,0-.08v-.09Z"/><path class="cls-61" d="M100.74,92.87v-.09h.07l.75-.43a.26.26,0,0,1,.27,0l.76.44h.06v.08h0a.1.1,0,0,1-.06.07l-.76.44a.28.28,0,0,1-.28,0l-.76-.44A.08.08,0,0,1,100.74,92.87Z"/><path class="cls-61" d="M101.93,93.56v-.09H102l.75-.43a.34.34,0,0,1,.28,0l.75.44h.06v.08h0a.1.1,0,0,1-.06.07l-.76.44a.28.28,0,0,1-.28,0l-.76-.44A.08.08,0,0,1,101.93,93.56Z"/><path class="cls-61" d="M90,88V88h.07l.75-.44a.32.32,0,0,1,.27,0l.76.44h.06V88h0a.09.09,0,0,1-.06.08l-.76.44a.34.34,0,0,1-.28,0l-.76-.44A.1.1,0,0,1,90,88Z"/><path class="cls-61" d="M91.19,88.73v-.09h.07l.75-.43a.28.28,0,0,1,.28,0l.75.43h.06v.09h0a.09.09,0,0,1-.06.08l-.76.44a.34.34,0,0,1-.28,0l-.76-.44A.08.08,0,0,1,91.19,88.73Z"/><path class="cls-61" d="M92.38,89.42v-.09h.07l.75-.43a.28.28,0,0,1,.28,0l.75.43h.06v.09h0a.1.1,0,0,1-.05.07l-.77.44a.28.28,0,0,1-.28,0l-.76-.44A.1.1,0,0,1,92.38,89.42Z"/><path class="cls-61" d="M93.57,90.11V90h.07l.75-.43a.34.34,0,0,1,.28,0l.75.44h.06v.08h0a.1.1,0,0,1,0,.07l-.77.44a.28.28,0,0,1-.28,0l-.76-.44A.1.1,0,0,1,93.57,90.11Z"/><path class="cls-61" d="M94.76,90.8v-.09h.07l.75-.43a.34.34,0,0,1,.28,0l.75.44h.06v.08h0s0,0,0,.07l-.77.45a.34.34,0,0,1-.28,0l-.76-.45A.1.1,0,0,1,94.76,90.8Z"/><path class="cls-61" d="M96,91.5v-.09H96l.75-.44a.34.34,0,0,1,.28,0l.75.44h.06v.09h0s0,0,0,.08L97,92a.32.32,0,0,1-.27,0L96,91.58S96,91.52,96,91.5Z"/><path class="cls-61" d="M97.14,92.19V92.1h.07l.75-.43a.28.28,0,0,1,.28,0l.75.43h.07v.09h0a.1.1,0,0,1,0,.08l-.77.44a.32.32,0,0,1-.27,0l-.76-.44A.09.09,0,0,1,97.14,92.19Z"/><path class="cls-61" d="M98.33,92.88v-.09h.07l.75-.43a.28.28,0,0,1,.28,0l.75.43h.07v.09h0a.16.16,0,0,1-.06.08l-.77.44a.26.26,0,0,1-.27,0L98.39,93A.09.09,0,0,1,98.33,92.88Z"/><path class="cls-61" d="M99.52,93.57v-.09h.07l.75-.43a.34.34,0,0,1,.28,0l.75.44h.07v.08h0a.13.13,0,0,1-.06.07l-.77.44a.26.26,0,0,1-.27,0l-.76-.44A.09.09,0,0,1,99.52,93.57Z"/><path class="cls-61" d="M89.38,89.08V89h.07l.75-.43a.34.34,0,0,1,.28,0l.75.44h.06v.08h0s0,0-.05.07l-.77.44a.28.28,0,0,1-.28,0l-.76-.44A.1.1,0,0,1,89.38,89.08Z"/><path class="cls-61" d="M90.57,89.77v-.08h.07l.75-.44a.34.34,0,0,1,.28,0l.75.44h.06v.08h0s0,0,0,.07l-.77.45a.34.34,0,0,1-.28,0l-.76-.45A.1.1,0,0,1,90.57,89.77Z"/><path class="cls-61" d="M91.76,90.47v-.09h.07l.75-.44a.34.34,0,0,1,.28,0l.75.44h.06v.09h0a.1.1,0,0,1,0,.08l-.77.44a.34.34,0,0,1-.28,0l-.76-.44S91.76,90.5,91.76,90.47Z"/><path class="cls-61" d="M93,91.16v-.09H93l.75-.43a.28.28,0,0,1,.28,0l.75.43h.06v.09h0a.1.1,0,0,1,0,.08l-.77.44a.32.32,0,0,1-.27,0L93,91.24A.09.09,0,0,1,93,91.16Z"/><path class="cls-61" d="M94.14,91.85v-.09h.07l.75-.43a.28.28,0,0,1,.28,0l.75.44h.07v.08h0a.1.1,0,0,1,0,.07l-.77.44a.26.26,0,0,1-.27,0l-.76-.44A.09.09,0,0,1,94.14,91.85Z"/><path class="cls-61" d="M95.33,92.54v-.09h.07l.75-.43a.34.34,0,0,1,.28,0l.75.44h.07v.08h0a.19.19,0,0,1-.06.07l-.77.44a.26.26,0,0,1-.27,0l-.76-.44A.09.09,0,0,1,95.33,92.54Z"/><path class="cls-61" d="M96.52,93.23v-.08h.07l.75-.44a.34.34,0,0,1,.28,0l.75.44h.07v.08h0a.1.1,0,0,1-.06.07l-.77.45a.32.32,0,0,1-.27,0l-.76-.45A.09.09,0,0,1,96.52,93.23Z"/><path class="cls-61" d="M97.71,93.93v-.09h.07l.75-.44a.34.34,0,0,1,.28,0l.75.44h.07v.09h0a.12.12,0,0,1-.06.08l-.76.44a.34.34,0,0,1-.28,0L97.77,94S97.71,94,97.71,93.93Z"/><path class="cls-61" d="M98.9,94.62v-.09H99l.74-.43a.28.28,0,0,1,.28,0l.75.43h.07v.09h0a.12.12,0,0,1-.06.08l-.76.44a.34.34,0,0,1-.28,0L99,94.7A.09.09,0,0,1,98.9,94.62Z"/><path class="cls-61" d="M86.32,88.69V88.6h.07l.75-.43a.32.32,0,0,1,.27,0l.76.44h.06v.08h0a.1.1,0,0,1-.06.07l-.76.44a.28.28,0,0,1-.28,0l-.76-.44S86.31,88.72,86.32,88.69Z"/><path class="cls-61" d="M87.51,89.38v-.09h.07l.75-.43a.32.32,0,0,1,.27,0l.76.44h.06v.08h0s0,0-.06.07l-.76.45a.34.34,0,0,1-.28,0l-.76-.45A.08.08,0,0,1,87.51,89.38Z"/><path class="cls-61" d="M88.7,90.08V90h.07l.75-.44a.34.34,0,0,1,.28,0l.75.44h.06v.09h0s0,0-.06.08l-.76.44a.34.34,0,0,1-.28,0l-.76-.44A.1.1,0,0,1,88.7,90.08Z"/><path class="cls-61" d="M89.89,90.77v-.09H90l.75-.43a.28.28,0,0,1,.28,0l.75.43h.06v.09h0a.1.1,0,0,1,0,.08l-.77.44a.34.34,0,0,1-.28,0l-.76-.44A.1.1,0,0,1,89.89,90.77Z"/><path class="cls-61" d="M91.08,91.46v-.09h.07l.75-.43a.28.28,0,0,1,.28,0l.75.43H93v.09h0a.1.1,0,0,1,0,.08l-.77.44a.28.28,0,0,1-.28,0l-.76-.44A.1.1,0,0,1,91.08,91.46Z"/><path class="cls-61" d="M92.27,92.15v-.09h.07l.75-.43a.34.34,0,0,1,.28,0l.75.44h.06v.08h0a.1.1,0,0,1-.05.07l-.77.44a.28.28,0,0,1-.28,0l-.76-.44A.1.1,0,0,1,92.27,92.15Z"/><path class="cls-61" d="M93.46,92.84v-.09h.07l.75-.43a.34.34,0,0,1,.28,0l.75.44h.07v.08h0s0,.05-.05.07l-.77.44a.29.29,0,0,1-.27,0l-.76-.45A.09.09,0,0,1,93.46,92.84Z"/><path class="cls-61" d="M94.65,93.54v-.09h.07l.75-.44a.34.34,0,0,1,.28,0l.75.44h.07v.09h0s0,0,0,.08l-.77.44a.32.32,0,0,1-.27,0l-.76-.44S94.65,93.56,94.65,93.54Z"/><path class="cls-61" d="M95.84,94.23v-.09h.07l.75-.43a.28.28,0,0,1,.28,0l.75.43h.07v.09h0a.16.16,0,0,1-.06.08l-.77.44a.32.32,0,0,1-.27,0l-.76-.44A.09.09,0,0,1,95.84,94.23Z"/><path class="cls-61" d="M97,94.92v-.09h.07l.75-.43a.28.28,0,0,1,.28,0l.75.43H99v.09h0a.12.12,0,0,1-.06.08l-.77.44a.26.26,0,0,1-.27,0L97.09,95A.09.09,0,0,1,97,94.92Z"/><path class="cls-61" d="M98.22,95.61v-.09h.07l.75-.43a.31.31,0,0,1,.28,0l.75.44h.07v.08h0a.13.13,0,0,1-.06.07l-.76.44a.28.28,0,0,1-.28,0l-.76-.44A.09.09,0,0,1,98.22,95.61Z"/><path class="cls-61" d="M99.41,96.21h.08l.74-.43a.34.34,0,0,1,.28,0l.93.54h.07v.1h0s0,0-.06.07l-.76.44a.28.28,0,0,1-.28,0l-.94-.55a.09.09,0,0,1-.06-.08h0Z"/><path class="cls-61" d="M93.52,87.29V87.2h.07l.75-.43a.33.33,0,0,1,.22,0l.06,0,.75.43h.07v0l5.29,3.08h0l.75.43h.07v.09h0l0,0h0l-.77.44-.06,0h-.08a.25.25,0,0,1-.13,0l-.76-.44h0l-6.11-3.55A.09.09,0,0,1,93.52,87.29Z"/><path class="cls-61" d="M84.67,88.48h0v-.09h.06l.2-.12a.28.28,0,0,1,.28,0l.7.41.12,0v.09a.16.16,0,0,1-.06.08l-.21.12a.34.34,0,0,1-.28,0l-.75-.44s-.06,0-.06-.08Z"/><path class="cls-61" d="M85.86,89.17h0v-.09h.06l.2-.12a.28.28,0,0,1,.28,0l.7.41.12,0v.09a.16.16,0,0,1-.06.08l-.21.12a.32.32,0,0,1-.27,0l-.76-.44a.09.09,0,0,1-.06-.08Z"/><path class="cls-61" d="M87.05,89.86h0v-.09l0,0h0l.2-.12a.34.34,0,0,1,.28,0l.7.41.12,0v.09a.13.13,0,0,1-.06.07l-.21.12a.26.26,0,0,1-.27,0l-.76-.44a.09.09,0,0,1-.06-.08Z"/><path class="cls-61" d="M88.24,90.55h0v-.08h.06l.2-.12a.34.34,0,0,1,.28,0l.7.41.12,0v.09a.1.1,0,0,1-.06.07l-.21.12a.26.26,0,0,1-.27,0l-.76-.44a.09.09,0,0,1-.06-.08Z"/><path class="cls-61" d="M89.43,91.25h0v-.08h.06l.2-.12A.34.34,0,0,1,90,91l.7.41.12,0v.09a.09.09,0,0,1-.06.08l-.21.12a.32.32,0,0,1-.27,0l-.76-.45a.1.1,0,0,1-.06-.07Z"/><path class="cls-61" d="M90.62,91.94h0v-.08h.06l.21-.12a.26.26,0,0,1,.27,0l.71.41.11,0v.09a.09.09,0,0,1-.06.08l-.2.12a.34.34,0,0,1-.28,0L90.68,92s-.06,0-.06-.08Z"/><path class="cls-61" d="M91.81,92.63h0v-.09h.06l.21-.12a.26.26,0,0,1,.27,0l.71.41.11,0V93a.09.09,0,0,1-.06.08l-.2.12a.34.34,0,0,1-.28,0l-.76-.44a.09.09,0,0,1-.06-.08Z"/><path class="cls-61" d="M93,93.32h0v-.09l0,0h0l.21-.12a.32.32,0,0,1,.27,0l.71.41.11,0v.09a.1.1,0,0,1-.06.07l-.2.12a.28.28,0,0,1-.28,0l-.76-.44a.09.09,0,0,1-.06-.08Z"/><path class="cls-61" d="M94.19,94h0v-.08h.06l.21-.12a.32.32,0,0,1,.27,0l.71.41.11,0v.09s0,0-.06.07l-.2.12a.28.28,0,0,1-.28,0l-.76-.44a.09.09,0,0,1-.06-.08Z"/><path class="cls-61" d="M95.38,94.71h0v-.08h.06l.21-.12a.34.34,0,0,1,.28,0l.7.41.11,0V95a.09.09,0,0,1-.06.08l-.2.12a.34.34,0,0,1-.28,0l-.76-.45a.13.13,0,0,1-.06-.07Z"/><path class="cls-61" d="M96.57,95.4h0v-.09h.06l.21-.12a.28.28,0,0,1,.28,0l.7.4.11,0v.09a.09.09,0,0,1-.06.08l-.2.12a.34.34,0,0,1-.28,0l-.76-.44s0,0,0-.08Z"/><path class="cls-61" d="M97.77,96.09h0V96h0l.21-.12a.28.28,0,0,1,.28,0l.7.41.11,0v.09a.09.09,0,0,1-.06.08l-.2.12a.34.34,0,0,1-.28,0l-.76-.44a.08.08,0,0,1,0-.08Z"/><path class="cls-61" d="M99,96.78h0v-.09l.05,0h0l.21-.12a.34.34,0,0,1,.28,0l.7.41.11,0v.09a.1.1,0,0,1,0,.07l-.21.12a.28.28,0,0,1-.28,0L99,96.86a.1.1,0,0,1-.05-.08Z"/><path class="cls-61" d="M85.14,86.53h.06l.76-.44a.34.34,0,0,1,.28,0l1.41.82h.08V87h0a.1.1,0,0,1-.06.07l-.76.44a.28.28,0,0,1-.28,0l-1.43-.83a.09.09,0,0,1-.06-.08h0Z"/><path class="cls-61" d="M86.35,85.83h.05l.77-.44a.34.34,0,0,1,.28,0l2,1.16.1,0v.08h0a.09.09,0,0,1-.06.08l-.76.44a.28.28,0,0,1-.28,0L86.4,86a.1.1,0,0,1-.05-.08h0Z"/><path class="cls-61" d="M87.56,85.12l0,0h0l.76-.44a.34.34,0,0,1,.28,0l2,1.15.11,0V86h0a.1.1,0,0,1,0,.08l-.77.44a.26.26,0,0,1-.27,0l-2-1.18a.09.09,0,0,1-.06-.08h0Z"/><path class="cls-61" d="M100.1,95.22h.06l.76-.45a.34.34,0,0,1,.28,0l1.44.84h.08v.08h0s0,0-.06.07l-.76.44a.28.28,0,0,1-.28,0l-1.46-.84a.12.12,0,0,1-.06-.09h0Z"/><path class="cls-61" d="M100.77,94.18l.76-.44a.34.34,0,0,1,.28,0l2.06,1.2c.07,0,.07.11,0,.16l-.77.44a.32.32,0,0,1-.27,0l-2.06-1.2c-.08,0-.08-.11,0-.16Z"/><path class="cls-61" d="M103.2,92.92h0v-.08h.06l.21-.11a.26.26,0,0,1,.27,0l.71.4.11,0v.09a.09.09,0,0,1-.06.08l-.21.12a.32.32,0,0,1-.27,0l-.76-.44s-.06,0-.06-.08Z"/><path class="cls-61" d="M103.76,92.59h0v-.08h.06l.2-.12a.34.34,0,0,1,.28,0l.7.41.12,0v.09a.14.14,0,0,1-.06.08l-.21.11a.26.26,0,0,1-.27,0l-.76-.44a.09.09,0,0,1-.06-.08Z"/><path class="cls-61" d="M83.29,87.67h0v-.09l.06,0h0l.21-.12a.26.26,0,0,1,.27,0l.88.51.13,0v.1h0a.1.1,0,0,1,0,.07l-.21.12a.34.34,0,0,1-.28,0l-.94-.55A.12.12,0,0,1,83.29,87.67Z"/><path class="cls-62" d="M85.79,87.32l-.76.44a.34.34,0,0,1-.28,0L84,87.32c-.08,0-.08-.12,0-.17l.77-.44a.32.32,0,0,1,.27,0l.76.44c.08,0,.08.12,0,.17Z"/><path class="cls-62" d="M87,88l-.76.44a.34.34,0,0,1-.28,0L85.18,88c-.07-.05-.07-.12,0-.16l.77-.44a.26.26,0,0,1,.27,0l.76.44c.08,0,.08.11,0,.16Z"/><path class="cls-62" d="M88.17,88.7l-.76.44a.31.31,0,0,1-.28,0l-.76-.44c-.07,0-.07-.12,0-.16l.77-.44a.26.26,0,0,1,.27,0l.76.44c.08,0,.08.11,0,.16Z"/><path class="cls-62" d="M89.36,89.39l-.76.44a.28.28,0,0,1-.28,0l-.76-.44c-.07,0-.07-.11,0-.16l.77-.44a.28.28,0,0,1,.28,0l.75.44a.08.08,0,0,1,0,.16Z"/><path class="cls-62" d="M90.55,90.08l-.76.44a.28.28,0,0,1-.28,0l-.76-.44c-.07,0-.07-.11,0-.16l.77-.44a.34.34,0,0,1,.28,0l.76.44c.07,0,.07.12,0,.16Z"/><path class="cls-62" d="M91.74,90.78l-.76.44a.34.34,0,0,1-.28,0l-.76-.45c-.07,0-.07-.11,0-.16l.77-.44a.34.34,0,0,1,.28,0l.76.44c.07,0,.07.12,0,.17Z"/><path class="cls-62" d="M92.94,91.47l-.77.44a.34.34,0,0,1-.28,0l-.76-.44c-.07,0-.07-.12,0-.16l.76-.44a.31.31,0,0,1,.28,0l.76.45c.07,0,.07.11,0,.16Z"/><path class="cls-62" d="M94.13,92.16l-.77.44a.34.34,0,0,1-.28,0l-.75-.44c-.08,0-.08-.12,0-.16l.76-.44a.28.28,0,0,1,.28,0l.76.44c.07,0,.07.11,0,.16Z"/><path class="cls-62" d="M95.32,92.85l-.77.44a.26.26,0,0,1-.27,0l-.76-.44a.08.08,0,0,1,0-.16l.76-.44a.28.28,0,0,1,.28,0l.76.44a.09.09,0,0,1,0,.16Z"/><path class="cls-62" d="M96.51,93.54l-.77.44a.26.26,0,0,1-.27,0l-.76-.44c-.08,0-.08-.11,0-.16l.76-.44a.34.34,0,0,1,.28,0l.76.44c.07.05.07.12,0,.16Z"/><path class="cls-62" d="M97.7,94.23l-.77.45a.32.32,0,0,1-.27,0l-.76-.45c-.08,0-.08-.11,0-.16l.76-.44a.34.34,0,0,1,.28,0l.76.44c.08.05.07.12,0,.16Z"/><path class="cls-62" d="M90,88.4l-.76.44a.34.34,0,0,1-.28,0l-.76-.44c-.07-.05-.07-.12,0-.16L89,87.8a.28.28,0,0,1,.28,0l.76.44c.07,0,.07.11,0,.16Z"/><path class="cls-62" d="M91.23,89.09l-.76.44a.28.28,0,0,1-.28,0l-.76-.44a.09.09,0,0,1,0-.16l.77-.44a.28.28,0,0,1,.28,0l.76.44a.09.09,0,0,1,0,.16Z"/><path class="cls-62" d="M92.43,89.78l-.77.44a.28.28,0,0,1-.28,0l-.76-.44c-.07,0-.07-.11,0-.16l.76-.44a.34.34,0,0,1,.28,0l.76.44c.07,0,.07.12,0,.16Z"/><path class="cls-62" d="M93.62,90.47l-.77.45a.34.34,0,0,1-.28,0l-.75-.45c-.08,0-.08-.11,0-.16l.76-.44a.34.34,0,0,1,.28,0l.76.44c.07,0,.07.12,0,.16Z"/><path class="cls-62" d="M94.81,91.17l-.77.44a.32.32,0,0,1-.27,0L93,91.17c-.08,0-.08-.12,0-.16l.76-.45a.34.34,0,0,1,.28,0l.76.45c.07,0,.07.11,0,.16Z"/><path class="cls-62" d="M96,91.86l-.77.44a.32.32,0,0,1-.27,0l-.76-.44c-.08,0-.08-.12,0-.16l.76-.44a.28.28,0,0,1,.28,0l.76.44c.07,0,.07.11,0,.16Z"/><path class="cls-62" d="M97.19,92.55l-.77.44a.26.26,0,0,1-.27,0l-.76-.44a.08.08,0,0,1,0-.16l.76-.44a.28.28,0,0,1,.28,0l.76.44a.09.09,0,0,1,0,.16Z"/><path class="cls-62" d="M98.38,93.24l-.77.44a.26.26,0,0,1-.27,0l-.76-.44c-.08,0-.08-.11,0-.16l.76-.44a.34.34,0,0,1,.28,0l.76.44c.08,0,.08.12,0,.16Z"/><path class="cls-62" d="M99.57,93.93l-.77.44a.26.26,0,0,1-.27,0l-.76-.44c-.08,0-.08-.11,0-.16l.76-.44a.34.34,0,0,1,.28,0l.76.44c.08,0,.08.12,0,.16Z"/><path class="cls-62" d="M100.76,94.63l-.76.44a.34.34,0,0,1-.28,0L99,94.63c-.08,0-.08-.12,0-.16l.76-.45a.34.34,0,0,1,.28,0l.76.44c.08.05.08.12,0,.17Z"/><path class="cls-62" d="M98.89,94.93l-.77.44a.32.32,0,0,1-.27,0l-.76-.44c-.08-.05-.08-.12,0-.16l.76-.45a.34.34,0,0,1,.28,0l.76.45c.08,0,.08.11,0,.16Z"/><path class="cls-62" d="M100.08,95.62l-.77.44a.32.32,0,0,1-.27,0l-.76-.44c-.08-.05-.08-.12,0-.16L99,95a.28.28,0,0,1,.28,0l.76.44c.08,0,.08.11,0,.16Z"/><path class="cls-62" d="M90.62,84.53l-.77.44a.32.32,0,0,1-.27,0l-.76-.44c-.08,0-.08-.12,0-.16l.76-.44a.28.28,0,0,1,.28,0l.76.44c.07,0,.07.11,0,.16Z"/><path class="cls-62" d="M91.81,85.22l-.77.44a.26.26,0,0,1-.27,0L90,85.22a.08.08,0,0,1,0-.16l.76-.44a.34.34,0,0,1,.28,0l.76.44a.09.09,0,0,1,0,.16Z"/><path class="cls-62" d="M93,85.91l-.77.44a.26.26,0,0,1-.27,0l-.76-.44c-.08,0-.08-.11,0-.16l.76-.44a.34.34,0,0,1,.28,0l.76.44c.08,0,.08.12,0,.16Z"/><path class="cls-62" d="M94.19,86.61l-.77.44a.32.32,0,0,1-.27,0l-.76-.45c-.08,0-.08-.11,0-.16l.76-.44a.34.34,0,0,1,.28,0l.76.44c.08,0,.08.12,0,.17Z"/><path class="cls-62" d="M88.85,87.71l-.76.44a.34.34,0,0,1-.28,0l-.76-.44c-.07,0-.07-.12,0-.16l.77-.45a.34.34,0,0,1,.28,0l.76.45c.07,0,.07.11,0,.16Z"/><path class="cls-62" d="M101.45,96.42l-.76.44a.34.34,0,0,1-.28,0l-.94-.55a.08.08,0,0,1,0-.16l.76-.44a.28.28,0,0,1,.28,0l.94.55c.08,0,.08.11,0,.16Z"/><path class="cls-62" d="M101.49,90.85l-.77.44a.32.32,0,0,1-.27,0l-6.87-4c-.08,0-.08-.12,0-.16l.76-.44a.31.31,0,0,1,.28,0l6.87,4c.08,0,.07.11,0,.16Z"/><path class="cls-62" d="M86,88.81l-.21.11a.31.31,0,0,1-.28,0l-.75-.45c-.08,0-.08-.11,0-.16l.2-.12a.34.34,0,0,1,.28,0l.76.45c.08,0,.07.11,0,.16Z"/><path class="cls-62" d="M87.16,89.5l-.21.12a.32.32,0,0,1-.27,0l-.76-.44c-.08-.05-.08-.12,0-.16l.2-.12a.28.28,0,0,1,.28,0l.76.44c.08,0,.08.11,0,.16Z"/><path class="cls-62" d="M88.35,90.19l-.21.12a.32.32,0,0,1-.27,0l-.76-.44c-.08-.05-.08-.12,0-.16l.2-.12a.28.28,0,0,1,.28,0l.76.44a.08.08,0,0,1,0,.16Z"/><path class="cls-62" d="M89.54,90.88l-.21.12a.26.26,0,0,1-.27,0l-.76-.44a.08.08,0,0,1,0-.16l.2-.12a.34.34,0,0,1,.28,0l.76.44c.08,0,.08.12,0,.16Z"/><path class="cls-62" d="M90.73,91.57l-.21.12a.26.26,0,0,1-.27,0l-.76-.44c-.08,0-.08-.11,0-.16l.2-.12A.34.34,0,0,1,90,91l.76.44c.08,0,.08.12,0,.16Z"/><path class="cls-62" d="M91.92,92.27l-.2.11a.28.28,0,0,1-.28,0l-.76-.44c-.08,0-.08-.11,0-.16l.21-.12a.32.32,0,0,1,.27,0l.76.45c.08,0,.08.11,0,.16Z"/><path class="cls-62" d="M93.11,93l-.2.12a.34.34,0,0,1-.28,0l-.76-.44c-.08,0-.08-.12,0-.17l.21-.11a.26.26,0,0,1,.27,0l.76.44c.08,0,.08.11,0,.16Z"/><path class="cls-62" d="M94.3,93.65l-.2.12a.34.34,0,0,1-.28,0l-.76-.44c-.08,0-.08-.12,0-.16l.21-.12a.26.26,0,0,1,.27,0l.76.44a.08.08,0,0,1,0,.16Z"/><path class="cls-62" d="M95.49,94.34l-.2.12a.34.34,0,0,1-.28,0L94.25,94c-.08,0-.08-.12,0-.16l.21-.12a.32.32,0,0,1,.27,0l.76.44c.08,0,.08.12,0,.16Z"/><path class="cls-62" d="M96.68,95l-.2.12a.28.28,0,0,1-.28,0l-.76-.44a.09.09,0,0,1,0-.16l.21-.12a.34.34,0,0,1,.28,0l.75.44c.08,0,.08.12,0,.16Z"/><path class="cls-62" d="M97.87,95.73l-.2.11a.28.28,0,0,1-.28,0l-.76-.44c-.07,0-.07-.11,0-.16l.21-.12a.34.34,0,0,1,.28,0l.76.44c.07,0,.07.12,0,.17Z"/><path class="cls-62" d="M99.06,96.42l-.2.12a.34.34,0,0,1-.28,0l-.76-.45c-.07,0-.07-.11,0-.16l.21-.11a.28.28,0,0,1,.28,0l.76.44c.07,0,.07.11,0,.16Z"/><path class="cls-62" d="M100.26,97.11l-.21.12a.34.34,0,0,1-.28,0L99,96.79c-.07-.05-.07-.12,0-.16l.21-.12a.28.28,0,0,1,.28,0l.76.44c.07,0,.07.11,0,.16Z"/><path class="cls-62" d="M84.78,88.11l-.21.12a.28.28,0,0,1-.28,0l-.94-.55c-.08,0-.08-.11,0-.16l.21-.11a.26.26,0,0,1,.27,0l1,.54c.08,0,.07.12,0,.16Z"/><path class="cls-62" d="M87.67,87l-.76.44a.28.28,0,0,1-.28,0l-1.43-.83c-.08-.05-.08-.12,0-.16L86,86a.28.28,0,0,1,.28,0l1.43.83a.08.08,0,0,1,0,.16Z"/><path class="cls-62" d="M89.47,86.66l-.76.44a.28.28,0,0,1-.28,0l-2-1.18c-.07,0-.07-.11,0-.16l.77-.44a.34.34,0,0,1,.28,0l2,1.18c.08,0,.08.11,0,.16Z"/><path class="cls-62" d="M90.69,86l-.77.44a.32.32,0,0,1-.27,0l-2-1.18a.08.08,0,0,1,0-.16l.76-.44a.34.34,0,0,1,.28,0l2,1.18c.07,0,.07.11,0,.16Z"/><path class="cls-62" d="M102.66,95.72l-.76.44a.28.28,0,0,1-.28,0l-1.46-.85c-.08,0-.08-.11,0-.16l.76-.44a.34.34,0,0,1,.28,0l1.46.85a.08.08,0,0,1,0,.16Z"/><path class="cls-62" d="M103.87,95l-.77.45a.34.34,0,0,1-.28,0l-2-1.2a.08.08,0,0,1,0-.16l.76-.44a.28.28,0,0,1,.28,0l2.06,1.19c.07,0,.07.12,0,.16Z"/><path class="cls-62" d="M104.5,93.24l-.21.12a.26.26,0,0,1-.27,0l-.76-.44c-.08,0-.08-.11,0-.16l.21-.12a.32.32,0,0,1,.27,0l.76.44c.08,0,.08.12,0,.16Z"/><path class="cls-62" d="M105.06,92.92l-.21.12a.26.26,0,0,1-.27,0l-.76-.44a.08.08,0,0,1,0-.16l.2-.12a.34.34,0,0,1,.28,0l.76.44c.08,0,.08.12,0,.16Z"/><path class="cls-62" d="M100.19,92.89l-.77.44a.32.32,0,0,1-.27,0l-.76-.44c-.08,0-.08-.12,0-.16l.76-.45a.34.34,0,0,1,.28,0l.76.45c.08,0,.08.11,0,.16Z"/><path class="cls-62" d="M101.38,93.58l-.77.44a.32.32,0,0,1-.27,0l-.76-.44c-.08,0-.08-.12,0-.16l.76-.44a.28.28,0,0,1,.28,0l.76.44c.08,0,.08.11,0,.16Z"/><path class="cls-62" d="M101.4,92.19l-.76.44a.34.34,0,0,1-.28,0l-.76-.44c-.07,0-.07-.12,0-.16l.77-.45a.32.32,0,0,1,.27,0l.76.44c.08,0,.08.12,0,.17Z"/><path class="cls-62" d="M102.59,92.88l-.76.44a.34.34,0,0,1-.28,0l-.76-.44c-.07,0-.07-.12,0-.16l.77-.44a.26.26,0,0,1,.27,0l.76.44c.08,0,.08.11,0,.16Z"/><path class="cls-62" d="M103.78,93.57,103,94a.34.34,0,0,1-.28,0l-.76-.44c-.07,0-.07-.12,0-.16l.77-.44a.28.28,0,0,1,.28,0l.75.44c.08,0,.08.11,0,.16Z"/><path class="cls-62" d="M105.08,94.32l-.76.44a.28.28,0,0,1-.28,0l-.87-.5c-.07,0-.07-.11,0-.16l.77-.44a.31.31,0,0,1,.28,0l.86.5c.08,0,.08.12,0,.16Z"/><path class="cls-62" d="M97.81,91.5l-.77.44a.26.26,0,0,1-.27,0L96,91.5c-.08,0-.08-.11,0-.16l.76-.44a.34.34,0,0,1,.28,0l.76.44c.07,0,.07.12,0,.16Z"/><path class="cls-62" d="M99,92.19l-.77.45a.32.32,0,0,1-.27,0l-.76-.45c-.08,0-.08-.11,0-.16l.76-.44a.34.34,0,0,1,.28,0L99,92c.07,0,.07.12,0,.16Z"/><path class="cls-62" d="M99,90.8l-.76.44a.28.28,0,0,1-.28,0l-.76-.44c-.08,0-.08-.11,0-.16L98,90.2a.32.32,0,0,1,.27,0l.76.44c.08,0,.08.12,0,.16Z"/><path class="cls-62" d="M100.21,91.49l-.76.44a.28.28,0,0,1-.28,0l-.76-.44c-.08,0-.07-.11,0-.16l.77-.44a.32.32,0,0,1,.27,0l.76.44c.08,0,.08.12,0,.16Z"/><path class="cls-62" d="M95.43,90.12l-.77.44a.34.34,0,0,1-.28,0l-.76-.44c-.07-.05-.07-.12,0-.16l.76-.44a.28.28,0,0,1,.28,0l.76.44c.07,0,.07.11,0,.16Z"/><path class="cls-62" d="M96.62,90.81l-.77.44a.28.28,0,0,1-.28,0l-.75-.44a.08.08,0,0,1,0-.16l.76-.44a.28.28,0,0,1,.28,0l.76.44a.09.09,0,0,1,0,.16Z"/><path class="cls-62" d="M96.64,89.42l-.76.44a.34.34,0,0,1-.28,0l-.76-.44c-.08,0-.08-.12,0-.16l.76-.44a.28.28,0,0,1,.28,0l.76.44c.08,0,.08.11,0,.16Z"/><path class="cls-62" d="M97.83,90.11l-.76.44a.28.28,0,0,1-.28,0L96,90.11A.08.08,0,0,1,96,90l.77-.44a.26.26,0,0,1,.27,0l.76.44a.08.08,0,0,1,0,.16Z"/><path class="cls-62" d="M93,88.73l-.76.45a.34.34,0,0,1-.28,0l-.76-.45c-.07,0-.07-.11,0-.16l.77-.44a.34.34,0,0,1,.28,0l.76.44c.07.05.07.12,0,.16Z"/><path class="cls-62" d="M94.24,89.43l-.77.44a.34.34,0,0,1-.28,0l-.76-.44c-.07-.05-.07-.12,0-.16l.76-.45a.31.31,0,0,1,.28,0l.76.44c.07,0,.07.11,0,.16Z"/><path class="cls-62" d="M94.26,88l-.77.45a.32.32,0,0,1-.27,0L92.46,88c-.08,0-.08-.11,0-.16l.76-.44a.34.34,0,0,1,.28,0l.76.44c.08,0,.08.12,0,.16Z"/><path class="cls-62" d="M95.45,88.73l-.76.44a.34.34,0,0,1-.28,0l-.76-.44c-.08,0-.08-.12,0-.16l.76-.45a.34.34,0,0,1,.28,0l.76.45c.08,0,.08.11,0,.16Z"/><path class="cls-62" d="M90.66,87.35l-.76.44a.28.28,0,0,1-.28,0l-.76-.44a.09.09,0,0,1,0-.16l.77-.44a.29.29,0,0,1,.27,0l.76.44a.08.08,0,0,1,0,.16Z"/><path class="cls-62" d="M91.85,88l-.76.44a.28.28,0,0,1-.28,0L90.05,88c-.07,0-.07-.11,0-.16l.77-.44a.34.34,0,0,1,.28,0l.75.44c.08.05.08.12,0,.16Z"/><path class="cls-62" d="M91.88,86.65l-.77.44a.26.26,0,0,1-.27,0l-.76-.44a.08.08,0,0,1,0-.16l.76-.44a.28.28,0,0,1,.28,0l.76.44a.09.09,0,0,1,0,.16Z"/><path class="cls-62" d="M93.07,87.34l-.77.44a.26.26,0,0,1-.27,0l-.76-.44c-.08,0-.08-.11,0-.16l.76-.44a.34.34,0,0,1,.28,0l.76.44c.08,0,.08.12,0,.16Z"/><path class="cls-62" d="M102.68,91.54l-.77.44a.32.32,0,0,1-.27,0l-.76-.44c-.08-.05-.08-.12,0-.16l.76-.44a.28.28,0,0,1,.28,0l.76.44c.08,0,.08.11,0,.16Z"/><path class="cls-62" d="M103.87,92.23l-.77.44a.26.26,0,0,1-.27,0l-.76-.44a.08.08,0,0,1,0-.16l.76-.44a.28.28,0,0,1,.28,0l.76.44a.08.08,0,0,1,0,.16Z"/><path class="cls-62" d="M106.28,93.63l-.77.44a.26.26,0,0,1-.27,0l-.76-.44a.08.08,0,0,1,0-.16l.76-.44a.28.28,0,0,1,.28,0l.76.44a.08.08,0,0,1,0,.16Z"/><path class="cls-63" d="M104.72,104.77l-5.14-3c-.36-.21-.31-.58.1-.82l7-4a1.6,1.6,0,0,1,1.41-.06l5.13,3c.37.21.32.57-.1.82l-7,4A1.54,1.54,0,0,1,104.72,104.77Z"/><path class="cls-59" d="M106.2,102.31s2.35-1.38,2.56-1.53c.48-.37.37-.56.17-.83a3.12,3.12,0,0,0-2.65-.8,4.26,4.26,0,0,0-2.57,2c-.09.33,0,.57.49.83A2.18,2.18,0,0,0,106.2,102.31Z"/><path class="cls-64" d="M106.2,101.89s2.35-1.39,2.56-1.54c.48-.37.37-.56.17-.82a3.12,3.12,0,0,0-2.65-.81,4.27,4.27,0,0,0-2.57,2c-.09.32,0,.56.49.83A2.23,2.23,0,0,0,106.2,101.89Z"/><path class="cls-65" d="M66.07,94.43l5.76-3.35a1.42,1.42,0,0,1,1.27,0l.42.24.4-.24a1.42,1.42,0,0,1,1.27,0l16.07,9.25a.39.39,0,0,1,0,.73l-5.77,3.35a1.07,1.07,0,0,1-.73.08,8.65,8.65,0,0,1-2.29-.08L66.07,95A.28.28,0,0,1,66.07,94.43Z"/><path class="cls-59" d="M70.65,95.76l3.77-11.09,3.13,1.81v0l0,6.67.21,0a2.54,2.54,0,0,1,1.56.33l5,2.72a.93.93,0,0,1,.31.28l.14,0V97a.89.89,0,0,1-.46.78l-5.17,3,0,0a2.81,2.81,0,0,1-.7.29h0l-.17,0-.4.06a3.11,3.11,0,0,1-1.5-.28l-.09,0-.13-.07L74,99.53l-2.41-1.39a1.7,1.7,0,0,1-.42-.33,2.45,2.45,0,0,1-.38-.53,2.34,2.34,0,0,1-.09-.24,1.82,1.82,0,0,1-.07-.25A1.92,1.92,0,0,1,70.65,95.76Z"/><path class="cls-66" d="M66.13,65.45l.87-.6h0a.59.59,0,0,1,.6.07L90.23,78a2.14,2.14,0,0,1,1,1.45l1.57,17.35a.74.74,0,0,1-.26.73h0l-.83.57-.94-1.2-21-12.12a2.94,2.94,0,0,1-1.36-2.06L66.91,66.45Z"/><path class="cls-59" d="M66,66,67.53,83.3a3,3,0,0,0,1.36,2.06L90.79,98c.68.4,1.18.12,1.12-.62L90.34,80a1.85,1.85,0,0,0-.28-.77,2.14,2.14,0,0,0-.68-.69L66.75,65.51a.58.58,0,0,0-.62-.06A.52.52,0,0,0,66,66Z"/><path class="cls-61" d="M71.17,95.25l3.18-10.48,3,1.75.51,6.21a2.54,2.54,0,0,1,1.72.29l4.71,2.72a.88.88,0,0,1,0,1.52l-4.94,2.85a3,3,0,0,1-2.93,0L72,97.56A2,2,0,0,1,71.17,95.25Z"/><path class="cls-67" d="M76.7,84c6,4,10.48,0,13.36-4.75a2.14,2.14,0,0,0-.68-.69L66.75,65.51a.58.58,0,0,0-.62-.06S65.32,76.44,76.7,84Z"/><path class="cls-34" d="M70.42,96.79a1.82,1.82,0,0,0,.07.25,2.34,2.34,0,0,0,.09.24,1.83,1.83,0,0,0,.38.53,1.7,1.7,0,0,0,.42.33l2.41,1.39,2.14,1.23.13.07.09,0a3.28,3.28,0,0,0,1.49.27,3.05,3.05,0,0,0,.41-.05l.17,0h0v-.42c-.45.06-.82-.13-.82-1h0l0-13.15v0l-3.13-1.81L70.49,95.76A1.92,1.92,0,0,0,70.42,96.79Z"/><path class="cls-59" d="M77.43,99.66v1c0,.2.24.37.37.49h0l.4-.06.17,0h0a2.81,2.81,0,0,0,.7-.29l0,0c.12-.22.28-.65-.09-.46-1,.48-1.13-.32-1.13-.32l0-7V90.56l-.51-4Z"/><path class="cls-23" d="M125.43,89.44c-1.66,3.36-17.56,2-18.64,2.06s-1.38.77-2.25,1.23a9.58,9.58,0,0,1-2.43.69s-1.19-.35-1.76-.55a1.46,1.46,0,0,1-.78-.88l-.59.22L98.05,92l-.48-.69,1.28-.54,2.35-2a16.55,16.55,0,0,1-1.85,1.09c-.41.13-1.39.09-1.41-.13s0-.41.91-.81,1.29-.93,2.1-.95,2.31.07,5.32.34,15.35-2.21,15.35-2.21,3.8,1,3.87,2.86A1,1,0,0,1,125.43,89.44Z"/><path class="cls-68" d="M125.43,89.44c-1.66,3.36-17.56,2-18.64,2.06s-1.38.77-2.25,1.23a9.58,9.58,0,0,1-2.43.69s-1.19-.35-1.76-.55a1.46,1.46,0,0,1-.78-.88l1.25-.89.59-.3s-.15.79-.43.93-1.1.51-1.1.51l.59.51s1.47.48,1.78.51a12.26,12.26,0,0,0,3-1.27,4.38,4.38,0,0,1,1.25-.7c1.27.15,9.72.17,11.53.09a28.06,28.06,0,0,0,5.29-.7,3.07,3.07,0,0,0,2.2-1.65A1,1,0,0,1,125.43,89.44Z"/><path class="cls-23" d="M98.86,86a7.61,7.61,0,0,1-.38.91h0a0,0,0,0,0,0,0,3.14,3.14,0,0,1-.77.63c-.5.23-1.52,1.52-1.76,1.58s-.48-.2-.74-.14A.18.18,0,0,1,95,89h0l-.06,0,0,0,0,0,0-.06h0l0,0a1.11,1.11,0,0,1-.11-.2l-.17-.1-.27-.18,0,0h0l0,0-.08.05h0l0,0h-.18a.68.68,0,0,1-.33-.15A10.35,10.35,0,0,1,92.34,87a.54.54,0,0,1,0-.65,3.78,3.78,0,0,0,.22-.5h0l0-.07a6.7,6.7,0,0,1,.72-1l0,0c.31-.35.65-.7.86-.92l.09-.09s0,0,0,0l0,0,0,0h0l.54.09a2.79,2.79,0,0,1,.75-.33c.27,0,.79.39,1.29.37h0c.52.37,1,.31,1.31.6S99.09,85.32,98.86,86Z"/><path class="cls-68" d="M95.81,88.56a3.84,3.84,0,0,1,.38-1.16c.27-.41.87-1.13.87-1.13s.23-1.11.08-1.29-.56-.58-.56-.58-.81,1.15-.91,1.32a4.42,4.42,0,0,0,0,1.13,1.68,1.68,0,0,1,.09,1.1A8.81,8.81,0,0,0,95.42,89Z"/><path class="cls-68" d="M93.63,87.57a5.89,5.89,0,0,0,.62.75.35.35,0,0,1-.15.09c-.07-.19-.89-1.06-.95-1.2a7.39,7.39,0,0,1-.57-1.27,5.17,5.17,0,0,1,.69-1.11l0,0a8,8,0,0,0-.45,1A6,6,0,0,0,93.63,87.57Z"/><path class="cls-68" d="M94.83,88.77a1.11,1.11,0,0,1-.11-.2l-.17-.1c.11,0,.14-.08.1-.2s-.32-1-.32-1a9.27,9.27,0,0,1-.51-1.49,3.08,3.08,0,0,1,1.4-1.68,5.9,5.9,0,0,0-1,1.41,15,15,0,0,0,.65,2.61C94.82,88.16,94.73,88.6,94.83,88.77Z"/><polygon class="cls-45" points="132.06 118.96 132.06 130.72 122.35 136.32 122.35 124.56 132.06 118.96"/><polygon class="cls-58" points="122.35 124.56 122.35 136.32 26.58 81.05 26.58 69.29 122.35 124.56"/><polygon class="cls-43" points="122.36 124.56 26.58 69.29 36.28 63.69 132.06 118.96 122.36 124.56"/><polygon class="cls-27" points="113.26 75.04 117.26 76.58 117.95 73.62 113.96 72.07 113.26 75.04"/><polygon class="cls-39" points="81.96 100.27 90.65 95.25 71.05 83.94 62.36 88.96 81.96 100.27"/><path class="cls-24" d="M8.31,82A10.53,10.53,0,0,0,5,82.06c-.76.36-2.8,1.7-3.22,5.33s-1.13,14-1.8,17.39c.61,7.11,2.29,10,2.45,10.6s2.36.91,3.13.82a3.89,3.89,0,0,0,1.51-.59s-.46-11.1-.09-12.76S8.31,82,8.31,82Z"/><path class="cls-29" d="M3.11,115.12a10.13,10.13,0,0,1,.55,2.56,14.92,14.92,0,0,0,.15,3.52,17.75,17.75,0,0,0,1.35,2l1.2.5,1.45-1,.56-3.81L6.4,115Z"/><path class="cls-69" d="M5,116.2l.07-6.35s.58-5.81.57-6.48-.82-5.08-.82-5.08L3.76,95.2l0-6,3.14,14.23.17,12.14-1.27.7Z"/><path class="cls-70" d="M4.34,115.69a7,7,0,0,1,1,2.59,22.62,22.62,0,0,1-.71,3l1.23,2.56,3.48-.62-2.72-7.71Z"/><path class="cls-38" d="M8.87,179.36c6.12,3.89,16.31,4.31,22.78.94s6.75-9.26.63-13.14-16.3-4.32-22.77-.95S2.76,175.47,8.87,179.36Z"/><path class="cls-71" d="M7.81,171a2.31,2.31,0,0,0-.55.85,12.17,12.17,0,0,0-.19,1.64c0,.25.4.82,2.18,1.19A3.74,3.74,0,0,0,13,172.89a7.06,7.06,0,0,1,.65-1.59,13.9,13.9,0,0,1,1.72-1.2,7.31,7.31,0,0,0,2-.8,10.17,10.17,0,0,0,2.49-2.36,3.91,3.91,0,0,0,.75-1.38c0-.09.1-.64-.14-.78s-.74-.49-.76-.51S7.81,171,7.81,171Z"/><path class="cls-71" d="M20.93,177.79s-.74.34-.78.52a8.41,8.41,0,0,0-.17,1.51,3.55,3.55,0,0,0,3.36.81,5.34,5.34,0,0,0,2.95-1.88c0-.15,0-.33,0-.33a8.24,8.24,0,0,1,1.91-1.21,7.47,7.47,0,0,0,2.35-.74,7.11,7.11,0,0,0,3.08-3,3.35,3.35,0,0,0,.24-2.08C33.76,171.14,20.93,177.79,20.93,177.79Z"/><path class="cls-72" d="M7.68,169.48s-.29,1.93-.37,2.5c.23.85,1.77,1.17,2.94,1.27s3.11-2.22,3.35-2.46a12.78,12.78,0,0,1,2-1.49,7.73,7.73,0,0,0,2.79-1.47A4.89,4.89,0,0,0,20.28,165a1.3,1.3,0,0,0-1.11-.93,4.86,4.86,0,0,0-2.07-.15A30.89,30.89,0,0,0,13,165.36C12.6,165.61,7.68,169.48,7.68,169.48Z"/><path class="cls-73" d="M15,151.56c-1,4.38-.79,17.15-.89,17.45a1.73,1.73,0,0,1-.49.5,7.67,7.67,0,0,1-3.18,1.5c-1.83.33-3.13-.3-3.22-.67s-.55-6.43-.67-12.78A88.91,88.91,0,0,1,7.8,143.44a106.2,106.2,0,0,0-.92-14.34,26.41,26.41,0,0,1-.73-11.7c.54-2.9.79-5.8.79-5.8a12.67,12.67,0,0,1,6.92,0c2.65.86,5.16,9.65,5.26,16.19a14.65,14.65,0,0,1-.65,5.08C16.39,138.37,16,147.18,15,151.56Z"/><path class="cls-74" d="M7.5,130a.3.3,0,0,1-.16,0l-.06,0-.77-1.45a26.29,26.29,0,0,1-.84-8.82l0-.34.27.22a7.65,7.65,0,0,0,3.15,1.51l.18,0,0,.18s-.79,5.16,0,7.75l0,.14-.13.08A3.62,3.62,0,0,1,7.5,130ZM6,120.09a26.91,26.91,0,0,0,.85,8.29l.69,1.26A3.62,3.62,0,0,0,8.87,129c-.67-2.45-.12-6.66,0-7.6A8.26,8.26,0,0,1,6,120.09Z"/><path class="cls-74" d="M13.17,170h-.38a155.91,155.91,0,0,1,1.39-19c.19-.88.64-4.07,1.08-7.16.28-2,.56-3.95.78-5.36.55-3.58-.74-9.43-.76-9.49l.38-.08c.05.24,1.32,6,.76,9.63-.22,1.41-.5,3.38-.78,5.35-.44,3.1-.89,6.3-1.08,7.19A154.47,154.47,0,0,0,13.17,170Z"/><path class="cls-69" d="M15,151.56c-1,4.38-.79,17.15-.89,17.45a1.73,1.73,0,0,1-.49.5c.12-4.19.4-13.28.56-14.61.2-1.72,2-14.35,2-14.35s.2-4.21-.43-5.93a17.09,17.09,0,0,0-2.94-4.17l.74-.49-.49-1.68a20.64,20.64,0,0,1,6.07-.46,14.65,14.65,0,0,1-.65,5.08C16.39,138.37,16,147.18,15,151.56Z"/><path class="cls-72" d="M21,174.93a7.76,7.76,0,0,0-.73,2,4.81,4.81,0,0,0,0,1.43,3.76,3.76,0,0,0,3.16.81c1.23-.37,3.08-1.88,3.92-2.17a13.53,13.53,0,0,0,4.58-2.23c1.33-1.21,1.88-1.91,1.94-2.58s.16-1-.35-1.63a2.91,2.91,0,0,0-1.6-1.11,38.18,38.18,0,0,0-5.6.88A67.74,67.74,0,0,0,21,174.93Z"/><path class="cls-73" d="M13.17,114.27s-1.52,6.45-1.24,10.61,3.57,5.58,4.17,6.59,2.66,6.61,2.56,19.08c1.44,10.25,2,23.3,2.17,25.11,3.08,2.85,6.8-.88,6.85-1.53s.38-19.29.29-22.11,1.7-20.25,1.2-26.8-2.2-8.87-2.29-11.93C25.53,112.55,14.26,109.92,13.17,114.27Z"/><path class="cls-74" d="M20.14,133a.33.33,0,0,1-.12,0,18.77,18.77,0,0,1-3.66-3.37c-.09-.32-.38-5.18-.44-6.15v-.26l.26.07c3.33.89,8.31,0,8.36,0l.24-.05v.25c0,.24-.3,6-.42,6.59s-2,1.87-2.89,2.37A3.28,3.28,0,0,1,20.14,133Zm-3.82-9.3c.14,2.3.35,5.56.41,5.81a22.21,22.21,0,0,0,3.41,3.11c.5,0,3.73-2.15,3.83-2.63s.29-4.19.39-6.3A23.75,23.75,0,0,1,16.32,123.69Z"/><path class="cls-75" d="M27,114.4s-2.83,3.82-13.85.79c-3.76-1.3-6.31-2.34-6.25-3l-.32,2.63s.12,1.33,7.25,3.3c5.78,1.21,13,1.38,13.65-1.66C27.21,115.53,27,114.4,27,114.4Z"/><path class="cls-73" d="M13.11,114.53s-.35,0-.47.65a14.74,14.74,0,0,0-.43,2.84,4.2,4.2,0,0,0,.12.54,3.44,3.44,0,0,1-.95-.34c-.14-.15-.16-.35-.06-1.23a14.19,14.19,0,0,1,.55-2.47c.14-.38.34-.36.34-.36Z"/><path class="cls-73" d="M23.87,115.69a1.84,1.84,0,0,1,.49.83c.05.39,0,2,0,2.16s-.23.52-.18.59,1-.13,1-.32a3.44,3.44,0,0,1,.13-1.15,4.13,4.13,0,0,0-.11-1.87,1.72,1.72,0,0,0-.43-.54Z"/><path class="cls-74" d="M26.87,175.36h-.38c0-.21.65-20.49.44-24.39-.1-2,.2-5.76.51-9.74s.67-8.33.68-11.65a48.82,48.82,0,0,0-1.84-12.68l.37-.11a48.87,48.87,0,0,1,1.85,12.79c0,3.34-.36,7.77-.67,11.68a94.49,94.49,0,0,0-.51,9.69C27.53,154.86,26.88,175.15,26.87,175.36Z"/><path class="cls-25" d="M31.25,92.74s1-3.43-.3-4.43-6.42-3.39-7.47-4.41S21.41,82,21.41,82s-7.3-2.06-7.57-2.09a22.93,22.93,0,0,0-2.75.9c-.7.23-5.42,1.07-5.82,1.43s-2.5,2.54-2.19,6.88S5.31,98.5,6.28,101s.6,10,.66,10.62,2,1.93,7.24,3.39,11.88.76,12.38-.48,2.49-14.43,2.81-15.25S31.25,92.74,31.25,92.74Z"/><path class="cls-29" d="M13.49,79.68a12.5,12.5,0,0,0,1.06-3.14,13.53,13.53,0,0,0-.66-3.45s2.41-7,6.53-7.32,6.1-2,6.32-.3a27.32,27.32,0,0,1,.16,4.83c-.09.8-.44,2-.49,2.4a34.37,34.37,0,0,1-1,4.79,9.76,9.76,0,0,1-.94,2.23l-2.06.18s-.48,1.85-.57,2.11S13.49,79.68,13.49,79.68Z"/><path class="cls-24" d="M18,79.14s-1.78-.35-2.59-.6A3.44,3.44,0,0,1,14.2,78l-.44.33a8.61,8.61,0,0,0-1.14,2c0,.34,2.17.77,4.27,1.22a20.08,20.08,0,0,1,6.22,2.07l.22-2.1a10.29,10.29,0,0,0-2.62-1.65C19.64,79.45,18,79.14,18,79.14Z"/><path class="cls-32" d="M24.29,73.42s.66-1.25-.3-1.81-2,.4-2.36.77-.68,2.47-1.29,2.85a18.78,18.78,0,0,1-2.6,1s-2.71,0-3.24-.55a12.81,12.81,0,0,1-1.95-4.21c-.15-1.07-1.28-7,3.22-8.93,2.71-2.74,6.52-1.49,7.69-1s4,2.74,3.84,3.73-.4,2.12-.4,2.12L26.58,70s-.82.86-.86,1.16-.66,2.38-.66,2.38Z"/><path class="cls-69" d="M27.21,95a26.41,26.41,0,0,1,.34,5.25c-.22,1.81-2.22,15-2.22,15s1.65-.43,1.62-1.34,2.27-14,3-16.6S27.68,91.3,27.21,95Z"/><path class="cls-76" d="M24.14,72.36s.75-1.38.06-1.47-1.17.8-1.37,1.45a2.58,2.58,0,0,0-.08,1.57c.15.58.17,1.26.4,1.36s.56-.32.6-.69S24.14,72.36,24.14,72.36Z"/><polygon class="cls-72" points="50.02 94.34 56.7 91.47 60.69 93.07 60.76 93.61 54.16 96.5 49.98 94.61 50.02 94.34"/><path class="cls-29" d="M51.62,95.58a3.21,3.21,0,0,1,.79-1.19c.41-.24,1.94-1,1.94-1a9.47,9.47,0,0,1,1.69.49c.27.19,0,.47,0,.47l1.88.35a1.47,1.47,0,0,1,.4.81c0,.36-.54.59-.54.59l-.7.12s.15.82-.18,1.1a2.31,2.31,0,0,1-.56.38,3.16,3.16,0,0,1-.31,1,10.24,10.24,0,0,1-1.68.75l-2.57-.53Z"/><path class="cls-24" d="M54.35,97a2.83,2.83,0,0,0-1-1.57,2.84,2.84,0,0,0-1.7-.2s-5.77,2.88-9.58,1.9c-3.48,2.69-5.6,6.1-1.08,7.14s5.19-.25,7.61-1.56a31.63,31.63,0,0,0,4.78-3.1A3.12,3.12,0,0,0,54.35,97Z"/><path class="cls-24" d="M44,98.22A15.34,15.34,0,0,1,40.2,96c-1.26-1.17-7.6-6.89-9-7.46S27.76,91,27.47,93.09s-.29,2.93.59,3.84,9.12,7.54,14.19,7.63A8.11,8.11,0,0,0,44,98.22Z"/><g class="cls-77"><polygon class="cls-78" points="128.53 55.27 128.53 121 128.05 121.28 128.05 55.55 128.53 55.27"/><polygon class="cls-79" points="128.05 55.55 128.05 121.28 32.28 66 32.28 0.28 128.05 55.55"/><polygon class="cls-80" points="128.06 55.55 32.28 0.28 32.75 0 128.53 55.27 128.06 55.55"/></g></g></g></g></svg>