<svg xmlns="http://www.w3.org/2000/svg" xmlns:xlink="http://www.w3.org/1999/xlink" viewBox="0 0 660.37 473.03"><defs><style>.cls-1{fill:none;}.cls-2{isolation:isolate;}.cls-29,.cls-3{fill:#160b01;}.cls-3{opacity:0.29;mix-blend-mode:multiply;}.cls-4{fill:#282827;}.cls-5{fill:#231f20;}.cls-6{fill:#191918;}.cls-7{clip-path:url(#clip-path);}.cls-8{fill:#fc8612;}.cls-9{clip-path:url(#clip-path-2);}.cls-10{clip-path:url(#clip-path-3);}.cls-11{fill:#f4c70b;}.cls-12{clip-path:url(#clip-path-4);}.cls-13{fill:#edb503;}.cls-14{clip-path:url(#clip-path-5);}.cls-15{fill:#d19c05;}.cls-16{clip-path:url(#clip-path-6);}.cls-17{clip-path:url(#clip-path-7);}.cls-18{clip-path:url(#clip-path-8);}.cls-19{clip-path:url(#clip-path-9);}.cls-20{clip-path:url(#clip-path-10);}.cls-21{clip-path:url(#clip-path-11);}.cls-22{clip-path:url(#clip-path-12);}.cls-23{clip-path:url(#clip-path-13);}.cls-24{clip-path:url(#clip-path-14);}.cls-25{fill:#ffe708;}.cls-26{fill:#383736;}.cls-27{fill:#ededed;}.cls-28{fill:#e8c5ac;}.cls-30{fill:#fff;}.cls-31{fill:#7a797a;}.cls-32{fill:#422d0d;}.cls-33{fill:#ffe8d9;}.cls-34{fill:#ffe1cc;}.cls-35{fill:#775319;}.cls-36{clip-path:url(#clip-path-15);}.cls-37{clip-path:url(#clip-path-16);}.cls-38{clip-path:url(#clip-path-17);}.cls-39{fill:#e06805;}.cls-40{clip-path:url(#clip-path-18);}.cls-41{clip-path:url(#clip-path-19);}.cls-42{clip-path:url(#clip-path-20);}.cls-43{clip-path:url(#clip-path-21);}.cls-44{clip-path:url(#clip-path-22);}.cls-45{clip-path:url(#clip-path-23);}.cls-46{fill:#c95702;}.cls-47{clip-path:url(#clip-path-24);}.cls-48{fill:#87480a;}.cls-49{clip-path:url(#clip-path-25);}.cls-50{fill:#c2670e;}.cls-51{clip-path:url(#clip-path-26);}.cls-52{clip-path:url(#clip-path-27);}.cls-53{clip-path:url(#clip-path-28);}.cls-54{fill:#fc7f1a;}.cls-55{clip-path:url(#clip-path-29);}.cls-56{fill:#07a0dd;}.cls-57{clip-path:url(#clip-path-30);}.cls-58{clip-path:url(#clip-path-31);}.cls-59{fill:#057bab;}.cls-60{clip-path:url(#clip-path-32);}.cls-61{clip-path:url(#clip-path-33);}.cls-62{clip-path:url(#clip-path-34);}.cls-63{clip-path:url(#clip-path-35);}.cls-64{clip-path:url(#clip-path-36);}.cls-65{clip-path:url(#clip-path-37);}.cls-66{fill:#07789b;}.cls-67{clip-path:url(#clip-path-38);}.cls-68{fill:#045677;}.cls-69{clip-path:url(#clip-path-39);}.cls-70{clip-path:url(#clip-path-40);}.cls-71{clip-path:url(#clip-path-41);}.cls-72{clip-path:url(#clip-path-42);}.cls-73{fill:#1498c1;}.cls-74{fill:#10b3e5;}.cls-75{fill:#2b2a2a;}.cls-76{fill:#444443;}.cls-77{fill:#bf9243;}.cls-78{fill:#efcfbd;}.cls-79{fill:#e4eff4;}.cls-80{fill:#72726f;}.cls-81{fill:#91918d;}.cls-82{fill:#424241;}.cls-83{clip-path:url(#clip-path-43);}.cls-84{clip-path:url(#clip-path-44);}.cls-85{clip-path:url(#clip-path-45);}.cls-86{fill:#04b54f;}.cls-87{clip-path:url(#clip-path-46);}.cls-88{clip-path:url(#clip-path-47);}.cls-89{clip-path:url(#clip-path-48);}.cls-90{clip-path:url(#clip-path-49);}.cls-91{clip-path:url(#clip-path-50);}.cls-92{clip-path:url(#clip-path-51);}.cls-93{fill:#049e49;}.cls-94{clip-path:url(#clip-path-52);}.cls-95{fill:#007c35;}.cls-96{clip-path:url(#clip-path-53);}.cls-97{clip-path:url(#clip-path-54);}.cls-98{clip-path:url(#clip-path-55);}.cls-99{clip-path:url(#clip-path-56);}.cls-100{fill:#06f979;}</style><clipPath id="clip-path"><path class="cls-1" d="M144.14,136.55q-.07-28.07-.16-56.13a6.77,6.77,0,0,1-.29,1.94l.16,56.13A6.82,6.82,0,0,0,144.14,136.55Z"/></clipPath><clipPath id="clip-path-2"><path class="cls-1" d="M143.56,83.15q.08,28.07.16,56.12a2.36,2.36,0,0,1,.13-.78l-.16-56.13A2.42,2.42,0,0,0,143.56,83.15Z"/></clipPath><clipPath id="clip-path-3"><path class="cls-1" d="M242,142.37l-.16-56.13a3.67,3.67,0,0,1-2.17,3,10.74,10.74,0,0,1-5.89,1.23l.16,56.12a10.65,10.65,0,0,0,5.89-1.23A3.66,3.66,0,0,0,242,142.37Z"/></clipPath><clipPath id="clip-path-4"><path class="cls-1" d="M95.94,81.44l.16,56.13c0,3.47,2.47,6.89,7.07,9.56,5.54,3.22,10.82,5,18.34,4.24l-.16-56.13c-7.52.75-12.8-1-18.34-4.23C98.41,88.33,96,84.91,95.94,81.44Z"/></clipPath><clipPath id="clip-path-5"><path class="cls-1" d="M129,154.92q-.08-28.06-.16-56.13a3.08,3.08,0,0,0-1.79-2.56,9.89,9.89,0,0,0-5.73-1l.16,56.13a9.9,9.9,0,0,1,5.73,1A3.06,3.06,0,0,1,129,154.92Z"/></clipPath><clipPath id="clip-path-6"><path class="cls-1" d="M254.34,102q.07,28.06.16,56.13a1.73,1.73,0,0,0,.05.45l-.16-56.12A2.4,2.4,0,0,1,254.34,102Z"/></clipPath><clipPath id="clip-path-7"><path class="cls-1" d="M254.65,159.92l-.16-56.12a10.83,10.83,0,0,0-.1-1.39l.16,56.12A11.09,11.09,0,0,1,254.65,159.92Z"/></clipPath><clipPath id="clip-path-8"><path class="cls-1" d="M206.16,104.77l.16,56.13c0-3.56,2.41-7.17,7.4-10.05,6-3.44,12.77-4.67,20.22-4.28l-.16-56.12c-7.45-.4-14.26.83-20.21,4.27C208.57,97.6,206.15,101.21,206.16,104.77Z"/></clipPath><clipPath id="clip-path-9"><path class="cls-1" d="M201.56,142.89l.16,56.13c0-3.67,2.42-7.27,7-9.92,9.05-5.23,24.54-5.57,34.57.26a14,14,0,0,1,7,11.87q-.07-28.06-.16-56.13a14,14,0,0,0-7-11.87c-10-5.83-25.52-5.49-34.57-.26C204,135.62,201.55,139.22,201.56,142.89Z"/></clipPath><clipPath id="clip-path-10"><path class="cls-1" d="M133.34,145.86l.15,56.13c0-3.73,2.29-7.18,7.57-10.23,9.89-5.71,24.67-5.57,33.88-.22,4.54,2.64,6.88,6.07,6.89,9.54L181.68,145c0-3.48-2.36-6.91-6.9-9.55-9.21-5.35-24-5.49-33.88.22C135.62,138.68,133.33,142.13,133.34,145.86Z"/></clipPath><clipPath id="clip-path-11"><path class="cls-1" d="M250.14,145.73l.16,56.12c0,1.11.76,2.26,2.3,3.15a11.09,11.09,0,0,0,6.92,1.17L259.36,150a11.09,11.09,0,0,1-6.92-1.17C250.9,148,250.14,146.84,250.14,145.73Z"/></clipPath><clipPath id="clip-path-12"><path class="cls-1" d="M133.65,203.86q-.08-28.06-.16-56.13a3.71,3.71,0,0,1-2.19,3,10.91,10.91,0,0,1-6.89,1.08l.16,56.13a10.91,10.91,0,0,0,6.89-1.08A3.71,3.71,0,0,0,133.65,203.86Z"/></clipPath><clipPath id="clip-path-13"><path class="cls-1" d="M238.23,217.59l-.16-56.13a2.38,2.38,0,0,1-.22,1l.16,56.13A2.38,2.38,0,0,0,238.23,217.59Z"/></clipPath><clipPath id="clip-path-14"><path class="cls-1" d="M146,163.48l.16,56.12a2.44,2.44,0,0,0,.24,1.05l-.16-56.13A2.43,2.43,0,0,1,146,163.48Z"/></clipPath><clipPath id="clip-path-15"><path class="cls-1" d="M518.81,136.55q.08-28.07.16-56.13a6.43,6.43,0,0,0,.29,1.94l-.16,56.13A6.82,6.82,0,0,1,518.81,136.55Z"/></clipPath><clipPath id="clip-path-16"><path class="cls-1" d="M519.39,83.15q-.07,28.07-.16,56.12a2.13,2.13,0,0,0-.13-.78l.16-56.13A2.42,2.42,0,0,1,519.39,83.15Z"/></clipPath><clipPath id="clip-path-17"><path class="cls-1" d="M421,142.37l.16-56.13a3.68,3.68,0,0,0,2.16,3,10.77,10.77,0,0,0,5.9,1.23L429,146.57a10.65,10.65,0,0,1-5.89-1.23A3.66,3.66,0,0,1,421,142.37Z"/></clipPath><clipPath id="clip-path-18"><path class="cls-1" d="M567,81.44l-.16,56.13c0,3.47-2.47,6.89-7.07,9.56-5.54,3.22-10.83,5-18.34,4.24l.16-56.13c7.52.75,12.8-1,18.33-4.23C564.54,88.33,567,84.91,567,81.44Z"/></clipPath><clipPath id="clip-path-19"><path class="cls-1" d="M533.92,154.92q.08-28.06.16-56.13a3.08,3.08,0,0,1,1.79-2.56,9.89,9.89,0,0,1,5.73-1l-.16,56.13a9.9,9.9,0,0,0-5.73,1A3.06,3.06,0,0,0,533.92,154.92Z"/></clipPath><clipPath id="clip-path-20"><path class="cls-1" d="M408.61,102q-.08,28.06-.16,56.13a2.28,2.28,0,0,1,0,.45l.15-56.12A2.4,2.4,0,0,0,408.61,102Z"/></clipPath><clipPath id="clip-path-21"><path class="cls-1" d="M408.3,159.92l.16-56.12a9.29,9.29,0,0,1,.1-1.39l-.15,56.12A9.51,9.51,0,0,0,408.3,159.92Z"/></clipPath><clipPath id="clip-path-22"><path class="cls-1" d="M456.79,104.77l-.16,56.13c0-3.56-2.41-7.17-7.4-10.05-6-3.44-12.77-4.67-20.22-4.28l.16-56.12c7.45-.4,14.25.83,20.21,4.27C454.38,97.6,456.8,101.21,456.79,104.77Z"/></clipPath><clipPath id="clip-path-23"><path class="cls-1" d="M461.39,142.89,461.23,199c0-3.67-2.43-7.27-7-9.92-9.05-5.23-24.54-5.57-34.57.26a14,14,0,0,0-7,11.87q.08-28.06.16-56.13a14,14,0,0,1,7-11.87c10-5.83,25.51-5.49,34.56-.26C459,135.62,461.4,139.22,461.39,142.89Z"/></clipPath><clipPath id="clip-path-24"><path class="cls-1" d="M529.61,145.86q-.08,28.06-.16,56.13c0-3.73-2.28-7.18-7.56-10.23-9.89-5.71-24.67-5.57-33.88-.22-4.55,2.64-6.89,6.07-6.89,9.54l.15-56.12c0-3.48,2.35-6.91,6.9-9.55,9.21-5.35,24-5.49,33.88.22C527.33,138.68,529.63,142.13,529.61,145.86Z"/></clipPath><clipPath id="clip-path-25"><path class="cls-1" d="M412.81,145.73l-.16,56.12c0,1.11-.76,2.26-2.3,3.15a11.09,11.09,0,0,1-6.92,1.17l.16-56.13a11.09,11.09,0,0,0,6.92-1.17C412.05,148,412.81,146.84,412.81,145.73Z"/></clipPath><clipPath id="clip-path-26"><path class="cls-1" d="M529.3,203.86q.08-28.06.16-56.13c0,1.07.72,2.17,2.19,3a10.91,10.91,0,0,0,6.89,1.08L538.38,208a10.91,10.91,0,0,1-6.89-1.08A3.71,3.71,0,0,1,529.3,203.86Z"/></clipPath><clipPath id="clip-path-27"><path class="cls-1" d="M424.72,217.59l.16-56.13a2.38,2.38,0,0,0,.22,1l-.16,56.13A2.38,2.38,0,0,1,424.72,217.59Z"/></clipPath><clipPath id="clip-path-28"><path class="cls-1" d="M517,163.48l-.16,56.12a2.44,2.44,0,0,1-.24,1.05l.16-56.13A2.43,2.43,0,0,0,517,163.48Z"/></clipPath><clipPath id="clip-path-29"><path class="cls-1" d="M245,238.84l.16,56.13a6.08,6.08,0,0,0,0,.61L245,239.46C245,239.25,245,239.05,245,238.84Z"/></clipPath><clipPath id="clip-path-30"><path class="cls-1" d="M245.28,296.38q-.08-28.06-.16-56.12a2.21,2.21,0,0,0-.14-.8l.16,56.12A2.54,2.54,0,0,1,245.28,296.38Z"/></clipPath><clipPath id="clip-path-31"><path class="cls-1" d="M146.87,242.09l.16,56.12a3.82,3.82,0,0,0,2.24,3.05,11,11,0,0,0,5.94,1.29l-.16-56.13a11,11,0,0,1-5.94-1.29A3.82,3.82,0,0,1,146.87,242.09Z"/></clipPath><clipPath id="clip-path-32"><path class="cls-1" d="M292.85,295.43l-.15-56.13c0,3.42-2.36,6.75-6.83,9.33-5.42,3.13-13.86,4.19-18.27,4l.16,56.12c4.41.19,12.84-.86,18.26-4C290.5,302.17,292.86,298.85,292.85,295.43Z"/></clipPath><clipPath id="clip-path-33"><path class="cls-1" d="M260.19,256l.15,56.13a3,3,0,0,1,1.72-2.49,9.59,9.59,0,0,1,5.7-.91l-.16-56.12a9.47,9.47,0,0,0-5.69.91A2.91,2.91,0,0,0,260.19,256Z"/></clipPath><clipPath id="clip-path-34"><path class="cls-1" d="M135,313.9q-.08-28.06-.16-56.13a2.31,2.31,0,0,1,0,.37l.16,56.13A2.31,2.31,0,0,0,135,313.9Z"/></clipPath><clipPath id="clip-path-35"><path class="cls-1" d="M134.69,259.4l.16,56.13a8.88,8.88,0,0,1,.08-1.26l-.16-56.13A10.79,10.79,0,0,0,134.69,259.4Z"/></clipPath><clipPath id="clip-path-36"><path class="cls-1" d="M183.21,317.39l-.16-56.13c0-3.61-2.53-7.32-7.68-10.3-6.05-3.52-12.9-4.82-20.32-4.54l.16,56.13c7.42-.29,14.27,1,20.32,4.53C180.68,310.07,183.2,313.78,183.21,317.39Z"/></clipPath><clipPath id="clip-path-37"><path class="cls-1" d="M207.15,303l.16,56.12c0-3.46,2.42-6.85,7-9.5,9.06-5.23,23.14-5.57,33.17.26,5.41,3.14,7.8,6.64,7.81,10.4l-.15-56.13c0-3.75-2.41-7.26-7.81-10.39-10-5.83-24.12-5.49-33.18-.27C209.57,296.18,207.14,299.57,207.15,303Z"/></clipPath><clipPath id="clip-path-38"><path class="cls-1" d="M130,363l-.16-56.13a3.6,3.6,0,0,0-1.77-2.77l.16,56.12A3.64,3.64,0,0,1,130,363Z"/></clipPath><clipPath id="clip-path-39"><path class="cls-1" d="M255,305.88l.15,56.13c0,1.11.78,2.25,2.31,3.15a11.13,11.13,0,0,0,6.91,1.17l-.16-56.13a11.15,11.15,0,0,1-6.91-1.17C255.79,308.13,255,307,255,305.88Z"/></clipPath><clipPath id="clip-path-40"><path class="cls-1" d="M145,322.58l.16,56.13a3,3,0,0,1,1.73-2.52c2.34-1.35,6.22-1.31,9,0l-.16-56.13c-2.8-1.32-6.67-1.37-9,0A3,3,0,0,0,145,322.58Z"/></clipPath><clipPath id="clip-path-41"><path class="cls-1" d="M243.11,377.75,243,321.62a2.3,2.3,0,0,1-.22,1l.16,56.13A2.3,2.3,0,0,0,243.11,377.75Z"/></clipPath><clipPath id="clip-path-42"><path class="cls-1" d="M97.35,323.52q.08,28.07.16,56.13c0,3.44,2.42,7,7.52,9.93,10.14,5.9,24.29,5.66,33.26.47,5.07-2.92,7-7.18,7-9.95L145.12,324c0,2.77-1.92,7-7,10-9,5.18-23.12,5.42-33.26-.47C99.77,330.5,97.36,327,97.35,323.52Z"/></clipPath><clipPath id="clip-path-43"><path class="cls-1" d="M418,238.84,417.83,295a6.08,6.08,0,0,1,0,.61l.16-56.12A4.29,4.29,0,0,0,418,238.84Z"/></clipPath><clipPath id="clip-path-44"><path class="cls-1" d="M417.67,296.38q.07-28.06.16-56.12a2.44,2.44,0,0,1,.13-.8l-.16,56.12A2.84,2.84,0,0,0,417.67,296.38Z"/></clipPath><clipPath id="clip-path-45"><path class="cls-1" d="M516.08,242.09l-.16,56.12a3.82,3.82,0,0,1-2.24,3.05,11,11,0,0,1-5.94,1.29l.16-56.13a11,11,0,0,0,5.94-1.29A3.82,3.82,0,0,0,516.08,242.09Z"/></clipPath><clipPath id="clip-path-46"><path class="cls-1" d="M370.1,295.43l.15-56.13c0,3.42,2.36,6.75,6.83,9.33,5.42,3.13,13.86,4.19,18.27,4l-.16,56.12c-4.41.19-12.84-.86-18.27-4C372.45,302.17,370.08,298.85,370.1,295.43Z"/></clipPath><clipPath id="clip-path-47"><path class="cls-1" d="M402.76,256q-.08,28.07-.16,56.13a2.93,2.93,0,0,0-1.72-2.49,9.54,9.54,0,0,0-5.69-.91l.16-56.12a9.47,9.47,0,0,1,5.69.91A2.91,2.91,0,0,1,402.76,256Z"/></clipPath><clipPath id="clip-path-48"><path class="cls-1" d="M528,313.9q.07-28.06.16-56.13a2.31,2.31,0,0,0,0,.37L528,314.27A2.31,2.31,0,0,1,528,313.9Z"/></clipPath><clipPath id="clip-path-49"><path class="cls-1" d="M528.26,259.4l-.16,56.13a10.66,10.66,0,0,0-.08-1.26l.16-56.13A10.79,10.79,0,0,1,528.26,259.4Z"/></clipPath><clipPath id="clip-path-50"><path class="cls-1" d="M479.74,317.39l.16-56.13c0-3.61,2.53-7.32,7.68-10.3,6.05-3.52,12.9-4.82,20.32-4.54l-.16,56.13c-7.42-.29-14.27,1-20.33,4.53C482.27,310.07,479.75,313.78,479.74,317.39Z"/></clipPath><clipPath id="clip-path-51"><path class="cls-1" d="M455.8,303l-.16,56.12c0-3.46-2.42-6.85-7-9.5-9.06-5.23-23.14-5.57-33.18.26-5.4,3.14-7.8,6.64-7.8,10.4l.15-56.13c0-3.75,2.41-7.26,7.81-10.39,10-5.83,24.12-5.49,33.18-.27C453.38,296.18,455.81,299.57,455.8,303Z"/></clipPath><clipPath id="clip-path-52"><path class="cls-1" d="M532.92,363l.16-56.13a3.58,3.58,0,0,1,1.77-2.77l-.16,56.12A3.61,3.61,0,0,0,532.92,363Z"/></clipPath><clipPath id="clip-path-53"><path class="cls-1" d="M407.93,305.88,407.77,362c0,1.11-.77,2.25-2.3,3.15a11.17,11.17,0,0,1-6.92,1.17l.16-56.13a11.12,11.12,0,0,0,6.91-1.17C407.16,308.13,407.93,307,407.93,305.88Z"/></clipPath><clipPath id="clip-path-54"><path class="cls-1" d="M518,322.58l-.16,56.13a3,3,0,0,0-1.73-2.52c-2.35-1.35-6.22-1.31-9,0l.16-56.13c2.8-1.32,6.67-1.37,9,0A3,3,0,0,1,518,322.58Z"/></clipPath><clipPath id="clip-path-55"><path class="cls-1" d="M419.84,377.75l.15-56.13a2.31,2.31,0,0,0,.23,1l-.16,56.13A2.3,2.3,0,0,1,419.84,377.75Z"/></clipPath><clipPath id="clip-path-56"><path class="cls-1" d="M565.6,323.52q-.08,28.07-.16,56.13c0,3.44-2.43,7-7.52,9.93-10.14,5.9-24.29,5.66-33.26.47-5.07-2.92-7-7.18-7-9.95l.16-56.13c0,2.77,1.92,7,7,10,9,5.18,23.11,5.42,33.26-.47C563.17,330.5,565.59,327,565.6,323.52Z"/></clipPath></defs><g class="cls-2"><g id="Слой_2" data-name="Слой 2"><g id="Graphics"><path class="cls-3" d="M307.13,293.28l-14.64-8.52q-.06-18.72-.11-37.43c0,.11,0,.23,0,.34.15-3.55-2.25-7.23-7.51-10.29-10.15-5.89-24.27-5.64-33.26-.45-5.07,2.92-7,6.94-7,9.94h0v2.23a3.42,3.42,0,0,1-1.58,1.69c-2.34,1.35-6.24,1.27-9.07-.05l-45.55-26.47-40.13,23.3a3,3,0,0,0-1.75,2.63s0-.07,0-.1l.08,29.94a30.69,30.69,0,0,1-4.45-2.09c-4.79-2.79-7.18-5.86-7.7-9.15,0-1,0-2,0-3a2.3,2.3,0,0,1,0,.37,10.92,10.92,0,0,0-.08,1.13,10.92,10.92,0,0,1,.08-1.13c.19-1.18-.57-2.47-2.25-3.44-2.76-1.61-7.1-1.76-9.62-.3L82.36,285.66l.16,56.12,14.57,8.47q0,18.72.11,37.43c0,3.44,2.42,7,7.51,9.93,10.15,5.9,24.29,5.65,33.26.47,5.07-2.92,7-7.18,7-10v-2.21a3.42,3.42,0,0,1,1.58-1.69c2.34-1.36,6.22-1.31,9,0l45.2,26.26,41.84-23.73a2.46,2.46,0,0,0,.22-1l-.09-29.91a28.3,28.3,0,0,1,4.46,2.08c4.7,2.73,7.12,5.74,7.68,8.95V370c0,1.11.77,2.25,2.31,3.15a11.13,11.13,0,0,0,6.91,1.17l1.29-.75,41.92-24.2Zm-14.82-45c0-.12,0-.24.05-.36C292.35,248.07,292.33,248.19,292.31,248.31ZM244.79,248a.49.49,0,0,1,0-.12A.49.49,0,0,0,244.79,248Zm-98.17,2.56a1.13,1.13,0,0,1,0-.18A1.13,1.13,0,0,0,146.62,250.6Z"/><path class="cls-3" d="M355.66,349.41l41.92,24.2,1.29.75a11.13,11.13,0,0,0,6.91-1.17c1.54-.9,2.3-2,2.31-3.15V366.9c.56-3.21,3-6.22,7.68-8.95a28.3,28.3,0,0,1,4.46-2.08l-.09,29.91a2.3,2.3,0,0,0,.22,1l41.84,23.73,45.2-26.26c2.79-1.33,6.67-1.38,9,0a3.35,3.35,0,0,1,1.57,1.69v2.21c0,2.78,1.92,7,7,10,9,5.18,23.12,5.43,33.27-.47,5.09-3,7.5-6.49,7.51-9.93q.06-18.72.11-37.43l14.56-8.47.16-56.12-40.22-23.23c-2.52-1.46-6.86-1.31-9.63.3-1.67,1-2.43,2.26-2.24,3.44a8.68,8.68,0,0,1,.07,1.13,8.68,8.68,0,0,0-.07-1.13,2.31,2.31,0,0,1,0-.37c0,1,0,2,0,3-.51,3.29-2.9,6.36-7.7,9.15a29.73,29.73,0,0,1-4.45,2.09l.09-29.94s0,.07,0,.1a3,3,0,0,0-1.75-2.63l-40.13-23.3L429,250.75c-2.83,1.32-6.73,1.4-9.07.05a3.42,3.42,0,0,1-1.58-1.69v-2.23h0c0-3-1.89-7-7-9.94-9-5.19-23.11-5.44-33.26.45-5.26,3.06-7.66,6.74-7.51,10.29,0-.11,0-.23,0-.34q-.06,18.72-.11,37.43l-14.64,8.52ZM370.59,248c0,.12,0,.24.05.36C370.62,248.19,370.6,248.07,370.59,248Zm47.58,0a.49.49,0,0,1,0,.12A.49.49,0,0,0,418.17,247.92Zm98.19,2.5,0,.18Z"/><path class="cls-3" d="M306.89,130.43l-40.83-23.74a10.68,10.68,0,0,0-9.64.18c-1.65.95-2.36,2.23-2.11,3.41a2.3,2.3,0,0,1-.05-.45c0,1.15,0,2.29,0,3.44-1,5.47-7.2,9.14-12.43,11l-.08-30.12s0,.06,0,.08a3.08,3.08,0,0,0-1.8-2.67L199.12,67.79,154.33,93.63c-2.78,1.29-6.7,1.32-9.08-.06a3.93,3.93,0,0,1-1.33-1.2l0-4.07s0,.1,0,.15c.08-3.44-2.81-6.09-7.56-8.85-9.1-5.29-23.21-5.74-33.21,0-5,2.87-7.3,6.34-7.26,9.75v-.07l.11,38L82.6,135l.16,56.13,41.73,24.67a10.85,10.85,0,0,0,6.89-1.09,3.69,3.69,0,0,0,2.19-3c0-1.16,0-2.31,0-3.47.58-3.12,2.9-6,7.42-8.63a29.08,29.08,0,0,1,5-2.25l.09,30.09a2.4,2.4,0,0,0,.24,1l1.31.76L190.17,254l47.76-27.54a2.33,2.33,0,0,0,.22-1l-.09-30.53a28.66,28.66,0,0,1,5.16,2.29,14.05,14.05,0,0,1,7,11.2v1.3c0,1.11.77,2.25,2.3,3.15a11.09,11.09,0,0,0,6.92,1.16l47.61-27.49Zm-52.5-19.16v0ZM241.71,94.58a1.1,1.1,0,0,0,0-.18A1.1,1.1,0,0,1,241.71,94.58Zm-1.51,2.11-.11.09Zm-96.35-7.64c0,.09,0,.18,0,.28C143.83,89.23,143.84,89.14,143.85,89.05Zm-.35,1.76a.76.76,0,0,1,0-.15A.76.76,0,0,0,143.5,90.81Z"/><path class="cls-3" d="M355.66,186.55,403.28,214a11.1,11.1,0,0,0,6.92-1.16c1.53-.9,2.29-2,2.3-3.15v-1.3a14.07,14.07,0,0,1,7-11.2,28.87,28.87,0,0,1,5.15-2.29l-.09,30.53a2.35,2.35,0,0,0,.23,1L472.55,254l42.53-24.72,1.31-.76a2.41,2.41,0,0,0,.25-1l.08-30.09a29.08,29.08,0,0,1,5,2.25c4.52,2.6,6.85,5.51,7.42,8.63,0,1.16,0,2.31,0,3.47a3.69,3.69,0,0,0,2.19,3,10.85,10.85,0,0,0,6.89,1.09L580,191.17l.16-56.13-13.38-7.72.11-38v.07c0-3.41-2.28-6.88-7.25-9.75-10-5.78-24.12-5.33-33.22,0-4.74,2.76-7.64,5.41-7.56,8.85,0,0,0-.1,0-.15v4.07a4,4,0,0,1-1.34,1.2c-2.37,1.38-6.29,1.35-9.07.06L463.6,67.79,422.77,91.52A3.09,3.09,0,0,0,421,94.19v-.08l-.09,30.12c-5.22-1.82-11.45-5.49-12.42-11,0-1.15,0-2.29,0-3.44a2.3,2.3,0,0,1,0,.45c.25-1.18-.47-2.46-2.12-3.41a10.66,10.66,0,0,0-9.63-.18l-40.84,23.74ZM408.33,111a1.77,1.77,0,0,0,0,.23A1.77,1.77,0,0,1,408.33,111ZM421,94.4l0,.18Zm1.64,2.38-.11-.09Zm96.28-7.45,0-.28Zm.31,1.33a.76.76,0,0,0,0,.15A.76.76,0,0,1,519.21,90.66Z"/><path class="cls-3" d="M5.79,457.94S27,447.29,34.2,445.46c10.33-2.62,11.21,0,16.11.54s22.25-4.09,27.93-6.37,18.09,1.61,4.44,10.06C57.37,465.37,33,473,24.76,472.85,12.59,472.69-10.9,476.25,5.79,457.94Z"/><path class="cls-3" d="M653.46,457.94s-20.29-10.65-27.17-12.48c-9.89-2.62-10.73,0-15.41.54s-21.27-4.09-26.71-6.37-17.3,1.61-4.24,10.06c24.2,15.68,47.55,23.28,55.38,23.16C647,472.69,669.42,476.25,653.46,457.94Z"/><path class="cls-3" d="M24.76,116.42s17.12-3.13,30.18-4.42,20.06,2.34,22.21,4.42,36.49,1.38,36.49,1.38,14,14.16-15.87,24.64C82.68,147.73,11.18,127.63,24.76,116.42Z"/><path class="cls-3" d="M551.67,116.42s19.82-3.41,32.87-4.7,17.37,2.62,19.52,4.7,36.21-1.47,44.46,6.13c3.6,3.31-26.94,9.84-45.13,13.77C572.44,143,534.58,131.8,551.67,116.42Z"/><polygon class="cls-4" points="94.23 125.82 90.91 127.63 90.75 124.75 94.23 125.82"/><path class="cls-5" d="M97.83,117.9l7.19,5.2s3.63,2.5,5,3.16a2.2,2.2,0,0,1,1.12,1.68,1.51,1.51,0,0,1-.35,1.21,8.31,8.31,0,0,1-3.74,1.92c-4,1.06-8.25-1.16-8.25-1.16-.69-.37-5.42-3-5.77-3.22-1-.69-1.87-.94-2.19-.44,0,0,.11,1.2.12,1.38l-4-2.34a15.78,15.78,0,0,1-.36-2.16l-.29-5.33Z"/><path class="cls-4" d="M111.1,128.11c-.76,1.25-2.82,2-4.16,2.38a10.27,10.27,0,0,1-8.34-1.13c-1.35-.71-5.13-2.77-5.51-2.94,0,0-2.21-1.42-2.26-.23,0,.2,0,.24,0,.47a1.07,1.07,0,0,1,.09-.26c.22-.79,2.44.61,2.44.61.32.27,4.63,2.78,5.33,3.16,0,0,4,2.67,8.49,1.19,1.33-.44,3-1,3.77-2.27A1.79,1.79,0,0,0,111.1,128.11Z"/><path class="cls-4" d="M90.83,126.19S89,125.31,88.32,125c-1.48-.63-1.68-1.13-1.68-1.13a11.88,11.88,0,0,0,.26,1.49s.07.43.92.86,3.09,1.37,3.09,1.37Z"/><path class="cls-6" d="M79,59.55s25.51,24.9,24.81,32.19c-.74,7.62-3.23,27-3.23,27,.4,1.62-.37,2.67-3.9,3.72-7.36,2.18-9.67-.91-9.67-.91-.66-.63-1.55-1-1.76-1.5,0,0,3.34-23.62,2.33-26.85C87,91.52,74,77,69.09,71.33,62.5,63.68,66.2,52.87,66.2,52.87Z"/><g class="cls-2"><g class="cls-2"><g class="cls-7"><g class="cls-2"><path class="cls-8" d="M143.69,82.36l.16,56.13a6.82,6.82,0,0,0,.29-1.94L144,80.42a6.77,6.77,0,0,1-.29,1.94Z"/></g></g></g><g class="cls-2"><g class="cls-9"><g class="cls-2"><path class="cls-8" d="M143.56,83.15l.16,56.12a2.36,2.36,0,0,1,.13-.78l-.16-56.13a2.42,2.42,0,0,0-.13.79Z"/></g></g></g><g class="cls-2"><g class="cls-10"><path class="cls-11" d="M233.78,90.45l.16,56.12a10.65,10.65,0,0,0,5.89-1.23,3.66,3.66,0,0,0,2.17-3l-.16-56.13a3.67,3.67,0,0,1-2.17,3,10.74,10.74,0,0,1-5.89,1.23Z"/></g></g><g class="cls-2"><g class="cls-12"><path class="cls-13" d="M95.94,81.44l.16,56.13c0,3.47,2.47,6.89,7.07,9.56,5.54,3.22,10.82,5,18.34,4.24l-.16-56.13c-7.52.75-12.8-1-18.34-4.23-4.6-2.68-7.06-6.1-7.07-9.57Z"/></g></g><g class="cls-2"><g class="cls-14"><path class="cls-15" d="M121.35,95.24l.16,56.13a9.9,9.9,0,0,1,5.73,1,3.06,3.06,0,0,1,1.79,2.56l-.16-56.13a3.08,3.08,0,0,0-1.79-2.56,9.89,9.89,0,0,0-5.73-1Z"/></g></g><g class="cls-2"><g class="cls-16"><g class="cls-2"><path class="cls-8" d="M254.34,102l.16,56.13a1.73,1.73,0,0,0,.05.45l-.16-56.12a2.4,2.4,0,0,1,0-.46Z"/></g></g></g><g class="cls-2"><g class="cls-17"><g class="cls-2"><path class="cls-8" d="M254.39,102.41l.16,56.12a11.09,11.09,0,0,1,.1,1.39l-.16-56.12a10.83,10.83,0,0,0-.1-1.39Z"/></g></g></g><g class="cls-2"><g class="cls-18"><path class="cls-13" d="M206.16,104.77l.16,56.13c0-3.56,2.41-7.17,7.4-10.05,6-3.44,12.77-4.67,20.22-4.28l-.16-56.12c-7.45-.4-14.26.83-20.21,4.27-5,2.88-7.42,6.49-7.41,10Z"/></g></g><g class="cls-2"><g class="cls-19"><path class="cls-15" d="M201.56,142.89l.16,56.13c0-3.67,2.42-7.27,7-9.92,9.05-5.23,24.54-5.57,34.57.26a14,14,0,0,1,7,11.87l-.16-56.13a14,14,0,0,0-7-11.87c-10-5.83-25.52-5.49-34.57-.26-4.58,2.65-7,6.25-7,9.92Z"/></g></g><g class="cls-2"><g class="cls-20"><path class="cls-13" d="M133.34,145.86l.15,56.13c0-3.73,2.29-7.18,7.57-10.23,9.89-5.71,24.67-5.57,33.88-.22,4.54,2.64,6.88,6.07,6.89,9.54L181.68,145c0-3.48-2.36-6.91-6.9-9.55-9.21-5.35-24-5.49-33.88.22-5.28,3.05-7.57,6.5-7.56,10.23Z"/></g></g><polygon class="cls-13" points="259.36 150.04 259.52 206.17 307.13 178.68 306.97 122.55 259.36 150.04"/><g class="cls-2"><g class="cls-21"><path class="cls-11" d="M250.14,145.73l.16,56.12c0,1.11.76,2.26,2.3,3.15a11.09,11.09,0,0,0,6.92,1.17L259.36,150a11.09,11.09,0,0,1-6.92-1.17c-1.54-.89-2.3-2-2.3-3.14Z"/></g></g><polygon class="cls-15" points="82.68 127.16 82.84 183.29 124.57 207.96 124.41 151.83 82.68 127.16"/><g class="cls-2"><g class="cls-22"><path class="cls-11" d="M124.41,151.83l.16,56.13a10.91,10.91,0,0,0,6.89-1.08,3.71,3.71,0,0,0,2.19-3l-.16-56.13a3.71,3.71,0,0,1-2.19,3,10.91,10.91,0,0,1-6.89,1.08Z"/></g></g><g class="cls-2"><g class="cls-23"><g class="cls-2"><path class="cls-8" d="M237.85,162.46l.16,56.13a2.38,2.38,0,0,0,.22-1l-.16-56.13a2.38,2.38,0,0,1-.22,1Z"/></g></g></g><g class="cls-2"><g class="cls-24"><g class="cls-2"><path class="cls-8" d="M146,163.48l.16,56.12a2.44,2.44,0,0,0,.24,1.05l-.16-56.13a2.43,2.43,0,0,1-.24-1Z"/></g></g></g><polygon class="cls-15" points="146.24 164.52 146.4 220.65 147.71 221.41 147.55 165.28 146.24 164.52"/><polygon class="cls-15" points="147.55 165.28 147.71 221.41 190.25 246.12 190.09 190 147.55 165.28"/><path class="cls-25" d="M82.68,127.16l41.73,24.67a10.91,10.91,0,0,0,6.89-1.08c1.65-.95,2.36-2.23,2.16-3.41-.69-4.3,1.47-8.26,7.44-11.71,9.89-5.71,24.67-5.57,33.88-.22s9.37,13.9-.52,19.61c-6,3.44-12.8,4.69-20.21,4.25a11,11,0,0,0-5.91,1.26c-1.91,1.11-2.55,2.64-1.9,4l1.31.76L190.09,190l47.76-27.54c.62-1.34-.06-2.88-2-4a11,11,0,0,0-5.93-1.31c-4.91,0-15-.6-21-4.13-10-5.82-9.37-14.8-.3-20s24.54-5.57,34.57.26a14,14,0,0,1,7,12.19c-.15,1.2.6,2.48,2.28,3.45a11.09,11.09,0,0,0,6.92,1.17L307,122.55,266.14,98.82a10.65,10.65,0,0,0-9.64.18c-1.65,1-2.36,2.23-2.11,3.41.62,4.31-1.51,8.25-7.47,11.69-9.88,5.71-24.64,5.58-33.86.22s-9.38-13.89.51-19.6c6-3.44,12.76-4.67,20.21-4.27a10.74,10.74,0,0,0,5.89-1.23c2.74-1.58,2.91-4.09.36-5.58L199.19,59.91,154.4,85.75c-2.77,1.3-6.69,1.32-9.07-.06-1.5-.87-2.05-2.12-1.64-3.33C145,78,142,74.94,136.41,71.72c-9.1-5.29-23.21-5.73-33.21,0S93.91,85.72,103,91c5.54,3.21,10.82,5,18.34,4.23a9.89,9.89,0,0,1,5.73,1c2.37,1.38,2.36,3.62.12,5.22Z"/><polygon class="cls-13" points="190.09 190 190.25 246.12 238.01 218.59 237.85 162.46 190.09 190"/></g><path class="cls-6" d="M25.08,98.74a7,7,0,0,0-4.67,1.7,3.45,3.45,0,0,0-1.17,2.91,37.9,37.9,0,0,0,1.05,4.25l.92.41s-.68,5-.31,7.33,4.78,6.25,6.76,7.6a4.26,4.26,0,0,0,2.89.64s4.8-.9,4.86-1.42a2.65,2.65,0,0,0-.19-2.59c-.86-1.15-3.13-4.6-3.26-6.26s1.36-4,1.36-4Z"/><path class="cls-6" d="M125,69.09a5.7,5.7,0,0,0-3.91,2.69s-3.37-4.44-7.28-10.61c-6-9.55-16.11-21.45-16.11-21.45s-4.71-5.72-1-10c1.21-1.39,3.61-3.23,5.78-2.67,1.66.44,5.06,1.53,6.52,4.36s7,10.47,12.44,19.39C124.12,55.11,132,69,132,69S126.66,68.86,125,69.09Z"/><path class="cls-26" d="M80.89,61.74S65.59,86.3,61,94.69c-2.37,4.31-9.1,7.37-9.1,7.37-5.66,2-12.86,6.44-17.09,7.44-1,.24-.61,2.09-1.84,2.21C30,112,21.58,100.57,26,97.6c6.64-4.42,20.81-11.46,21.18-12,2.91-4.36,5.8-19.74,11.31-24.34C63.38,57.18,80.89,61.74,80.89,61.74Z"/><path class="cls-27" d="M84.13,24.6s5.09-2.54,7.77-1.92,9.26,5.6,9.26,5.6-2.69,11-2,11c3.25,0-11.69,13.68-11.69,13.68l-4.24-13.4Z"/><path class="cls-28" d="M94.69,33.8c-5.63-1-4.87-7.77-3.84-11.72l8.71-5.77L102.9,26s-2.92,3.48-4.3,4A7.76,7.76,0,0,0,94.69,33.8Z"/><path class="cls-29" d="M94.66,39.32a2.53,2.53,0,0,1,.52-1.07l.91-1.17-.43-3.55-1-.3-2,2.73.58,1.82A2.47,2.47,0,0,1,93,39.37L89.2,48.91l.74,3.75s2.63-2,3.08-3C94.63,46.2,94.66,39.32,94.66,39.32Z"/><path class="cls-30" d="M95.69,32.9c-.71.19-.57.94-.46,1.47l.69,3.27c.24,1,.87.26,1.23-.51l2.7-5.56c1.2-3,.06-3.88.06-3.88a17.64,17.64,0,0,1-.76,1.61C98.51,30.47,97.73,32.34,95.69,32.9Z"/><path class="cls-30" d="M91.44,21.62s-.83.57-.83,2.94c0,4.9,4.29,8.15,4.29,8.15.49.48.34.76-.19,1.72l-2.2,3.42c-.52.92-1,.6-1.19,0,0,0-2.4-5-3-6.64a8.33,8.33,0,0,1,1.3-8.77A1.9,1.9,0,0,1,91.44,21.62Z"/><path class="cls-4" d="M56.83,53.87C67.4,30.27,73.3,27.56,73.3,27.56c8.86-7.65,20-7.1,20-7.1l-.83.5c-.8.49-3.41.58-3.5,8.51,0,3.82,1.15,22,1.11,22.22A31.34,31.34,0,0,0,96,46c4.5-5.68,3.34-17.58,2.76-20.21,1.46,1.06,10.11,4.75,9.68,7.12-1,5.3-2.12,11.06-17.24,25.17-.53.5-5.81,5.53-6.08,7.84-.18,1.43,4,7.56,4,7.56-.48,1.69-3.89,4.38-6.36,2.4-1.38-1.11-6.09-6.64-6.09-6.64s-1,7.65-2.37,9.78a2.8,2.8,0,0,1-1,.91c-6.8,0-15.75-3.21-19.54-6.08-3.41-2.58-3.32-3.14-3.32-3.14C49.83,69.49,54.73,58.56,56.83,53.87Z"/><path class="cls-26" d="M77.16,65.58c4-5.47,7.09-9.9,8.18-11.86l.64.36c-1.1,2-4.17,6.44-8.23,11.93a5.69,5.69,0,0,0-.94,3.52l-.19-.32s-.2.39-.53,1A6.8,6.8,0,0,1,77.16,65.58Z"/><path class="cls-31" d="M99.16,29.55l1.31-1.18s.53.75.63.94a10.28,10.28,0,0,1,.37,2.66l.25,6.54a2,2,0,0,1-1.34,1.88l-2.27,1L98.87,44c.6,1.09.35,1.24-.4,2a91.09,91.09,0,0,1-8,6.81s3.53-5.52,5.17-9A35.08,35.08,0,0,0,99.16,29.55Z"/><path class="cls-31" d="M93.22,20.53,90,20.71s-4.53.69-5,4.58c-.09.78-.16,3.14-.16,3.14l-.14,6.19c-.2,1.39.07,2,1,2.48l3.13,1.84-2.18,1.82c-.72.57-.65,1.11-.23,1.86,4.35,7.8,4,11.29,4,11.29S92,50.73,90.91,39c-.28-3-1-7.12-1.44-10.61C88.93,23.82,93.22,20.53,93.22,20.53Z"/><path class="cls-32" d="M113.17,8.72s2.44-.18,3.3,1.18.6,4.33-.52,6.3a11.08,11.08,0,0,1-2.19,2.86Z"/><path class="cls-33" d="M100.8,15.59a2.69,2.69,0,0,1,2.45,2.65l-.55,4.91s-.24,1.05-1.18,1.13c-1.43.13-1.89-1.16-2.36-2.56,0-.08-.59-2.14-.63-2.26C98,17.71,98.49,15.33,100.8,15.59Z"/><path class="cls-34" d="M106.28,7.17l-9,.9-2.08,17c0,1.18-.19,1.89-.11,2.9a4.78,4.78,0,0,0,1.67,3.32s1.81,1.48,3.76,2.84a3.91,3.91,0,0,0,2.56.73c1-.12,1.9-.32,2.71-.45a3.22,3.22,0,0,0,2-1.82l6.2-13.34s2.52-6.31-.17-8.77C112.26,9,106.28,7.17,106.28,7.17Z"/><path class="cls-35" d="M116.2,9.62c1.48,2.2-.72,3.8-3.46,5.27-.32.17-7.23,3.05-7.42,2.95s-.58-2.56-1.36-2.47c-1.63.19-1.95.88-2.6,2.33l-1,2.6c-.26.83-.85,1.63-1.47,1.74-.8.13-.5-.24-.57-.49,0,0,0-3.47-2.16-3.41-1.85.06-2,2.15-2,2.38l-3,2c-.2-.08-.32-.67-.34-.91,0-.5-.3-2.44-.48-4.11C89,4.3,99.2-3.17,109.66,2.4,113.94,4.69,116.2,9.62,116.2,9.62Z"/><path class="cls-34" d="M95.56,15.78c2.44.28,2.6,3.58,2.6,3.58l.5,3.17s-1.45,1.86-2.39,1.94c-1.42.13-1.88-1.16-2.35-2.56,0-.08-.6-2.14-.63-2.26C92.8,17.9,93.25,15.52,95.56,15.78Z"/><path class="cls-34" d="M100.09,82s2.67-1.8,4.52-1.42a45.76,45.76,0,0,0,5.32.47,1.65,1.65,0,0,1,.13,1.21c-.18.78-2.49,1.08-4.17,1.08-.1,0,4,2.38,4.78,3.16s2.62,3.64,2.35,5c-.2,1-3,3.54-5.25,1.88A19.34,19.34,0,0,0,104,91.24c-1.7-.72-5.6-1.92-6.06-2.43C94.11,84.57,98.35,82.53,100.09,82Z"/><path class="cls-28" d="M128.75,66.77c.67.08,3.43.3,4.86,1.78,1.26,1.3,5.44,5.54,5,6.47-.82,1.68-4.06,2.26-5.38.94a55.31,55.31,0,0,0-6.13-4.24c-1.47-.8-1.92-1.22-3.13-.31-.84.64-1.73-1.63-1.87-2S125.11,66.31,128.75,66.77Z"/><path class="cls-26" d="M100,86.05a9.18,9.18,0,0,1-3.77,1.08,7.8,7.8,0,0,1-3.09-1.48c-4.31-4.58-10.17-15.32-13.6-21.14-5-8.55-10-24.63-10-24.63-.28-.73-.73-7.48,1-9,3.71-3.12,9-4.56,11,.37,2.71,6.62,5.24,16.83,9.19,25.55,3.3,7.26,12.26,24.37,12.26,24.37A6.37,6.37,0,0,1,100,86.05Z"/><path class="cls-28" d="M124.46,67.88s-2.56,1.21-2.7,1.88a7.18,7.18,0,0,1-1.57,2.79c-.31.23,0,.67,0,.67a1.5,1.5,0,0,0,2.2.68c.89-.4,1.33-1.87,1.71-2.39.92-1.22,2.77-.6,2.77-.6Z"/><polygon class="cls-4" points="569.84 125.28 573.15 127.09 573.31 124.21 569.84 125.28"/><path class="cls-5" d="M566.23,117.36l-7.19,5.2s-3.63,2.51-4.95,3.16A2.22,2.22,0,0,0,553,127.4a1.51,1.51,0,0,0,.35,1.21,8.36,8.36,0,0,0,3.74,1.92c4,1.06,8.25-1.16,8.25-1.16.7-.37,5.42-3,5.77-3.22,1-.69,1.88-.94,2.19-.43,0,0-.11,1.19-.12,1.37l4-2.34a15.83,15.83,0,0,0,.36-2.15l.29-5.34Z"/><path class="cls-4" d="M553,127.57c.76,1.25,2.82,2,4.16,2.38a10.29,10.29,0,0,0,8.34-1.12c1.35-.72,5.13-2.77,5.51-3,0,0,2.21-1.42,2.26-.23a2.36,2.36,0,0,1,0,.47,1.07,1.07,0,0,0-.09-.26c-.22-.79-2.43.61-2.43.61-.33.28-4.64,2.79-5.34,3.16,0,0-4,2.67-8.49,1.19-1.33-.44-3-1-3.76-2.27A1.73,1.73,0,0,1,553,127.57Z"/><path class="cls-4" d="M573.23,125.65s1.87-.88,2.51-1.15c1.48-.63,1.68-1.13,1.68-1.13a11.88,11.88,0,0,1-.26,1.49s-.06.43-.92.86-3.09,1.37-3.09,1.37Z"/><path class="cls-6" d="M585.11,59s-25.51,24.9-24.8,32.19c.73,7.62,3.22,27,3.22,27-.4,1.62.37,2.67,3.9,3.72,7.36,2.18,9.67-.91,9.67-.91.66-.63,1.56-1,1.77-1.5,0,0-3.35-23.62-2.34-26.85C577.06,91,590.06,76.49,595,70.79c6.6-7.65,2.89-18.45,2.89-18.45Z"/><g class="cls-2"><g class="cls-2"><g class="cls-36"><g class="cls-2"><path class="cls-8" d="M519.26,82.36l-.16,56.13a6.82,6.82,0,0,1-.29-1.94L519,80.42a6.43,6.43,0,0,0,.29,1.94Z"/></g></g></g><g class="cls-2"><g class="cls-37"><g class="cls-2"><path class="cls-8" d="M519.39,83.15l-.16,56.12a2.13,2.13,0,0,0-.13-.78l.16-56.13a2.42,2.42,0,0,1,.13.79Z"/></g></g></g><g class="cls-2"><g class="cls-38"><g class="cls-2"><path class="cls-39" d="M429.17,90.45,429,146.57a10.65,10.65,0,0,1-5.89-1.23,3.66,3.66,0,0,1-2.17-3l.16-56.13a3.68,3.68,0,0,0,2.16,3,10.77,10.77,0,0,0,5.9,1.23Z"/></g></g></g><g class="cls-2"><g class="cls-40"><g class="cls-2"><path class="cls-39" d="M567,81.44l-.16,56.13c0,3.47-2.47,6.89-7.07,9.56-5.54,3.22-10.83,5-18.34,4.24l.16-56.13c7.52.75,12.8-1,18.33-4.23,4.61-2.68,7.07-6.1,7.08-9.57Z"/></g></g></g><g class="cls-2"><g class="cls-41"><g class="cls-2"><path class="cls-39" d="M541.6,95.24l-.16,56.13a9.9,9.9,0,0,0-5.73,1,3.06,3.06,0,0,0-1.79,2.56l.16-56.13a3.08,3.08,0,0,1,1.79-2.56,9.89,9.89,0,0,1,5.73-1Z"/></g></g></g><g class="cls-2"><g class="cls-42"><g class="cls-2"><path class="cls-8" d="M408.61,102l-.16,56.13a2.28,2.28,0,0,1,0,.45l.15-56.12a2.4,2.4,0,0,0,.05-.46Z"/></g></g></g><g class="cls-2"><g class="cls-43"><g class="cls-2"><path class="cls-8" d="M408.56,102.41l-.15,56.12a9.51,9.51,0,0,0-.11,1.39l.16-56.12a9.29,9.29,0,0,1,.1-1.39Z"/></g></g></g><g class="cls-2"><g class="cls-44"><g class="cls-2"><path class="cls-39" d="M456.79,104.77l-.16,56.13c0-3.56-2.41-7.17-7.4-10.05-6-3.44-12.77-4.67-20.22-4.28l.16-56.12c7.45-.4,14.25.83,20.21,4.27,5,2.88,7.42,6.49,7.41,10Z"/></g></g></g><g class="cls-2"><g class="cls-45"><path class="cls-46" d="M461.39,142.89,461.23,199c0-3.67-2.43-7.27-7-9.92-9.05-5.23-24.54-5.57-34.57.26a14,14,0,0,0-7,11.87l.16-56.13a14,14,0,0,1,7-11.87c10-5.83,25.51-5.49,34.56-.26,4.59,2.65,7,6.25,7,9.92Z"/></g></g><g class="cls-2"><g class="cls-47"><g class="cls-2"><path class="cls-46" d="M529.61,145.86,529.45,202c0-3.73-2.28-7.18-7.56-10.23-9.89-5.71-24.67-5.57-33.88-.22-4.55,2.64-6.89,6.07-6.89,9.54l.15-56.12c0-3.48,2.35-6.91,6.9-9.55,9.21-5.35,24-5.49,33.88.22,5.28,3.05,7.58,6.5,7.56,10.23Z"/></g></g></g><polygon class="cls-48" points="403.59 150.04 403.43 206.17 355.82 178.68 355.98 122.55 403.59 150.04"/><g class="cls-2"><g class="cls-49"><g class="cls-2"><path class="cls-39" d="M412.81,145.73l-.16,56.12c0,1.11-.76,2.26-2.3,3.15a11.09,11.09,0,0,1-6.92,1.17l.16-56.13a11.09,11.09,0,0,0,6.92-1.17c1.54-.89,2.3-2,2.3-3.14Z"/></g></g></g><polygon class="cls-50" points="580.27 127.16 580.11 183.29 538.38 207.96 538.54 151.83 580.27 127.16"/><g class="cls-2"><g class="cls-51"><g class="cls-2"><path class="cls-39" d="M538.54,151.83,538.38,208a10.91,10.91,0,0,1-6.89-1.08,3.71,3.71,0,0,1-2.19-3l.16-56.13c0,1.07.72,2.17,2.19,3a10.91,10.91,0,0,0,6.89,1.08Z"/></g></g></g><g class="cls-2"><g class="cls-52"><g class="cls-2"><path class="cls-8" d="M425.1,162.46l-.16,56.13a2.38,2.38,0,0,1-.22-1l.16-56.13a2.38,2.38,0,0,0,.22,1Z"/></g></g></g><g class="cls-2"><g class="cls-53"><g class="cls-2"><path class="cls-8" d="M517,163.48l-.16,56.12a2.44,2.44,0,0,1-.24,1.05l.16-56.13a2.43,2.43,0,0,0,.24-1Z"/></g></g></g><polygon class="cls-50" points="516.71 164.52 516.55 220.65 515.24 221.41 515.39 165.28 516.71 164.52"/><polygon class="cls-50" points="515.39 165.28 515.24 221.41 472.7 246.12 472.86 190 515.39 165.28"/><path class="cls-54" d="M580.27,127.16l-41.73,24.67a10.91,10.91,0,0,1-6.89-1.08c-1.66-.95-2.37-2.23-2.16-3.41.68-4.3-1.47-8.26-7.44-11.71-9.89-5.71-24.67-5.57-33.88-.22s-9.37,13.9.52,19.61c6,3.44,12.8,4.69,20.21,4.25a11,11,0,0,1,5.91,1.26c1.91,1.11,2.55,2.64,1.9,4l-1.31.76L472.86,190,425.1,162.46c-.62-1.34,0-2.88,2-4a11,11,0,0,1,5.93-1.31c4.9,0,15-.6,21-4.13,10-5.82,9.38-14.8.3-20s-24.53-5.57-34.56.26a14,14,0,0,0-7,12.19c.15,1.2-.6,2.48-2.28,3.45a11.09,11.09,0,0,1-6.92,1.17L356,122.55l40.83-23.73a10.65,10.65,0,0,1,9.64.18c1.65,1,2.36,2.23,2.11,3.41-.62,4.31,1.51,8.25,7.47,11.69,9.88,5.71,24.64,5.58,33.86.22s9.38-13.89-.51-19.6c-6-3.44-12.76-4.67-20.21-4.27a10.77,10.77,0,0,1-5.9-1.23c-2.73-1.58-2.9-4.09-.35-5.58l40.83-23.73,44.79,25.84c2.78,1.3,6.7,1.32,9.08-.06,1.5-.87,2-2.12,1.64-3.33C518,78,521,74.94,526.54,71.72c9.1-5.29,23.21-5.73,33.21,0s9.29,14,.18,19.25c-5.53,3.21-10.81,5-18.33,4.23a9.89,9.89,0,0,0-5.73,1c-2.38,1.38-2.37,3.62-.13,5.22Z"/><polygon class="cls-48" points="472.86 190 472.7 246.12 424.94 218.59 425.1 162.46 472.86 190"/></g><path class="cls-6" d="M639,98.2a7,7,0,0,1,4.67,1.7,3.45,3.45,0,0,1,1.17,2.91,38.38,38.38,0,0,1-1,4.26l-.93.4s.68,5,.31,7.33-4.78,6.26-6.76,7.6a4.19,4.19,0,0,1-2.89.64s-4.79-.9-4.85-1.42a2.62,2.62,0,0,1,.18-2.59c.86-1.15,3.13-4.6,3.26-6.26s-1.36-4-1.36-4Z"/><path class="cls-6" d="M536.64,68.55a5.7,5.7,0,0,1,3.91,2.69s3.37-4.43,7.28-10.61c6-9.55,16.11-21.45,16.11-21.45s4.71-5.72.95-10c-1.22-1.39-3.61-3.23-5.78-2.66-1.67.43-5.06,1.52-6.53,4.35s-7,10.47-12.44,19.39c-2.62,4.33-10.5,18.18-10.5,18.18S535,68.32,536.64,68.55Z"/><path class="cls-26" d="M583.17,61.2s15.3,24.56,19.92,33c2.36,4.31,9.09,7.37,9.09,7.37,5.66,2,12.86,6.44,17.09,7.44,1,.25.61,2.09,1.84,2.21,2.94.3,11.37-11.14,6.92-14.11-6.64-4.42-20.81-11.46-21.18-12-2.9-4.36-5.8-19.74-11.31-24.34C600.68,56.64,583.17,61.2,583.17,61.2Z"/><path class="cls-27" d="M577.51,24.06s-5.09-2.54-7.77-1.92-9.26,5.6-9.26,5.6,2.69,11,2,11c-3.25,0,11.69,13.68,11.69,13.68L578.45,39Z"/><path class="cls-28" d="M566.94,33.27c5.64-1,4.88-7.77,3.85-11.73l-8.71-5.77-3.34,9.69s2.92,3.48,4.3,4A7.81,7.81,0,0,1,566.94,33.27Z"/><path class="cls-29" d="M567,38.78a2.53,2.53,0,0,0-.52-1.07l-.92-1.17L566,33l1-.29,2,2.72-.58,1.82a2.51,2.51,0,0,0,.13,1.6l3.83,9.53-.73,3.75s-2.63-2-3.09-3C567,45.66,567,38.78,567,38.78Z"/><path class="cls-30" d="M566,32.36c.71.19.56,1,.46,1.47l-.69,3.27c-.24,1-.87.26-1.23-.51L561.78,31c-1.19-3,0-3.88,0-3.88a14.89,14.89,0,0,0,.76,1.61C563.13,29.94,563.9,31.8,566,32.36Z"/><path class="cls-30" d="M570.2,21.08s.83.57.83,2.94c0,4.9-4.29,8.15-4.29,8.15-.5.48-.34.76.19,1.72l2.19,3.42c.53.92,1,.6,1.19,0,0,0,2.41-5.05,3-6.65a8.33,8.33,0,0,0-1.3-8.76A1.9,1.9,0,0,0,570.2,21.08Z"/><path class="cls-4" d="M604.81,53.33C594.23,29.73,588.33,27,588.33,27c-8.85-7.66-20-7.1-20-7.1l.83.49c.8.49,3.41.58,3.5,8.51,0,3.83-1.15,22-1.11,22.22a31.34,31.34,0,0,1-5.9-5.72c-4.5-5.68-3.34-17.58-2.76-20.21-1.46,1.06-10.11,4.76-9.68,7.12,1,5.3,2.12,11.07,17.24,25.17.53.5,5.81,5.53,6.08,7.84.17,1.43-4,7.56-4,7.56.48,1.69,3.88,4.38,6.36,2.4,1.38-1.11,6.08-6.64,6.08-6.64s1,7.65,2.38,9.78a2.85,2.85,0,0,0,1,.91c6.81,0,15.76-3.21,19.55-6.08,3.41-2.58,3.32-3.14,3.32-3.14C611.81,69,606.9,58,604.81,53.33Z"/><path class="cls-26" d="M584.48,65c-4-5.47-7.09-9.9-8.18-11.86l-.64.36c1.1,2,4.17,6.44,8.23,11.94a5.65,5.65,0,0,1,.94,3.51l.18-.32.53,1A6.79,6.79,0,0,0,584.48,65Z"/><path class="cls-31" d="M562.47,29l-1.31-1.18s-.52.75-.62.94a10.33,10.33,0,0,0-.37,2.66L559.92,38a2,2,0,0,0,1.34,1.88l2.27,1-.76,2.55c-.61,1.09-.35,1.25.4,2a91.51,91.51,0,0,0,8,6.81s-3.52-5.52-5.16-9A35.21,35.21,0,0,1,562.47,29Z"/><path class="cls-31" d="M568.42,20l3.26.18s4.53.69,5,4.58c.09.78.16,3.14.16,3.14l.14,6.19c.2,1.39-.08,2-1,2.48l-3.14,1.85,2.19,1.81c.72.57.64,1.12.23,1.87-4.35,7.79-4,11.28-4,11.28s-1.65-3.18-.57-14.93c.27-3,1-7.13,1.44-10.62C572.71,23.28,568.42,20,568.42,20Z"/><path class="cls-32" d="M548.47,8.18S546,8,545.17,9.36s-.61,4.33.52,6.3a11.08,11.08,0,0,0,2.19,2.86Z"/><path class="cls-33" d="M560.83,15.05a2.7,2.7,0,0,0-2.45,2.66l.56,4.9s.24,1.05,1.18,1.13c1.42.13,1.89-1.15,2.36-2.56,0-.08.59-2.14.63-2.26C563.6,17.17,563.14,14.79,560.83,15.05Z"/><path class="cls-34" d="M555.36,6.63l8.94.9,2.09,17c0,1.18.19,1.89.11,2.9a4.78,4.78,0,0,1-1.67,3.32s-1.81,1.48-3.76,2.84a3.85,3.85,0,0,1-2.56.73c-1-.12-1.91-.32-2.71-.45a3.19,3.19,0,0,1-2-1.82l-6.2-13.34s-2.52-6.32.16-8.76C549.38,8.45,555.36,6.63,555.36,6.63Z"/><path class="cls-35" d="M545.44,9.08c-1.48,2.2.72,3.8,3.46,5.27.31.17,7.22,3,7.41,3s.59-2.56,1.37-2.47c1.63.19,2,.88,2.6,2.33l1.05,2.6c.25.83.84,1.63,1.46,1.74.81.14.51-.24.58-.49,0,0,0-3.47,2.16-3.41,1.85.06,2,2.15,1.94,2.38l3,2c.2-.08.32-.66.34-.91,0-.5.3-2.43.47-4.1,1.41-13.23-8.85-20.7-19.3-15.12C547.7,4.15,545.44,9.08,545.44,9.08Z"/><path class="cls-34" d="M566.07,15.24c-2.44.28-2.59,3.58-2.59,3.58L563,22s1.44,1.86,2.38,1.94c1.43.13,1.89-1.15,2.36-2.56,0-.08.59-2.14.63-2.26C568.84,17.36,568.38,15,566.07,15.24Z"/><path class="cls-34" d="M561.55,81.48s-3.48-.82-5.12.13a13.68,13.68,0,0,1-5.21,1.68,1.79,1.79,0,0,0-.17,1.28c.18.78,1.6,1.21,2.79.89,3.31-.89.68.37-.14,1.11-1.59,1.43-4.47,4.42-4.38,5.79.13,2,4.52,3.12,6.74,1.47a50.64,50.64,0,0,1,4.36-2.93,45.82,45.82,0,0,0,5.57-3C569.16,85.43,563.28,82,561.55,81.48Z"/><path class="cls-28" d="M532.89,66.23c-.67.08-3.43.3-4.86,1.78-1.26,1.31-5.44,5.54-5,6.47.83,1.68,4.07,2.26,5.39.94a55.31,55.31,0,0,1,6.13-4.24c1.47-.8,1.91-1.21,3.13-.31.84.64,1.73-1.63,1.86-2S536.52,65.77,532.89,66.23Z"/><path class="cls-26" d="M561.68,85.52a9.27,9.27,0,0,0,3.77,1.07,7.82,7.82,0,0,0,3.1-1.48c4.31-4.58,10.17-15.32,13.6-21.13,5-8.55,10-24.64,10-24.64.28-.73.73-7.48-1-9-3.71-3.12-9-4.56-11,.37-2.72,6.62-5.24,16.83-9.2,25.55-3.29,7.26-12.42,25.27-12.42,25.27S558.69,83.41,561.68,85.52Z"/><path class="cls-28" d="M537.18,67.34s2.56,1.21,2.69,1.89A7.15,7.15,0,0,0,541.45,72c.3.23,0,.67,0,.67a1.5,1.5,0,0,1-2.2.68c-.89-.4-1.33-1.87-1.72-2.38-.92-1.23-2.76-.6-2.76-.6Z"/><g class="cls-2"><g class="cls-2"><g class="cls-55"><g class="cls-2"><path class="cls-56" d="M245,238.84l.16,56.13a6.08,6.08,0,0,0,0,.61L245,239.46c0-.21,0-.41,0-.62Z"/></g></g></g><g class="cls-2"><g class="cls-57"><g class="cls-2"><path class="cls-56" d="M245,239.46l.16,56.12a2.54,2.54,0,0,1,.14.8l-.16-56.12a2.21,2.21,0,0,0-.14-.8Z"/></g></g></g><g class="cls-2"><g class="cls-58"><path class="cls-59" d="M146.87,242.09l.16,56.12a3.82,3.82,0,0,0,2.24,3.05,11,11,0,0,0,5.94,1.29l-.16-56.13a11,11,0,0,1-5.94-1.29,3.82,3.82,0,0,1-2.24-3Z"/></g></g><g class="cls-2"><g class="cls-60"><path class="cls-59" d="M267.6,252.63l.16,56.12c4.41.19,12.84-.86,18.26-4,4.48-2.59,6.84-5.91,6.83-9.33l-.15-56.13c0,3.42-2.36,6.75-6.83,9.33-5.42,3.13-13.86,4.19-18.27,4Z"/></g></g><g class="cls-2"><g class="cls-61"><path class="cls-59" d="M260.19,256l.15,56.13a3,3,0,0,1,1.72-2.49,9.59,9.59,0,0,1,5.7-.91l-.16-56.12a9.47,9.47,0,0,0-5.69.91,2.91,2.91,0,0,0-1.72,2.48Z"/></g></g><g class="cls-2"><g class="cls-62"><g class="cls-2"><path class="cls-56" d="M134.77,258.14l.16,56.13a2.31,2.31,0,0,0,0-.37l-.16-56.13a2.31,2.31,0,0,1,0,.37Z"/></g></g></g><g class="cls-2"><g class="cls-63"><g class="cls-2"><path class="cls-56" d="M134.69,259.4l.16,56.13a8.88,8.88,0,0,1,.08-1.26l-.16-56.13a10.79,10.79,0,0,0-.08,1.26Z"/></g></g></g><g class="cls-2"><g class="cls-64"><path class="cls-59" d="M155.05,246.42l.16,56.13c7.42-.29,14.27,1,20.32,4.53,5.15,3,7.67,6.7,7.68,10.31l-.16-56.13c0-3.61-2.53-7.32-7.68-10.3-6.05-3.52-12.9-4.82-20.32-4.54Z"/></g></g><polygon class="cls-59" points="82.68 277.63 82.84 333.75 128.26 360.17 128.1 304.05 82.68 277.63"/><g class="cls-2"><g class="cls-65"><path class="cls-66" d="M207.15,303l.16,56.12c0-3.46,2.42-6.85,7-9.5,9.06-5.23,23.14-5.57,33.17.26,5.41,3.14,7.8,6.64,7.81,10.4l-.15-56.13c0-3.75-2.41-7.26-7.81-10.39-10-5.83-24.12-5.49-33.18-.27-4.58,2.65-7,6-7,9.51Z"/></g></g><g class="cls-2"><g class="cls-67"><g class="cls-2"><path class="cls-56" d="M128.1,304.05l.16,56.12A3.64,3.64,0,0,1,130,363l-.16-56.13a3.6,3.6,0,0,0-1.77-2.77Z"/></g></g></g><polygon class="cls-68" points="265.53 309.45 265.69 365.58 307.6 341.38 307.44 285.25 265.53 309.45"/><polygon class="cls-68" points="264.24 310.2 264.39 366.33 265.69 365.58 265.53 309.45 264.24 310.2"/><g class="cls-2"><g class="cls-69"><path class="cls-59" d="M255,305.88l.15,56.13c0,1.11.78,2.25,2.31,3.15a11.13,11.13,0,0,0,6.91,1.17l-.16-56.13a11.15,11.15,0,0,1-6.91-1.17c-1.53-.9-2.3-2-2.3-3.15Z"/></g></g><g class="cls-2"><g class="cls-70"><path class="cls-59" d="M145,322.58l.16,56.13a3,3,0,0,1,1.73-2.52c2.34-1.35,6.22-1.31,9,0l-.16-56.13c-2.8-1.32-6.67-1.37-9,0a3,3,0,0,0-1.73,2.52Z"/></g></g><g class="cls-2"><g class="cls-71"><g class="cls-2"><path class="cls-56" d="M242.73,322.61l.16,56.13a2.3,2.3,0,0,0,.22-1L243,321.62a2.3,2.3,0,0,1-.22,1Z"/></g></g></g><g class="cls-2"><g class="cls-72"><path class="cls-73" d="M97.35,323.52l.16,56.13c0,3.44,2.42,7,7.52,9.93,10.14,5.9,24.29,5.66,33.26.47,5.07-2.92,7-7.18,7-9.95L145.12,324c0,2.77-1.92,7-7,10-9,5.18-23.12,5.42-33.26-.47-5.1-3-7.51-6.5-7.52-9.94Z"/></g></g><polygon class="cls-59" points="155.7 320.08 155.86 376.21 201.05 402.48 200.9 346.35 155.7 320.08"/><path class="cls-74" d="M82.68,277.63l45.42,26.42c2.29,1.62,2.4,3.89.06,5.25a9.59,9.59,0,0,1-5.72.89c-3.77-.2-12.81.86-18.26,4-9,5.19-9.46,13.37.69,19.27s24.29,5.65,33.26.47c5.45-3.15,7.27-7.84,7-10.57-.4-1.2.12-2.44,1.6-3.3,2.35-1.35,6.22-1.3,9,0l45.2,26.27,41.83-23.74c.62-1.33,0-2.88-2-4a11.16,11.16,0,0,0-5.93-1.31c-7.41.32-14.28-1-20.34-4.52-10-5.83-9.39-14-.32-19.24s23.14-5.56,33.18.27c6,3.51,8.34,7.5,7.7,11.78-.15,1.2.62,2.47,2.29,3.45a11.15,11.15,0,0,0,6.91,1.17l1.3-.75,41.91-24.2-45.53-26.49c-2.26-1.64-2.34-3.87,0-5.22a9.47,9.47,0,0,1,5.69-.91c4.41.19,12.85-.87,18.27-4,9-5.19,9.45-13.38-.7-19.27s-24.27-5.65-33.26-.46c-5.42,3.13-7.22,7.5-6.93,10.56.42,1.21-.09,2.44-1.6,3.31-2.33,1.35-6.24,1.27-9.06-.05l-45.55-26.47-40.14,23.3c-2.53,1.46-2.29,4,.48,5.58a11,11,0,0,0,5.94,1.29c7.42-.28,14.27,1,20.32,4.54,10,5.83,10.09,14.38,1,19.62s-23.84,5.18-33.87-.65c-6-3.52-8.28-7.49-7.74-11.79.19-1.18-.56-2.46-2.24-3.44-2.77-1.61-7.1-1.75-9.63-.3Z"/><polygon class="cls-68" points="200.9 346.35 201.05 402.48 242.89 378.74 242.73 322.61 200.9 346.35"/></g><path class="cls-34" d="M93.43,323.81s3.77-6.59,5.12-6.73,4.75-1.73,6.33-1.34c1,.24,3.85,2,3.09,2.69a36.86,36.86,0,0,1-4.88,3.26s-1.71,1.82.1,1.82c2.56,0,4.65-.23,4.65-.23s2.29,1.21,0,1.75a23.4,23.4,0,0,0-5,2s-2.56,1.75-4.31.4S93.43,323.81,93.43,323.81Z"/><path class="cls-5" d="M71,437.28a4.9,4.9,0,0,0,3.5,1c1.38-.11,5.83-.81,5.83-.81,2.21-.36,5-.43,6,1.55a6.84,6.84,0,0,1,.47,1.38c.08,1.24-.93,2-2.18,2.93a39,39,0,0,1-4.3,2.65,17.2,17.2,0,0,1-6.3,1.95,34,34,0,0,0-3.69.6c-1.14.32-.71,1.09-.53,2.19l-3.34,2c-3.47,1.5-6.8-1.06-6.94-1.9l-1.32-8.22Z"/><path class="cls-26" d="M71.58,448a28.89,28.89,0,0,0,6.73-1.64,43.32,43.32,0,0,0,6.53-3.95c1.1-.79,1.93-1.85,1.81-2.58a3.09,3.09,0,0,1,.2.7c.08,1.25-.93,2-2.18,2.93a37.37,37.37,0,0,1-4.3,2.65,17.43,17.43,0,0,1-6.3,2l-3.15.44c-.7.09-1.31.46-1.29.58C69.64,449,69.73,448.29,71.58,448Z"/><path class="cls-26" d="M66.27,451.21l3.31-2c.06.36.21,1.21.27,1.57l-3.34,2c-3.47,1.51-6.8-1.05-6.94-1.9l-.24-1.58C59.47,450.16,62.79,452.71,66.27,451.21Z"/><path class="cls-4" d="M98.53,324.36c1.88,2.83.69,5.31.11,5.67-5.12,3.24-12.17,9-16.14,11.63C78.14,344.6,67,355,67,355s-12.2,6.31-15.44-1.75c-1.8-4.47,5.35-9.24,8.9-11.53,2.78-1.8,11.16-7.2,15.46-9.86s18.05-9.74,18.05-9.74S97.23,322.41,98.53,324.36Z"/><path class="cls-75" d="M57.63,395.71s-12,23.5-17.77,30.43c-4.53,5.42-26.95,21.44-26.95,21.44s.56-1.12-4.56-4.89c-6.91-5.09-5.48-5.2-5.53-5.72,0,0,21.44-15.49,25.19-21.07,4.59-6.82,12.92-28.27,12.92-28.27Z"/><path class="cls-76" d="M64.63,388.44l18.51,23.22a7.13,7.13,0,0,1-.2,8.28c-3.21,4.6-8.55,16.63-8.55,16.63s-1.08,1.41-.34,1.82a2.09,2.09,0,0,1,.68,2.22,13,13,0,0,1-11.18,7.09c-6.91.2-5.72-3.69-5.83-4.65,0,0,5-13,8.66-23.11,1.48-4.11-.81-5.65-.81-5.65l-16-10-1.88-18Z"/><path class="cls-26" d="M80.52,359.63c.74,7.67-11.58,20.46-12.66,27.46-.79,5.12,5.59,9.22,5.59,9.22-.57,1.22-15.27,10.11-22.22,9.7-4.57-.27-7.74-.34-13.12-3-1.88-.94-4.83-4.18-3.64-6.73,0,0,3.23-14.27,7-25.58,3.5-10.5,9.65-22.25,12.45-24,4.84-3.09,8.68-2.42,8.68-2.42,4.79,4.07,11.05,8.08,12.8,10C76.35,355.3,79.17,358.28,80.52,359.63Z"/><path class="cls-34" d="M62.7,345.22l2.63-9.65,10.34,4-2.78,10.83C72.85,350.42,62.7,345.22,62.7,345.22Z"/><path class="cls-34" d="M80.32,323.48l7.19,1.92L81.8,343.78c-1.53,5.3-4,5.61-5.61,5.25a19,19,0,0,1-8.28-3.79c-3.17-3-1.74-10.48-1.66-11l1.64-12.77Z"/><path class="cls-77" d="M86.4,322.52c2.79,1.91,1.15,6.37,1.15,6.37A35.7,35.7,0,0,0,84,331.84c0,.08-2.88,6.15-2.88,6.15-.13.73-1.32,1.57-1.61.41s.74-2,.35-2.72-1.84-1.26-4.12,2.44l-1.42,2.94c-2.08,3.23-5,2.81-7,1.9,0,0-2.66-1.32-3.5-2.57-.4-.62-.88-6.9-1.19-8.8-1.14-7.07,3.6-19.35,16.94-13.21A41.55,41.55,0,0,1,86.4,322.52Z"/><path class="cls-78" d="M79.92,335a2.77,2.77,0,0,0-2.41,1.64,3.22,3.22,0,0,0-.14,2.66,2.78,2.78,0,0,0,1.15,1.23s.51-3,.64-3.55A20,20,0,0,1,79.92,335Z"/><path class="cls-33" d="M80.7,334.91s.89.11,0,1.26a6.35,6.35,0,0,0-1.28,2.58c-.13.64-.32,2.61-.32,2.61s-.7.71-1-.57a7.91,7.91,0,0,1,.15-3.09C78.38,337.14,79.8,334.45,80.7,334.91Z"/><path class="cls-79" d="M63.71,342.8c-1.23-.49-1-.42-1.66,0a13.28,13.28,0,0,0-1.4,1.07c-.53.41.07.56.07.56S65,346.76,70,350a34.09,34.09,0,0,1,4.29,3.13l-.5-1.47a17.17,17.17,0,0,0-4.39-5.4A49.45,49.45,0,0,0,63.71,342.8Z"/><path class="cls-5" d="M12.76,443.13A10,10,0,0,0,8,437.18c-1.57-.77-3.84-1.36-5.13-.14-.86.82-1.62,2.88,3.24,6.46,5.12,3.77,5.12,5.12,5.12,5.12.6-.35-.37.46,1.75-1.08C13.6,446.87,13.48,445.27,12.76,443.13Z"/><path class="cls-5" d="M1.86,439.63s3.83-2,5.95-2.05c1.48,0,1.49,1,3.64,4,1.35,1.88,1.28,8.11,1.08,10.5-.17,1.95.4,4.17.94,4.17a3.49,3.49,0,0,1,3.1,2.16c.49,1.68-5.32,3.36-5.32,3.36s-3.5-.4-4.45-1.07,1.62-9.56-.13-14.41S4.08,439.63,1.86,439.63Z"/><path class="cls-80" d="M.44,445.49s-.71-7.26,3.74-6.31c4,.86,3.33,7.12,3.3,7.12-.26,0,.84.67.84.74,0,3.24-.18,8.55,0,11.61a3,3,0,0,0,2.83,3.16,13.58,13.58,0,0,1-1.51.1c-1.73-.11-5.4-.88-6.7-1.78-1-.67-1.27-2.17-1.38-3.2a79,79,0,0,1,.17-10.74C1.77,446,.44,445.49.44,445.49Z"/><path class="cls-81" d="M7.48,446.3l-7-.84a14,14,0,0,0,1.29.69l6.6.89S7.44,446.3,7.48,446.3Z"/><path class="cls-34" d="M113.29,338s-1.41-2-1.21-3.53-.4-4.35-.81-4.55,2.22-2.42,2.63.51,1.51,2.52,1.51,2.52a34.57,34.57,0,0,0,4.65-2.42c2.62-1.62,6.26.2,6.26.2s4.16,3.41,3.53,3.74c-1.72.91-4.64,1.71-6.36,3.93a6.12,6.12,0,0,1-5.15,2.63s0,.1-1.72-.61A11.59,11.59,0,0,1,113.29,338Z"/><path class="cls-82" d="M119.45,342.09c-.1,1.92-15.86,13.48-19.72,16.14a80.18,80.18,0,0,1-22.3,10.35s-4,.13-5.94-2.63c-2.85-4-1.75-9.27,2.15-10.63,3.1-1.08,12.91-4.86,18-7,8.23-3.38,20.6-12.62,20.6-12.62S119.77,336.1,119.45,342.09Z"/><g class="cls-2"><g class="cls-2"><g class="cls-83"><g class="cls-2"><path class="cls-56" d="M418,238.84,417.83,295a6.08,6.08,0,0,1,0,.61l.16-56.12a4.29,4.29,0,0,0,0-.62Z"/></g></g></g><g class="cls-2"><g class="cls-84"><g class="cls-2"><path class="cls-56" d="M418,239.46l-.16,56.12a2.84,2.84,0,0,0-.13.8l.16-56.12a2.44,2.44,0,0,1,.13-.8Z"/></g></g></g><g class="cls-2"><g class="cls-85"><path class="cls-86" d="M516.08,242.09l-.16,56.12a3.82,3.82,0,0,1-2.24,3.05,11,11,0,0,1-5.94,1.29l.16-56.13a11,11,0,0,0,5.94-1.29,3.82,3.82,0,0,0,2.24-3Z"/></g></g><g class="cls-2"><g class="cls-87"><path class="cls-86" d="M395.35,252.63l-.16,56.12c-4.41.19-12.84-.86-18.27-4-4.47-2.59-6.84-5.91-6.82-9.33l.15-56.13c0,3.42,2.36,6.75,6.83,9.33,5.42,3.13,13.86,4.19,18.27,4Z"/></g></g><g class="cls-2"><g class="cls-88"><path class="cls-86" d="M402.76,256l-.16,56.13a2.93,2.93,0,0,0-1.72-2.49,9.54,9.54,0,0,0-5.69-.91l.16-56.12a9.47,9.47,0,0,1,5.69.91,2.91,2.91,0,0,1,1.72,2.48Z"/></g></g><g class="cls-2"><g class="cls-89"><g class="cls-2"><path class="cls-56" d="M528.18,258.14,528,314.27a2.31,2.31,0,0,1,0-.37l.16-56.13a2.31,2.31,0,0,0,0,.37Z"/></g></g></g><g class="cls-2"><g class="cls-90"><g class="cls-2"><path class="cls-56" d="M528.26,259.4l-.16,56.13a10.66,10.66,0,0,0-.08-1.26l.16-56.13a10.79,10.79,0,0,1,.08,1.26Z"/></g></g></g><g class="cls-2"><g class="cls-91"><path class="cls-86" d="M507.9,246.42l-.16,56.13c-7.42-.29-14.27,1-20.33,4.53-5.14,3-7.66,6.7-7.67,10.31l.16-56.13c0-3.61,2.53-7.32,7.68-10.3,6.05-3.52,12.9-4.82,20.32-4.54Z"/></g></g><polygon class="cls-86" points="580.27 277.63 580.11 333.75 534.69 360.17 534.85 304.05 580.27 277.63"/><g class="cls-2"><g class="cls-92"><path class="cls-93" d="M455.8,303l-.16,56.12c0-3.46-2.42-6.85-7-9.5-9.06-5.23-23.14-5.57-33.18.26-5.4,3.14-7.8,6.64-7.8,10.4l.15-56.13c0-3.75,2.41-7.26,7.81-10.39,10-5.83,24.12-5.49,33.18-.27,4.58,2.65,7,6,7,9.51Z"/></g></g><g class="cls-2"><g class="cls-94"><g class="cls-2"><path class="cls-56" d="M534.85,304.05l-.16,56.12a3.61,3.61,0,0,0-1.77,2.78l.16-56.13a3.58,3.58,0,0,1,1.77-2.77Z"/></g></g></g><polygon class="cls-95" points="397.42 309.45 397.26 365.58 355.35 341.38 355.51 285.25 397.42 309.45"/><polygon class="cls-93" points="398.71 310.2 398.55 366.33 397.26 365.58 397.42 309.45 398.71 310.2"/><g class="cls-2"><g class="cls-96"><path class="cls-86" d="M407.93,305.88,407.77,362c0,1.11-.77,2.25-2.3,3.15a11.17,11.17,0,0,1-6.92,1.17l.16-56.13a11.12,11.12,0,0,0,6.91-1.17c1.54-.9,2.31-2,2.31-3.15Z"/></g></g><g class="cls-2"><g class="cls-97"><path class="cls-93" d="M518,322.58l-.16,56.13a3,3,0,0,0-1.73-2.52c-2.35-1.35-6.22-1.31-9,0l.16-56.13c2.8-1.32,6.67-1.37,9,0a3,3,0,0,1,1.73,2.52Z"/></g></g><g class="cls-2"><g class="cls-98"><g class="cls-2"><path class="cls-56" d="M420.22,322.61l-.16,56.13a2.3,2.3,0,0,1-.22-1l.15-56.13a2.31,2.31,0,0,0,.23,1Z"/></g></g></g><g class="cls-2"><g class="cls-99"><path class="cls-86" d="M565.6,323.52l-.16,56.13c0,3.44-2.43,7-7.52,9.93-10.14,5.9-24.29,5.66-33.26.47-5.07-2.92-7-7.18-7-9.95l.16-56.13c0,2.77,1.92,7,7,10,9,5.18,23.11,5.42,33.26-.47,5.09-3,7.51-6.5,7.52-9.94Z"/></g></g><polygon class="cls-86" points="507.25 320.08 507.09 376.21 461.89 402.48 462.05 346.35 507.25 320.08"/><path class="cls-100" d="M580.27,277.63l-45.42,26.42c-2.29,1.62-2.4,3.89-.06,5.25a9.58,9.58,0,0,0,5.72.89c3.77-.2,12.81.86,18.26,4,9,5.19,9.46,13.37-.69,19.27s-24.29,5.65-33.26.47c-5.45-3.15-7.27-7.84-7-10.57.4-1.2-.12-2.44-1.6-3.3-2.35-1.35-6.22-1.3-9,0l-45.2,26.27-41.83-23.74c-.62-1.33,0-2.88,2-4a11.16,11.16,0,0,1,5.93-1.31c7.4.32,14.28-1,20.34-4.52,10-5.83,9.39-14,.32-19.24s-23.14-5.56-33.18.27c-6.06,3.51-8.34,7.5-7.71,11.78.16,1.2-.61,2.47-2.29,3.45a11.12,11.12,0,0,1-6.91,1.17l-1.29-.75-41.91-24.2L401,258.76c2.27-1.64,2.35-3.87,0-5.22a9.47,9.47,0,0,0-5.69-.91c-4.41.19-12.85-.87-18.27-4-9-5.19-9.45-13.38.7-19.27s24.27-5.65,33.26-.46c5.42,3.13,7.21,7.5,6.92,10.56-.41,1.21.1,2.44,1.61,3.31,2.33,1.35,6.24,1.27,9.06-.05l45.55-26.47,40.14,23.3c2.53,1.46,2.29,4-.48,5.58a11,11,0,0,1-5.94,1.29c-7.42-.28-14.27,1-20.32,4.54-10,5.83-10.09,14.38-1,19.62s23.84,5.18,33.87-.65c6-3.52,8.28-7.49,7.74-11.79-.2-1.18.56-2.46,2.24-3.44,2.77-1.61,7.1-1.75,9.63-.3Z"/><polygon class="cls-95" points="462.05 346.35 461.89 402.48 420.06 378.74 420.22 322.61 462.05 346.35"/></g><path class="cls-34" d="M567.33,324.35s-3.76-6.59-5.11-6.73-4.76-1.73-6.33-1.34c-1,.24-3.85,2-3.1,2.69a37.55,37.55,0,0,0,4.88,3.26s1.72,1.82-.1,1.82a45.43,45.43,0,0,1-4.64-.24s-2.29,1.22,0,1.75a24,24,0,0,1,5,2s2.56,1.76,4.31.41S567.33,324.35,567.33,324.35Z"/><path class="cls-5" d="M589.75,437.82a4.9,4.9,0,0,1-3.5,1c-1.38-.11-5.83-.82-5.83-.82-2.22-.35-5-.42-6,1.56a7.39,7.39,0,0,0-.48,1.38c-.07,1.24.94,2,2.18,2.93a37.56,37.56,0,0,0,4.31,2.64,17.18,17.18,0,0,0,6.3,2,34,34,0,0,1,3.69.6c1.13.32.7,1.09.53,2.19l3.33,2c3.48,1.5,6.81-1.06,6.94-1.9l1.32-8.22Z"/><path class="cls-26" d="M589.19,448.49a28.42,28.42,0,0,1-6.73-1.65,42.17,42.17,0,0,1-6.53-3.94c-1.1-.8-1.93-1.85-1.82-2.58a3.57,3.57,0,0,0-.19.7c-.08,1.25.93,2,2.17,2.93a37,37,0,0,0,4.31,2.65,17.43,17.43,0,0,0,6.3,2l3.14.44c.7.09,1.32.46,1.29.58C591.12,449.52,591,448.83,589.19,448.49Z"/><path class="cls-26" d="M594.5,451.75l-3.31-2c-.06.36-.22,1.21-.28,1.57l3.34,2c3.48,1.5,6.81-1.05,6.94-1.9l.25-1.58C601.3,450.7,598,453.25,594.5,451.75Z"/><path class="cls-4" d="M562.24,324.9c-1.88,2.83-.69,5.31-.11,5.67,5.11,3.24,12.17,8.95,16.14,11.63,4.36,2.94,15.54,13.33,15.54,13.33s12.2,6.31,15.44-1.75c1.8-4.47-5.36-9.24-8.9-11.53-2.78-1.81-11.16-7.2-15.46-9.86s-18-9.74-18-9.74S563.54,323,562.24,324.9Z"/><path class="cls-75" d="M603.14,396.25s12,23.5,17.77,30.42c4.53,5.43,26.94,21.45,26.94,21.45s-.55-1.12,4.56-4.89c6.92-5.09,5.49-5.2,5.54-5.72,0,0-21.44-15.49-25.19-21.07-4.59-6.82-12.93-28.27-12.93-28.27Z"/><path class="cls-76" d="M596.14,389,577.63,412.2a7.13,7.13,0,0,0,.2,8.28c3.2,4.6,8.55,16.63,8.55,16.63s1.07,1.41.33,1.82a2.11,2.11,0,0,0-.67,2.22,13,13,0,0,0,11.18,7.09c6.9.2,5.72-3.69,5.83-4.65,0,0-5-13-8.66-23.11-1.48-4.11.81-5.65.81-5.65l16-10,1.88-18Z"/><path class="cls-26" d="M580.25,360.17c-.74,7.67,11.58,20.46,12.66,27.46.78,5.12-5.59,9.22-5.59,9.22.57,1.22,15.26,10.11,22.21,9.7,4.58-.27,7.75-.34,13.13-3,1.88-.94,4.83-4.18,3.64-6.73,0,0-3.23-14.27-7-25.58-3.5-10.51-9.65-22.25-12.44-24-4.85-3.09-8.68-2.42-8.68-2.42-4.79,4.07-11,8.08-12.8,10C584.41,355.84,581.6,358.82,580.25,360.17Z"/><path class="cls-34" d="M598.06,345.76l-2.62-9.65-10.34,3.95,2.78,10.84C587.92,351,598.06,345.76,598.06,345.76Z"/><path class="cls-34" d="M580.45,324l-7.19,1.92L579,344.32c1.53,5.3,4,5.6,5.6,5.25a19,19,0,0,0,8.29-3.79c3.17-3,1.74-10.48,1.66-11L592.87,322Z"/><path class="cls-77" d="M574.37,323.05c-2.79,1.92-1.16,6.38-1.16,6.38a37,37,0,0,1,3.52,2.94c0,.09,2.88,6.16,2.88,6.16.13.73,1.32,1.57,1.6.41s-.73-2-.34-2.72,1.83-1.27,4.12,2.44l1.42,2.94c2.08,3.22,5,2.81,7.05,1.9,0,0,2.66-1.32,3.49-2.57.41-.62.89-6.9,1.19-8.8,1.15-7.07-3.6-19.35-16.93-13.21A41.88,41.88,0,0,0,574.37,323.05Z"/><path class="cls-78" d="M580.85,335.56a2.75,2.75,0,0,1,2.4,1.64,3.19,3.19,0,0,1,.15,2.66,2.78,2.78,0,0,1-1.15,1.23s-.52-3-.64-3.55A20,20,0,0,0,580.85,335.56Z"/><path class="cls-33" d="M580.06,335.45s-.88.11,0,1.25a6.3,6.3,0,0,1,1.28,2.59c.14.64.33,2.61.33,2.61s.69.71,1-.57a7.91,7.91,0,0,0-.15-3.09C582.39,337.68,581,335,580.06,335.45Z"/><path class="cls-79" d="M597.05,343.34c1.24-.49,1-.43,1.67,0a12.05,12.05,0,0,1,1.4,1.07c.53.41-.07.56-.07.56s-4.29,2.33-9.26,5.59a33.82,33.82,0,0,0-4.29,3.13l.51-1.47a17.06,17.06,0,0,1,4.39-5.4A50,50,0,0,1,597.05,343.34Z"/><path class="cls-5" d="M648,443.67a10.07,10.07,0,0,1,4.82-6c1.57-.76,3.83-1.36,5.13-.13.86.82,1.61,2.88-3.25,6.46-5.11,3.77-5.11,5.12-5.11,5.12-.6-.35.36.46-1.75-1.08C647.16,447.41,647.28,445.81,648,443.67Z"/><path class="cls-5" d="M658.91,440.17s-3.84-2-6-2.05c-1.47,0-1.48,1-3.63,4-1.35,1.88-1.28,8.11-1.08,10.5.17,1.95-.4,4.17-.94,4.17a3.49,3.49,0,0,0-3.1,2.16c-.49,1.68,5.32,3.36,5.32,3.36s3.5-.4,4.44-1.08-1.61-9.55.14-14.4S656.69,440.17,658.91,440.17Z"/><path class="cls-80" d="M660.32,446s.71-7.26-3.73-6.31c-4,.85-3.33,7.12-3.3,7.12.26,0-.84.67-.84.74,0,3.24.18,8.55,0,11.61a3,3,0,0,1-2.82,3.16,13.39,13.39,0,0,0,1.51.1c1.73-.11,5.4-.89,6.7-1.78,1-.67,1.27-2.17,1.38-3.2a80.61,80.61,0,0,0-.17-10.74C659,446.53,660.32,446,660.32,446Z"/><path class="cls-81" d="M653.29,446.84l7-.84s-.88.49-1.29.69l-6.61.89A10.68,10.68,0,0,0,653.29,446.84Z"/><path class="cls-34" d="M547.48,338.49s1.41-2,1.21-3.53.4-4.35.81-4.55-2.23-2.42-2.63.51-1.51,2.52-1.51,2.52a34.57,34.57,0,0,1-4.65-2.42c-2.63-1.62-6.26.2-6.26.2s-4.16,3.4-3.53,3.74c1.71.9,4.64,1.71,6.36,3.93a6.11,6.11,0,0,0,5.15,2.63s0,.1,1.71-.61A11.54,11.54,0,0,0,547.48,338.49Z"/><path class="cls-82" d="M541.32,342.63c.1,1.92,15.86,13.47,19.72,16.14a80.19,80.19,0,0,0,22.29,10.35s4,.13,5.95-2.63c2.85-4,1.75-9.27-2.15-10.63-3.1-1.08-12.91-4.86-18-7-8.22-3.38-20.59-12.62-20.59-12.62S541,336.64,541.32,342.63Z"/></g></g></g></svg>