<?xml version="1.0" encoding="UTF-8" standalone="no"?>
<svg
   xmlns:dc="http://purl.org/dc/elements/1.1/"
   xmlns:cc="http://creativecommons.org/ns#"
   xmlns:rdf="http://www.w3.org/1999/02/22-rdf-syntax-ns#"
   xmlns:svg="http://www.w3.org/2000/svg"
   xmlns="http://www.w3.org/2000/svg"
   viewBox="0 0 400 400"
   height="400"
   width="400"
   xml:space="preserve"
   id="svg2"
   version="1.1"><metadata
     id="metadata8"><rdf:RDF><cc:Work
         rdf:about=""><dc:format>image/svg+xml</dc:format><dc:type
           rdf:resource="http://purl.org/dc/dcmitype/StillImage" /></cc:Work></rdf:RDF></metadata><defs
     id="defs6" /><g
     transform="matrix(1.3333333,0,0,-1.3333333,0,400)"
     id="g10"><g
       transform="scale(0.1)"
       id="g12"><path
         id="path14"
         style="fill:#ffffff;fill-opacity:1;fill-rule:nonzero;stroke:none"
         d="M 3000,0 H 0 V 3000 H 3000 V 0" /><path
         id="path16"
         style="fill:#382c30;fill-opacity:1;fill-rule:nonzero;stroke:none"
         d="m 1641.88,484.91 c 0,0 73.84,-80.89 157.08,-110.699 65.23,-23.371 -54.08,-33.981 -106.09,-29.82 -52,4.16 -88.06,35.371 -118.56,43.691 0,0 -2.29,56.789 4.5,90.828 6.79,34.039 63.07,6 63.07,6" /><path
         id="path18"
         style="fill:#382c30;fill-opacity:1;fill-rule:nonzero;stroke:none"
         d="m 1574.31,388.082 c 0,0 -2.09,-14.223 0,-16.641 2.08,-2.441 30.52,-4.453 36.57,-3.472 6.03,0.98 2.95,9.922 2.95,9.922 l -39.52,10.191" /><path
         id="path20"
         style="fill:#382c30;fill-opacity:1;fill-rule:nonzero;stroke:none"
         d="m 1455.7,471.051 c 0,0 -92.22,-69.801 -156.01,-96.84 -63.8,-27.039 54.08,-33.981 106.09,-29.82 52,4.16 88.06,35.371 118.57,43.691 0,0 2.27,56.789 -4.51,90.828 -6.78,34.039 -64.14,-7.859 -64.14,-7.859" /><path
         id="path22"
         style="fill:#facbb4;fill-opacity:1;fill-rule:nonzero;stroke:none"
         d="m 1455.7,471.051 c 0,0 40.91,-29.121 64.14,7.859 v 42.988 l -64.14,-14.789 v -36.058" /><path
         id="path24"
         style="fill:#facbb4;fill-opacity:1;fill-rule:nonzero;stroke:none"
         d="m 1577.73,513.109 v -36.058 c 0,0 40.92,-29.121 64.15,7.859 v 42.988 l -64.15,-14.789" /><path
         id="path26"
         style="fill:#ded4d2;fill-opacity:1;fill-rule:nonzero;stroke:none"
         d="m 1312.17,1587.43 108.9,-1081.711 c 0,0 54.36,-24.039 102.74,14.801 0,0 -19.28,869.05 -10.41,883.85 8.87,14.79 21.93,0 21.87,-22.19 -0.06,-22.19 32.3,-865.36 32.3,-865.36 0,0 62.91,-45.199 106.82,1.02 l 53.12,1060.34 c 0,0 -204.85,17.69 -288.26,19.01 -83.4,1.33 -127.08,-9.76 -127.08,-9.76" /><path
         id="path28"
         style="fill:#2d3640;fill-opacity:1;fill-rule:nonzero;stroke:none"
         d="m 1418.95,2259.56 c 0,0 -74.19,11.32 -110.25,-22.08 -36.06,-33.39 -112.79,-132.32 -112.79,-132.32 v -98.92 l 111.52,61.02 v -503.88 c 0,0 141.55,-24.03 170.33,-11.09 28.79,12.94 35.64,30.51 35.64,30.51 0,0 11.91,-27.99 44.6,-34.33 32.68,-6.35 184.3,15.84 184.3,15.84 l -5.54,89.68 -138.29,-10.17 140.83,219.81 -2.08,135.44 c 0,0 68.88,-108.4 50.39,-125.04 -18.49,-16.64 -189.46,-125.73 -189.46,-125.73 l 30.94,-98.01 c 0,0 187.18,46.23 250.97,139.61 63.8,93.37 -71.18,413.26 -151.62,428.05 -80.43,14.8 -302.79,82.29 -309.49,41.61" /><path
         id="path30"
         style="fill:#d9d4d4;fill-opacity:1;fill-rule:nonzero;stroke:none"
         d="m 1431.43,2248.47 c 0,0 -5.55,-58.94 17.33,-144.23 22.89,-85.29 51.41,-210.8 51.41,-210.8 l 80.43,346.7 -149.17,8.33" /><path
         id="path32"
         style="fill:#efb195;fill-opacity:1;fill-rule:nonzero;stroke:none"
         d="m 1437.06,2340.45 2.19,-63.79 c 0,0 58.28,-86.9 118.75,-1.85 v 74.89 l -120.94,-9.25" /><path
         id="path34"
         style="fill:#efb195;fill-opacity:1;fill-rule:nonzero;stroke:none"
         d="m 1611.89,2484.68 c -10.22,1.39 -13.81,-7.93 -13.81,-7.93 0,0 -31.9,-54.48 -10.79,-74.39 21.09,-19.92 38.53,19.91 41.3,47.66 2.78,27.73 -6.47,33.28 -16.7,34.66" /><path
         id="path36"
         style="fill:#efb195;fill-opacity:1;fill-rule:nonzero;stroke:none"
         d="m 1383.11,2484.68 c -10.22,-1.38 -19.47,-6.93 -16.69,-34.66 2.77,-27.75 20.2,-67.58 41.3,-47.66 21.1,19.91 -10.8,74.39 -10.8,74.39 0,0 -3.59,9.32 -13.81,7.93" /><path
         id="path38"
         style="fill:#facbb4;fill-opacity:1;fill-rule:nonzero;stroke:none"
         d="m 1403.35,2572.63 c 0,0 -14.21,-18.38 -12.83,-68.65 1.39,-50.27 11.24,-152.54 62.31,-181.67 51.06,-29.12 92.67,-1.04 110.34,26.01 17.69,27.04 38.07,79.04 34.98,146.64 -3.07,67.61 -23.88,86.33 -43.3,94.31 -19.41,7.98 -132.09,9.02 -151.5,-16.64" /><path
         id="path40"
         style="fill:#635259;fill-opacity:1;fill-rule:nonzero;stroke:none"
         d="m 1583.54,2469.46 c -0.19,-0.73 -0.46,-2.03 -0.85,-3.84 -1.16,-5.32 -3.83,-17.76 -5.9,-20.97 -0.68,-1.03 -1.22,-2.02 -1.75,-2.98 -1.93,-3.45 -3.21,-5.73 -8.29,-7.69 -7.43,-2.85 -19.91,-4.66 -29.42,-2.55 -9.2,2.03 -16.94,7.69 -19.26,14.07 -0.94,2.55 -2.22,6.43 -3.58,10.55 -2.84,8.61 -4.46,13.34 -5.58,15.96 1.75,1.32 5.04,3.37 8.52,4.4 6.03,1.76 20.96,4.53 38.69,3.73 l 0.69,-0.03 c 11.99,-0.54 27.94,-1.26 33.24,-2.02 0.16,-0.85 0.28,-1.79 0.32,-2.5 -2.31,-0.7 -5.8,-2.21 -6.83,-6.13 z m -111.58,-13.12 c -1.41,-4.1 -2.74,-7.96 -3.71,-10.5 -2.42,-6.36 -10.24,-11.9 -19.47,-13.81 -9.52,-1.98 -21.98,-0.01 -29.37,2.95 -5.05,2.03 -6.29,4.32 -8.18,7.8 -0.52,0.97 -1.06,1.96 -1.71,3.01 -2.02,3.23 -4.54,15.71 -5.61,21.05 -0.37,1.81 -0.63,3.12 -0.81,3.84 -0.98,3.95 -4.44,5.49 -6.74,6.22 0.05,0.72 0.18,1.65 0.35,2.5 5.32,0.69 21.26,1.19 33.27,1.57 l 0.68,0.02 c 17.74,0.56 32.64,-2.41 38.64,-4.26 3.47,-1.06 6.73,-3.17 8.46,-4.52 -1.16,-2.6 -2.84,-7.3 -5.8,-15.87 z m 126.12,20.41 c -0.2,1.99 -0.67,4.02 -0.92,4.83 -0.91,2.81 -3.67,3.28 -15.09,4.03 -6.86,0.46 -16.02,0.88 -24.87,1.28 l -0.69,0.03 c -18.89,0.85 -35.02,-2.16 -41.56,-4.07 -5.83,-1.71 -13.31,-6.49 -14.28,-9.12 -0.1,-0.28 -0.16,-0.55 -0.19,-0.84 -2.97,-1.03 -6.72,-1.33 -11.19,-0.87 -0.58,0.07 -2.08,0.23 -3.08,0.66 0.01,0.37 -0.05,0.76 -0.18,1.14 -0.94,2.66 -8.34,7.53 -14.16,9.32 -6.52,2 -22.6,5.24 -41.5,4.63 l -0.69,-0.02 c -8.86,-0.27 -18.02,-0.57 -24.89,-0.93 -11.43,-0.61 -14.19,-1.04 -15.13,-3.84 -0.27,-0.81 -0.77,-2.82 -0.99,-4.8 -0.16,-1.48 -0.64,-5.99 3.41,-7.2 0.24,-0.07 0.5,-0.14 0.78,-0.22 2.09,-0.56 2.48,-0.85 2.63,-1.5 0.15,-0.6 0.43,-1.99 0.76,-3.59 1.92,-9.57 4,-19.24 6.45,-23.13 0.54,-0.87 1.01,-1.74 1.5,-2.65 2.04,-3.76 4.34,-8.01 11.98,-11.08 5.9,-2.36 14.84,-4.3 23.72,-4.36 3.64,-0.02 7.28,0.27 10.69,0.97 11.92,2.47 21.76,9.64 25.04,18.26 1.01,2.64 2.36,6.55 3.79,10.69 1.25,3.63 2.89,8.38 4.2,11.88 1.61,-0.56 3.29,-0.82 4.77,-0.97 1.57,-0.16 3.08,-0.24 4.54,-0.26 3.69,-0.02 7.01,0.45 9.94,1.4 1.28,-3.54 2.91,-8.49 4.15,-12.23 1.37,-4.17 2.66,-8.1 3.63,-10.74 3.17,-8.68 12.9,-15.98 24.79,-18.61 3.41,-0.75 7.04,-1.09 10.68,-1.11 8.89,-0.06 17.84,1.75 23.78,4.04 7.68,2.96 10.04,7.19 12.12,10.92 0.51,0.9 0.99,1.76 1.54,2.62 2.5,3.86 4.71,13.5 6.76,23.05 0.35,1.59 0.66,2.98 0.8,3.57 0.18,0.64 0.56,0.93 2.67,1.47 0.27,0.07 0.53,0.14 0.76,0.21 4.08,1.15 3.66,5.66 3.53,7.14" /><path
         id="path42"
         style="fill:#ad164b;fill-opacity:1;fill-rule:nonzero;stroke:none"
         d="m 1468.17,2223.5 c 0,0 15.29,-27.73 22.9,-34.67 0,0 -18.74,-77.19 -26.12,-109.1 -7.39,-31.89 34.26,-191.83 34.26,-191.83 0,0 38.77,147.92 41.08,159.48 2.32,11.56 -28.66,141.45 -28.66,141.45 0,0 6.93,6.47 17.11,24.04 10.17,17.56 -22.36,27.5 -34.29,24.61 -11.94,-2.89 -26.28,-13.98 -26.28,-13.98" /><path
         id="path44"
         style="fill:#3f2825;fill-opacity:1;fill-rule:nonzero;stroke:none"
         d="m 1450.45,2466.84 c -3.96,-4.09 -10.87,-6.23 -14.36,-0.34 -3.64,6.13 -13.23,0.56 -9.58,-5.61 7.13,-12.04 22.76,-11.21 31.78,-1.9 4.98,5.13 -2.86,12.98 -7.84,7.85" /><path
         id="path46"
         style="fill:#3f2825;fill-opacity:1;fill-rule:nonzero;stroke:none"
         d="m 1548.56,2466.84 c -3.95,-4.09 -10.86,-6.23 -14.35,-0.34 -3.64,6.13 -13.23,0.56 -9.59,-5.61 7.14,-12.04 22.76,-11.21 31.79,-1.9 4.98,5.13 -2.87,12.98 -7.85,7.85" /><path
         id="path48"
         style="fill:#db6a5a;fill-opacity:1;fill-rule:nonzero;stroke:none"
         d="m 1512.39,2373.07 c -7.28,-7.27 -24.22,-6.32 -32.3,-0.73 -5.88,4.07 -11.43,-5.54 -5.59,-9.59 12.26,-8.47 34.94,-8.3 45.74,2.48 5.06,5.04 -2.78,12.89 -7.85,7.84" /><path
         id="path50"
         style="fill:#422e38;fill-opacity:1;fill-rule:nonzero;stroke:none"
         d="m 1569.89,2521.32 c -17.1,2.97 -33.9,2.34 -50.63,-2.4 -10.29,-2.91 -5.91,-18.97 4.42,-16.04 13.75,3.89 27.68,4.85 41.78,2.39 10.48,-1.82 14.98,14.22 4.43,16.05" /><path
         id="path52"
         style="fill:#422e38;fill-opacity:1;fill-rule:nonzero;stroke:none"
         d="m 1464.64,2518.92 c -16.72,4.74 -33.53,5.37 -50.63,2.4 -10.54,-1.83 -6.05,-17.87 4.43,-16.05 14.1,2.46 28.03,1.5 41.78,-2.39 10.34,-2.93 14.71,13.13 4.42,16.04" /><path
         id="path54"
         style="fill:#593e4c;fill-opacity:1;fill-rule:nonzero;stroke:none"
         d="m 1571.49,2570.89 c 1.05,0 18.72,-12.7 26.66,-85.63 2.12,-19.42 -0.91,-33.33 -0.91,-33.33 0,0 34.59,95.74 -2.51,137.69 -37.1,41.95 -23.24,-18.73 -23.24,-18.73" /><path
         id="path56"
         style="fill:#422e38;fill-opacity:1;fill-rule:nonzero;stroke:none"
         d="m 1592.3,2578.52 c -13.4,-18.11 -22.53,-31.2 -90.49,-9.36 -67.95,21.85 -116.93,1.73 -113.25,-43.34 0,0 -29.38,29.63 -0.19,82.52 29.19,52.89 113.68,59.28 173.32,34.32 38.94,-16.29 40.08,-51.34 30.61,-64.14" /><path
         id="path58"
         style="fill:#facbb4;fill-opacity:1;fill-rule:nonzero;stroke:none"
         d="m 1271.25,2388.07 c -0.93,1.73 29.59,64.52 61.95,81.09 32.36,16.57 62.9,33.2 71.59,17.66 4.82,-8.62 -16.78,-22.11 -18.43,-34.89 -1.65,-12.78 11.83,-29.66 4.06,-47.68 -7.76,-18.03 -65.08,-47.59 -71.08,-47.52 -19.96,0.24 -36.53,10.08 -48.09,31.34" /><path
         id="path60"
         style="fill:#3d4650;fill-opacity:1;fill-rule:nonzero;stroke:none"
         d="m 1341.98,2161.1 c 0,0 63.23,-5.55 63.51,-15.26 0.29,-9.71 -30.05,-51.31 -30.05,-51.31 0,0 107.13,-147 123.77,-206.63 0,0 -44.21,317.57 -80.26,371.66 0,0 -70.03,-79.74 -76.97,-98.46" /><path
         id="path62"
         style="fill:#3d4650;fill-opacity:1;fill-rule:nonzero;stroke:none"
         d="m 1661.04,2161.1 c -6.94,18.72 -80.97,98.46 -80.97,98.46 -36.06,-54.09 -80.86,-371.66 -80.86,-371.66 16.64,59.63 128.36,206.63 128.36,206.63 0,0 -30.33,41.6 -30.04,51.31 0.28,9.71 63.51,15.26 63.51,15.26" /><path
         id="path64"
         style="fill:#f6f1f1;fill-opacity:1;fill-rule:nonzero;stroke:none"
         d="M 1438.81,2289.61 1408,2255.86 c 0,0 20.24,-54.55 64.02,-76.73 0,0 23.44,52.24 30.37,55.24 6.94,3 33.28,-55.24 33.28,-55.24 0,0 35.55,38.74 54.76,68.83 l -32.43,43.5 c 0,0 -48.71,-113.25 -119.19,-1.85" /><path
         id="path66"
         style="fill:#cacaca;fill-opacity:1;fill-rule:nonzero;stroke:none"
         d="m 1564.11,1915.23 21.41,-318.04 217.58,15.72 -20.1,312.34 -218.89,-10.02" /><path
         id="path68"
         style="fill:#facbb4;fill-opacity:1;fill-rule:nonzero;stroke:none"
         d="m 1611.89,1739.05 c -6.41,-0.93 -11.96,-2.78 -42.93,-24.97 -30.98,-22.19 -37.45,-71.18 -31.9,-102.62 5.55,-31.43 40.17,-15.71 53.37,16.64 13.19,32.36 51.1,30.51 64.04,49 12.95,18.5 -42.58,61.95 -42.58,61.95" /><path
         id="path70"
         style="fill:#3d4650;fill-opacity:1;fill-rule:nonzero;stroke:none"
         d="m 1723.82,2016.41 c 15.94,-36.69 44.37,-149.75 25.88,-166.4 -18.49,-16.64 -151.55,-101.71 -151.55,-101.71 l 30.94,-98.01 c 0,0 187.18,46.23 250.97,139.61 63.8,93.37 -71.18,413.26 -151.62,428.05 -80.43,14.8 -39.98,-120.18 -4.62,-201.54" /><path
         id="path72"
         style="fill:#3d4650;fill-opacity:1;fill-rule:nonzero;stroke:none"
         d="m 1244.21,2356.73 c -2.22,2.77 -145.61,-221.29 -140.76,-302.42 4.86,-81.13 54.55,-73.96 92.46,-48.07 37.9,25.89 116.26,312.95 116.26,312.95 0,0 -34.67,-3.96 -67.96,37.54" /><path
         id="path74"
         style="fill:#382c30;fill-opacity:1;fill-rule:nonzero;stroke:none"
         d="m 1274.92,2396.98 c 0,0 -8.52,-0.62 -30.71,-40.25 0,0 31.9,-46.55 67.96,-37.54 l 20.8,38.32 c 0,0 -42.61,2.16 -58.05,39.47" /><path
         id="path76"
         style="fill:#e5e8ed;fill-opacity:1;fill-rule:nonzero;stroke:none"
         d="m 1301.42,2352.3 c 0,12.16 -9.86,22.02 -22.02,22.02 -12.15,0 -22.01,-9.86 -22.01,-22.02 0,-12.16 9.86,-22.01 22.01,-22.01 12.16,0 22.02,9.85 22.02,22.01" /><path
         id="path78"
         style="fill:#e5e8ed;fill-opacity:1;fill-rule:nonzero;stroke:none"
         d="m 1479.28,1808.85 h 0.69 c 5.8,0 11.36,5.1 11.09,11.1 -0.27,6 -4.87,11.09 -11.09,11.09 h -0.69 c -5.8,0 -11.36,-5.1 -11.1,-11.09 0.27,-6.01 4.88,-11.1 11.1,-11.1" /><path
         id="path80"
         style="fill:#e5e8ed;fill-opacity:1;fill-rule:nonzero;stroke:none"
         d="m 1479.97,1739.05 h -0.69 c -5.8,0 -11.36,-5.1 -11.1,-11.1 0.27,-6.01 4.88,-11.09 11.1,-11.09 h 0.69 c 5.8,0 11.36,5.1 11.09,11.09 -0.27,6.01 -4.87,11.1 -11.09,11.1" /><path
         id="path82"
         style="fill:#382c30;fill-opacity:1;fill-rule:nonzero;stroke:none"
         d="m 1619.27,1929.46 1.92,-26.31 93.7,6.72 -1.71,24.82 -93.91,-5.23" /><path
         id="path84"
         style="fill:#382c30;fill-opacity:1;fill-rule:nonzero;stroke:none"
         d="m 1524.35,388.082 c 0,0 2.08,-14.223 0,-16.641 -2.08,-2.441 -30.54,-4.453 -36.58,-3.472 -6.04,0.98 -2.95,9.922 -2.95,9.922 l 39.53,10.191" /><path
         id="path86"
         style="fill:#ded4d2;fill-opacity:1;fill-rule:nonzero;stroke:none"
         d="m 1394.39,433.961 c -5.98,-3.852 -0.43,-13.461 5.61,-9.582 8.63,5.551 26.59,0.519 33.78,-5.77 5.36,-4.668 13.23,3.141 7.85,7.852 -10.95,9.57 -34.13,15.93 -47.24,7.5" /><path
         id="path88"
         style="fill:#ded4d2;fill-opacity:1;fill-rule:nonzero;stroke:none"
         d="m 1462.91,446.832 c -11.57,10.566 -27.27,14.387 -42.34,9.887 -6.82,-2.028 -3.92,-12.75 2.95,-10.688 11.25,3.34 22.83,0.918 31.54,-7.051 5.26,-4.808 13.13,3.008 7.85,7.852" /><path
         id="path90"
         style="fill:#ded4d2;fill-opacity:1;fill-rule:nonzero;stroke:none"
         d="m 1704.25,433.961 c -13.1,8.43 -36.29,2.07 -47.23,-7.5 -5.39,-4.711 2.49,-12.52 7.84,-7.852 7.2,6.289 25.16,11.321 33.79,5.77 6.03,-3.879 11.58,5.73 5.6,9.582" /><path
         id="path92"
         style="fill:#ded4d2;fill-opacity:1;fill-rule:nonzero;stroke:none"
         d="m 1675.13,446.031 c 6.87,-2.062 9.77,8.66 2.95,10.688 -15.08,4.5 -30.78,0.679 -42.34,-9.887 -5.28,-4.844 2.58,-12.66 7.84,-7.852 8.72,7.969 20.31,10.391 31.55,7.051" /></g></g></svg>