<svg xmlns="http://www.w3.org/2000/svg" viewBox="0 0 480 479.99"><defs><style>.cls-1{fill:#4caf50;}</style></defs><g id="Слой_2" data-name="Слой 2"><g id="Слой_1-2" data-name="Слой 1"><g id="outline"><path class="cls-1" d="M466.17,118.32,479.49,82.8a8,8,0,0,0-12.57-9L338.72,179.4a24,24,0,0,0-8,24.39c.72,2.82,1.53,5.93,2.3,8.91a11.13,11.13,0,0,1-4.62,12.08l-.32.21a10.91,10.91,0,0,1-13.52-1.1l-19.05-27.11-4.58-22.88a29.87,29.87,0,0,1,4.47-22.59,30.2,30.2,0,0,1,15.52-11.85,21.33,21.33,0,0,1,16.43,1.16l21.07,10.53a8,8,0,0,0,11.33-9.09l-5.13-20.53a33.63,33.63,0,0,0-10.53-17.21l6.39-31.79a16.08,16.08,0,0,0-10.66-18.36l-10.72-3.6-.1,0-1-.28V40a8,8,0,0,0-16,0V50.26c-.33.09-.67.17-1,.28l-.1,0-10.7,3.6a16.07,16.07,0,0,0-10.67,18.36l5.14,25.61A75.28,75.28,0,0,0,283,102l-10.13-15.2,10-30A24,24,0,0,0,269,27l-21-8.38V8a8,8,0,0,0-16,0V18.58L211,27a24,24,0,0,0-13.86,29.88l10,30L197,102a76.35,76.35,0,0,0-11.7-3.87l5.15-25.61a16.08,16.08,0,0,0-10.66-18.36l-10.72-3.6-.1,0c-.33-.11-.67-.19-1-.28V40a8,8,0,0,0-16,0V50.26c-.34.09-.67.17-1,.28l-.1,0-10.7,3.6a16.06,16.06,0,0,0-10.67,18.36l6.38,31.79a33.71,33.71,0,0,0-10.53,17.2l-5.13,20.53a8,8,0,0,0,11.34,9.1l21.06-10.53a21.37,21.37,0,0,1,16.43-1.17,30.27,30.27,0,0,1,15.52,11.86,29.86,29.86,0,0,1,4.47,22.59l-4.58,22.87-19.05,27.11a10.92,10.92,0,0,1-13.53,1.1l-.31-.2A11.13,11.13,0,0,1,147,212.7c.78-3,1.58-6.09,2.3-8.91a24,24,0,0,0-8-24.39L13.09,73.82a8,8,0,0,0-12.58,9l13.32,35.52a123.17,123.17,0,0,0,36.41,51.29l3.68,3.06L17,168.05a8,8,0,0,0-7.65,12.38A96.87,96.87,0,0,0,56.2,217.61l5.67,2.13L23.12,224a8,8,0,0,0-3.24,14.81l14,8.42a166.67,166.67,0,0,0,54.46,20.84,116.94,116.94,0,0,0-31,31.45A8,8,0,0,0,64,312h3.16A103,103,0,0,0,112,301.76V320a8,8,0,0,0,13.66,5.66L144,307.31l10.35,10.35a8,8,0,0,0,11.31,0,8.32,8.32,0,0,0,1-1.22l7.12-10.69A21.82,21.82,0,0,1,184,297.51v1.21a24.16,24.16,0,0,1-7,17l-5.68,5.68A65.48,65.48,0,0,0,152,368a8,8,0,0,0,7.09,7.94l-4.6,9.19-10,2.5L124.09,364.8a24,24,0,1,0-23.4,11,23.55,23.55,0,0,0,3.14.21,24,24,0,0,0,7.66-1.29L127,392l-.9.22a8,8,0,0,0,3.88,15.52l9.1-2.27,7,7.79A8,8,0,0,0,158,402.57l-1.33-1.48,5.33-1.33a8,8,0,0,0,5.21-4.18L177,376H184a8,8,0,0,0,7.16-4.42,45.25,45.25,0,0,1,14.4-16.82l2.27,3.41-18.87,33A98.65,98.65,0,0,0,176,440a8,8,0,0,0,16,0,82.54,82.54,0,0,1,10.86-40.87L213.78,380l-1,2.39a109.41,109.41,0,0,0-4.58,67.54,8,8,0,0,0,15.54-3.81l0-.07a93.42,93.42,0,0,1,3.92-57.71l.1-.26,4.22,6.33V472a8,8,0,0,0,16,0V394.42l4.22-6.33.1.25a93.43,93.43,0,0,1,3.92,57.71,8,8,0,1,0,15.5,4l0-.07a109.41,109.41,0,0,0-4.58-67.54l-1-2.4,10.93,19.12A82.54,82.54,0,0,1,288,440a8,8,0,0,0,16,0,98.54,98.54,0,0,0-13-48.81l-18.87-33,2.28-3.41a45.43,45.43,0,0,1,14.4,16.82A8,8,0,0,0,296,376h7.06l9.79,19.58a8,8,0,0,0,5.21,4.18L338.75,405A32,32,0,1,0,376,361v-9a8,8,0,0,0-16,0v9a32.09,32.09,0,0,0-23.72,26.82l-10.77-2.7-4.6-9.19A8,8,0,0,0,328,368a65.51,65.51,0,0,0-19.3-46.62L303,315.7a24.16,24.16,0,0,1-7-17v-1.21a21.85,21.85,0,0,1,10.21,8.24l7.13,10.69a8,8,0,0,0,11.09,2.22,8.44,8.44,0,0,0,1.22-1L336,307.31l18.34,18.35A8,8,0,0,0,368,320V301.76A103.05,103.05,0,0,0,412.85,312H416a8,8,0,0,0,6.66-12.44,116.87,116.87,0,0,0-31-31.44,166.64,166.64,0,0,0,54.45-20.85l14-8.41a8,8,0,0,0-3.23-14.81l-38.75-4.31,5.66-2.12a96.93,96.93,0,0,0,46.86-37.18A8,8,0,0,0,463,168.06l-36.93,4.61,3.68-3.06A123.1,123.1,0,0,0,466.17,118.32ZM102.78,359.93a8,8,0,1,1,6.06-1.73l-.45.34A8,8,0,0,1,102.78,359.93ZM368,408a16,16,0,0,1-13.83-8h27.67A16,16,0,0,1,368,408Zm13.84-24H376v-5.83a16.08,16.08,0,0,1,5.84,5.83ZM360,378.17V384h-5.83a16.08,16.08,0,0,1,5.83-5.84ZM200,208h80v92.47a8,8,0,0,1-5.47,7.59L240,319.57l-34.53-11.51a8,8,0,0,1-5.47-7.59Zm134.52-81.69a37.29,37.29,0,0,0-28.65-2,46.29,46.29,0,0,0-23.77,18.16,45.8,45.8,0,0,0-6.85,34.6l3,15h-29l4.07-28.5A60,60,0,0,1,312.68,112h9.26a17.69,17.69,0,0,1,17.17,13.4l.91,3.66Zm-29.25-57,10.66-3.58a13.62,13.62,0,0,1,8.14,0l10.73,3.62-5.52,27.44a33.57,33.57,0,0,0-7.34-.82h-9.26q-1.06,0-2.1,0ZM217,41.82l23-9.21,23,9.21a8,8,0,0,1,4.62,10L258.24,80H221.77l-9.41-28.22A8,8,0,0,1,217,41.82ZM220.28,96h39.44l9.21,13.82a76.21,76.21,0,0,0-28.93,40,76.21,76.21,0,0,0-28.93-40ZM155.93,65.76a13.62,13.62,0,0,1,8.14,0l10.73,3.62L169.44,96c-.7,0-1.4,0-2.11,0h-9.26a33.57,33.57,0,0,0-7.34.82l-5.46-27.48Zm18.2,58.51a37.3,37.3,0,0,0-28.65,2l-5.5,2.75.92-3.66A17.7,17.7,0,0,1,158.07,112h9.26a60,60,0,0,1,59.38,51.5l4.07,28.5h-29l3-15a45.79,45.79,0,0,0-6.84-34.6,46.34,46.34,0,0,0-23.78-18.17Zm-13.66,172.6-1.71,2.57-9.1-9.1a8,8,0,0,0-11.32,0L128,300.68V288a8,8,0,0,0-12.44-6.66,87,87,0,0,1-34,13.47,100.78,100.78,0,0,1,27.81-20.55l6.2-3.11a8,8,0,0,0-2.26-15l-18.12-3A150.71,150.71,0,0,1,48.75,237.3L96.89,232a8,8,0,0,0,1.92-15.44l-37-13.88a81.22,81.22,0,0,1-26.39-16.14L79,191.93a8,8,0,0,0,6.11-14.08L60.49,157.32a107.18,107.18,0,0,1-31.68-44.61L26,105.17l105.12,86.57a8,8,0,0,1,2.66,8.09c-.71,2.79-1.51,5.87-2.28,8.81a27.14,27.14,0,0,0,11.24,29.45l.31.21a26.94,26.94,0,0,0,34.28-3.66,8.24,8.24,0,0,0,.8-1l5.88-8.38V244l-5.72,4.29a32.83,32.83,0,0,1-37.84,1.05,8,8,0,0,0-8.88,13.32,48.85,48.85,0,0,0,52.44,1v17.16a37.75,37.75,0,0,0-23.53,16Zm136.91,35.82a49.58,49.58,0,0,1,14,27.31H300.72a61.23,61.23,0,0,0-25.14-23.16,8,8,0,0,0-10.23,2.72l-25.35,38-25.34-38a8,8,0,0,0-10.23-2.72A61.13,61.13,0,0,0,179.28,360H168.63a49.58,49.58,0,0,1,14-27.3L188.3,327a39.42,39.42,0,0,0,5.62-7.12,24.06,24.06,0,0,0,6.49,3.34l37.06,12.35a8,8,0,0,0,5.06,0l37.06-12.35a24.06,24.06,0,0,0,6.49-3.34,39.47,39.47,0,0,0,5.63,7.12ZM419.51,157.32l-24.63,20.53A8,8,0,0,0,401,191.93l43.58-5.44a81.18,81.18,0,0,1-26.38,16.14l-37,13.87A8,8,0,0,0,383.12,232l48.14,5.34a150.6,150.6,0,0,1-46.45,15.79l-18.12,3a8,8,0,0,0-2.26,15l6.2,3.1a100.82,100.82,0,0,1,27.81,20.56,87,87,0,0,1-34-13.47A8,8,0,0,0,352,288v12.69l-10.34-10.35a8,8,0,0,0-11.31,0h0l-9.1,9.1-1.72-2.56a37.77,37.77,0,0,0-23.53-16V263.7a48.85,48.85,0,0,0,52.44-1.05,8,8,0,1,0-8.87-13.31h0a32.83,32.83,0,0,1-37.84-1.05L296,244V225.3l5.89,8.38a8.14,8.14,0,0,0,.8,1A26.92,26.92,0,0,0,337,238.3l.31-.21a27.15,27.15,0,0,0,11.23-29.44c-.77-3-1.56-6-2.27-8.82a8,8,0,0,1,2.65-8.08L454,105.17l-2.83,7.54A107.09,107.09,0,0,1,419.51,157.32Z"/><path class="cls-1" d="M218.35,285.65a8,8,0,0,0,11.31,0h0A23.67,23.67,0,0,0,236.09,264h8.26A19.22,19.22,0,0,1,248,275.31V280a8,8,0,0,0,16,0v-4.69a35,35,0,0,0-7.58-21.85A8,8,0,0,1,264,248a8,8,0,0,0,0-16,24,24,0,0,0-22.62,16H232V232a8,8,0,0,0-16,0v24a7.91,7.91,0,0,0,.84,3.54.06.06,0,0,0,0,0l2.94,5.88a7.7,7.7,0,0,1-1.44,8.88C215.63,277.38,216,282.29,218.35,285.65Z"/></g></g></g></svg>