<?xml version="1.0"?>
<svg xmlns="http://www.w3.org/2000/svg" xmlns:xlink="http://www.w3.org/1999/xlink" xmlns:svgjs="http://svgjs.com/svgjs" version="1.1" width="512" height="512" x="0" y="0" viewBox="0 0 512 512" style="enable-background:new 0 0 512 512" xml:space="preserve" class=""><g><path xmlns="http://www.w3.org/2000/svg" d="M477.373,455.973a28.736,28.736,0,0,0-11.373-5.4V403.934A22.24,22.24,0,0,0,443.777,382H262V327h99.851A22.093,22.093,0,0,0,384,305.163v-25.5c44.987-2.026,89-15.864,89-39.9V45.158C473,19.074,421.163,5,372.5,5S272,19.074,272,45.158V239.767c0,25.994,51.482,40.059,100,40.155v25.241A10.081,10.081,0,0,1,361.851,315h-211.7A10.081,10.081,0,0,1,140,305.163V279.922c48.518-.1,100-14.161,100-40.155V45.033C240,18.95,188.163,4.938,139.5,4.938S39,19.074,39,45.158V239.767c0,24.034,44.013,37.872,89,39.9v25.5A22.093,22.093,0,0,0,150.149,327H250v55H68.223A22.24,22.24,0,0,0,46,403.934v46.647a28.287,28.287,0,0,0-22.363,27.89A28.509,28.509,0,1,0,58,450.581V403.934A10.229,10.229,0,0,1,68.223,394H149v56.581a28.432,28.432,0,1,0,12,0V394h89v56.585A28.528,28.528,0,0,0,255.942,507a28.922,28.922,0,0,0,3.564-.221A28.535,28.535,0,0,0,262,450.572V394h89v55.563a28.711,28.711,0,0,0-22.181,31.389,28.658,28.658,0,0,0,28.35,25.026,29.167,29.167,0,0,0,3.58-.221,28.47,28.47,0,0,0,24.684-31.817A28.137,28.137,0,0,0,363,449.563V394h80.777A10.229,10.229,0,0,1,454,403.934v46.651a27.367,27.367,0,0,0-16.664,10.346A28.459,28.459,0,0,0,459.629,507a28.636,28.636,0,0,0,28.437-32.037A28.239,28.239,0,0,0,477.373,455.973ZM372.693,17c54.759,0,88.383,16.4,88.383,28.158s-33.624,28.157-88.383,28.157-88.383-16.4-88.383-28.157S317.934,17,372.693,17ZM284,64.978c18,13.315,54.129,20.337,88.5,20.337S443,78.293,461,64.978v44.9c0,11.758-33.741,28.158-88.5,28.158s-88.5-16.4-88.5-28.158Zm0,64.72c18,13.314,54.129,20.337,88.5,20.337S443,143.013,461,129.7v44.9c0,11.757-33.741,28.157-88.5,28.157S284,186.355,284,174.6Zm0,110.069V194.418c18,13.315,54.129,20.337,88.5,20.337s70.5-7.022,88.5-20.337v45.349c0,11.757-33.741,28.157-88.5,28.157S284,251.524,284,239.767ZM228,110.058c0,.02-.158.039-.158.059-.451,11.74-34,27.918-88.387,27.918a238.778,238.778,0,0,1-33.656-2.282,5.959,5.959,0,0,0-1.664,11.8,252.09,252.09,0,0,0,35.4,2.48c34.344,0,70.463-7.012,88.463-20.306V174.6c0,11.757-33.741,28.157-88.5,28.157S51,186.355,51,174.6V129.625a75.235,75.235,0,0,0,9.475,5.7A5.927,5.927,0,0,0,69,129.964v-.076a5.949,5.949,0,0,0-3.338-5.345c-9.723-4.733-14.577-10.009-14.63-14.591L51,64.978c18,13.315,54.129,20.337,88.5,20.337S210,78.293,228,64.978ZM139.31,17c54.759,0,88.383,16.4,88.383,28.158S194.069,73.315,139.31,73.315s-88.384-16.4-88.384-28.157S84.55,17,139.31,17ZM51,239.767V194.418c18,13.315,54.129,20.337,88.5,20.337s70.5-7.022,88.5-20.337v45.349c0,11.757-33.741,28.157-88.5,28.157S51,251.524,51,239.767Zm17.863,238.7a16.53,16.53,0,1,1-16.53-16.53A16.548,16.548,0,0,1,68.863,478.471Zm102.407,0a16.53,16.53,0,1,1-16.53-16.53A16.549,16.549,0,0,1,171.27,478.471Zm94.892-13.034a16.527,16.527,0,1,1-12.193-3.368,16.711,16.711,0,0,1,2.065-.128A16.4,16.4,0,0,1,266.162,465.437Zm107.5,9.978a16.521,16.521,0,1,1-16.39-14.5A16.546,16.546,0,0,1,373.662,475.415ZM461.7,494.872a16.527,16.527,0,1,1-4.062-32.8,16.711,16.711,0,0,1,2.065-.128,16.528,16.528,0,0,1,2,32.931Z" fill="#4caf50" data-original="#000000" style=""/><path xmlns="http://www.w3.org/2000/svg" d="M106.763,103.432a6,6,0,0,0-6.813,5.846,6.151,6.151,0,0,0,5.4,6.073,253.494,253.494,0,0,0,33.958,2.22,259.046,259.046,0,0,0,27.11-1.4,6.149,6.149,0,0,0,5.561-6.453,6,6,0,0,0-6.618-5.5,246.927,246.927,0,0,1-26.053,1.351A241.116,241.116,0,0,1,106.763,103.432Z" fill="#4caf50" data-original="#000000" style=""/><path xmlns="http://www.w3.org/2000/svg" d="M194.07,118.65a14.58,14.58,0,1,0-14.58-14.58A14.6,14.6,0,0,0,194.07,118.65Zm0-17.16a2.58,2.58,0,1,1-2.58,2.58A2.582,2.582,0,0,1,194.07,101.49Z" fill="#4caf50" data-original="#000000" style=""/><path xmlns="http://www.w3.org/2000/svg" d="M105.137,179.083a253.11,253.11,0,0,0,34.173,2.25,259.174,259.174,0,0,0,27.324-1.418,6,6,0,0,0-1.271-11.933,246.927,246.927,0,0,1-26.053,1.351,241.171,241.171,0,0,1-32.547-2.139,6,6,0,0,0-1.626,11.889Z" fill="#4caf50" data-original="#000000" style=""/><path xmlns="http://www.w3.org/2000/svg" d="M194.07,182.413a14.581,14.581,0,1,0-14.58-14.581A14.6,14.6,0,0,0,194.07,182.413Zm0-17.161a2.581,2.581,0,1,1-2.58,2.58A2.582,2.582,0,0,1,194.07,165.252Z" fill="#4caf50" data-original="#000000" style=""/><path xmlns="http://www.w3.org/2000/svg" d="M165.364,231.745A247.341,247.341,0,0,1,139.31,233.1a241.168,241.168,0,0,1-32.547-2.14,6,6,0,0,0-1.626,11.89,253.273,253.273,0,0,0,34.173,2.25,259.03,259.03,0,0,0,27.324-1.419,6,6,0,0,0-1.27-11.932Z" fill="#4caf50" data-original="#000000" style=""/><path xmlns="http://www.w3.org/2000/svg" d="M194.07,217.014a14.58,14.58,0,1,0,14.58,14.58A14.6,14.6,0,0,0,194.07,217.014Zm0,17.16a2.58,2.58,0,1,1,2.58-2.58A2.582,2.582,0,0,1,194.07,234.174Z" fill="#4caf50" data-original="#000000" style=""/><path xmlns="http://www.w3.org/2000/svg" d="M338.521,115.322a253.369,253.369,0,0,0,34.172,2.249,259.193,259.193,0,0,0,27.325-1.418,6,6,0,0,0-1.271-11.933,246.932,246.932,0,0,1-26.054,1.351,241.1,241.1,0,0,1-32.546-2.139,6,6,0,0,0-1.626,11.89Z" fill="#4caf50" data-original="#000000" style=""/><path xmlns="http://www.w3.org/2000/svg" d="M427.454,118.65a14.58,14.58,0,1,0-14.581-14.58A14.6,14.6,0,0,0,427.454,118.65Zm0-17.16a2.58,2.58,0,1,1-2.581,2.58A2.583,2.583,0,0,1,427.454,101.49Z" fill="#4caf50" data-original="#000000" style=""/><path xmlns="http://www.w3.org/2000/svg" d="M338.521,179.083a253.1,253.1,0,0,0,34.172,2.25,259.193,259.193,0,0,0,27.325-1.418,6,6,0,0,0-1.271-11.933,246.932,246.932,0,0,1-26.054,1.351,241.167,241.167,0,0,1-32.546-2.139,6,6,0,0,0-1.626,11.889Z" fill="#4caf50" data-original="#000000" style=""/><path xmlns="http://www.w3.org/2000/svg" d="M427.454,182.413a14.581,14.581,0,1,0-14.581-14.581A14.6,14.6,0,0,0,427.454,182.413Zm0-17.161a2.581,2.581,0,1,1-2.581,2.58A2.583,2.583,0,0,1,427.454,165.252Z" fill="#4caf50" data-original="#000000" style=""/><path xmlns="http://www.w3.org/2000/svg" d="M400.017,243.677a6,6,0,1,0-1.27-11.932,247.327,247.327,0,0,1-26.054,1.351,241.164,241.164,0,0,1-32.546-2.14,6,6,0,0,0-1.626,11.89,253.258,253.258,0,0,0,34.172,2.25A259.016,259.016,0,0,0,400.017,243.677Z" fill="#4caf50" data-original="#000000" style=""/><path xmlns="http://www.w3.org/2000/svg" d="M427.454,246.174a14.58,14.58,0,1,0-14.581-14.58A14.6,14.6,0,0,0,427.454,246.174Zm0-17.16a2.58,2.58,0,1,1-2.581,2.58A2.583,2.583,0,0,1,427.454,229.014Z" fill="#4caf50" data-original="#000000" style=""/></g></svg>
