<svg xmlns="http://www.w3.org/2000/svg" xmlns:xlink="http://www.w3.org/1999/xlink" viewBox="0 0 45.21 35.65"><defs><style>.cls-1{fill:none;}.cls-2{fill:#2c2c2c;}.cls-3{fill:#474747;}.cls-4{fill:#676767;}.cls-5{fill:#92978d;}.cls-6{fill:#e9eae7;}.cls-7{fill:#404040;}.cls-8{fill:#73796c;}.cls-9{fill:#383838;}.cls-10{fill:#a8a8a8;}.cls-11{fill:#656f7c;}.cls-12{fill:#2a2a2a;}.cls-13{fill:#8d8d8d;}.cls-14{fill:#c6c8cc;}.cls-15{fill:#4f6e78;}.cls-16{fill:#38505e;}.cls-17{fill:#acacac;}.cls-18{fill:#829aa9;}.cls-19{fill:#6f6f6f;}.cls-20{fill:#747474;}.cls-21{fill:#525252;}.cls-22{fill:#b3b8be;}.cls-23{fill:#e4e4e4;}.cls-24{fill:#c0ffff;}.cls-25{clip-path:url(#clip-path);}.cls-26{fill:#1f1f1f;}.cls-27{fill:#1d1d1d;}.cls-28{fill:#3b3b3b;}.cls-29{fill:#727272;}.cls-30{fill:#a9a9a9;}.cls-31{fill:#4d4d4d;}.cls-32{fill:#949494;}.cls-33{fill:#dcded9;}.cls-34{fill:#c4c4c4;}.cls-35{fill:#707568;}.cls-36{fill:#babdb7;}.cls-37{fill:#fff;}.cls-38{fill:#41626d;}.cls-39{fill:#a6ddff;}.cls-40{fill:#595959;}.cls-41{fill:#da6700;}.cls-42{fill:#1b7735;}.cls-43{fill:#005c1d;}.cls-44{fill:#003b1d;}.cls-45{fill:#002e13;}.cls-46{fill:#003b18;}.cls-47{fill:#313131;}.cls-48{fill:#74a674;}.cls-49{fill:#046033;}.cls-50{fill:#001d07;}.cls-51{fill:#121806;}.cls-52{fill:#18692f;}.cls-53{fill:#003315;}.cls-54{fill:#0b4d20;}.cls-55{fill:#0c5423;}.cls-56{fill:#c97735;}.cls-57{fill:#bc5705;}.cls-58{fill:#bd4d00;}.cls-59{fill:#e07705;}.cls-60{fill:#e09c05;}.cls-61{fill:#eda94d;}.cls-62{clip-path:url(#clip-path-2);}.cls-63{fill:#ceb329;}.cls-64{fill:#b07500;}.cls-65{fill:#004d1f;}.cls-66{clip-path:url(#clip-path-3);}.cls-67{fill:#28420f;}.cls-68{fill:#6eb357;}.cls-69{fill:#0b2b00;}.cls-70{fill:#5c0f0c;}.cls-71{fill:#ff0004;}.cls-72{fill:#ff6551;}.cls-73{fill:#a31d1d;}.cls-74{fill:#ff8e78;}.cls-75{clip-path:url(#clip-path-4);}.cls-76{fill:#2d2d2d;}</style><clipPath id="clip-path"><path class="cls-1" d="M7.61,25.71,4.24,23.87,3.15,20.13,3.06,18.9l.64-1.35L5,16.9a2.49,2.49,0,0,1,1.72.39c1.65.95,1.87,1.87,3,3.81l2-1.15-.26,3.36Z"/></clipPath><clipPath id="clip-path-2"><polygon class="cls-1" points="31.95 12.3 32.34 12.53 32.48 12.61 26.56 16.02 26.56 15.42 31.95 12.3"/></clipPath><clipPath id="clip-path-3"><polygon class="cls-1" points="24.91 24.3 28.14 31.19 28.55 30.72 25.33 23.84 24.91 24.3"/></clipPath><clipPath id="clip-path-4"><polygon class="cls-1" points="42.91 23.35 42.91 24.17 35.56 28.4 35.56 27.58 42.91 23.35"/></clipPath></defs><g id="Слой_2" data-name="Слой 2"><g id="Layer_1" data-name="Layer 1"><path class="cls-2" d="M42.24,28.65v.16l.14-.08Zm0,0v.16l.14-.08Zm0,0v.16l.14-.08Zm0,0v.16l.14-.08Zm-.12-.43-.21.13-.1,0-3.36,1.94-2,1.17V33.9l.06,0,.06,0,.16.08,0,0,.05,0,.1-.06h0l.1-.06.08-.05.13-.08.1-.06.13-.09.09,0,.13-.08.1-.07.07,0,.08,0,.22-.16h0L38.3,33l.07,0,.09-.05.25-.16.09-.06.44-.27.06,0,3.24-2V28Zm.12,2-3,1.72-.07,0h0L37,33.21l-.29.17v-1.7l2-1.16,3.38-1.95.14-.08Zm0-1.54v.16l.14-.08Zm0,0v.16l.14-.08Zm0,0v.16l.14-.08Zm0,0v.16l.14-.08Z"/><path class="cls-3" d="M42.54,28.29l-.15.09-.09.05-.22.12h0L38.7,30.5l-2,1.15V34l0,0,.05,0,.1-.06.11-.06.08,0,.12-.07.1-.06.13-.08.09,0,.13-.07h0l.1,0,.07,0,.19-.11.11-.06.1-.06,0,0,.11-.06.09,0,.25-.14.09-.06.44-.25.06,0,3.53-2V28.12ZM37,31.83l5.23-3,.14-.08.15-.09v1.7L39.3,32.21l-.06,0L37,33.53Z"/><path class="cls-2" d="M33.57,33.73,31,32.27v1.08l1.52,1,.92.58.2.13.13-.06V33.87Zm.11,1-.13-.07-.45-.27h0l-.32-.18-1.59-.91V32.5l2.26,1.31.25.14Z"/><path class="cls-3" d="M33.44,33.8l-2.27-1.3L31,32.42l-.13-.08v1.08l1.59.92,1,.56.21.12V33.94Zm.11,1-.91-.53L31,33.34v-.77l.13.08,2.13,1.23h0l.24.14Z"/><polygon class="cls-4" points="16.61 5.73 17.95 4.96 17.95 1.39 16.61 2.16 16.61 5.73"/><polygon class="cls-5" points="17.88 4.85 17.88 1.8 16.98 2.31 16.98 5.37 17.88 4.85"/><polygon class="cls-6" points="17.95 1.39 17.88 1.8 16.98 2.31 16.61 2.16 17.95 1.39"/><polygon class="cls-7" points="16.98 5.37 16.61 5.73 17.95 4.96 17.88 4.85 16.98 5.37"/><path class="cls-4" d="M18,5.82a1.63,1.63,0,0,1-.74,1.23c-.41.24-.73.1-.73-.33a1.6,1.6,0,0,1,.73-1.23C17.69,5.24,18,5.38,18,5.82Z"/><path class="cls-7" d="M17.67,6.69a1.66,1.66,0,0,1-.39.36.88.88,0,0,1-.2.09,1.17,1.17,0,0,1,.35-.38A.49.49,0,0,1,17.67,6.69Z"/><path class="cls-6" d="M16.94,5.79a1.36,1.36,0,0,1,.34-.3.5.5,0,0,1,.59,0,.43.43,0,0,0,0,0,.57.57,0,0,1-.5.61A.51.51,0,0,1,16.94,5.79Z"/><path class="cls-5" d="M17.93,6a1.09,1.09,0,0,1-.5.82c-.27.17-.49.07-.49-.22a1.11,1.11,0,0,1,.49-.83C17.71,5.62,17.93,5.72,17.93,6Z"/><polygon class="cls-8" points="17.35 4.06 17.64 3.89 17.64 4.43 17.35 4.6 17.28 4.56 17.28 4.02 17.35 4.06"/><polygon class="cls-4" points="17.64 4.28 17.64 3.74 17.35 3.91 17.35 4.45 17.64 4.28"/><polygon class="cls-6" points="17.64 3.74 17.58 3.71 17.28 3.88 17.35 3.91 17.64 3.74"/><polygon class="cls-7" points="17.28 4.41 17.28 3.88 17.35 3.91 17.35 4.45 17.28 4.41"/><polygon class="cls-8" points="17.35 6.3 17.64 6.13 17.64 6.5 17.35 6.67 17.28 6.63 17.28 6.26 17.35 6.3"/><polygon class="cls-4" points="17.64 6.35 17.64 5.99 17.35 6.16 17.35 6.52 17.64 6.35"/><polygon class="cls-6" points="17.64 5.99 17.58 5.95 17.28 6.12 17.35 6.16 17.64 5.99"/><polygon class="cls-7" points="17.28 6.48 17.28 6.12 17.35 6.16 17.35 6.52 17.28 6.48"/><polygon class="cls-9" points="16.27 8.42 16.27 8.19 17.45 7.07 17.45 0.79 16.24 1.07 16.3 0.9 17.62 0.54 17.62 7.14 16.27 8.42"/><path class="cls-10" d="M8.64,21.87l.1-.18-.43-.25A.65.65,0,0,1,8,20.87V17.75a.37.37,0,0,1,.18-.31.38.38,0,0,1,.36,0l.12.07.1-.17-.12-.07a.56.56,0,0,0-.56,0,.54.54,0,0,0-.28.48v3.12a.87.87,0,0,0,.43.75Z"/><path class="cls-11" d="M4,20V17.29a2.62,2.62,0,0,1,1.73.39,6.78,6.78,0,0,1,3.07,5.1Z"/><polygon class="cls-12" points="0.1 17.65 0.16 19.09 1.82 18.14 1.62 16.77 0.1 17.65"/><polygon class="cls-13" points="0 17.37 0.16 17.61 1.82 16.65 1.62 16.43 0 17.37"/><polygon class="cls-14" points="8.69 11.27 8.69 22.24 1.06 17.84 1.06 13.03 3.31 8.17 8.69 11.27"/><path class="cls-15" d="M3.44,13.41l-.17-.09L3.1,13.2,3,13.13a1.51,1.51,0,0,1-.21-.23v-.09l.08,0,.26-.16Z"/><polygon class="cls-15" points="6.18 12.82 5.02 13.47 4.5 11.97 4.46 11.88 4.43 11.78 4.31 11.43 5.46 10.76 5.58 11.11 5.62 11.21 5.66 11.33 6.18 12.82"/><path class="cls-16" d="M7.1,15a.29.29,0,0,1-.42.33l-1.4-.81-1.07-.62a1.92,1.92,0,0,0,.51-.22l.3-.16,1.16-.65.91-.51Z"/><path class="cls-17" d="M5,13.47l-.3.16a1.92,1.92,0,0,1-.51.22l-.77-.44-.28-.79L3,12.15a.56.56,0,0,0,.47.1,1,1,0,0,0,.42-.15l.54-.32,0,.1,0,.09Z"/><path class="cls-18" d="M5.36,14.47H5.28l-1.07-.62a1.92,1.92,0,0,0,.51-.22l.3-.16Z"/><path class="cls-17" d="M7.09,12.31l-.91.51-.52-1.49,0-.12,0-.1-.12-.35.67-.38.35.21h0l.1.06.06,0a.18.18,0,0,1,.07.05.87.87,0,0,1,.36.5Z"/><path class="cls-18" d="M7.1,15a.27.27,0,0,1-.09.29l-.83-2.42.91-.51Z"/><polygon class="cls-19" points="5.82 16.16 6.76 16.71 6.76 16.01 5.82 15.45 5.82 16.16"/><path class="cls-16" d="M3,14.14l1.73,1a.71.71,0,0,1,.35.61v1.14a.28.28,0,0,1-.41.24L3,16.12a.58.58,0,0,1-.29-.5V14.34A.23.23,0,0,1,3,14.14Z"/><path class="cls-10" d="M3.89,17.55l-1.61-.93V11.84l0,0L3.69,8.92l-.33.23L2.3,11.34l-.08.17-.15.31v4.92l1.66,1,.23.14H4l0,0v-.07l.06-.06.06,0Zm0,0-1.61-.93V11.84l0,0L3.69,8.92l-.33.23L2.3,11.34l-.08.17-.15.31v4.92l1.66,1,.23.14H4l0,0v-.07l.06-.06.06,0Zm0,0-1.61-.93V11.84l0,0L3.69,8.92l-.33.23L2.3,11.34l-.08.17-.15.31v4.92l1.66,1,.23.14H4l0,0v-.07l.06-.06.06,0Zm0,0-1.61-.93V11.84l0,0L3.69,8.92l-.33.23L2.3,11.34l-.08.17-.15.31v4.92l1.66,1,.23.14H4l0,0v-.07l.06-.06.06,0Zm0-8.87-.08,0-.16-.09-.14.29-.15.31h0L2.3,11.34l-.08.17-.15.31v4.92l1.66,1,.23.14H4l0,0L6.7,19.41h0l1,.57V10.87ZM7.48,19.62,7,19.36l-2.9-1.67-.24-.14-1.61-.93V11.84l0,0L3.69,8.92l.05-.1,0,0L7.49,11v8.63ZM3.89,17.55l-1.61-.93V11.84l0,0L3.69,8.92l-.33.23L2.3,11.34l-.08.17-.15.31v4.92l1.66,1,.23.14H4l0,0v-.07l.06-.06.06,0Zm0,0-1.61-.93V11.84l0,0L3.69,8.92l-.33.23L2.3,11.34l-.08.17-.15.31v4.92l1.66,1,.23.14H4l0,0v-.07l.06-.06.06,0Zm0,0-1.61-.93V11.84l0,0L3.69,8.92l-.33.23L2.3,11.34l-.08.17-.15.31v4.92l1.66,1,.23.14H4l0,0v-.07l.06-.06.06,0Zm0,0-1.61-.93V11.84l0,0L3.69,8.92l-.33.23L2.3,11.34l-.08.17-.15.31v4.92l1.66,1,.23.14H4l0,0v-.07l.06-.06.06,0Z"/><polygon class="cls-20" points="1.52 18.09 6.14 20.77 6.14 21.72 6.14 22.05 1.52 19.37 1.52 18.09"/><polygon class="cls-21" points="4.63 20.14 2.57 18.95 2.57 19.72 4.63 20.91 4.63 20.14"/><polygon class="cls-20" points="4.63 19.11 2.57 17.92 2.57 18.69 2.68 18.75 4.63 19.88 4.63 19.11"/><path class="cls-12" d="M4.63,20.14,2.57,19v.77l.34,0A1.39,1.39,0,0,1,4,20.2l.59.71Z"/><path class="cls-21" d="M4.63,19.11,2.57,17.92v.77l.31,0a1.38,1.38,0,0,1,1.22.54l.53.68Z"/><path class="cls-22" d="M21.32,4,8.69,11.27l-5.26-3a.76.76,0,0,1-.29-1c.06-.12.52-.67.52-.67L20.44,3.19Z"/><polygon class="cls-23" points="8.29 10.2 8.69 11.27 21.32 3.98 20.44 3.19 8.29 10.2"/><path class="cls-14" d="M3.66,6.56h0a1.47,1.47,0,0,1,0,.63,2.43,2.43,0,0,1-.11.4,4.12,4.12,0,0,1-.24.52h0a.75.75,0,0,1-.15-.88C3.2,7.11,3.66,6.56,3.66,6.56Z"/><path class="cls-24" d="M19.76,7.56l0-.15v.15Z"/><g class="cls-25"><polygon class="cls-12" points="3.39 20.39 6.97 18.33 6.97 17.37 6.97 17.04 4.31 17.32 3.39 18.5 3.39 20.39"/><path d="M8.37,25.06,4.28,18.2,6.42,17h0a2,2,0,0,1,2,.22,6.22,6.22,0,0,1,2.85,4.87,2,2,0,0,1-.78,1.76h0l-.05,0,0,0Z"/><path class="cls-26" d="M5,18.63,7.92,17a3.23,3.23,0,0,1,.5.24,6.22,6.22,0,0,1,2.85,4.87,2.89,2.89,0,0,1-.13.87L8.91,24.23a4.07,4.07,0,0,1-.76-.33,5.34,5.34,0,0,1-.84-.62l-2.15-3.6A5.51,5.51,0,0,1,5,18.63Z"/><path class="cls-12" d="M3.51,20a6.21,6.21,0,0,0,2.84,4.87c1.57.91,2.85.2,2.85-1.59a6.24,6.24,0,0,0-2.85-4.87C4.78,17.48,3.51,18.2,3.51,20Z"/><path class="cls-27" d="M3.62,20.05a6,6,0,0,0,2.73,4.68c1.51.87,2.74.18,2.74-1.53a6,6,0,0,0-2.74-4.69C4.84,17.64,3.62,18.33,3.62,20.05Z"/><path class="cls-28" d="M4.23,20.4A4.64,4.64,0,0,0,6.35,24c1.17.68,2.12.15,2.12-1.19a4.64,4.64,0,0,0-2.12-3.63C5.18,18.53,4.23,19.07,4.23,20.4Z"/><path class="cls-29" d="M4.37,20.48a4.35,4.35,0,0,0,2,3.39c1.09.63,2,.13,2-1.11a4.35,4.35,0,0,0-2-3.39C5.26,18.74,4.37,19.24,4.37,20.48Z"/><path class="cls-30" d="M6.38,19.39a4.34,4.34,0,0,1,2,3.37,2.28,2.28,0,0,1-.05.48l-1.45.84a2.42,2.42,0,0,1-.48-.21,4.38,4.38,0,0,1-2-3.33Z"/><path class="cls-6" d="M7.46,20.4a4.54,4.54,0,0,1,.8,1.73l-2.4,1.39A4.77,4.77,0,0,1,4.73,22Z"/><path class="cls-6" d="M7.46,20.4a4.54,4.54,0,0,1,.8,1.73l-2.4,1.39A4.77,4.77,0,0,1,4.73,22Z"/><path class="cls-31" d="M5,20.46a3.47,3.47,0,0,0,1.58,2.7c.87.5,1.57.1,1.57-.89a3.44,3.44,0,0,0-1.57-2.69C5.71,19.08,5,19.47,5,20.46Z"/><path class="cls-32" d="M5.28,20.53a3,3,0,0,0,1.35,2.31c.75.43,1.35.09,1.35-.76a2.94,2.94,0,0,0-1.35-2.31C5.89,19.34,5.28,19.68,5.28,20.53Z"/><path class="cls-29" d="M7.33,20.39a.24.24,0,0,1,.08-.06,3.62,3.62,0,0,1,.22.32.34.34,0,0,1-.2,0A.17.17,0,0,1,7.33,20.39Z"/><path class="cls-29" d="M5.3,21.19c-.09-.11-.07-.22,0-.23a.5.5,0,0,1,.37.2c.09.12.07.22,0,.23A.48.48,0,0,1,5.3,21.19Z"/><path class="cls-29" d="M7.67,22.11c0-.14,0-.2.16-.12a.71.71,0,0,1,.26.39c0,.14,0,.19-.16.12A.71.71,0,0,1,7.67,22.11Z"/><path class="cls-29" d="M5.93,19.62c0-.12.14-.1.22,0a.64.64,0,0,1,.06.44c0,.12-.13.1-.21,0A.59.59,0,0,1,5.93,19.62Z"/><path class="cls-29" d="M7.68,21.14c-.1-.1-.11-.21,0-.25l.09,0c.07.12.12.25.18.38A.5.5,0,0,1,7.68,21.14Z"/><path class="cls-29" d="M7.74,22.85c0,.13-.11.13-.2,0a.69.69,0,0,1-.13-.45c0-.13.11-.14.2,0A.69.69,0,0,1,7.74,22.85Z"/><path class="cls-29" d="M7.77,21.65c-.08-.13,0-.22.08-.2a.46.46,0,0,1,.19.09,2.87,2.87,0,0,1,.08.38h0A.54.54,0,0,1,7.77,21.65Z"/><path class="cls-29" d="M5.56,21.92c-.12-.07-.14-.19,0-.26a.34.34,0,0,1,.36,0c.11.07.14.19,0,.25A.32.32,0,0,1,5.56,21.92Z"/><path class="cls-29" d="M6.42,22.75a.33.33,0,0,1,.17-.32c.1,0,.19,0,.19.18a.35.35,0,0,1-.17.33C6.51,23,6.42,22.89,6.42,22.75Z"/><path class="cls-29" d="M7.24,22.62a.57.57,0,0,1,0,.43c-.07.09-.16.05-.22-.09a.52.52,0,0,1,0-.43C7.09,22.44,7.19,22.48,7.24,22.62Z"/><path class="cls-29" d="M5.89,22.3a.27.27,0,0,1,.29-.17.16.16,0,0,1,.13.24.28.28,0,0,1-.29.17A.17.17,0,0,1,5.89,22.3Z"/><path class="cls-29" d="M5.71,20.4A.73.73,0,0,1,5.5,20c0-.13.07-.17.18-.07a.68.68,0,0,1,.21.42C5.9,20.46,5.82,20.49,5.71,20.4Z"/><path class="cls-29" d="M7.24,20.13a.28.28,0,0,1-.18.14.16.16,0,0,1-.17-.21A.34.34,0,0,1,7,19.87,3.19,3.19,0,0,1,7.24,20.13Z"/><path class="cls-29" d="M5.4,20.39a.69.69,0,0,1,.32.33c0,.14,0,.22-.12.17a.64.64,0,0,1-.32-.33C5.22,20.43,5.28,20.35,5.4,20.39Z"/><path class="cls-29" d="M6.7,19.66l0,0a.41.41,0,0,1-.1.38c-.08.07-.17,0-.2-.13a.4.4,0,0,1,.09-.39h0l.06,0Z"/><path class="cls-29" d="M5.9,20.83a1.85,1.85,0,0,0,.84,1.43c.46.26.83.06.83-.47a1.84,1.84,0,0,0-.83-1.43C6.28,20.1,5.9,20.3,5.9,20.83Z"/><path class="cls-30" d="M6.51,20.27a.84.84,0,0,1,.23.09,1.84,1.84,0,0,1,.83,1.43.73.73,0,0,1-.07.35L6.74,22c-.3-.25-.34-.55-.51-.92Z"/><path class="cls-33" d="M6.49,21.66a2.07,2.07,0,0,1-.15-.34,3,3,0,0,0,.88-.51,1.87,1.87,0,0,1,.3.64A3,3,0,0,0,6.49,21.66Z"/><path class="cls-34" d="M5.9,21.21a1.31,1.31,0,0,0,.6,1c.33.18.59,0,.59-.34a1.28,1.28,0,0,0-.59-1C6.17,20.69,5.9,20.84,5.9,21.21Z"/><path class="cls-31" d="M6.08,21.44A.74.74,0,0,0,6.4,22c.18.1.33,0,.33-.18a.69.69,0,0,0-.33-.55C6.23,21.15,6.08,21.23,6.08,21.44Z"/><path d="M8.37,25.06l1.25-.72,0,0,0,0h0a2,2,0,0,0,.77-1.77,6.24,6.24,0,0,0-2.84-4.87,2,2,0,0,0-2-.22h0l.14-.08h0a2,2,0,0,1,2,.22,6.24,6.24,0,0,1,2.84,4.87,2,2,0,0,1-.77,1.77h0l0,0,0,0-1.39.8Z"/><path d="M8.37,25.06h0l.47-.27,0,0,.05,0h0A2,2,0,0,0,9.69,23a6.22,6.22,0,0,0-2.85-4.87,2,2,0,0,0-2-.22h0L5,17.8H5A2,2,0,0,1,7,18,6.22,6.22,0,0,1,9.83,22.9a2,2,0,0,1-.78,1.76h0Z"/></g><polygon class="cls-22" points="8.69 19.71 9.57 21.19 21.32 14.4 21.32 3.98 8.69 11.27 8.69 19.71"/><path class="cls-35" d="M20.68,9h0V4h1.41V9h0a.33.33,0,0,1-.2.32,1.1,1.1,0,0,1-1,0A.32.32,0,0,1,20.68,9Z"/><path class="cls-5" d="M21.85,9.32a1.1,1.1,0,0,1-.94,0V4h.94Z"/><path class="cls-36" d="M21.76,9.36a1.21,1.21,0,0,1-.43.07V4h.43Z"/><path class="cls-19" d="M21.88,3.71a1.08,1.08,0,0,0-1,0c-.28.16-.29.42,0,.57a1.1,1.1,0,0,0,1,0C22.15,4.13,22.16,3.87,21.88,3.71Z"/><path class="cls-5" d="M21,4h0V2.33h.75V4h0a.2.2,0,0,1-.11.17.57.57,0,0,1-.54,0A.16.16,0,0,1,21,4Z"/><path class="cls-36" d="M21.57,4.19a.58.58,0,0,1-.19,0V2.33h.19Z"/><path d="M21.65,2.17a.62.62,0,0,0-.53,0c-.15.09-.16.23,0,.31a.57.57,0,0,0,.54,0C21.8,2.39,21.8,2.26,21.65,2.17Z"/><path class="cls-37" d="M3.87,6.38a.73.73,0,0,0,0,1.27L8.29,10.2l12.15-7L14.91,0Z"/><path class="cls-22" d="M21.32,4,15.64.7Z"/><path class="cls-14" d="M9.41,3.18h0a.41.41,0,0,1,.4,0L14.53,5.9a.4.4,0,0,1,0,.7h0a.41.41,0,0,1-.4,0L9.41,3.87A.4.4,0,0,1,9.41,3.18Z"/><path class="cls-14" d="M18.49,4.31h0a.38.38,0,0,1-.41,0L13.36,1.59a.4.4,0,0,1,0-.69h0a.36.36,0,0,1,.4,0l4.73,2.72A.4.4,0,0,1,18.49,4.31Z"/><path class="cls-14" d="M11.38,2h0a.43.43,0,0,1,.41,0l4.72,2.72a.4.4,0,0,1,0,.7h0a.41.41,0,0,1-.4,0L11.38,2.73A.4.4,0,0,1,11.38,2Z"/><path class="cls-14" d="M5.45,5.46h0a.41.41,0,0,1,.4,0l4.73,2.73a.4.4,0,0,1,0,.69h0a.41.41,0,0,1-.4,0L5.45,6.16A.4.4,0,0,1,5.45,5.46Z"/><path class="cls-14" d="M7.43,4.32h0a.41.41,0,0,1,.4,0l4.72,2.73a.4.4,0,0,1,0,.69h0a.41.41,0,0,1-.4,0L7.43,5A.4.4,0,0,1,7.43,4.32Z"/><path class="cls-23" d="M9.21,3.29h0a.41.41,0,0,1,.4,0L14.33,6a.4.4,0,0,1,0,.7h0a.41.41,0,0,1-.4,0L9.21,4A.4.4,0,0,1,9.21,3.29Z"/><path class="cls-23" d="M18.29,4.42h0a.36.36,0,0,1-.4,0L13.16,1.7a.41.41,0,0,1,0-.7h0a.43.43,0,0,1,.41,0l4.72,2.73A.4.4,0,0,1,18.29,4.42Z"/><path class="cls-23" d="M11.19,2.15h0a.36.36,0,0,1,.4,0l4.72,2.72a.4.4,0,0,1,0,.69h0a.36.36,0,0,1-.4,0L11.19,2.84A.4.4,0,0,1,11.19,2.15Z"/><path class="cls-23" d="M5.25,5.57h0a.43.43,0,0,1,.41,0L10.38,8.3a.4.4,0,0,1,0,.69h0A.41.41,0,0,1,10,9L5.25,6.26A.4.4,0,0,1,5.25,5.57Z"/><path class="cls-23" d="M7.23,4.43h0a.41.41,0,0,1,.4,0l4.73,2.72a.41.41,0,0,1,0,.7h0a.41.41,0,0,1-.4,0L7.23,5.12A.4.4,0,0,1,7.23,4.43Z"/><path class="cls-21" d="M.16,17.61l.31-.18.11.14h0l1.13.66a.51.51,0,0,1,.26.44v.24a.72.72,0,0,1-.22.37l-.38.22L.58,18.31v1.14l-.29-.38L.17,17.68.1,17.57h0Z"/><polygon class="cls-30" points="0 17.36 0.29 17.74 0.29 19.61 0 19.23 0 17.36"/><path class="cls-4" d="M.29,17.74v1.87c.5.06,1.23.11,1.38-.54v-.24a.5.5,0,0,0-.25-.44Z"/><rect class="cls-6" x="21.36" y="14.76" width="0.12" height="0.27" transform="translate(42.84 29.79) rotate(180)"/><path class="cls-38" d="M5.46,10.76l-1.15.67.12.35-.54.32a1,1,0,0,1-.42.15.56.56,0,0,1-.47-.1l.16.47-.26.16-.08,0v.09a1.53,1.53,0,0,1-.21-.4h0a.13.13,0,0,1,0-.06s0-.07,0-.11a.88.88,0,0,1,0-.31.33.33,0,0,1,0-.1l.21-.46a.37.37,0,0,0,.07-.14l.08-.15c.17-.33.35-.71.5-1a2.72,2.72,0,0,0,.12-.25l.15-.3h0s0,0,0,0,0-.05,0-.07l0,0a.36.36,0,0,1,.52-.16l.86.49h0l1,.57Z"/><path class="cls-16" d="M3.44,13.41l-.17-.09L3.1,13.2,3,13.13a1.51,1.51,0,0,1-.21-.23v-.09l.08,0,.26-.16Z"/><path class="cls-39" d="M5.46,10.76l-1.15.67.12.35-.54.32a1,1,0,0,1-.42.15.56.56,0,0,1-.47-.1.69.69,0,0,1-.22-.59v0a.78.78,0,0,1,0-.14.14.14,0,0,0,0-.07l.08-.15c.17-.33.35-.71.5-1a2.72,2.72,0,0,0,.12-.25l.15-.3h0s0,0,0,0,0-.05,0-.07l0,0a.36.36,0,0,1,.52-.16l.86.49h0l1,.57Z"/><path class="cls-24" d="M4.43,11.78l-.54.32a1,1,0,0,1-.42.15.56.56,0,0,1-.47-.1l-.21-.62,0-.07a.37.37,0,0,0,.07-.14l.08-.15c.17-.33.35-.71.5-1a2.72,2.72,0,0,0,.12-.25l.15-.3.63,1.83Z"/><path class="cls-17" d="M4.43,11.78l-.54.32a1,1,0,0,1-.42.15v-.34l.84-.48Z"/><polygon class="cls-24" points="6.13 10.38 5.46 10.76 5.13 9.81 6.13 10.38"/><path class="cls-40" d="M6.5,17.64A3.2,3.2,0,0,0,4,17.48,4.75,4.75,0,0,1,4.82,17a2.56,2.56,0,0,1,2.11.38,7.64,7.64,0,0,1,3,4.05l-.44.26A7.64,7.64,0,0,0,6.5,17.64Z"/><path class="cls-3" d="M6.5,17.64a7.64,7.64,0,0,1,3,4.05l-.3-.07-.1-.28a7.27,7.27,0,0,0-2.76-3.49A2.81,2.81,0,0,0,5,17.41c-1,0-1.59.83-1.59,2.17v.81l-.25-.14v-.67C3.14,17.4,4.64,16.53,6.5,17.64Z"/><path class="cls-41" d="M14,3.94c-.09.15.07.4.36.57s.58.17.67,0S15,4.12,14.67,4,14.09,3.78,14,3.94Z"/><path class="cls-41" d="M12,5.07c-.09.15.07.41.35.57s.59.17.68,0-.08-.4-.36-.57S12.12,4.92,12,5.07Z"/><path class="cls-41" d="M10.05,6.22c-.09.15.07.4.35.57s.59.17.68,0-.08-.41-.36-.57S10.13,6.07,10.05,6.22Z"/><polygon class="cls-42" points="40.71 14.08 22.73 3.69 11.49 10.18 29.48 20.57 40.71 14.08"/><path class="cls-43" d="M35.62,28.9l-.06,0,0,0h0Z"/><path class="cls-43" d="M35.45,29l-.06,0h0Z"/><path class="cls-43" d="M40.74,25.94a.22.22,0,0,0-.06,0l2-1.15c2.46-1.52,2.57-6.46,2.57-6.46l-4-2.3s-.7.47-1.74,1.21l3.78,2.19S43.2,24.41,40.74,25.94Z"/><path class="cls-43" d="M38.09,27.48l0,0,.05,0a2,2,0,0,1,.19-.12l.83-.47-.26.14.15-.09c2.46-1.53,2.56-6.46,2.56-6.46L38,18.39l-.6.46,3.49,2s-.11,4.93-2.57,6.46l-.08.05Z"/><path class="cls-43" d="M36.79,28.22s0,0,0,0l.19-.12Z"/><path class="cls-43" d="M35.9,28.75l.2-.12.1-.06.12-.07h0l0,0h0l.05,0,0,0a.26.26,0,0,0,.09-.05l0,0h0c2.45-1.54,2.56-6.47,2.56-6.47L35.91,20l-.58.47,3.12,1.82S38.35,27.2,35.9,28.75Z"/><path class="cls-43" d="M35.39,29a1,1,0,0,0-.13.09l.12-.08Z"/><path class="cls-43" d="M35.22,29.13l0,0h0Z"/><path class="cls-43" d="M35.09,29.2l0,0h0s0,0,0,0Z"/><path class="cls-43" d="M33.51,30.11a0,0,0,0,1,0,0l0,0Z"/><path class="cls-43" d="M33.53,30.11h0s0,0,0,0h0l0,0s0,0,0,0h0s0,0,0,0l0,0h0l.05,0s0,0,0,0h0s0,0,0,0l.08-.05h0l0,0,0,0,0,0h0c2.45-1.54,2.55-6.46,2.55-6.46l-2.8-1.63c-.19.17-.37.33-.54.5L36,23.67S35.93,28.54,33.53,30.11Z"/><path class="cls-43" d="M33.49,30.13h0Z"/><path class="cls-43" d="M33.43,30.17h0Z"/><path class="cls-43" d="M33,30.43l-.07,0h0S33,30.43,33,30.43Z"/><path class="cls-43" d="M32.91,30.46h0Z"/><path class="cls-43" d="M32.54,30.68l0,0h0A0,0,0,0,0,32.54,30.68Z"/><path class="cls-43" d="M32.44,30.74l-.11.06s0,0,.06,0h0Z"/><path class="cls-43" d="M32,31l-.15.08L32,31Z"/><path class="cls-43" d="M29.91,32.19s0,0,0,0l.06,0,0,0h0a0,0,0,0,0,0,0,.24.24,0,0,0,.09-.06s.06,0,.07,0l.11-.06.05,0h0l.12-.06a.13.13,0,0,1,.07,0,0,0,0,0,0,0,0h0l0,0a.27.27,0,0,0,.1-.06l0,0,.09-.05a0,0,0,0,1,0,0h0l.09-.06h0a.05.05,0,0,0,0,0l.07,0h0l0,0,0,0,0,0h0l0,0,0,0,0,0,.05,0h0s0,0,.05,0h0l0,0h.16s0,0,0,0h0l0,0h0c2.45-1.54,2.55-6.46,2.55-6.46l-2.15-1.26a3.76,3.76,0,0,0-.81,1.36C31.18,25.51,30,31.92,29.91,32.19Z"/><path class="cls-44" d="M33.32,30.23h0Z"/><path class="cls-44" d="M33.2,30.3h0Z"/><path class="cls-44" d="M33,30.43l-.07,0h0Z"/><path class="cls-44" d="M32.91,30.46h0Z"/><path class="cls-44" d="M32.84,30.51l-.09,0,.07,0Z"/><path class="cls-44" d="M32.75,30.55l0,0h0Z"/><path class="cls-44" d="M32.73,30.57s0,0,0,0,0,0,0,0Z"/><path class="cls-44" d="M36.79,28.22s0,0,0,0l.19-.12Z"/><path class="cls-45" d="M39,26.94l-.15.09.26-.14a2,2,0,0,1,.25-.14l.18-.11.62-.36h0l.48-.28h0a.22.22,0,0,1,.06,0c2.46-1.53,2.56-6.46,2.56-6.46l-3.78-2.19L38,18.39l3.58,2.09S41.47,25.41,39,26.94Z"/><path class="cls-43" d="M33.53,30.11h0A0,0,0,0,0,33.53,30.11Z"/><path class="cls-43" d="M33.43,30.17h0Z"/><path class="cls-43" d="M33.32,30.23h0Z"/><path class="cls-43" d="M33.3,30.24a0,0,0,0,0,0,0h0Z"/><path class="cls-43" d="M33.29,30.25l-.06,0h0Z"/><path class="cls-43" d="M33.23,30.28l0,0h0Z"/><path class="cls-43" d="M33.2,30.3h0Z"/><path class="cls-43" d="M33.19,30.31h0A0,0,0,0,1,33.19,30.31Z"/><path class="cls-43" d="M33,30.43l-.07,0h0s0,0,0,0h0S33,30.43,33,30.43Z"/><path class="cls-43" d="M32.91,30.46h0Z"/><path class="cls-43" d="M32.88,30.48s0,0,0,0l0,0Z"/><path class="cls-43" d="M32.75,30.55l0,0h0l.09-.05h0Z"/><path class="cls-43" d="M32.73,30.57s0,0,0,0,0,0,0,0h0Z"/><path class="cls-43" d="M32.69,30.59l-.07,0h0Z"/><path class="cls-43" d="M32.62,30.63h0Z"/><path class="cls-43" d="M32.54,30.68l0,0h0A0,0,0,0,0,32.54,30.68Z"/><path class="cls-43" d="M32.44,30.74l-.11.06s0,0,.06,0h0Z"/><path class="cls-43" d="M35.62,28.9l-.06,0,0,0h0l.06,0Z"/><path class="cls-43" d="M35.39,29a1,1,0,0,0-.13.09l.12-.08h0l0,0Z"/><path class="cls-44" d="M33.44,30.17l0,0h0Z"/><path class="cls-44" d="M33.42,30.18h0Z"/><path class="cls-44" d="M33.32,30.23h0Z"/><path class="cls-44" d="M33.3,30.24a0,0,0,0,0,0,0h0Z"/><path class="cls-44" d="M33.23,30.28l0,0h0Z"/><path class="cls-44" d="M33.2,30.3h0Z"/><path class="cls-44" d="M33.19,30.31h0A0,0,0,0,1,33.19,30.31Z"/><path class="cls-44" d="M32.75,30.55l0,0h0l.09-.05h0Z"/><path class="cls-44" d="M32.73,30.57s0,0,0,0,0,0,0,0h0Z"/><path class="cls-44" d="M32.62,30.63h0l0,0h0l0,0Z"/><path class="cls-44" d="M32.54,30.68l0,0h0A0,0,0,0,0,32.54,30.68Z"/><path class="cls-44" d="M32.44,30.74l-.11.06s0,0,.06,0h0a0,0,0,0,0,0,0Z"/><path class="cls-44" d="M31.89,31.05l0,0,0,0s0,0,.05,0a.31.31,0,0,0,.1-.05l0,0,.09-.05.16-.1L32,31Z"/><path class="cls-44" d="M31.82,31.09l-.07.05a0,0,0,0,0,0,0Z"/><path class="cls-44" d="M35.62,28.9l-.06,0,0,0h0l.06,0Z"/><path class="cls-44" d="M35.39,29a1,1,0,0,0-.13.09l.12-.08h0l0,0Z"/><path class="cls-44" d="M35.22,29.13l0,0h0Z"/><path class="cls-44" d="M35.09,29.2l0,0h0s0,0,0,0Z"/><path class="cls-44" d="M33.49,30.14l0,0h0a0,0,0,0,1,0,0Z"/><path class="cls-45" d="M36.6,28.34l.14-.08h0s0,0,0,0l.15-.08.16-.09h0l.11-.06.1-.06.11-.07h0l.07,0s0,0,0,0l.09-.05.11-.06.17-.1.14-.08,0,0,.14-.09.08-.05c2.46-1.53,2.57-6.46,2.57-6.46l-3.49-2L35.91,20l3.25,1.88S39.05,26.8,36.6,28.34Z"/><path class="cls-43" d="M33.53,30.11h0A0,0,0,0,0,33.53,30.11Z"/><path class="cls-43" d="M33.43,30.17h0Z"/><path class="cls-43" d="M33.32,30.23h0Z"/><path class="cls-43" d="M33.3,30.24a0,0,0,0,0,0,0h0Z"/><path class="cls-43" d="M33.23,30.28l0,0h0Z"/><path class="cls-43" d="M33.2,30.3h0Z"/><path class="cls-43" d="M33.19,30.31h0A0,0,0,0,1,33.19,30.31Z"/><path class="cls-43" d="M33.06,30.38l0,0h0S33.06,30.39,33.06,30.38Z"/><path class="cls-43" d="M33,30.43l-.07,0h0s0,0,0,0h0S33,30.43,33,30.43Z"/><path class="cls-43" d="M32.91,30.46h0Z"/><path class="cls-43" d="M32.88,30.48s0,0,0,0l0,0h0Z"/><path class="cls-43" d="M32.62,30.63h0l0,0h0l0,0h0l0,0,.05,0h0l0,0h0l-.09,0,0,0s0,0,0,0Z"/><path class="cls-43" d="M32.54,30.68l0,0h0l.07,0Z"/><path class="cls-43" d="M31.82,31.09l-.07.05a0,0,0,0,0,0,0l.14-.07h0L32,31a.31.31,0,0,0,.1-.05l0,0,.09-.05.16-.09.06,0h0a0,0,0,0,0,0,0h0l0,0-.07,0-.11.06L32,31l-.15.08,0,0Z"/><path class="cls-43" d="M35.62,28.9l-.06,0,0,0h0l.06,0Z"/><path class="cls-43" d="M35.39,29a1,1,0,0,0-.13.09l.12-.08h0l0,0Z"/><path class="cls-43" d="M35.22,29.13l0,0h0l0,0h0Z"/><path class="cls-43" d="M35.09,29.2l0,0h0s0,0,0,0Z"/><path class="cls-43" d="M34.35,29.64h0s0,0,0,0Z"/><path class="cls-44" d="M33.49,30.14h0Z"/><path class="cls-44" d="M33.43,30.17h0Z"/><path class="cls-44" d="M33.3,30.24a0,0,0,0,0,0,0h0s0,0,0,0h0Z"/><path class="cls-44" d="M33.17,30.32h0l0,0h0l0,0-.06,0,0,0h0Z"/><path class="cls-44" d="M33,30.4a0,0,0,0,1,0,0h0s0,0,0,0Z"/><path class="cls-44" d="M33,30.43l-.07,0h0s0,0,0,0h0S33,30.43,33,30.43Z"/><path class="cls-44" d="M32.91,30.46h0Z"/><path class="cls-44" d="M32.88,30.48s0,0,0,0l0,0h0Z"/><path class="cls-44" d="M32.75,30.55l0,0h0l.07,0,0,0h0Z"/><path class="cls-44" d="M32.73,30.57s0,0,0,0,0,0,0,0h0Z"/><path class="cls-44" d="M32.62,30.63h0l0,0h0l0,0Z"/><path class="cls-44" d="M32.54,30.68l0,0h0A0,0,0,0,0,32.54,30.68Z"/><path class="cls-44" d="M32.44,30.74l-.11.06s0,0,.06,0h0a0,0,0,0,0,0,0h0l0,0Z"/><path class="cls-45" d="M34.18,29.73l.12-.06h.05l0,0,0,0,.08,0,0,0,.06,0,0,0,.07,0,.06,0h0l.06,0,.09-.06,0,0,.07,0h0l0,0h0a.2.2,0,0,0,.08,0l0,0h0a1,1,0,0,1,.13-.09l.06,0,0,0,.07,0,.06,0,.06,0h0s0,0,0,0h0l0,0,0,0,0,0,0,0h0c2.45-1.55,2.55-6.47,2.55-6.47l-3.12-1.82c-.49.39-1,.79-1.4,1.18l2.8,1.63S36.63,28.19,34.18,29.73Z"/><path class="cls-44" d="M35.62,28.9l-.06,0,0,0h0l.06,0Z"/><path class="cls-44" d="M35.45,29l-.06,0h0Z"/><path class="cls-44" d="M35.39,29a1,1,0,0,0-.13.09l.12-.08Z"/><path class="cls-44" d="M35.22,29.13l0,0h0Z"/><path class="cls-44" d="M35.09,29.2l0,0h0Z"/><path class="cls-44" d="M33.49,30.13l0,0h0A0,0,0,0,1,33.49,30.13Z"/><path class="cls-44" d="M31.82,31.09l-.06,0,.14-.07h0s0,0,.05,0a.31.31,0,0,0,.1-.05l0,0,.09-.05.16-.09h0L32,31,32,31l-.1.06,0,0Z"/><path class="cls-43" d="M33.53,30.11h0A0,0,0,0,0,33.53,30.11Z"/><path class="cls-43" d="M33.43,30.17h0Z"/><path class="cls-43" d="M33.32,30.23h0Z"/><path class="cls-43" d="M33.3,30.24a0,0,0,0,0,0,0h0Z"/><path class="cls-43" d="M33.29,30.25l-.06,0h0Z"/><path class="cls-43" d="M33.23,30.28l0,0h0Z"/><path class="cls-43" d="M33.2,30.3h0Z"/><path class="cls-43" d="M33.19,30.31h0A0,0,0,0,1,33.19,30.31Z"/><path class="cls-43" d="M33,30.4a0,0,0,0,1,0,0h0s0,0,0,0Z"/><path class="cls-43" d="M32.9,30.47h0a0,0,0,0,1,0,0h0s0,0,0,0h0s0,0,0,0l-.07,0h0Z"/><path class="cls-43" d="M32.62,30.63h0l0,0h0l0,0h0l0,0,.05,0h0l0,0s0,0,.06,0h0s0,0,0,0l-.09,0,0,0s0,0,0,0Z"/><path class="cls-43" d="M32.54,30.68l0,0h0A0,0,0,0,0,32.54,30.68Z"/><path class="cls-43" d="M32.44,30.74l-.11.06s0,0,.06,0h0a0,0,0,0,0,0,0Z"/><path class="cls-43" d="M31.89,31.05l0,0,0,0s0,0,.05,0a.31.31,0,0,0,.1-.05l0,0,.09-.05.16-.09h0L32,31Z"/><path class="cls-43" d="M31.82,31.09l-.07.05a0,0,0,0,0,0,0Z"/><path class="cls-45" d="M31.75,31.14l.07-.05h0l0,0L32,31l.29-.17.11-.06.07,0,0,0,.06,0h0l.07,0s0,0,0,0l0,0,.09,0s0,0,0,0h0l.07,0,0,0a0,0,0,0,0,0,0l0,0s0,0,0,0l0,0h0a0,0,0,0,0,0,0h.05l0,0,.06,0a0,0,0,0,1,0,0h0l0,0h.13a0,0,0,0,0,0,0h0c2.4-1.57,2.51-6.44,2.51-6.44l-2.65-1.53a16.06,16.06,0,0,0-1.24,1.28l2.15,1.26S34.2,29.6,31.75,31.14Z"/><path class="cls-46" d="M40.82,20,38,18.39l1.53-1.1,3,1.75s-.1,4.12-2,6a13.08,13.08,0,0,0,1-4.56L40.82,20Z"/><path class="cls-46" d="M37.39,18.85l2.74,1.59s-.1,4.08-2,6a13.14,13.14,0,0,0,1-4.54l-.76-.44h0L35.91,20Z"/><path class="cls-46" d="M35.33,20.46l2.37,1.38s-.1,4.1-2,6a13.21,13.21,0,0,0,1-4.56L36,22.83h0l-2-1.19C34.37,21.25,34.84,20.85,35.33,20.46Z"/><path class="cls-46" d="M33.29,29.24a13,13,0,0,0,1-4.56l-2.15-1.26a16.06,16.06,0,0,1,1.24-1.28l1.89,1.1S35.19,27.37,33.29,29.24Z"/><path class="cls-44" d="M33.43,30.17h0Z"/><path class="cls-44" d="M33.32,30.23h0Z"/><path class="cls-44" d="M33.3,30.24a0,0,0,0,0,0,0h0Z"/><path class="cls-44" d="M33.23,30.28l0,0h0l0,0Z"/><path class="cls-44" d="M33.2,30.3h0Z"/><path class="cls-44" d="M33.19,30.31h0A0,0,0,0,1,33.19,30.31Z"/><path class="cls-44" d="M33,30.4a0,0,0,0,1,0,0h0s0,0,0,0Z"/><path class="cls-44" d="M33,30.43l-.07,0h0s0,0,0,0h0S33,30.43,33,30.43Z"/><path class="cls-44" d="M32.91,30.46h0Z"/><path class="cls-44" d="M32.62,30.63h0l0,0h0l0,0h0l.07,0h0l0,0s0,0,.06,0h0s0,0,0,0l-.09,0,0,0s0,0,0,0Z"/><polygon class="cls-42" points="41.49 17.12 43.68 18.38 44.44 18.82 43.3 19.48 42.55 19.04 40.82 20.03 41.58 20.48 40.88 20.88 40.12 20.44 38.4 21.43 39.16 21.87 38.45 22.28 37.7 21.84 35.97 22.83 36.73 23.27 36.04 23.67 35.28 23.23 33.54 24.23 33.55 24.23 34.3 24.68 33.21 25.31 30.25 23.61 41.49 17.12"/><polygon class="cls-42" points="40.71 14.08 22.73 3.69 11.49 10.18 29.48 20.57 40.71 14.08"/><path d="M26.38,35.45,22.29,28.6l2.13-1.23h0a2,2,0,0,1,2,.22,6.24,6.24,0,0,1,2.84,4.87,2,2,0,0,1-.77,1.77h0l0,0,0,0Z"/><path class="cls-26" d="M23,29l2.89-1.68a3.32,3.32,0,0,1,.51.24,6.24,6.24,0,0,1,2.84,4.87,2.86,2.86,0,0,1-.12.87l-2.24,1.29a3.73,3.73,0,0,1-.76-.33,5.36,5.36,0,0,1-.83-.61l-2.15-3.6A4.33,4.33,0,0,1,23,29Z"/><path class="cls-12" d="M21.51,30.38a6.24,6.24,0,0,0,2.84,4.87c1.58.9,2.85.19,2.85-1.6a6.22,6.22,0,0,0-2.85-4.87C22.78,27.88,21.51,28.59,21.51,30.38Z"/><path class="cls-27" d="M21.62,30.44a6,6,0,0,0,2.73,4.68c1.52.87,2.74.19,2.74-1.53a6,6,0,0,0-2.74-4.68C22.84,28,21.62,28.72,21.62,30.44Z"/><path class="cls-28" d="M22.23,30.79a4.66,4.66,0,0,0,2.12,3.64c1.18.67,2.13.14,2.13-1.19a4.65,4.65,0,0,0-2.13-3.64C23.18,28.93,22.23,29.46,22.23,30.79Z"/><path class="cls-29" d="M22.37,30.88a4.35,4.35,0,0,0,2,3.39c1.1.62,2,.13,2-1.11a4.31,4.31,0,0,0-2-3.39C23.26,29.14,22.37,29.63,22.37,30.88Z"/><path class="cls-30" d="M24.38,29.78a4.34,4.34,0,0,1,1.95,3.38,2.44,2.44,0,0,1,0,.48l-1.44.83a2.2,2.2,0,0,1-.49-.2,4.36,4.36,0,0,1-2-3.33Z"/><path class="cls-6" d="M25.46,30.79a4.44,4.44,0,0,1,.8,1.74l-2.39,1.38a4.52,4.52,0,0,1-1.14-1.54Z"/><path class="cls-6" d="M25.46,30.79a4.44,4.44,0,0,1,.8,1.74l-2.39,1.38a4.52,4.52,0,0,1-1.14-1.54Z"/><path class="cls-31" d="M23,30.86a3.44,3.44,0,0,0,1.57,2.69c.87.5,1.58.11,1.58-.88A3.45,3.45,0,0,0,24.58,30C23.71,29.47,23,29.87,23,30.86Z"/><path class="cls-32" d="M23.29,30.92a2.94,2.94,0,0,0,1.35,2.31c.74.43,1.35.09,1.35-.75a3,3,0,0,0-1.35-2.32C23.89,29.74,23.29,30.07,23.29,30.92Z"/><path class="cls-29" d="M25.34,30.79a.23.23,0,0,1,.07-.07,3.71,3.71,0,0,1,.23.32.28.28,0,0,1-.2,0A.16.16,0,0,1,25.34,30.79Z"/><path class="cls-29" d="M23.3,31.59c-.09-.12-.07-.22.05-.23a.48.48,0,0,1,.36.2c.09.11.08.22,0,.23A.53.53,0,0,1,23.3,31.59Z"/><path class="cls-29" d="M25.67,32.5c0-.14,0-.19.16-.12a.7.7,0,0,1,.26.39c0,.14,0,.2-.15.12A.65.65,0,0,1,25.67,32.5Z"/><path class="cls-29" d="M23.94,30c0-.11.13-.1.21,0a.61.61,0,0,1,.07.45c0,.11-.14.1-.22,0A.61.61,0,0,1,23.94,30Z"/><path class="cls-29" d="M25.69,31.53c-.11-.09-.11-.21,0-.25l.08,0a3.26,3.26,0,0,1,.18.38A.41.41,0,0,1,25.69,31.53Z"/><path class="cls-29" d="M25.75,33.24c0,.13-.11.14-.21,0a.68.68,0,0,1-.13-.44c0-.13.11-.14.2,0A.64.64,0,0,1,25.75,33.24Z"/><path class="cls-29" d="M25.77,32.05c-.07-.13,0-.22.08-.2a.33.33,0,0,1,.19.09,2.34,2.34,0,0,1,.09.38h0A.6.6,0,0,1,25.77,32.05Z"/><path class="cls-29" d="M23.56,32.32c-.11-.08-.13-.2,0-.26a.34.34,0,0,1,.36,0c.12.08.14.19.05.26A.34.34,0,0,1,23.56,32.32Z"/><path class="cls-29" d="M24.42,33.15a.37.37,0,0,1,.18-.33c.1,0,.18,0,.19.19a.35.35,0,0,1-.18.32C24.51,33.37,24.43,33.29,24.42,33.15Z"/><path class="cls-29" d="M25.25,33a.5.5,0,0,1,0,.42c-.06.09-.16.05-.21-.09a.47.47,0,0,1,0-.42C25.09,32.84,25.19,32.88,25.25,33Z"/><path class="cls-29" d="M23.89,32.69a.3.3,0,0,1,.3-.17.17.17,0,0,1,.13.24.28.28,0,0,1-.29.17A.17.17,0,0,1,23.89,32.69Z"/><path class="cls-29" d="M23.71,30.79a.73.73,0,0,1-.21-.42c0-.14.07-.17.18-.08a.68.68,0,0,1,.21.43C23.9,30.85,23.82,30.89,23.71,30.79Z"/><path class="cls-29" d="M25.25,30.52a.3.3,0,0,1-.19.15c-.11,0-.18-.09-.17-.22a.32.32,0,0,1,.1-.18Z"/><path class="cls-29" d="M23.4,30.79a.64.64,0,0,1,.32.33c.06.13,0,.21-.12.17a.69.69,0,0,1-.32-.33C23.23,30.82,23.28,30.74,23.4,30.79Z"/><path class="cls-29" d="M24.71,30.05v0a.45.45,0,0,1-.09.39c-.08.07-.18,0-.21-.13a.45.45,0,0,1,.09-.39h0l.06,0Z"/><path class="cls-29" d="M23.91,31.22a1.81,1.81,0,0,0,.83,1.43c.46.27.84.06.84-.46a1.82,1.82,0,0,0-.84-1.43C24.28,30.49,23.91,30.7,23.91,31.22Z"/><path class="cls-30" d="M24.51,30.66a.89.89,0,0,1,.23.1,1.82,1.82,0,0,1,.84,1.43.75.75,0,0,1-.08.35l-.76-.16a2.21,2.21,0,0,1-.51-.93Z"/><path class="cls-33" d="M24.49,32.05a2.52,2.52,0,0,1-.15-.33,3.21,3.21,0,0,0,.88-.51,2,2,0,0,1,.31.64A3,3,0,0,0,24.49,32.05Z"/><path class="cls-34" d="M23.91,31.6a1.29,1.29,0,0,0,.59,1c.33.19.6,0,.6-.33a1.31,1.31,0,0,0-.6-1C24.17,31.08,23.91,31.23,23.91,31.6Z"/><path class="cls-31" d="M24.09,31.83a.69.69,0,0,0,.32.55c.18.1.32,0,.32-.18a.69.69,0,0,0-.32-.55C24.23,31.55,24.09,31.63,24.09,31.83Z"/><path d="M26.37,35.45l1.26-.72,0,0,0,0h0a2,2,0,0,0,.78-1.76,6.22,6.22,0,0,0-2.85-4.87,2,2,0,0,0-2-.22h0l.14-.08h0a2,2,0,0,1,2,.22,6.22,6.22,0,0,1,2.85,4.87,2,2,0,0,1-.78,1.76h0l-.05,0,0,0-1.39.8Z"/><path d="M26.37,35.45,27,35.1l0,0,.05,0h0a2,2,0,0,0,.78-1.76A6.25,6.25,0,0,0,25,28.41a2,2,0,0,0-2-.21h0l.14-.08h0a2,2,0,0,1,2,.21A6.23,6.23,0,0,1,28,33.21,2,2,0,0,1,27.21,35h0l-.05,0,0,0-.75.43Z"/><path class="cls-3" d="M9,14.69V17.5l1.14-.66L11.53,16l.38.65-1.44.83L8.9,18.4l-.06,0-.05,0,0,0a.57.57,0,0,1-.43,0,.16.16,0,0,1-.11-.17V14.69Z"/><path class="cls-20" d="M8.59,18.22a.23.23,0,0,0,.2,0L9.08,18c.17-.11.35-.21.53-.31l.52-.3.23-.13,1.24-.72-.15-.27-.19.11c-.16.09-.32.18-.47.28l-.63.36-.64.37-.52.3c-.05,0-.16.12-.22.07s0-.09,0-.15V14.91H8.42v3a.4.4,0,0,1,0,.11c0,.08.08.14.14.17Z"/><path class="cls-40" d="M9.33,17.65s-.48.29-.64.25-.11-.19-.11-.19v-3h.18v2.8c0,.11.08.19.24.1l.33-.19Z"/><path class="cls-35" d="M7.88,16.38h0v-5h1.4v5h0a.36.36,0,0,1-.21.32,1.1,1.1,0,0,1-1,0A.31.31,0,0,1,7.88,16.38Z"/><path class="cls-5" d="M9.05,16.71a1.14,1.14,0,0,1-.94,0V11.39h.94Z"/><path class="cls-36" d="M9,16.75a1.21,1.21,0,0,1-.43.07V11.39H9Z"/><path class="cls-19" d="M9.08,11.1a1.07,1.07,0,0,0-1,0c-.28.16-.28.41,0,.57a1.1,1.1,0,0,0,1,0A.31.31,0,0,0,9.08,11.1Z"/><path class="cls-5" d="M8.2,11.38h0V9.72H9v1.66H9c0,.06,0,.12-.11.17a.55.55,0,0,1-.53,0A.16.16,0,0,1,8.2,11.38Z"/><path class="cls-36" d="M8.76,11.58l-.18,0V9.72h.18Z"/><path d="M8.85,9.56a.64.64,0,0,0-.54,0c-.15.09-.15.23,0,.31a.55.55,0,0,0,.53,0C9,9.78,9,9.65,8.85,9.56Z"/><polygon class="cls-46" points="9.24 11.48 30.25 23.61 29.96 31.95 9.24 20 9.24 11.48"/><polygon class="cls-20" points="13.96 26.4 19.27 29.47 19.27 26.9 13.96 23.83 13.96 26.4"/><polygon class="cls-12" points="22.45 27.64 19.27 29.47 19.27 26.9 19.62 26 22.45 27.64"/><polygon class="cls-47" points="13.96 23.83 14.3 22.93 19.62 26 19.27 26.9 13.96 23.83"/><path class="cls-2" d="M21.57,26.11l-7.49-4.33-.67-.38-.36-.21-.16-.09-.36-.21v3.59l1.43.9,5.32,3.35.61.39,1.42.89.38-.19,0,0V26.2ZM21.29,29l-.43-.25-.18-.11h0l-1.39-.8L14,24.79l-1-.57V21.67l.07,0,.36.21.67.38,7.21,4.16Z"/><path class="cls-3" d="M14.08,22.3l-.67-.38v.46l.67.38,6.78,3.92v0l.43.25v-.51Zm0,0-.67-.38v.46l.67.38,6.78,3.92v0l.43.25v-.51Zm0,0-.67-.38v.46l.67.38,6.78,3.92v0l.43.25v-.51Zm0,0-.67-.38v.46l.67.38,6.78,3.92v0l.43.25v-.51Zm0-.05-.67-.38-.36-.21-.16-.09-.36-.21-.43-.25V24.7L14,25.77l5.32,3.07.55.31,1.48.86V26.42Zm-1.53-.37.34.2.09.05.07,0,.36.21.67.38,6.78,3.92v2.56l-.59-.34-1-.57L14,25.25l-1.41-.81Zm1.53.42-.67-.38v.46l.67.38,6.78,3.92v0l.43.25v-.51Zm0,0-.67-.38v.46l.67.38,6.78,3.92v0l.43.25v-.51Zm0,0-.67-.38v.46l.67.38,6.78,3.92v0l.43.25v-.51Zm0,0-.67-.38v.46l.67.38,6.78,3.92v0l.43.25v-.51Z"/><polygon class="cls-45" points="30.25 30.88 29.96 31.95 9.24 20 9.28 18.79 30.25 30.88"/><polygon class="cls-48" points="30.25 29.48 30.25 30.1 9.28 18.06 9.28 17.36 30.25 29.48"/><polygon class="cls-49" points="30.25 23.61 29.48 20.57 11.49 10.18 9.24 11.48 30.25 23.61"/><polygon class="cls-43" points="30.25 23.61 30.85 23.95 42.13 17.47 41.58 17.07 40.71 14.08 29.48 20.57 30.25 23.61"/><polygon class="cls-45" points="31.1 23.4 40.91 17.73 40.26 15.74 30.54 21.36 31.1 23.4"/><polygon class="cls-50" points="40.34 16.64 30.76 22.17 30.54 21.36 40.26 15.74 40.91 17.73 40.73 17.84 40.34 16.64"/><polygon class="cls-51" points="40.26 15.74 40.91 17.73 38.86 16.55 40.26 15.74"/><polygon class="cls-52" points="27.58 19.49 27.05 19.19 38.3 12.7 38.82 13 27.58 19.49"/><polygon class="cls-53" points="26.61 30.03 26.09 29.73 26.09 21.23 26.61 21.53 26.61 30.03"/><polygon class="cls-54" points="26.61 21.53 26.09 21.23 27.05 19.19 27.58 19.49 26.61 21.53"/><polygon class="cls-46" points="26.97 31.03 27.64 30.64 27.64 22.12 28.61 20.09 39.85 13.6 40.02 13.7 40.26 13.84 39.35 13.11 27.94 19.7 26.97 21.74 26.97 31.03"/><polygon class="cls-46" points="26.97 31.03 26.45 30.73 26.45 21.43 26.97 21.74 26.97 31.03"/><polygon class="cls-55" points="26.97 21.74 26.45 21.43 27.41 19.4 27.94 19.7 26.97 21.74"/><polygon class="cls-42" points="27.94 19.7 27.41 19.4 38.83 12.81 39.35 13.11 27.94 19.7"/><polygon class="cls-43" points="27.94 19.7 28.61 20.09 39.85 13.6 40.26 13.84 39.35 13.11 27.94 19.7"/><polygon class="cls-45" points="27.64 22.12 27.64 30.64 26.97 31.03 26.97 21.74 27.64 22.12"/><polygon class="cls-52" points="18.54 14.26 18.01 13.96 29.26 7.47 29.78 7.77 18.54 14.26"/><polygon class="cls-54" points="17.57 16.3 17.05 15.99 18.01 13.96 18.54 14.26 17.57 16.3"/><polygon class="cls-46" points="19.57 14.86 30.81 8.37 30.98 8.46 31.22 8.6 30.31 7.88 18.89 14.46 17.93 16.5 19.57 14.86"/><polygon class="cls-55" points="17.93 16.5 17.4 16.2 18.37 14.16 18.89 14.46 17.93 16.5"/><polygon class="cls-42" points="18.89 14.46 18.37 14.16 29.79 7.58 30.31 7.88 18.89 14.46"/><polygon class="cls-43" points="18.89 14.46 19.57 14.86 30.81 8.37 31.22 8.6 30.31 7.88 18.89 14.46"/><polygon class="cls-52" points="14.01 11.66 13.49 11.36 24.73 4.87 25.26 5.17 14.01 11.66"/><polygon class="cls-53" points="13.05 22.2 12.52 21.9 12.52 13.39 13.05 13.7 13.05 22.2"/><polygon class="cls-54" points="13.05 13.7 12.52 13.39 13.49 11.36 14.01 11.66 13.05 13.7"/><polygon class="cls-46" points="13.4 23.2 14.08 22.81 14.08 14.29 15.05 12.26 26.29 5.77 26.46 5.86 26.7 6 25.79 5.28 14.37 11.87 13.4 13.9 13.4 23.2"/><polygon class="cls-46" points="13.4 23.2 12.88 22.89 12.88 13.6 13.4 13.9 13.4 23.2"/><polygon class="cls-55" points="13.4 13.9 12.88 13.6 13.85 11.56 14.37 11.87 13.4 13.9"/><polygon class="cls-42" points="14.37 11.87 13.85 11.56 25.26 4.98 25.79 5.28 14.37 11.87"/><polygon class="cls-43" points="14.37 11.87 15.05 12.26 26.29 5.77 26.7 6 25.79 5.28 14.37 11.87"/><polygon class="cls-45" points="14.08 14.29 14.08 22.81 13.4 23.2 13.4 13.9 14.08 14.29"/><polygon class="cls-20" points="23.5 23.53 25.64 24.77 25.64 25.89 23.5 24.65 23.5 23.53"/><path class="cls-27" d="M17.08,7.74h0v-.3h.19l.06,0a1.29,1.29,0,0,1,1.18,0l.07,0h.17v.3h0a.44.44,0,0,1-.25.34,1.29,1.29,0,0,1-1.18,0A.41.41,0,0,1,17.08,7.74Z"/><path class="cls-56" d="M17.08,7.44h0L17.23,6h1.38l.14,1.43h0a.41.41,0,0,1-.25.34,1.32,1.32,0,0,1-1.18,0A.43.43,0,0,1,17.08,7.44Z"/><path class="cls-57" d="M18.41,7.16a1.06,1.06,0,0,0-1,0c-.28.16-.28.42,0,.57a1.08,1.08,0,0,0,1,0C18.68,7.57,18.68,7.31,18.41,7.16Z"/><path class="cls-58" d="M17.56,6.41c.18-.31.46-.3.64,0a1.21,1.21,0,0,1,0,1.11.33.33,0,0,1-.63,0A1.19,1.19,0,0,1,17.56,6.41Z"/><path class="cls-59" d="M18.41,7.69a1.13,1.13,0,0,1-.45.14l0,0a.44.44,0,0,1-.08-.11,1.62,1.62,0,0,1,0-1.47A.7.7,0,0,1,18,6h.45l0,0h0l.13,1.3h0A.41.41,0,0,1,18.41,7.69Z"/><path class="cls-60" d="M18,6.56c.12-.23.33-.22.46,0a.89.89,0,0,1,0,.81c-.13.22-.34.22-.47,0A.87.87,0,0,1,18,6.56Z"/><path class="cls-61" d="M18.41,5.72a1.06,1.06,0,0,0-1,0,.3.3,0,0,0,0,.57,1.09,1.09,0,0,0,1,0C18.67,6.12,18.68,5.87,18.41,5.72Z"/><path class="cls-20" d="M18.1,21.83V20.77l1.1.58a1.27,1.27,0,0,1,.09.92s-.12.17-.24.11S18.1,21.83,18.1,21.83Z"/><path class="cls-20" d="M19.34,22.33l.61-.91a.37.37,0,0,0,0-.31l-.21-.58.28,0-.92-.64-.4.75H19l.34.91A1.32,1.32,0,0,1,19.34,22.33Z"/><path class="cls-20" d="M16,19.12l.62,1.63a.82.82,0,0,0,.23.31l.44.25v.39l.52-.6-.52-1.21v.36l-.68-.4A1.69,1.69,0,0,1,16,19.12Z"/><path class="cls-20" d="M16.46,18l.78,1-.49.89a1.39,1.39,0,0,1-.68-.74s-.11-.3-.06-.41S16.46,18,16.46,18Z"/><path class="cls-20" d="M18.64,18l-1.23-.72s-.17-.08-.23,0-.22.33-.22.33l-.28-.36.39,1.22.91.46-.25-.34.34-.5S18.23,17.8,18.64,18Z"/><path class="cls-20" d="M19.44,19.59l-.77.09-.61-1.46a.4.4,0,0,1,.59-.18.79.79,0,0,1,.3.3C19,18.51,19.44,19.59,19.44,19.59Z"/><polygon class="cls-52" points="23.06 16.88 22.53 16.57 33.78 10.09 34.3 10.39 32.06 12.19 23.06 16.88"/><polygon class="cls-53" points="22.09 27.42 21.57 27.11 21.57 18.61 22.09 18.91 22.09 27.42"/><polygon class="cls-54" points="22.09 18.91 21.57 18.61 22.53 16.57 23.06 16.88 22.09 18.91"/><polygon class="cls-46" points="22.45 28.41 23.12 28.03 23.12 19.51 24.09 17.47 35.33 10.99 35.5 11.08 35.74 11.22 34.83 10.5 23.42 17.08 22.45 19.12 22.45 28.41"/><polygon class="cls-46" points="22.45 28.41 21.93 28.11 21.93 18.82 22.45 19.12 22.45 28.41"/><polygon class="cls-55" points="22.45 19.12 21.93 18.82 22.89 16.78 23.42 17.08 22.45 19.12"/><polygon class="cls-42" points="32.06 11.49 32.06 11.49 32.06 12.1 32.66 11.75 34.83 10.5 34.31 10.2 32.06 11.49"/><polygon class="cls-42" points="22.89 16.78 23.42 17.08 26.74 15.16 31.98 12.14 31.98 12.14 31.81 12.04 31.64 11.95 31.46 11.84 31.46 11.84 26.22 14.86 25.54 15.25 22.89 16.78"/><polygon class="cls-43" points="23.42 17.08 24.09 17.47 35.33 10.99 35.74 11.22 34.83 10.5 23.42 17.08"/><polygon class="cls-45" points="23.12 19.51 23.12 28.03 22.45 28.41 22.45 19.12 23.12 19.51"/><polygon class="cls-42" points="25.32 15.13 25.54 15.25 26.22 14.86 26.74 15.16 26.74 15.95 27.8 16.56 33.72 13.15 32.66 12.53 32.06 12.19 31.98 12.14 31.98 12.14 31.81 12.04 31.64 11.95 31.46 11.84 31.46 11.84 31.24 11.71 25.32 15.13"/><polygon class="cls-45" points="23.08 13.83 25.44 15.31 25.94 15.02 26.56 15.42 26.56 16.02 32.48 12.6 28.99 10.41 23.08 13.83"/><g class="cls-62"><rect x="24.74" y="13.24" width="8.28" height="1.34" transform="translate(60.84 11.54) rotate(150.02)"/><polygon class="cls-63" points="32.51 11.93 32.47 12.62 31.92 12.93 32.02 11.32 32.12 11.26 32.51 11.93"/><polygon class="cls-63" points="29.82 12.59 30.36 12.28 30.26 13.89 29.72 14.2 29.82 12.59"/><polygon class="cls-63" points="30.92 11.96 31.47 11.64 31.36 13.25 30.82 13.57 30.92 11.96"/><polygon class="cls-63" points="27.61 13.87 28.15 13.55 28.05 15.16 27.5 15.48 27.61 13.87"/><polygon class="cls-64" points="25.34 16.07 25.4 15.14 25.94 14.83 25.84 16.44 25.63 16.56 25.34 16.07"/><polygon class="cls-63" points="28.72 13.23 29.26 12.91 29.16 14.53 28.61 14.84 28.72 13.23"/><polygon class="cls-63" points="26.5 14.5 27.05 14.19 26.94 15.8 26.4 16.11 26.5 14.5"/></g><polygon class="cls-43" points="32.66 13.02 32.06 12.67 31.98 12.63 31.98 12.63 31.81 12.53 31.64 12.43 31.46 12.33 31.46 12.33 31.1 12.12 28.99 10.9 23.5 14.07 23.08 13.83 28.99 10.41 31.1 11.63 31.46 11.84 31.46 11.84 31.64 11.95 31.81 12.04 31.98 12.14 31.98 12.14 32.06 12.19 32.66 12.53 33.72 13.15 33.3 13.39 32.66 13.02"/><polygon class="cls-46" points="32.06 11.49 32.06 12.19 32.66 12.53 32.66 11.75 32.06 11.49 32.06 11.49"/><polygon class="cls-19" points="7.82 17.13 8.76 17.68 8.76 16.98 7.82 16.42 7.82 17.13"/><path class="cls-10" d="M1.07,17.26a1,1,0,0,0,.66-.83v-2.8c0-.42-.64-.65-.66-.66L1,13.16c.14.05.52.24.52.47v2.8c0,.45-.51.64-.52.64Z"/><polygon class="cls-47" points="30.02 33.56 30.78 33.13 32.82 34.31 33.97 34.61 33.97 34.97 32.79 35.65 29.59 33.8 29.59 33.45 30.02 33.56"/><polygon class="cls-20" points="30.78 32.77 33.97 34.61 32.79 35.29 29.59 33.45 30.78 32.77"/><polygon class="cls-47" points="40.82 27.34 41.58 26.9 43.62 28.08 44.77 28.39 44.77 28.75 43.58 29.42 40.39 27.58 40.39 27.22 40.82 27.34"/><polygon class="cls-20" points="41.58 26.55 44.77 28.39 43.58 29.07 40.39 27.22 41.58 26.55"/><polygon class="cls-4" points="0.95 14.38 2.29 13.61 2.29 10.04 0.95 10.81 0.95 14.38"/><polygon class="cls-9" points="2.78 16.71 2.78 16.48 1.6 15.36 1.6 10.36 3.91 8.76 3.86 8.59 1.43 10.18 1.43 15.43 2.78 16.71"/><polygon class="cls-5" points="2.22 13.51 2.22 10.45 1.32 10.97 1.32 14.02 2.22 13.51"/><polygon class="cls-6" points="2.29 10.04 2.22 10.45 1.32 10.97 0.95 10.81 2.29 10.04"/><polygon class="cls-7" points="1.32 14.02 0.95 14.38 2.29 13.61 2.22 13.51 1.32 14.02"/><path class="cls-4" d="M2.36,14.47a1.63,1.63,0,0,1-.74,1.23c-.4.25-.73.1-.73-.33a1.65,1.65,0,0,1,.73-1.23C2,13.89,2.36,14,2.36,14.47Z"/><path class="cls-7" d="M2,15.34a1.33,1.33,0,0,1-.39.36l-.19.09a1,1,0,0,1,.35-.37A.46.46,0,0,1,2,15.34Z"/><path class="cls-6" d="M1.28,14.44a1.88,1.88,0,0,1,.34-.3c.25-.15.46-.15.59,0a.43.43,0,0,1,0,.05.56.56,0,0,1-.5.6A.49.49,0,0,1,1.28,14.44Z"/><path class="cls-5" d="M2.27,14.66a1.07,1.07,0,0,1-.49.82c-.28.17-.5.07-.5-.22a1.09,1.09,0,0,1,.5-.82C2.05,14.27,2.27,14.37,2.27,14.66Z"/><polygon class="cls-42" points="28.49 23.46 29.26 23.02 33.21 25.31 32.44 25.75 30.23 24.46 30.23 24.46 28.49 23.46"/><polygon class="cls-42" points="41.58 17.07 41.58 17.07 41.3 16.11 45.21 18.38 44.44 18.82 42.23 17.53 42.23 17.53 41.58 17.07"/><path class="cls-46" d="M26.91,30.91c.54-2.42,1.58-7.45,1.58-7.45l3.95,2.29s-.16,7.33-4.54,6.89A1.38,1.38,0,0,1,26.91,30.91Z"/><polygon class="cls-65" points="24.57 23.61 28.14 31.19 29.09 30.07 25.59 22.57 24.57 23.61"/><polygon class="cls-45" points="25.59 22.57 29.09 30.07 29.69 29.63 26.18 22.14 25.59 22.57"/><g class="cls-66"><rect x="22.59" y="25.93" width="8.28" height="1.34" transform="translate(39.51 -8.88) rotate(64.95)"/><polygon class="cls-64" points="24.89 22.9 24.53 23.48 24.8 24.05 25.64 22.67 25.59 22.57 24.89 22.9"/><polygon class="cls-64" points="26.71 24.98 26.45 24.41 25.61 25.79 25.88 26.36 26.71 24.98"/><polygon class="cls-64" points="26.18 23.82 25.91 23.26 25.07 24.64 25.34 25.2 26.18 23.82"/><polygon class="cls-64" points="27.8 27.29 27.53 26.73 26.69 28.1 26.96 28.67 27.8 27.29"/><polygon class="cls-64" points="28.75 31.33 28.88 29.6 28.61 29.03 27.77 30.41 28.23 31.57 28.75 31.33"/><polygon class="cls-64" points="27.25 26.13 26.99 25.56 26.15 26.94 26.41 27.51 27.25 26.13"/><polygon class="cls-64" points="28.34 28.45 28.07 27.88 27.23 29.26 27.5 29.83 28.34 28.45"/></g><polygon class="cls-42" points="33.21 29.31 34.34 29.94 43.47 24.74 43.63 22.23 43.03 21.9 33.94 27.11 33.21 29.31"/><polygon class="cls-43" points="34.34 29.94 34.93 30.28 44.06 25.08 43.52 24.67 43.63 22.23 34.54 27.45 34.34 29.94"/><polygon class="cls-46" points="33.21 29.31 33.94 27.11 34.54 27.45 34.34 29.94 34.93 30.28 34.94 34.02 34.25 34.43 30.14 32.06 33.21 29.31"/><polygon class="cls-43" points="44.06 28.83 34.94 34.02 34.93 30.28 44.06 25.08 44.06 28.83"/><polygon class="cls-51" points="43.39 28.65 35.69 33.03 35.69 30.45 43.39 26.07 43.39 28.65"/><polygon class="cls-45" points="36.31 30.1 40.06 27.96 43.39 28.65 43.39 28.65 35.69 33.03 36.31 30.1"/><polygon class="cls-42" points="43.52 24.67 34.34 29.94 34.93 30.28 44.06 25.08 43.52 24.67"/><path class="cls-67" d="M33.93,25.55v.78a.5.5,0,0,1-.25.39l-.77.45c-.14.08-.26,0-.26-.11v-.77a.53.53,0,0,1,.26-.4l.77-.44C33.82,25.37,33.93,25.41,33.93,25.55Z"/><path class="cls-68" d="M33.93,26.23v.1a.5.5,0,0,1-.25.39l-.77.45c-.14.08-.26,0-.26-.11V27l.64-.66Z"/><path class="cls-69" d="M32.65,26.38v-.09a.53.53,0,0,1,.26-.4l.77-.44c.14-.08.25,0,.25.1v.1l-.64.66Z"/><path class="cls-70" d="M33.72,26a1.12,1.12,0,0,1-.53.85c-.3.17-.54.07-.54-.23a1.11,1.11,0,0,1,.54-.84C33.48,25.58,33.72,25.68,33.72,26Z"/><path class="cls-71" d="M33.51,26a.84.84,0,0,1-.4.63c-.22.12-.4.05-.4-.17a.84.84,0,0,1,.4-.63C33.33,25.72,33.51,25.79,33.51,26Z"/><path class="cls-72" d="M32.76,26.44c0,.19.16.26.35.15a.73.73,0,0,0,.35-.55Z"/><path class="cls-73" d="M32.91,26.65h0s0,0,0,0v-.49a.1.1,0,0,1,0-.08h0s.05,0,.05,0v.49A.1.1,0,0,1,32.91,26.65Z"/><path class="cls-73" d="M33.11,26.53h0s0,0,0,0V26a.09.09,0,0,1,0-.07h0s0,0,0,0v.49A.09.09,0,0,1,33.11,26.53Z"/><path class="cls-73" d="M33.31,26.41h0a0,0,0,0,1-.05,0v-.48s0-.06.05-.08h0s0,0,0,0v.49A.08.08,0,0,1,33.31,26.41Z"/><path class="cls-74" d="M33,26.33v.24a.1.1,0,0,1,0,.07h0s0,0,0,0v-.25Z"/><path class="cls-74" d="M33.16,26.21v.24a.09.09,0,0,1,0,.08s0,0,0,0v-.24Z"/><path class="cls-74" d="M33.36,26.1v.24a.08.08,0,0,1,0,.07h0s0,0,0,0v-.24Z"/><path class="cls-67" d="M44.92,19.2V20a.5.5,0,0,1-.25.39l-.78.45c-.14.08-.25,0-.25-.11v-.77a.52.52,0,0,1,.25-.4l.78-.44C44.81,19,44.92,19.06,44.92,19.2Z"/><path class="cls-68" d="M44.92,19.88V20a.5.5,0,0,1-.25.39l-.78.45c-.14.08-.25,0-.25-.11v-.09l.64-.66Z"/><path class="cls-69" d="M43.64,20v-.09a.52.52,0,0,1,.25-.4l.78-.44c.14-.08.25,0,.25.1v.1l-.64.66Z"/><path class="cls-70" d="M44.71,19.62a1.12,1.12,0,0,1-.53.85c-.3.17-.54.07-.54-.23a1.11,1.11,0,0,1,.54-.84C44.47,19.23,44.71,19.33,44.71,19.62Z"/><path class="cls-71" d="M44.5,19.66a.84.84,0,0,1-.4.63c-.22.12-.4.05-.4-.17a.84.84,0,0,1,.4-.63C44.32,19.37,44.5,19.44,44.5,19.66Z"/><path class="cls-72" d="M43.75,20.09c0,.19.16.26.35.15a.73.73,0,0,0,.35-.55Z"/><path class="cls-73" d="M43.9,20.3h0s0,0,0,0v-.49a.1.1,0,0,1,0-.08h0s.05,0,.05,0v.49S43.92,20.28,43.9,20.3Z"/><path class="cls-73" d="M44.1,20.18h0s-.05,0-.05,0v-.49a.09.09,0,0,1,.05-.07h0s0,0,0,0v.49A.09.09,0,0,1,44.1,20.18Z"/><path class="cls-73" d="M44.3,20.06h0s0,0,0,0v-.48a.1.1,0,0,1,0-.08h0s.05,0,.05,0V20A.08.08,0,0,1,44.3,20.06Z"/><path class="cls-74" d="M44,20v.24a.1.1,0,0,1,0,.07h0s0,0,0,0V20Z"/><path class="cls-74" d="M44.15,19.86v.24a.11.11,0,0,1,0,.08s-.05,0-.05,0v-.24Z"/><path class="cls-74" d="M44.35,19.75V20a.08.08,0,0,1-.05.07h0s0,0,0,0V19.8Z"/><polygon class="cls-50" points="41.16 28.19 36.1 31.11 36.31 30.1 37.31 29.53 40.06 27.96 41.16 28.19"/><path class="cls-20" d="M30.41,27.36v-.52l.55.28a.65.65,0,0,1,0,.46s-.06.08-.12.05Z"/><path class="cls-20" d="M31,27.61l.3-.45a.19.19,0,0,0,0-.15c0-.09-.11-.29-.11-.29l.14,0-.45-.31-.2.37h.13l.17.45A.68.68,0,0,1,31,27.61Z"/><path class="cls-20" d="M29.39,26l.31.81a.44.44,0,0,0,.11.15l.22.12v.2l.26-.3L30,26.4v.18l-.34-.2A.81.81,0,0,1,29.39,26Z"/><path class="cls-20" d="M29.6,25.45l.39.48-.24.45a.7.7,0,0,1-.34-.37s-.06-.15,0-.2S29.6,25.45,29.6,25.45Z"/><path class="cls-20" d="M30.68,25.45l-.6-.36s-.09,0-.12,0l-.11.16-.14-.17.19.6.46.23-.13-.17.17-.25S30.48,25.37,30.68,25.45Z"/><path class="cls-20" d="M31.08,26.25l-.38.05-.3-.73s.07-.19.29-.08a.41.41,0,0,1,.15.14C30.87,25.72,31.08,26.25,31.08,26.25Z"/><polygon class="cls-48" points="29.79 27.86 30.79 28.44 30.79 30.4 29.79 29.82 29.79 27.86"/><g class="cls-75"><rect x="33.08" y="24.62" width="11.27" height="1.83" transform="translate(85.01 28.3) rotate(150.02)"/><polygon class="cls-63" points="42.82 23.18 42.33 24.84 41.74 25.18 42.51 22.87 42.61 22.81 42.82 23.18"/><polygon class="cls-63" points="40.1 24.26 40.7 23.92 39.93 26.22 39.34 26.56 40.1 24.26"/><polygon class="cls-63" points="41.31 23.57 41.9 23.23 41.13 25.53 40.54 25.87 41.31 23.57"/><polygon class="cls-63" points="37.7 25.65 38.29 25.3 37.52 27.61 36.93 27.95 37.7 25.65"/><polygon class="cls-63" points="38.91 24.95 39.5 24.61 38.73 26.91 38.14 27.25 38.91 24.95"/><polygon class="cls-63" points="36.5 26.34 37.09 26 36.32 28.3 35.73 28.64 36.5 26.34"/></g><polygon class="cls-48" points="31.18 31.12 34.86 33.04 34.86 33.5 30.85 31.42 31.18 31.12"/><path class="cls-76" d="M36.8,17.26h0a.25.25,0,0,1,.12-.2l1.32-.76c.06,0,.12,0,.12.05h0s0,0,0,0h0Z"/><path class="cls-76" d="M38.58,16.23l0,0v0h0a.28.28,0,0,1,.12-.19L40,15.28c.07,0,.12,0,.12.05h0v0h0Z"/><path class="cls-76" d="M40,15l-1.51.87h0a.24.24,0,0,1,.12-.19l1.32-.76c.06,0,.12,0,.12.05v0Z"/><path class="cls-76" d="M38.2,16l-1.51.87h0a.25.25,0,0,1,.13-.19l1.31-.76c.07,0,.12,0,.12.05v0Z"/><path class="cls-42" d="M38.24,16.54l-1.32.76c-.06,0-.11,0-.12,0h0l1.51-.88h0A.32.32,0,0,1,38.24,16.54Z"/><path class="cls-42" d="M40,15h0a.23.23,0,0,1-.11.17l-1.32.76c-.06,0-.11,0-.12,0h0Z"/><path class="cls-42" d="M40,15.52l-1.32.76c-.06,0-.11,0-.12,0l0,0,1.51-.87h0A.24.24,0,0,1,40,15.52Z"/><path class="cls-42" d="M38.2,16l0,0a.24.24,0,0,1-.12.17l-1.31.76c-.07,0-.11,0-.12,0h0Z"/><path class="cls-76" d="M30.39,21h0a.28.28,0,0,1,.12-.2L31.82,20c.07,0,.12,0,.12.05h0v0h0Z"/><path class="cls-76" d="M32.17,20l0,0v0h0a.25.25,0,0,1,.12-.19L33.58,19c.06,0,.12,0,.12,0h0v0h0Z"/><path class="cls-76" d="M33.56,18.73l-1.51.88h0a.23.23,0,0,1,.13-.19l1.31-.76c.07,0,.12,0,.12.05v0Z"/><path class="cls-76" d="M31.79,19.76l-1.51.87h0a.24.24,0,0,1,.12-.19l1.32-.76c.07,0,.12,0,.12,0v0Z"/><path class="cls-42" d="M31.82,20.27,30.5,21c-.06,0-.11,0-.11,0h0l1.51-.88h0A.28.28,0,0,1,31.82,20.27Z"/><path class="cls-42" d="M33.56,18.73h0a.28.28,0,0,1-.12.17l-1.31.76c-.07,0-.11,0-.12,0h0Z"/><path class="cls-42" d="M33.58,19.25,32.26,20c-.06,0-.11,0-.12,0l0,0,1.51-.87h0A.23.23,0,0,1,33.58,19.25Z"/><path class="cls-42" d="M31.79,19.76l0,0a.24.24,0,0,1-.12.17l-1.32.76c-.06,0-.11,0-.12,0h0Z"/></g></g></svg>