<svg xmlns="http://www.w3.org/2000/svg" viewBox="0 0 52.75 87.8"><defs><style>.cls-1{fill:#bee4ed;}.cls-2{fill:#f4bf87;}.cls-3{fill:#3e1e1e;}.cls-4{fill:#456372;}.cls-5{fill:#4d200e;}.cls-6{fill:#944212;}.cls-7{fill:#cfa075;}.cls-8{fill:#ff7536;}.cls-9{fill:#d9d0d0;}.cls-10{fill:#681c19;}.cls-11{fill:#94c3c7;}.cls-12{fill:#84b81a;}.cls-13{fill:#e2a56d;}.cls-14{fill:#f8e8e0;}.cls-15{fill:#d5a980;}.cls-16{fill:#1a1111;}.cls-17{fill:#92dbe0;}.cls-18{fill:#9bdee3;}.cls-19{fill:#fff;}.cls-20{fill:#a4e1e5;}.cls-21{fill:#84d7dc;}.cls-22{fill:#7ed5da;}.cls-23{fill:#7ad4d9;}.cls-24{fill:#7fd5db;}.cls-25{fill:#8bd9de;}.cls-26{fill:#7ad1d3;}.cls-27{fill:#355566;}.cls-28{fill:#637c89;}.cls-29{fill:#4f6b7a;}.cls-30{fill:#657e8b;}</style></defs><g id="Слой_2" data-name="Слой 2"><g id="Layer_1" data-name="Layer 1"><path class="cls-1" d="M32.11,10.55c-.46,0-3.15,2.54-3.15,7,0,2.78-.87,9-.87,9l-4.64,8s-1.2,1.11-.77,1.92S26,39.38,26,39.38s10.12-9.38,11.11-11S40.76,9.86,32.11,10.55Z"/><path class="cls-2" d="M23.62,35.79s-3.92.57-3.56.93-1.3,1.53-2.12,1.7.38,1.28,1.67.64c1.06-.53,1.22-1,1.22-1s-2.27,3.26-1.6,3.26,3.09,1,4.39,1c.76,0,1.74-1.62,2.42-3a2,2,0,0,0-.82-2.7Z"/><path class="cls-3" d="M51,61.59a4.48,4.48,0,0,1,1.11,1.14c.66.86.28,2.63.49,3.72a7.13,7.13,0,0,1-1.16,5c-1.21,1.67-1.85,2.21-2.53,1.84-.91-.5-1.27-2.7-1.1-4,.26-2,.41-4.32.41-4.32Z"/><path class="cls-4" d="M47.67,65.72c-2.83-2.72-5.6-2.66-6.44-4.29-2.48-4.81-1.64-12.66-2.07-17.23s0-5.85,0-5.85c2.67-4.22,7.32-2.33,9.05-.61S47,57.47,47,57.9s1.46.62,3.11,1.64S51.75,61,51.75,61,50.5,68.44,47.67,65.72Z"/><polygon points="35.07 70.82 35.07 71.17 37.21 72.41 37.21 71.61 35.07 70.82"/><path class="cls-5" d="M38.74,70.85c0,.21-.23-.65-.52-.48l-1,1.24v.8l1.08-.62a.8.8,0,0,0,.43-.51A1.55,1.55,0,0,0,38.74,70.85Z"/><path class="cls-5" d="M38.75,69.86v1a6,6,0,0,1-1.78.89c-.8.15-3.18,3-4.5,3.6-4.14,1.94-4.56.05-4.53-.13a3.89,3.89,0,0,1,1.66-2c.79-.46,1.53-2,1.91-2.63s1.25-1.9,1.87-1.54a25.47,25.47,0,0,1,2.06,1.54A10.16,10.16,0,0,0,37.8,69a4.13,4.13,0,0,0,.43-1.37A8,8,0,0,1,38.75,69.86Z"/><path class="cls-6" d="M37.8,69a3.94,3.94,0,0,0,.42-1.3,1,1,0,0,0-.42-.33c-.64-.37-1.55.11-2.14.7a14,14,0,0,1-1.85,1.34c.69.48,1.63,1.25,1.63,1.25A10.16,10.16,0,0,0,37.8,69Z"/><path class="cls-7" d="M37.29,67.31a.84.84,0,0,1,.45.11,1.33,1.33,0,0,1,.36.26,3.86,3.86,0,0,1-.4,1.22,12.1,12.1,0,0,1-2.59,1.8l-1.46-1.13a19.15,19.15,0,0,0,2.09-1.47,2.53,2.53,0,0,1,1.55-.79Zm0-.12a2.55,2.55,0,0,0-1.63.83,20.49,20.49,0,0,1-2.21,1.54l1.64,1.28A13.26,13.26,0,0,0,37.8,69a3.94,3.94,0,0,0,.42-1.3,1,1,0,0,0-.42-.33,1,1,0,0,0-.51-.13Z"/><path class="cls-3" d="M38.75,69.86v.72s-.43.19-.92.45-1.12.07-1.41.35-.61.73-1,1.14a13,13,0,0,1-2.94,2.55c-3.11,1.35-4.06,1.15-4.36,0-.18-.67,1-2,1.67-2.34.46-.27.4-.36,1-1a5.66,5.66,0,0,0,.76-1.14,5.76,5.76,0,0,1,1.11-1.37.68.68,0,0,1,.76-.17l.27.17.16.12c.69.48,1.63,1.25,1.63,1.25A10.16,10.16,0,0,0,37.8,69a3.94,3.94,0,0,0,.42-1.3.32.32,0,0,0,0-.07,9.83,9.83,0,0,1,.38,1.26A4.63,4.63,0,0,1,38.75,69.86Z"/><path class="cls-4" d="M30.89,32.49s-.52-2.56-.7,10.47c-.11,8.54.59,10.37,1.54,12.76C33,59,32.11,69,32.11,69s2.14,2.21,3.79,1.36c3.39-1.75,2.6-3.57,2.6-3.57s.14-7.57-.9-11.36c-.38-1.38,1.29-7,1.61-10,1.07-10.31,1.67-3.27.11-9.08C38.69,34,30.89,32.49,30.89,32.49Z"/><path class="cls-8" d="M41.74,13.26A20.5,20.5,0,0,1,45,16.52c1.69,2.08,1.89,2.32,1.36,6.92s-1.6,3.67-1.6,6.85c0,.63,1.72,2.38,2.56,3.76s1.08,5.39,1.08,5.39,0,2.52-5.52,1.2S28.11,37,31,32c.79-1.38,1.49-1.91,1.13-3.82S30,13.52,31.86,12.48s5.63.26,7,.71A6,6,0,0,0,41.74,13.26Z"/><path class="cls-9" d="M35.12,19.26l.05,0,0-.29C35.12,19.13,35.12,19.26,35.12,19.26Z"/><path class="cls-10" d="M33.25,35.31s-1,3.77,1,6.11,2.67,2.52,3.18,2.82,2.84-.33,3-.48,2.34-6.6,2-6.77S33.25,35.31,33.25,35.31Z"/><path class="cls-11" d="M34.92,22.42s.45.95,1.41-.94-.47-4-.47-4,11.1-2.34,8.26-3.42-10.76-5.94-13.73-1c-2.51,4.18-2.28,6.8-1.74,9.16,1,4.28,1.69,5.26,1.69,6.09,0,1.41-.69,3.21-1,8.93s7,5.21,7,5.21l1.29-18.44Z"/><path class="cls-11" d="M46.71,30c-.6-1.4-.12-1.92-1.39-13.62-.42-3.85-1.88-3.48-1.88-3.48s-1.8,3.94-4.52,5.43-1.26.62-1.26.62l-.73-.84s-5.24-1.66-3.1,11.83c.48,3,0,12.24,0,12.24s14.8,2,15.2-3.59C49.28,35.21,47.31,31.38,46.71,30Z"/><path class="cls-12" d="M34.93,17c1-1.89.37-2.31,1.57-5.85,1-2.87-3.14-3-6.11,2-2.51,4.18-2.28,6.8-1.74,9.16,1,4.28,1.69,5.26,1.69,6.09,0,1.41-.69,3.21-1,8.93s7,5.21,7,5.21l-.23-16.67S34,18.88,34.93,17Z"/><path class="cls-12" d="M49.19,19.38c-.42-3.85-6.76-7.29-6.76-7.29s-.09,6-2.81,7.53-4.7,2.8-5.79,10.31c-.44,3,0,12.24,0,12.24s12.83,7.65,13.23,2.06C47.3,40.86,50.47,31.09,49.19,19.38Z"/><path class="cls-13" d="M35.29,13.48s1.56,2.29,1.55,3a3.74,3.74,0,0,0,.09,1.82c.29,1,2-.82,3.73-2a5.91,5.91,0,0,0,2.47-3.38,1.74,1.74,0,0,1-1.44-1.71C41.72,9.72,35.29,13.48,35.29,13.48Z"/><path class="cls-1" d="M41.69,11.16s-.39,4.05-2.43,6.07a4.78,4.78,0,0,1-2.33,1l.51,2A6.08,6.08,0,0,0,41,18.63,11.23,11.23,0,0,0,43.06,15,3.1,3.1,0,0,0,41.69,11.16Z"/><path class="cls-1" d="M36.84,16.44a23.11,23.11,0,0,0-1.55-3,13.44,13.44,0,0,1-.62,2.8c-.29.62.51,1.9.47,2.6l1.79-.62A2.72,2.72,0,0,0,36.84,16.44Z"/><path class="cls-2" d="M32.87,4s-1.25,2.93-.89,4,.72.38.53,1.57-.7,1.63,0,2.52,1.23,1,1,2.35,2,1.43,3.54.82,4.78-2.11,5.69-4,5-9.35-3.45-11.11C35.34-.7,32.87,4,32.87,4Z"/><path class="cls-14" d="M41,9.08s.6-.87,1-.51a1.53,1.53,0,0,1,.29,1.68C42,11,41.48,11.84,41,11.74s-.68-.05-.89-.49a1,1,0,0,1,0-.88Z"/><path class="cls-2" d="M40.82,9.11s.6-.87,1-.51a1.55,1.55,0,0,1,.29,1.69c-.27.73-.81,1.58-1.32,1.49s-.68,0-.89-.5a1,1,0,0,1,0-.87Z"/><path class="cls-15" d="M41.18,9.41s.08.48.11.68a1,1,0,0,1-.1.68,1.58,1.58,0,0,1-.25.22,6.5,6.5,0,0,0,.14-1.09,1.15,1.15,0,0,1,.18-.78c.17-.19.33-.46.49-.16A1.34,1.34,0,0,1,41.89,10a2.18,2.18,0,0,1-.63,1.12,1.49,1.49,0,0,1-.56.23,1.24,1.24,0,0,0,.83-.66c.21-.52.41-1.35.27-1.53s-.16-.2-.21,0,0,.52-.12.4-.1-.41-.2-.31S41.18,9.41,41.18,9.41Z"/><path class="cls-15" d="M40.91,10.29s0-.46-.09-.46-.12,0-.2.14-.11.19-.24.12-.21-.2-.12,0,.15,0,.33.19.08.35.21.39.11-.28.08-.37Z"/><path class="cls-16" d="M34.21,1.64s-2.84,2.21-1.93,2.91,4.45.64,6,1.81.55,4.89,1.32,4.16S41.4,7.74,42.18,8s-.71,5-.09,4.11,3.76-4.91,3-7.5S39.53-2.41,34.21,1.64Z"/><polygon class="cls-17" points="9.95 43.73 6.89 52.86 6.97 54.81 0 78.15 13.39 85.88 36.93 51.03 23.54 43.3 9.95 43.73"/><polygon class="cls-18" points="6.36 43.88 20.55 51.56 20.9 50.5 6.71 42.82 6.36 43.88"/><path class="cls-19" d="M11.16,64.16,9.81,61.83,11,61c.7-.48,1.53,0,1.7,1.35,0,.19.09.77.09.77Z"/><path class="cls-19" d="M13.06,66.72l2,0,0,1.63c-.06.95-.7,1.45-1.51.9L13,69Z"/><path class="cls-19" d="M12.33,64.59,14.17,66l1.67-1.16-.7,0,0-1.17C15,63.05,15,62.87,13.8,62l-1.55-1a1.91,1.91,0,0,1,.6,1.23L13,64.63Z"/><path class="cls-19" d="M12.27,67.65l-1.68,1.22.07,2.32.32-.71.74.53c.36.18.46.29,1.47-.51l1.26-.94a.82.82,0,0,1-.92-.11L12,68.38Z"/><path class="cls-19" d="M10.25,65.85,10,63.21l-2-1.3.48.81-.76.6c-.75.66-.21,1.88.59,2.42l.35.24,1.16-.88Z"/><path class="cls-19" d="M10.6,67.44l-.86,2.25-1.45-1a1.54,1.54,0,0,1-.58-1.15c-.06-.71-.34-2.9-.34-2.9a2,2,0,0,0,.75,1.11C9.14,66.49,10.6,67.44,10.6,67.44Z"/><polygon class="cls-20" points="39.19 50.73 25.96 43.1 27.55 42.24 40.77 49.88 39.19 50.73"/><polygon class="cls-21" points="39.19 50.73 25.96 43.1 26.81 42.64 40.04 50.28 39.19 50.73"/><polygon class="cls-22" points="19.75 51.61 40.34 50.92 40.69 49.86 20.1 50.55 19.75 51.61"/><path class="cls-23" d="M23.34,51.46l-3.06,9.13.08,1.95-7,23.33,6.05-.18,0,.13a11.37,11.37,0,0,1,2.75-4.44,5.94,5.94,0,0,1,3.71-1.92L36.93,51Z"/><polygon class="cls-24" points="6.89 52.86 20.28 60.59 20.41 62.4 6.97 54.81 6.89 52.86"/><path class="cls-25" d="M37.82,48.26,24.43,40.52S13.6,39.84,10.54,41a14.63,14.63,0,0,0-3.83,1.83L20.1,50.55Z"/><path class="cls-26" d="M37.24,50l.58-1.72s-10.83-.69-13.88.46a14.63,14.63,0,0,0-3.84,1.83Z"/><path class="cls-27" d="M24.86,78.79l-.06,0S24.86,78.79,24.86,78.79Z"/><path class="cls-28" d="M26,80.67c0,.11,0,.21,0,.33a7.34,7.34,0,0,1-3.31,5.71,4.26,4.26,0,0,1-.58.27l-.7.58-1-.6a2.28,2.28,0,0,1-1-2.14,7.29,7.29,0,0,1,3.31-5.71,2.49,2.49,0,0,1,2.11-.34l.06,0,.39.24.87.54.4,1.43Z"/><path class="cls-27" d="M25.25,79l-.39-.24A1.28,1.28,0,0,1,25.25,79Z"/><path class="cls-29" d="M27.1,81.64a7.29,7.29,0,0,1-3.31,5.71c-1.83,1.06-3.31.21-3.31-1.89a7.28,7.28,0,0,1,3.31-5.7C25.62,78.7,27.1,79.55,27.1,81.64Z"/><path class="cls-4" d="M26.29,82.11a4.2,4.2,0,0,1-.17,1.14,5.6,5.6,0,0,1-.47,1.14,5.1,5.1,0,0,1-1.86,2,1.64,1.64,0,0,1-2,0,1.5,1.5,0,0,1-.42-.65,2.57,2.57,0,0,1-.12-.82,5.63,5.63,0,0,1,2.11-4.06l.39-.26a3.14,3.14,0,0,1,.5-.23C25.43,80.06,26.29,80.72,26.29,82.11Z"/><path class="cls-30" d="M26.12,83.25a5.6,5.6,0,0,1-.47,1.14l-.4,0a4.11,4.11,0,0,0-3.16,1.8l-.26.32a1.5,1.5,0,0,1-.42-.65l.39-.48a6.9,6.9,0,0,0,1.6-4.08v-.32l.39-.26a3.14,3.14,0,0,1,.5-.23V81c0,1.29.6,2.14,1.57,2.23Z"/><path class="cls-18" d="M24.54,83.12a1.61,1.61,0,0,1-.75,1.29c-.41.24-.75,0-.75-.42a1.67,1.67,0,0,1,.75-1.3C24.21,82.45,24.54,82.64,24.54,83.12Z"/><path class="cls-1" d="M49.06,18.43c-1.29-.58-5.42,3.49-4.12,5.94s1.29,8.9,1.29,8.9L41,44.23s-1.19,1.11-.76,1.92,4.65,2.21,4.65,2.21,6.45-11.48,7.43-13S52.9,20.16,49.06,18.43Z"/><path class="cls-2" d="M42.32,46.93a2.35,2.35,0,0,0-1.5-.26c-1.13.19-3,.55-2.75.81S36.77,49,36,49.18s.38,1.28,1.66.64c1.06-.53,1.23-1,1.23-1s-2.27,3.26-1.6,3.26,2.47-.52,3.77-.52,3.85-3.18,3.85-3.18Z"/><polygon class="cls-19" points="34.73 27.37 29.37 24.28 29.37 22.69 34.73 25.78 34.73 27.37"/><polygon class="cls-19" points="41.89 31.22 36.53 28.13 36.53 26.54 41.89 29.63 41.89 31.22"/></g></g></svg>