<svg xmlns="http://www.w3.org/2000/svg" xmlns:xlink="http://www.w3.org/1999/xlink" viewBox="0 0 168.85 139.92"><defs><style>.cls-1{isolation:isolate;}.cls-2{fill:#c7ccd1;}.cls-2,.cls-22,.cls-39{mix-blend-mode:multiply;}.cls-3{fill:url(#Ѕезым_нный_градиент_1918);}.cls-4{fill:url(#Ѕезым_нный_градиент_1918-2);}.cls-5{fill:url(#Ѕезым_нный_градиент_1918-3);}.cls-6{fill:url(#Ѕезым_нный_градиент_1918-4);}.cls-7{fill:url(#Ѕезым_нный_градиент_1917);}.cls-8{fill:url(#Ѕезым_нный_градиент_1916);}.cls-9{fill:url(#Ѕезым_нный_градиент_1944);}.cls-10{fill:url(#Ѕезым_нный_градиент_1935);}.cls-11{fill:#6f4c16;mix-blend-mode:screen;}.cls-12{fill:#d29f22;}.cls-13{fill:#b4aebc;}.cls-14{fill:#d9d6dd;}.cls-15{fill:#d1e4f8;}.cls-16{fill:#cbc7d1;}.cls-17{fill:#6b5f7b;}.cls-18{fill:#86481a;}.cls-19{fill:#cfa941;}.cls-20{fill:url(#Ѕезым_нный_градиент_1915);}.cls-21{fill:#fff;}.cls-22{fill:#b1a0bd;}.cls-23{fill:#1d2461;}.cls-24{fill:#202352;}.cls-25{fill:#272d69;}.cls-26{fill:#3a3f76;}.cls-27{fill:#94a8c5;}.cls-28{fill:#1c1f41;}.cls-29{fill:#21254b;}.cls-30{fill:#82807f;}.cls-31{fill:#72683a;}.cls-32{fill:#4c59a0;}.cls-33{fill:#c4ddbd;}.cls-34{fill:#ff6d5e;}.cls-35{fill:#ccc;}.cls-36{fill:#ababab;}.cls-37{fill:#454543;}.cls-38{fill:#363634;}.cls-39{fill:#e3e5ef;}.cls-40{fill:#25242f;}.cls-41{fill:#393842;}.cls-42{fill:#cdc6bc;}.cls-43{fill:url(#Ѕезым_нный_градиент_5);}.cls-44{fill:#416d48;}.cls-45{fill:url(#Ѕезым_нный_градиент_5-2);}.cls-46{fill:#385e3e;}.cls-47{fill:#303c3e;}.cls-48{fill:#417a48;}.cls-49{fill:#518557;}.cls-50{fill:#414f52;}.cls-51{fill:#5d71a7;}.cls-52{fill:#556798;}.cls-53{fill:#5976b4;}.cls-54{fill:#789cdd;}.cls-55{fill:#5b4c51;}.cls-56{fill:#1b1b19;}.cls-57{fill:#6d88bf;}.cls-58{fill:#4d3d42;}.cls-59{fill:#54464b;}.cls-60{fill:#b71e1d;}.cls-61{fill:url(#Ѕезым_нный_градиент_1486);}.cls-62{fill:#960017;}.cls-63{fill:url(#Ѕезым_нный_градиент_1485);}.cls-64{fill:#a6011c;}.cls-65{fill:url(#Ѕезым_нный_градиент_1484);}.cls-66{fill:url(#Ѕезым_нный_градиент_1483);}.cls-67{fill:#de232d;}.cls-68{fill:#ed323b;}.cls-69{fill:url(#Ѕезым_нный_градиент_1510);}.cls-70{fill:#f5dadf;}.cls-71{fill:#80000d;}.cls-72{fill:#9f001c;}.cls-73{fill:#a391b1;}.cls-74{fill:url(#Ѕезым_нный_градиент_1486-2);}</style><linearGradient id="Ѕезым_нный_градиент_1918" x1="110.36" y1="38.43" x2="142.47" y2="45.99" gradientUnits="userSpaceOnUse"><stop offset="0" stop-color="#c8a541"/><stop offset="0.21" stop-color="#ddb13c"/><stop offset="0.37" stop-color="#eec037"/><stop offset="0.55" stop-color="#fbca34"/><stop offset="0.72" stop-color="#ffce33"/><stop offset="1" stop-color="#ffc935"/></linearGradient><linearGradient id="Ѕезым_нный_градиент_1918-2" x1="113.63" y1="24.55" x2="145.74" y2="32.12" xlink:href="#Ѕезым_нный_градиент_1918"/><linearGradient id="Ѕезым_нный_градиент_1918-3" x1="113.81" y1="23.76" x2="145.92" y2="31.33" gradientTransform="translate(163.9 -106.94) rotate(89.69)" xlink:href="#Ѕезым_нный_градиент_1918"/><linearGradient id="Ѕезым_нный_градиент_1918-4" x1="116.07" y1="14.19" x2="148.18" y2="21.76" xlink:href="#Ѕезым_нный_градиент_1918"/><linearGradient id="Ѕезым_нный_градиент_1917" x1="117.03" y1="10.11" x2="149.14" y2="17.68" gradientUnits="userSpaceOnUse"><stop offset="0" stop-color="#e0b23b"/><stop offset="0.72" stop-color="#ffce33"/><stop offset="1" stop-color="#ffc935"/></linearGradient><linearGradient id="Ѕезым_нный_градиент_1916" x1="130.79" y1="7.28" x2="144.24" y2="12.89" gradientUnits="userSpaceOnUse"><stop offset="0.01" stop-color="#f8c237"/><stop offset="0.72" stop-color="#ffce33"/><stop offset="1" stop-color="#ffc935"/></linearGradient><linearGradient id="Ѕезым_нный_градиент_1944" x1="106.37" y1="31.67" x2="155.81" y2="31.67" gradientUnits="userSpaceOnUse"><stop offset="0" stop-color="#c87e41"/><stop offset="0.28" stop-color="#dd9f3c"/><stop offset="0.33" stop-color="#e4a93a"/><stop offset="0.46" stop-color="#f3bd36"/><stop offset="0.59" stop-color="#fcca34"/><stop offset="0.72" stop-color="#ffce33"/><stop offset="1" stop-color="#ffc935"/></linearGradient><linearGradient id="Ѕезым_нный_градиент_1935" x1="115.32" y1="29.64" x2="150.37" y2="28.95" gradientUnits="userSpaceOnUse"><stop offset="0" stop-color="#c88b41"/><stop offset="0.28" stop-color="#dda73c"/><stop offset="0.29" stop-color="#dfa93c"/><stop offset="0.43" stop-color="#f1bd37"/><stop offset="0.58" stop-color="#fbca34"/><stop offset="0.72" stop-color="#ffce33"/><stop offset="1" stop-color="#ffc935"/></linearGradient><linearGradient id="Ѕезым_нный_градиент_1915" x1="113.32" y1="14.24" x2="113.93" y2="14.24" gradientUnits="userSpaceOnUse"><stop offset="0" stop-color="#c8a541"/><stop offset="0.28" stop-color="#ddb13c"/><stop offset="0.41" stop-color="#eec037"/><stop offset="0.57" stop-color="#fbca34"/><stop offset="0.72" stop-color="#ffce33"/><stop offset="1" stop-color="#ffc935"/></linearGradient><linearGradient id="Ѕезым_нный_градиент_5" x1="118.8" y1="122.05" x2="131.74" y2="92.33" gradientUnits="userSpaceOnUse"><stop offset="0.09" stop-color="#66bbe2"/><stop offset="0.38" stop-color="#6cbede"/><stop offset="0.9" stop-color="#73c1d9"/></linearGradient><linearGradient id="Ѕезым_нный_градиент_5-2" x1="118.35" y1="122.17" x2="140.86" y2="70.52" xlink:href="#Ѕезым_нный_градиент_5"/><linearGradient id="Ѕезым_нный_градиент_1486" x1="809.68" y1="100.12" x2="811.64" y2="100.12" gradientTransform="matrix(-1, 0, 0, 1, 852.28, 0)" gradientUnits="userSpaceOnUse"><stop offset="0.09" stop-color="#d7142d"/><stop offset="0.82" stop-color="#b1141d"/></linearGradient><linearGradient id="Ѕезым_нный_градиент_1485" x1="875.02" y1="130.16" x2="847.8" y2="130.16" gradientTransform="matrix(-1, 0, 0, 1, 919.7, 0)" gradientUnits="userSpaceOnUse"><stop offset="0.31" stop-color="#a6011c"/><stop offset="0.38" stop-color="#a7031c"/><stop offset="0.4" stop-color="#ab0a1c"/><stop offset="0.42" stop-color="#b1141d"/><stop offset="0.43" stop-color="#bd1921"/><stop offset="0.46" stop-color="#d12129"/><stop offset="0.49" stop-color="#de252d"/><stop offset="0.52" stop-color="#e2272f"/><stop offset="0.88" stop-color="#de202e"/><stop offset="0.9" stop-color="#d41b2b"/><stop offset="0.95" stop-color="#ba0d22"/><stop offset="0.97" stop-color="#a8041c"/></linearGradient><linearGradient id="Ѕезым_нный_градиент_1484" x1="875.02" y1="115.69" x2="847.8" y2="115.69" gradientTransform="matrix(-1, 0, 0, 1, 919.7, 0)" gradientUnits="userSpaceOnUse"><stop offset="0.31" stop-color="#a6011c"/><stop offset="0.38" stop-color="#a7031c"/><stop offset="0.4" stop-color="#ab0a1c"/><stop offset="0.42" stop-color="#b1141d"/><stop offset="0.43" stop-color="#bd1921"/><stop offset="0.46" stop-color="#d12129"/><stop offset="0.49" stop-color="#de252d"/><stop offset="0.52" stop-color="#e2272f"/><stop offset="0.89" stop-color="#de202e"/><stop offset="0.92" stop-color="#d41b2b"/><stop offset="0.97" stop-color="#ba0d22"/><stop offset="1" stop-color="#a8041c"/></linearGradient><linearGradient id="Ѕезым_нный_градиент_1483" x1="845.29" y1="103.52" x2="876.41" y2="103.52" gradientTransform="matrix(-1, 0, 0, 1, 919.7, 0)" gradientUnits="userSpaceOnUse"><stop offset="0.02" stop-color="#bb261e"/><stop offset="0.06" stop-color="#d42229"/><stop offset="0.08" stop-color="#de202e"/><stop offset="0.48" stop-color="#e2272f"/><stop offset="0.51" stop-color="#de252d"/><stop offset="0.54" stop-color="#d12129"/><stop offset="0.57" stop-color="#bd1921"/><stop offset="0.58" stop-color="#b1141d"/><stop offset="0.6" stop-color="#ab0a1c"/><stop offset="0.62" stop-color="#a7031c"/><stop offset="0.69" stop-color="#a6011c"/></linearGradient><linearGradient id="Ѕезым_нный_градиент_1510" x1="145.93" y1="100.83" x2="174.33" y2="100.83" gradientTransform="translate(-104.42)" gradientUnits="userSpaceOnUse"><stop offset="0.04" stop-color="#cb1e27"/><stop offset="0.46" stop-color="#c91d26"/><stop offset="0.5" stop-color="#c51a24"/><stop offset="0.54" stop-color="#b8111f"/><stop offset="0.58" stop-color="#a40117"/><stop offset="0.58" stop-color="#a20016"/><stop offset="0.6" stop-color="#a00017"/><stop offset="0.69" stop-color="#9e0017"/></linearGradient><linearGradient id="Ѕезым_нный_градиент_1486-2" x1="978.14" y1="100.22" x2="1008.69" y2="100.22" gradientTransform="matrix(-1, 0, 0, 1, 1049.33, 0)" xlink:href="#Ѕезым_нный_градиент_1486"/></defs><g class="cls-1"><g id="Слой_2" data-name="Слой 2"><g id="Layer_1" data-name="Layer 1"><path class="cls-2" d="M159.07,32.29c-13-7.5-34-7.53-46.86-.09s-12.83,19.56.15,27.06,34,7.53,46.86.08S172.05,39.78,159.07,32.29Z"/><path class="cls-3" d="M165.05,44.2v.07c.11,4.39-2.73,8.8-8.52,12.15a40.65,40.65,0,0,1-17.39,4.82,49.47,49.47,0,0,1-15-1.3A36.06,36.06,0,0,1,115,56.35c-5.73-3.31-8.61-7.63-8.66-11.94v0a10.5,10.5,0,0,1,.18-1.93,13.28,13.28,0,0,1,4.6-7.42,22.76,22.76,0,0,1,3.75-2.65A34.28,34.28,0,0,1,123.46,29c.7-.18,1.41-.35,2.12-.49a49.45,49.45,0,0,1,11.32-1,48.19,48.19,0,0,1,11,1.56,34.78,34.78,0,0,1,8.48,3.43,23,23,0,0,1,3.88,2.76,13.33,13.33,0,0,1,4.64,7.63v0a1.9,1.9,0,0,0,0,.25A5.26,5.26,0,0,1,165,44,1.49,1.49,0,0,1,165.05,44.2Z"/><path class="cls-4" d="M165.06,44.27h0l-26.56.06a.09.09,0,0,1-.07,0h-4.93l-9.05,0-18.07,0v0c0-.1.07-.81.18-1.93.47-5,1.81-17.9,3.34-20.59h0a16.76,16.76,0,0,1,6.3-5.71,44.51,44.51,0,0,1,12.73-4.76c1-.22,2-.42,3-.58,8.5-1.38,17.53-.69,23.6,3.43a15.47,15.47,0,0,1,6,7.61s0,0,0,0a18.35,18.35,0,0,1,.78,2.81c1.38,7.11,2.27,15,2.6,18.18v0a1.9,1.9,0,0,0,0,.25c0,.39.06.7.08.89a1.49,1.49,0,0,1,0,.17v0A.16.16,0,0,1,165.06,44.27Z"/><ellipse class="cls-5" cx="135.71" cy="28.93" rx="15.48" ry="26.81" transform="translate(106.05 164.48) rotate(-89.69)"/><path class="cls-6" d="M162.52,28.6v.48l-14.6,0L137,29l-11.49,0h-2.07l-14.55,0v-.47a25.59,25.59,0,0,1,1-6.58h0a25.54,25.54,0,0,1,3.41-7.3l.48-.67h0A25.2,25.2,0,0,1,117.32,10a26.75,26.75,0,0,1,3.83-2.87h0a27.25,27.25,0,0,1,3-1.57l.35-.16a25.37,25.37,0,0,1,3.9-1.26A4.54,4.54,0,0,1,129,4a.11.11,0,0,1,.08,0l.54-.1c.19-.05.39-.08.58-.11l.6-.09.59-.08c.36,0,.72-.08,1.08-.1l.64,0c.44,0,.88,0,1.32,0h2.94c.58,0,1.16,0,1.73.08l.49,0,.4,0a4.7,4.7,0,0,0,.51.06l.14,0c.37.05.73.11,1.09.18s.77.15,1.14.24a16.67,16.67,0,0,1,1.68.45l1.07.36.54.2,1,.43,1,.47a24.25,24.25,0,0,1,3.85,2.34L153,9c.29.23.58.47.86.72a25.46,25.46,0,0,1,7.7,12.11s0,0,0,0A25.81,25.81,0,0,1,162.52,28.6Z"/><path class="cls-7" d="M155.52,14.25a7.07,7.07,0,0,1-1,3.71h0a12.44,12.44,0,0,1-4.74,4.45,27.91,27.91,0,0,1-13,3.31,32.28,32.28,0,0,1-10.68-1.46,23.44,23.44,0,0,1-4.32-1.9,12.94,12.94,0,0,1-4.84-4.53,7.76,7.76,0,0,1-.71-1.67A7.06,7.06,0,0,1,117.32,10a26.75,26.75,0,0,1,3.83-2.87h0a27.25,27.25,0,0,1,3-1.57l.35-.16a25.37,25.37,0,0,1,3.9-1.26A4.54,4.54,0,0,1,129,4a.11.11,0,0,1,.08,0l.54-.1c.19-.05.39-.08.58-.11l.6-.09.59-.08c.36,0,.72-.08,1.08-.1l.64,0c.44,0,.88,0,1.32,0h2.94c.58,0,1.16,0,1.73.08l.49,0,.4,0a4.7,4.7,0,0,0,.51.06l.14,0c.37.05.73.11,1.09.18s.77.15,1.14.24q.84.2,1.68.45l1.07.36.54.2,1,.43,1,.47a27.24,27.24,0,0,1,3.85,2.34L153,9c.29.23.58.47.86.72A7.65,7.65,0,0,1,155.52,14.25Z"/><path class="cls-8" d="M140.48,6.58a10.56,10.56,0,0,0-9.56,0c-2.63,1.52-2.62,4,0,5.52a10.56,10.56,0,0,0,9.56,0C143.14,10.58,143.13,8.11,140.48,6.58Z"/><path class="cls-9" d="M137.36,3.42a13.28,13.28,0,0,0-3.18.63s-2.77.68-5.25,7.35c-.29.79-.59,1.68-.87,2.66a64.43,64.43,0,0,0-1.91,9.63c0,.18-.05.38-.08.57-.18,1.41-.34,2.81-.49,4.21,0,.17,0,.33,0,.5-.5,4.85-.82,9.6-1,14,0,.49,0,1-.06,1.43-.28,6.48-.3,12-.27,15.57A36.06,36.06,0,0,1,115,56.35c-5.73-3.31-8.61-7.63-8.66-11.94v0a10.5,10.5,0,0,1,.18-1.93c.47-5,1.81-17.9,3.34-20.59h0a25.54,25.54,0,0,1,3.41-7.3l.48-.67h0A25.2,25.2,0,0,1,117.32,10a26.75,26.75,0,0,1,3.83-2.87h0a27.25,27.25,0,0,1,3-1.57l.35-.16a25.37,25.37,0,0,1,3.9-1.26A4.54,4.54,0,0,1,129,4a.11.11,0,0,1,.08,0l.54-.1c.19-.05.39-.08.58-.11l.6-.09.59-.08c.36,0,.72-.08,1.08-.1l.64,0c.44,0,.88,0,1.32,0h2.94Z"/><path class="cls-10" d="M150.69,7.38l-.07,0h0l-.25-.12c-5.88-3.12-13.19-3.15-16.8-1.61-2.67,1.13-6,1.89-9.91,7.22-.6.82-1.22,1.74-1.85,2.8-.84,1.4-1.7,3-2.59,4.91A45.62,45.62,0,0,0,116.4,29c-.23,1-.45,2-.65,3-.43,2.19-.76,4.41-1,6.56s-.45,4.05-.6,5.91c-.48,6.37-.4,11.14-.4,11.14-4.86-3.18-7.3-7.15-7.35-11.12v0a9.7,9.7,0,0,1,.18-1.93c.47-5,1.81-17.9,3.34-20.59h0A25.5,25.5,0,0,1,117.33,10h0a25.6,25.6,0,0,1,6.88-4.44,3,3,0,0,1,.36-.16,24.9,24.9,0,0,1,3.89-1.26L129,4h.08l.54-.11c.2-.05.39-.08.59-.11l.59-.09.59-.08c.36,0,.72-.08,1.08-.1l.65,0c.43,0,.87,0,1.31,0H137c.7,0,1.39,0,2.08.09l.49,0,.41,0,.5.05.14,0c.37.05.73.11,1.1.18s.76.15,1.13.24c.57.12,1.12.28,1.67.45.36.11.73.23,1.08.36l.54.2,1,.43c.35.15.69.31,1,.48A24.53,24.53,0,0,1,150.69,7.38Z"/><path class="cls-11" d="M161.53,52.55a21.47,21.47,0,0,1-5,3.87,40.51,40.51,0,0,1-17.39,4.82c-.08-1.29-.5-8.7-1-16.89h0c-.35-5.27-.73-10.85-1.09-15.34,0-.52-.08-1-.13-1.52s-.09-1.21-.15-1.76c-.52-5.78-1.57-9.52-3-12.23a15.36,15.36,0,0,0-1.8-2.67,21.73,21.73,0,0,0-3.39-3.18c-2-1.6-4.71-1.65-7.36-.53C143.73-3,155.36,13,157.79,21.89,159.65,28.77,161,45.31,161.53,52.55Z"/><path class="cls-12" d="M134.18,7.06a2.28,2.28,0,0,0-2.05,0,.63.63,0,0,0,0,1.19,2.28,2.28,0,0,0,2.05,0A.62.62,0,0,0,134.18,7.06Z"/><path class="cls-13" d="M134.59,7.06a2.28,2.28,0,0,0-2.05,0,.63.63,0,0,0,0,1.19,2.28,2.28,0,0,0,2.05,0A.62.62,0,0,0,134.59,7.06Z"/><rect class="cls-13" x="132.11" y="7.23" width="2.9" height="0.41"/><path class="cls-14" d="M134.59,6.64a2.28,2.28,0,0,0-2.05,0c-.57.33-.57.86,0,1.18a2.28,2.28,0,0,0,2.05,0A.63.63,0,0,0,134.59,6.64Z"/><path class="cls-15" d="M134.25,6.81a1.53,1.53,0,0,0-1.38,0c-.38.22-.37.57,0,.79a1.53,1.53,0,0,0,1.38,0C134.63,7.39,134.63,7,134.25,6.81Z"/><rect class="cls-13" x="132.59" y="2.31" width="1.95" height="4.9"/><path class="cls-16" d="M134.25,1.91a1.53,1.53,0,0,0-1.38,0c-.38.22-.37.58,0,.8a1.53,1.53,0,0,0,1.38,0A.43.43,0,0,0,134.25,1.91Z"/><path class="cls-17" d="M134,2.06a1,1,0,0,0-.87,0,.26.26,0,0,0,0,.5,1,1,0,0,0,.87,0A.26.26,0,0,0,134,2.06Z"/><path class="cls-16" d="M134.54,1a2.16,2.16,0,0,0-1.95,0,.59.59,0,0,0,0,1.12,2.13,2.13,0,0,0,1.95,0A.6.6,0,0,0,134.54,1Z"/><polygon class="cls-16" points="133.56 0 132.35 1.21 134.76 1.2 133.56 0"/><path class="cls-14" d="M133.56.08a14.93,14.93,0,0,1,.53,2.17c.54-.15.6-.34.6-.34A7.68,7.68,0,0,0,133.56.08Z"/><path class="cls-18" d="M154.89,30.49a5.41,5.41,0,0,1-2.43,6.65,4.21,4.21,0,0,1-5.86-2.55A5.4,5.4,0,0,1,149,27.94,4.22,4.22,0,0,1,154.89,30.49Z"/><path class="cls-19" d="M154.89,30.49a4.56,4.56,0,0,0-2.56-2.7,4.83,4.83,0,0,1,1.54,2.12,5.41,5.41,0,0,1-2.43,6.65,4,4,0,0,1-3.3.15,4,4,0,0,0,4.32.43A5.41,5.41,0,0,0,154.89,30.49Z"/><path class="cls-20" d="M113.32,14.58c.15-.23.31-.45.47-.67A4.85,4.85,0,0,1,113.32,14.58Z"/><path class="cls-21" d="M155.11,46.48a.3.3,0,0,1,0,.25s0,0,0,0l-2.23,1-.13-1.92,1.4-.6Z"/><path class="cls-21" d="M150.35,46.62l-1.53.65a.27.27,0,0,1-.29,0l.77-2,1.41.46Z"/><path class="cls-21" d="M152,43.76l-1.91,1.35L149.55,43l.54.18.71-1.86a1.32,1.32,0,0,1,.64-.74l1.46-.62-1.4,3.68Z"/><path class="cls-21" d="M152.16,42.27l.66-1.75a.48.48,0,0,1,.23-.28h0s0,0,.05,0l1.26,1.66-1.28,1.6Z"/><path class="cls-21" d="M153.57,45.37l.28-2.53,2-.3-.49.61.61.8a1.07,1.07,0,0,1,.09,1l-.56,1.7-1.42-1.86Z"/><path class="cls-21" d="M151.09,46.51l-.05-.73,1.52,1.1-1.3,2.29,0-.73-1.4.59a.52.52,0,0,1-.69-.19l-.75-1.17Z"/><polygon class="cls-22" points="63.85 55.03 109.13 81.18 46.77 117.18 1.48 91.04 63.85 55.03"/><polygon class="cls-23" points="75.94 29.12 3.48 70.96 14.97 92.03 64.45 63.47 75.94 29.12"/><polygon class="cls-24" points="6.2 75.95 73.22 37.25 75.94 29.12 3.48 70.96 6.2 75.95"/><polygon class="cls-25" points="5.26 74.93 1.32 67.64 14.63 50.65 64.8 21.69 78.1 23.31 74.16 35.15 5.26 74.93"/><polygon class="cls-23" points="7.09 71.47 4.11 66.89 15.22 52.71 64.21 24.43 75.31 25.78 72.33 33.81 7.09 71.47"/><polygon class="cls-23" points="7.09 71.47 4.11 66.89 15.22 52.71 64.21 24.43 75.31 25.78 72.33 33.81 7.09 71.47"/><polygon class="cls-24" points="75.31 25.78 64.21 24.43 15.22 52.71 4.11 66.89 4.85 68.02 15.22 54.78 64.21 26.49 74.58 27.77 75.31 25.78"/><polygon class="cls-26" points="21.67 63.05 20.5 63.73 20.5 50.46 21.67 49.78 21.67 63.05"/><polygon class="cls-26" points="58.93 41.55 57.75 42.23 57.75 28.95 58.93 28.27 58.93 41.55"/><polygon class="cls-26" points="15.41 53.4 64.01 25.34 78.03 27.05 79.43 23.47 64.8 21.69 14.63 50.65 0 69.33 1.4 71.29 15.41 53.4"/><path class="cls-27" d="M63.86,61.77l1.44-.83Z"/><polygon class="cls-28" points="14.97 92.03 47.37 110.74 35.88 89.66 3.48 70.96 14.97 92.03"/><polygon class="cls-29" points="37.66 93.64 5.26 74.93 1.32 67.64 33.72 86.35 37.66 93.64"/><polygon class="cls-30" points="111.83 42.17 97.2 40.4 47.03 69.36 44.08 73.13 32.4 88.04 25.33 83.95 0 69.33 14.63 50.65 64.8 21.68 79.42 23.47 111.83 42.17"/><polygon class="cls-31" points="44.08 73.13 32.4 88.04 25.33 83.95 44.08 73.13"/><polygon class="cls-32" points="16.85 51.93 2.22 70.61 0 69.33 14.63 50.65 16.85 51.93"/><polygon class="cls-32" points="33.36 86.81 32.4 88.03 2.22 70.61 3.18 69.39 33.36 86.81"/><polygon class="cls-32" points="108.24 41.53 111.83 42.18 81.65 24.75 78.53 24.37 108.24 41.53"/><polygon class="cls-32" points="47.03 69.36 32.4 88.03 30.18 86.75 44.81 68.07 47.03 69.36"/><polygon class="cls-32" points="97.2 40.39 47.03 69.36 44.81 68.07 94.97 39.11 97.2 40.39"/><polygon class="cls-32" points="111.83 42.18 97.2 40.39 94.97 39.11 109.61 40.9 111.83 42.18"/><polygon class="cls-32" points="67.02 22.97 16.85 51.93 14.63 50.65 64.8 21.69 67.02 22.97"/><polygon class="cls-32" points="81.65 24.75 67.02 22.97 64.8 21.69 79.43 23.47 81.65 24.75"/><polygon class="cls-23" points="108.34 47.83 35.88 89.66 47.37 110.74 96.85 82.17 108.34 47.83"/><polygon class="cls-24" points="38.6 94.65 105.62 55.96 108.34 47.83 35.88 89.66 38.6 94.65"/><polygon class="cls-25" points="37.66 93.64 33.72 86.35 47.03 69.36 97.2 40.39 110.5 42.02 106.56 53.86 37.66 93.64"/><polygon class="cls-23" points="39.5 90.18 36.51 85.6 47.62 71.42 96.61 43.13 107.72 44.49 104.73 52.52 39.5 90.18"/><polygon class="cls-23" points="39.5 90.18 36.51 85.6 47.62 71.42 96.61 43.13 107.72 44.49 104.73 52.52 39.5 90.18"/><polygon class="cls-26" points="105.9 44.27 103.17 51.61 38.64 88.86 39.5 90.18 104.73 52.52 107.72 44.49 105.9 44.27"/><polygon class="cls-24" points="107.72 44.49 96.61 43.13 47.62 71.42 36.51 85.6 37.25 86.73 47.62 73.48 96.61 45.2 106.98 46.47 107.72 44.49"/><polygon class="cls-26" points="54.08 81.76 52.9 82.44 52.9 69.17 54.08 68.49 54.08 81.76"/><polygon class="cls-25" points="51.72 81.76 52.9 82.44 52.9 69.17 51.72 68.49 51.72 81.76"/><polygon class="cls-25" points="88.98 60.25 90.15 60.93 90.15 47.66 88.98 46.98 88.98 60.25"/><polygon class="cls-26" points="91.33 60.25 90.15 60.93 90.15 47.66 91.33 46.98 91.33 60.25"/><polygon class="cls-26" points="47.82 72.1 96.41 44.05 110.43 45.76 111.83 42.18 97.2 40.39 47.03 69.35 32.4 88.03 33.8 90 47.82 72.1"/><polygon class="cls-33" points="102.98 57.77 95.26 80.85 96.26 80.82 103.98 57.74 102.98 57.77"/><polygon class="cls-34" points="102.1 60.42 102.61 58.88 103.98 57.74 103.46 59.28 102.1 60.42"/><polygon class="cls-34" points="100.96 63.83 101.47 62.29 102.84 61.15 102.33 62.69 100.96 63.83"/><polygon class="cls-34" points="99.82 67.23 100.33 65.69 101.7 64.55 101.19 66.09 99.82 67.23"/><polygon class="cls-34" points="98.68 70.64 99.19 69.09 100.56 67.95 100.05 69.5 98.68 70.64"/><polygon class="cls-34" points="97.54 74.04 98.06 72.5 99.42 71.36 98.91 72.9 97.54 74.04"/><polygon class="cls-34" points="96.4 77.44 96.92 75.9 98.29 74.76 97.77 76.31 96.4 77.44"/><polygon class="cls-34" points="95.26 80.85 95.78 79.31 97.15 78.17 96.63 79.71 95.26 80.85"/><polygon class="cls-33" points="41.24 93.42 48.96 107.58 47.97 108.7 40.25 94.54 41.24 93.42"/><polygon class="cls-34" points="42.13 95.05 41.62 94.1 40.25 94.54 40.76 95.48 42.13 95.05"/><polygon class="cls-34" points="43.27 97.13 42.75 96.19 41.39 96.63 41.9 97.57 43.27 97.13"/><polygon class="cls-34" points="44.41 99.22 43.89 98.28 42.52 98.72 43.04 99.66 44.41 99.22"/><polygon class="cls-34" points="45.55 101.31 45.03 100.37 43.66 100.81 44.18 101.75 45.55 101.31"/><polygon class="cls-34" points="46.69 103.4 46.17 102.46 44.8 102.89 45.32 103.84 46.69 103.4"/><polygon class="cls-34" points="47.83 105.49 47.31 104.55 45.94 104.98 46.46 105.93 47.83 105.49"/><polygon class="cls-34" points="48.96 107.58 48.45 106.63 47.08 107.07 47.59 108.02 48.96 107.58"/><path class="cls-35" d="M68.14,91.39a.54.54,0,0,0,0,.39s0,0,0,0l3.54-2V86.88L69.5,88.15Z"/><path class="cls-35" d="M75.48,84.38,77.91,83a1.2,1.2,0,0,0,.45-.47L77,80.8l-2.13,2.79Z"/><path class="cls-35" d="M72.61,82.91l3.07-1L76.36,78l-.81,1.06-1.27-1.55a.79.79,0,0,0-1.07-.06l-2.3,1.33,2.51,3.07Z"/><path class="cls-35" d="M72.27,81l-1.18-1.48a.28.28,0,0,0-.39,0h0a.16.16,0,0,0-.08.06l-1.78,4.24,2.13.33Z"/><path class="cls-35" d="M70.4,87.5l-.68-3.14-3.07,2.56.81.13-.86,2a1.67,1.67,0,0,0,0,1.51l1,1.55,2-4.78Z"/><path class="cls-35" d="M74.34,85.35V84.24l-2.23,3.85,2.23,1.26v-1.1L76.56,87a2.62,2.62,0,0,0,1-1.31l1.05-2.8Z"/><path class="cls-27" d="M96.26,80.48l1.44-.84Z"/><polygon class="cls-25" points="1.4 71.29 33.8 90 32.4 88.03 0 69.33 1.4 71.29"/><polygon class="cls-36" points="78.53 24.37 68.42 54.44 94.97 39.11 106.49 40.52 78.53 24.37"/><path class="cls-37" d="M87.46,43.46,44.82,68.08l-9.37,12h0l-4.27,5.46L11.21,74a7.38,7.38,0,0,1,5.63-4.22C21.05,69.19,32,55.88,32,55.88s9.87-5.93,14-7,13.75-2.64,13.75-2.64l7.82-6.38.88-.72,5.25-.25s8.51.42,10.26,2.08A13.91,13.91,0,0,0,87.46,43.46Z"/><path class="cls-38" d="M62.7,45.26a78.28,78.28,0,0,1-8.48,5.91c-2.86,1.58-5.74,2.16-8.9,2.85a15.41,15.41,0,0,0-11.23,10.6c-.36,1.24-.64,2.66-1.72,3.38a5.13,5.13,0,0,1-2.44.61A18.32,18.32,0,0,0,24.6,70c-1.22.52-2.55,1.52-2.27,2.82a3.09,3.09,0,0,0,1,1.5,24.12,24.12,0,0,1,3.55,3.88c.83,1.28.69,1.58,2.32,1.86a41.26,41.26,0,0,0,6.19,0l-4.27,5.46L11.21,74a7.38,7.38,0,0,1,5.63-4.22C21.05,69.19,32,55.88,32,55.88s9.87-5.93,14-7,13.75-2.64,13.75-2.64l7.82-6.38S63.15,44.93,62.7,45.26Z"/><polygon class="cls-39" points="118.23 84.27 148.3 101.63 112.89 122.08 82.82 104.72 118.23 84.27"/><path class="cls-40" d="M111.42,118.55a4.21,4.21,0,0,1,1.91-3.28,1.35,1.35,0,0,1,1.35-.13h0l.83.53-2.81,4.57-.72-.46h0A1.34,1.34,0,0,1,111.42,118.55Z"/><path class="cls-41" d="M112.2,119.05c0,1.21.85,1.69,1.9,1.08a4.16,4.16,0,0,0,1.91-3.28c0-1.2-.85-1.69-1.91-1.08A4.17,4.17,0,0,0,112.2,119.05Z"/><path class="cls-42" d="M112.74,118.74c0,.86.61,1.21,1.36.78a3,3,0,0,0,1.37-2.36c0-.86-.61-1.21-1.37-.78A3,3,0,0,0,112.74,118.74Z"/><path class="cls-40" d="M137.93,103.14a4.19,4.19,0,0,1,1.91-3.28,1.32,1.32,0,0,1,1.35-.13h0l.82.53-2.8,4.57-.72-.47h0A1.31,1.31,0,0,1,137.93,103.14Z"/><path class="cls-41" d="M138.71,103.64c0,1.2.85,1.69,1.9,1.08a4.18,4.18,0,0,0,1.91-3.28c0-1.2-.86-1.69-1.91-1.08A4.17,4.17,0,0,0,138.71,103.64Z"/><path class="cls-42" d="M139.25,103.33c0,.86.61,1.21,1.36.78a3,3,0,0,0,1.37-2.36c0-.86-.61-1.21-1.37-.78A3,3,0,0,0,139.25,103.33Z"/><path class="cls-40" d="M95,106.5a5.19,5.19,0,0,0-2.36-4.07,1.66,1.66,0,0,0-1.68-.16h0l-1,.66,3.47,5.67.9-.57h0A1.63,1.63,0,0,0,95,106.5Z"/><path class="cls-41" d="M94.06,107.12c0,1.5-1.06,2.1-2.36,1.35a5.21,5.21,0,0,1-2.37-4.08c0-1.49,1.06-2.1,2.37-1.34A5.2,5.2,0,0,1,94.06,107.12Z"/><path class="cls-42" d="M93.39,106.73c0,1.08-.76,1.51-1.69,1a3.73,3.73,0,0,1-1.7-2.92c0-1.08.76-1.51,1.7-1A3.75,3.75,0,0,1,93.39,106.73Z"/><polygon class="cls-43" points="111.14 116.31 138.16 100.71 138.92 99.17 111.9 114.77 111.14 116.31"/><path class="cls-35" d="M100.5,103.8a.24.24,0,0,0,0,.22.11.11,0,0,0,0,0l2.07,1.2v-1.7l-1.3-.75Z"/><path class="cls-35" d="M104.81,104.67l1.43.82a.27.27,0,0,0,.27,0l-.82-1.94-1.25.19Z"/><path class="cls-35" d="M103.12,101.85l1.81,1.51.4-1.85-.48.08-.75-1.78a1.63,1.63,0,0,0-.62-.76l-1.36-.78,1.48,3.51Z"/><path class="cls-35" d="M102.93,100.5l-.7-1.67a.58.58,0,0,0-.23-.29h0l0,0-1,1.29,1.25,1.64Z"/><path class="cls-35" d="M101.83,103.05l-.4-2.3-1.81-.58.48.62-.51.62a.94.94,0,0,0,0,.86l.6,1.6,1.18-1.44Z"/><path class="cls-35" d="M104.14,104.46v-.65l-1.31.75,1.31,2.26v-.65l1.31.75c.25.14.48.12.61-.07l.61-.93Z"/><polygon class="cls-44" points="143.5 78.12 141.9 100.89 138.92 99.17 138.16 100.71 122.86 91.88 122.11 89.46 119.14 87.75 117.54 63.13 143.5 78.12"/><polygon class="cls-45" points="141.9 100.89 114.88 116.49 116.48 93.72 143.5 78.12 141.9 100.89"/><polygon class="cls-46" points="117.54 63.13 117.63 64.46 131.36 72.39 137.19 78.73 143.22 82.21 143.35 80.26 137.19 76.7 130.99 70.37 117.54 63.13"/><path class="cls-47" d="M132.86,82.08l-3.73-2.16a1.6,1.6,0,0,1-.67-1.28V69.43l5.07,2.93v9.21C133.53,82.06,133.23,82.29,132.86,82.08Z"/><path class="cls-48" d="M140.83,68.34c-5.93-8.63-14.68-13.68-20.62-11.91-1.56.47-2.66,3.65-2.66,6.7h0l26,15h0A18.76,18.76,0,0,0,140.83,68.34Z"/><path class="cls-44" d="M118.47,62.65c.21-2.54,1.17-4.77,2.28-5.1,2.72-.81,6.19-.12,9.77,2a31.42,31.42,0,0,1,9.78,9.34,16.6,16.6,0,0,1,2.28,7.73Z"/><polygon class="cls-48" points="137.89 73.44 116.66 61.18 116.66 62.62 137.89 74.88 137.89 73.44"/><polygon class="cls-48" points="143.63 80.2 137.19 76.48 137.19 77.46 143.63 81.18 143.63 80.2"/><polygon class="cls-48" points="137.55 76.77 131.69 70.3 131.34 70.99 137.19 77.46 137.55 76.77"/><path class="cls-49" d="M123.17,60.4l-1.78,4.53,8,13.47c.86,1.42,2.17,2.28,3.13,2.06h0c1.26-.3,1.41-2.29.32-4.16l-4.44-7.6,1.2-1.56Z"/><path class="cls-50" d="M131.65,77.61c0,.49-.35.69-.78.44a1.7,1.7,0,0,1-.77-1.33c0-.5.35-.69.77-.45A1.72,1.72,0,0,1,131.65,77.61Z"/><polygon class="cls-49" points="145.02 81.22 140.2 76.05 139.21 77.31 118.38 55.35 117.57 54.46 117.04 55.66 139.54 79.37 140.52 77.98 145.32 83.14 145.67 81.87 145.02 81.22"/><polygon class="cls-51" points="111.44 88.55 90.21 76.29 89.64 76.78 111.44 89.99 111.44 88.55"/><polygon class="cls-51" points="116.48 93.72 114.88 116.49 111.9 114.77 111.14 116.31 95.83 107.48 95.08 105.06 92.12 103.35 90.52 78.73 116.48 93.72"/><polygon class="cls-52" points="90.52 78.73 90.6 80.06 104.33 87.99 110.16 94.33 116.19 97.81 116.33 95.86 110.16 92.3 103.97 85.97 90.52 78.73"/><path class="cls-47" d="M105.83,97.68l-3.72-2.15a1.6,1.6,0,0,1-.68-1.29V85L106.51,88v9.21C106.51,97.67,106.2,97.89,105.83,97.68Z"/><path class="cls-53" d="M113.81,83.94C107.87,75.31,99.13,70.26,93.19,72c-1.56.47-2.67,3.66-2.67,6.71h0l26,15h0A18.85,18.85,0,0,0,113.81,83.94Z"/><path class="cls-51" d="M91.45,78.25c.2-2.54,1.16-4.76,2.28-5.1,2.72-.81,6.19-.12,9.77,1.95a31.5,31.5,0,0,1,9.77,9.34,16.6,16.6,0,0,1,2.29,7.73Z"/><path class="cls-54" d="M92.28,77.48a9.25,9.25,0,0,1,1.28-4.26c-1,.5-1.92,2.63-2.11,5l24.11,13.92c0-.44-.08-.88-.13-1.33Z"/><polygon class="cls-53" points="110.87 89.04 89.64 76.78 89.64 78.22 110.87 90.48 110.87 89.04"/><polygon class="cls-48" points="116.61 95.8 110.16 92.08 110.16 93.06 116.61 96.78 116.61 95.8"/><polygon class="cls-48" points="110.52 92.38 104.67 85.91 104.31 86.59 110.16 93.06 110.52 92.38"/><polygon class="cls-54" points="118.65 97.47 116.74 95.55 113.17 91.66 112.18 92.91 91.35 70.95 90.55 70.06 117.57 54.46 139.21 77.31 140.2 76.05 145.67 81.87 118.65 97.47"/><path class="cls-55" d="M118.47,55c2.56-1.62,9.35-.71,16.38,5.91,8.45,7.94,10.39,13.54,9.47,20.75L118.5,96.53,116.07,88,92.46,70S118.13,55.19,118.47,55Z"/><path class="cls-56" d="M91.86,70.66c1.53-2.55,9.19-2.38,17.17,5.12,8.46,7.94,10.39,13.55,9.47,20.75l-4.83-5-.5.1-.48,1Z"/><path class="cls-54" d="M96.14,76l-1.78,4.53,8,13.47c.86,1.42,2.17,2.29,3.13,2.06h0c1.26-.3,1.41-2.29.31-4.16l-4.43-7.6,1.2-1.56Z"/><path class="cls-50" d="M104.63,93.21c0,.49-.35.69-.78.44a1.68,1.68,0,0,1-.77-1.33c0-.49.34-.69.77-.44A1.69,1.69,0,0,1,104.63,93.21Z"/><path class="cls-57" d="M95.2,76.69l-1.78,4.53,8,13.47c.86,1.42,2.17,2.28,3.14,2.06h0c1.25-.3,1.4-2.29.31-4.16L100.39,85l1.2-1.56Z"/><path class="cls-50" d="M103.68,93.9c0,.49-.35.69-.77.44a1.69,1.69,0,0,1-.78-1.33c0-.5.35-.69.78-.45A1.74,1.74,0,0,1,103.68,93.9Z"/><polygon class="cls-57" points="118 96.83 113.17 91.66 112.18 92.91 91.35 70.95 90.55 70.06 90.01 71.26 112.51 94.98 113.49 93.58 118.3 98.74 118.65 97.47 118 96.83"/><polygon class="cls-57" points="145.32 83.14 118.3 98.74 118.65 97.47 145.67 81.87 145.32 83.14"/><path class="cls-58" d="M142.05,79.52l-1.8,1c-.12-5.63-2.65-10.61-9.67-17.21-4.75-4.46-9.39-6.33-12.68-6.56l1.8-1.05c3.3.25,7.93,2.11,12.68,6.57C139.4,68.89,141.92,73.88,142.05,79.52Z"/><path class="cls-59" d="M140.32,80.06c-.32-5.74-3.19-10.67-9.77-16.85-3.81-3.58-8-5.91-11.77-6.53l.72-.42c1.9.16,6.67,1.13,12.33,6.46,6.57,6.17,9.35,11,9.55,16.72Z"/><path class="cls-58" d="M137.23,82.3l-1.8,1c-.13-5.63-2.65-10.62-9.67-17.22-4.75-4.46-9.39-6.32-12.69-6.56l1.8-1c3.3.24,7.94,2.1,12.69,6.57C134.58,71.69,137.11,76.67,137.23,82.3Z"/><path class="cls-59" d="M135.5,82.84c-.32-5.74-3.19-10.67-9.77-16.85-3.81-3.58-8-5.91-11.78-6.53l.72-.41c1.9.16,6.68,1.13,12.35,6.45,6.57,6.18,9.35,11,9.54,16.73Z"/><path class="cls-58" d="M132.41,85.08l-1.8,1c-.13-5.62-2.65-10.61-9.67-17.21-4.75-4.47-9.39-6.33-12.68-6.57l1.8-1c3.29.24,7.93,2.11,12.68,6.57C129.76,74.47,132.28,79.46,132.41,85.08Z"/><path class="cls-59" d="M130.67,85.63c-.31-5.74-3.18-10.67-9.76-16.85-3.81-3.58-8-5.91-11.78-6.53l.73-.42c1.89.16,6.66,1.13,12.33,6.46,6.57,6.17,9.35,11,9.55,16.72Z"/><path class="cls-58" d="M127.59,87.87l-1.8,1c-.13-5.63-2.65-10.62-9.67-17.21-4.76-4.47-9.39-6.34-12.69-6.57l1.8-1c3.3.24,7.93,2.1,12.69,6.56C124.94,77.25,127.46,82.24,127.59,87.87Z"/><path class="cls-59" d="M125.85,88.41c-.31-5.73-3.18-10.66-9.76-16.85-3.81-3.58-8-5.91-11.78-6.53l.72-.42c1.9.17,6.67,1.14,12.34,6.46,6.57,6.18,9.35,11,9.55,16.73Z"/><path class="cls-58" d="M122.77,90.65l-1.8,1c-.13-5.63-2.65-10.62-9.68-17.21-4.75-4.47-9.39-6.33-12.68-6.57l1.8-1c3.29.24,7.93,2.1,12.68,6.57C120.12,80,122.64,85,122.77,90.65Z"/><path class="cls-59" d="M121,91.19c-.31-5.73-3.18-10.66-9.77-16.85-3.81-3.57-8-5.9-11.77-6.53l.72-.41c1.9.16,6.67,1.12,12.34,6.46,6.57,6.17,9.35,11,9.55,16.72Z"/><path class="cls-2" d="M57.26,139.63l15.1-8.71c.72-.42.63-1.16-.21-1.64l-13.26-7.66a3.17,3.17,0,0,0-2.84-.12L41,130.22c-.73.42-.64,1.16.2,1.64l13.26,7.65A3.14,3.14,0,0,0,57.26,139.63Z"/><polygon class="cls-60" points="46.31 132.36 47.28 132.16 46.71 118.88 46.31 118.93 46.31 132.36"/><polygon class="cls-61" points="40.64 98.85 40.64 101.38 41.54 100.89 42.6 99.4 40.64 98.85"/><polygon class="cls-62" points="54.59 123.43 46.71 118.88 47.28 132.16 55.16 136.71 54.59 123.43"/><path class="cls-63" d="M56.83,122.7l-5.31,3.06v9.61l3.86,2.22a1.2,1.2,0,0,0,1.1,0l13.13-7.58a.32.32,0,0,0,.18-.27.43.43,0,0,0-.27-.36l-11.58-6.7A1.24,1.24,0,0,0,56.83,122.7Z"/><path class="cls-64" d="M43.52,130.54v0c0,.12.09.24.27.35l2.52,1.45v-3.59l-2.6,1.51A.33.33,0,0,0,43.52,130.54Z"/><polygon class="cls-65" points="42.32 101.58 43.52 130.54 43.52 130.56 46.31 130.47 46.31 118.93 51.52 121.94 51.52 130.33 69.79 129.79 70.99 100.83 42.32 101.58"/><path class="cls-62" d="M42.44,104.16l4.69-2.71,19.6-.51,4.15,2.4-.15,3.31-13.47,7.78a3.18,3.18,0,0,1-2.84-.12l-11.83-6.83Z"/><path class="cls-66" d="M40.47,101.55l1.65,0,13.93-7.06a3.17,3.17,0,0,1,2.84.12l11,6.32,3-.06v2.33h0a.85.85,0,0,1-.48.71l-15.1,8.71a3.14,3.14,0,0,1-2.84-.12l-2-1.16-.7-1.47-10.55-6.09a1.14,1.14,0,0,1-.68-.94h0Z"/><path class="cls-67" d="M72.36,101.55l-15.1,8.71a3.17,3.17,0,0,1-2.84-.11l-13.26-7.66c-.83-.49-.93-1.22-.2-1.64l.07,0L56,92.18l.08-.05a3.17,3.17,0,0,1,2.84.12l13.26,7.66C73,100.39,73.08,101.13,72.36,101.55Z"/><path class="cls-68" d="M72,101.34l-14.78,8.54a3.11,3.11,0,0,1-2.78-.12l-13-7.49c-.82-.48-.91-1.2-.21-1.61l.08,0L56,92.17l.09,0a3.11,3.11,0,0,1,2.78.11l13,7.5C72.65,100.21,72.74,100.93,72,101.34Z"/><path class="cls-69" d="M70.85,100.63a.4.4,0,0,1-.21.41L57,108.94a1.32,1.32,0,0,1-.54.09,2,2,0,0,1-.91-.21l-12.85-7.43a.42.42,0,0,1,0-.73l13.59-7.84a1.39,1.39,0,0,1,1.42,0C60.5,94.47,70.84,100.51,70.85,100.63Z"/><path class="cls-62" d="M63.58,106.62,66.44,105c.71-.41.79-1,.19-1.37l-.22-.13L61,106.6l.22.12A2.67,2.67,0,0,0,63.58,106.62Z"/><path class="cls-70" d="M65.85,120.94a.25.25,0,0,1,0,.21s0,0,0,0l-2,1.15.1-1.65,1.24-.72Z"/><path class="cls-70" d="M61.81,121.74l-1.36.79a.24.24,0,0,1-.25,0l.86-1.89,1.15.2Z"/><path class="cls-70" d="M63.53,119l-1.76,1.44-.26-1.8.43.08.79-1.72a1.62,1.62,0,0,1,.62-.73l1.3-.75-1.56,3.4Z"/><path class="cls-70" d="M63.78,117.7l.73-1.62a.58.58,0,0,1,.23-.27h0s0,0,0,0l.9,1.26-1.24,1.58Z"/><path class="cls-70" d="M64.66,120.2l.5-2.24,1.7-.55-.47.6.43.6a.92.92,0,0,1,0,.84L66.15,121l-1-1.42Z"/><path class="cls-70" d="M62.44,121.54l0-.63,1.17.74-1.33,2.18,0-.63-1.25.72c-.24.14-.45.12-.56-.07l-.52-.91Z"/><polygon class="cls-71" points="43.47 105.07 44.78 106.78 45.45 106.22 43.47 105.07"/><polygon class="cls-71" points="47.19 107.22 48.5 108.93 49.17 108.36 47.19 107.22"/><polygon class="cls-72" points="42.92 104.76 44.23 106.47 44.78 106.78 43.47 105.07 42.92 104.76"/><polygon class="cls-72" points="46.64 106.91 47.95 108.61 48.5 108.93 47.19 107.22 46.64 106.91"/><path class="cls-40" d="M45.15,130.93a4.27,4.27,0,0,0-1.95-3.35,1.38,1.38,0,0,0-1.38-.14h0L41,128l2.86,4.67.74-.47h0A1.35,1.35,0,0,0,45.15,130.93Z"/><path class="cls-41" d="M44.35,131.44c0,1.23-.87,1.73-1.94,1.11a4.29,4.29,0,0,1-1.94-3.36c0-1.23.87-1.72,1.94-1.1A4.29,4.29,0,0,1,44.35,131.44Z"/><path class="cls-73" d="M43.8,131.12c0,.88-.62,1.24-1.39.8A3.09,3.09,0,0,1,41,129.51c0-.88.62-1.24,1.39-.79A3.06,3.06,0,0,1,43.8,131.12Z"/><path class="cls-74" d="M56.36,109a1.17,1.17,0,0,0,.55-.1L71,100.82a.47.47,0,0,0,.22-.43c0-.14,0-1.18,0-1.18L56.41,91.64a2,2,0,0,0-.94-.22,1.17,1.17,0,0,0-.55.1L40.86,99.63a.46.46,0,0,0,0,.78l.08,0,14.48,8.36A2,2,0,0,0,56.36,109Z"/><path class="cls-68" d="M56.36,107.84a1.32,1.32,0,0,0,.55-.1L71,99.62a.45.45,0,0,0,0-.77L56.41,90.44a2.1,2.1,0,0,0-.94-.22,1.17,1.17,0,0,0-.55.1L40.86,98.44a.45.45,0,0,0,0,.77l14.56,8.41A2.07,2.07,0,0,0,56.36,107.84Z"/></g></g></g></svg>