<?xml version="1.0" encoding="utf-8"?>
<!-- Generator: Adobe Illustrator 24.2.3, SVG Export Plug-In . SVG Version: 6.00 Build 0)  -->
<svg version="1.1" id="Слой_1" xmlns:svgjs="http://svgjs.com/svgjs"
	 xmlns="http://www.w3.org/2000/svg" xmlns:xlink="http://www.w3.org/1999/xlink" x="0px" y="0px" viewBox="0 0 512 512"
	 style="enable-background:new 0 0 512 512;" xml:space="preserve">
<style type="text/css">
	.st0{fill:#4CAF50;}
</style>
<g>
	<g>
		<path class="st0" d="M405.4,408.2c-4.4-3.3-10.6-2.5-13.9,1.9c-3.3,4.4-2.5,10.6,1.9,13.9l17,13c1.8,1.4,3.9,2,6,2
			c2.7,0,5.4-1.1,7.4-3.3l32.4-35.8c3.7-4.1,3.4-10.3-0.7-14c-4.1-3.7-10.3-3.4-14,0.7l-26.3,29L405.4,408.2z"/>
		<path class="st0" d="M510.8,355.2c-0.1-5.1-4-9.2-9.1-9.7c-23.6-2.1-52.6-17.9-74-40.4c-1.9-2-4.5-3.1-7.2-3.1c0,0,0,0,0,0
			c-2.7,0-5.3,1.1-7.2,3.1c-9.6,10.1-20.7,18.8-32.2,25.6c-20.1-22.5-44.9-39.1-74-49.5c-0.3-0.1-0.5-0.2-0.8-0.3
			c-2.3-0.8-4.6-1.6-6.9-2.3c24.6-24.5,41.1-56.7,41.1-85.6v-15.6c11.6-5.1,19.8-16.7,19.8-30.1c0-14-8.8-26-21.2-30.7
			c-5.1-49.5-40-91.1-87.9-104.9C249.9,5.1,243.9,0,236.8,0h-36c-6.9,0-12.7,4.7-14.4,11.1c-23.6,6.3-45.1,19.7-61.2,38.4
			C108.8,68.4,98.6,92,96.1,116.7c-12.4,4.7-21.2,16.7-21.2,30.7c0,13.5,8.2,25.1,19.8,30.1v15.6c0,28.9,16.5,61.1,41.1,85.6
			c-2.2,0.7-4.5,1.4-6.7,2.2c-0.4,0.1-0.9,0.3-1.3,0.5c-32.5,11.7-59.7,31.2-80.9,58C26.5,365.1,11.9,397,3.7,434
			c-2.9,13.2-5.1,29.9,3.9,41.1c8.8,11,24.6,12.4,37.3,12.4h64.9c5.5,0,9.9-4.4,9.9-9.9c0-5.5-4.4-9.9-9.9-9.9H44.9
			c-11.9,0-19.2-1.7-21.9-5c-2.8-3.5-2.8-11.7,0-24.4c10.3-46.4,35.5-103.3,96.3-132c-1.9,33.5,16.3,55.4,27.8,69.3
			c1.8,2.1,4.3,3.4,7.1,3.6c2.8,0.2,5.5-0.9,7.4-2.8l55.9-54.4l55.9,54.4c1.9,1.8,4.3,2.8,6.9,2.8c0.2,0,0.4,0,0.5,0
			c2.8-0.1,5.3-1.4,7.1-3.6c11.5-13.9,29.7-35.8,27.8-69.3c17.6,8.4,33.2,19.5,46.6,33.5c-8,3.1-15.9,5.1-23.2,5.7
			c-5,0.4-8.9,4.6-9.1,9.7c-0.8,35.5,5.1,60.9,21.1,90.6c0.1,0.3,5.5,9.9,14,21.8H199.7c-5.5,0-9.9,4.4-9.9,9.9
			c0,5.5,4.4,9.9,9.9,9.9h181.4c12,13.2,26.1,24.5,39.4,24.5c32.3,0,68.8-65.5,69.2-66.1C505.7,416.1,511.6,390.7,510.8,355.2
			L510.8,355.2z M319,114.6h-54.6c-10.3-27-12.3-49.2-12.6-81.8C287.5,45.4,313.5,77,319,114.6L319,114.6z M205.8,19.8h26
			c0.1,38.4,1,64.4,11.4,94.7h-48.9C204.8,84.3,205.7,58.2,205.8,19.8z M185.9,32c-0.3,33.1-2.2,55.4-12.6,82.6h-57
			C122,76.5,149.4,44.1,185.9,32L185.9,32z M107.7,134.4h66.4c0.6,0.5,1.1,0.5,1.6,0h151.9c7.1,0,13,5.8,13,13c0,7.2-5.8,13-13,13
			H107.7c-7.2,0-13-5.8-13-13C94.7,140.2,100.6,134.4,107.7,134.4z M114.5,193.1v-12.9h206.3v12.9c0,37.8-36.6,84.6-78.4,100.1
			c-18.3,6.8-31.3,6.8-49.6,0C151.1,277.6,114.5,230.8,114.5,193.1L114.5,193.1z M155.7,354.6c-10.3-13.4-20.2-31-15.4-56.6
			c4.4-1.4,8.9-2.7,13.6-3.8c10,7.3,20.8,13.4,32,17.5c3.6,1.3,7.1,2.4,10.5,3.4L155.7,354.6z M279.6,354.6L239,315.1
			c3.3-0.9,6.8-2,10.3-3.3c11.2-4.2,22.1-10.2,32.1-17.6c4.6,1.1,9.2,2.4,13.6,3.8C299.8,323.6,289.9,341.2,279.6,354.6L279.6,354.6
			z M472.2,436.5c-11.7,21.9-39.2,55.7-51.7,55.7s-39.9-33.8-51.7-55.7c-13.1-24.4-18.5-44.7-18.8-72.4c10.7-2,21.8-6,32.8-11.6
			c0.4-0.2,0.8-0.4,1.1-0.6c12.8-6.7,25.3-15.5,36.5-25.9c21.1,19.7,46.9,33.6,70.5,38.1C490.7,391.8,485.3,412.1,472.2,436.5
			L472.2,436.5z"/>
		<path class="st0" d="M154.8,467.7c-5.5,0-9.9,4.4-9.9,9.9c0,5.5,4.4,9.9,9.9,9.9h0.1c5.5,0,9.9-4.4,9.9-9.9
			C164.7,472.1,160.2,467.7,154.8,467.7z"/>
	</g>
</g>
</svg>
